<svg width="1482" height="1482" viewBox="0 0 1482 1482" fill="none" xmlns="http://www.w3.org/2000/svg">
<g clip-path="url(#clip0_2284_3)">
<path d="M1482 0H0V1482H1482V0Z" fill="white"/>
<path d="M741.002 1283.41C1040.57 1283.41 1283.41 1040.57 1283.41 741C1283.41 441.434 1040.57 198.588 741.002 198.588C441.436 198.588 198.59 441.434 198.59 741C198.59 1040.57 441.436 1283.41 741.002 1283.41Z" fill="#F2E6DC"/>
<path d="M266.906 883.349L363.621 865.791L235.008 827.104C211.106 773.392 203.168 722.659 203.168 722.659C203.168 722.659 226.146 721.348 259.111 724.676L317.75 823.267L312.372 733.414C339.65 739.753 368.695 749.656 395.275 765.085C399.014 767.254 402.597 769.507 406.036 771.832L418.177 907.723L453.532 821.625C476.301 860.851 474.623 903.592 454.344 928.355C423.238 966.338 343.293 968.644 282.633 902.632C277.033 896.539 271.801 890.069 266.906 883.349Z" fill="#8B865C"/>
<path d="M259.109 724.676C275.022 726.282 293.259 728.972 312.371 733.414L317.75 823.267L259.109 724.676Z" fill="#776E42"/>
<path d="M406.035 771.832C427.422 786.291 443.061 803.585 453.531 821.624L418.176 907.722L406.035 771.832Z" fill="#776E42"/>
<path d="M266.905 883.349C254.017 865.651 243.502 846.191 235.008 827.104L363.62 865.79L266.905 883.349Z" fill="#776E42"/>
<path d="M481.347 1057.82C481.06 1057.82 480.807 1057.61 480.762 1057.32C473.052 1007.17 453.961 958.747 425.551 917.272C402.021 882.92 372.572 853.472 338.023 829.744C337.753 829.559 337.685 829.19 337.87 828.92C338.055 828.65 338.425 828.582 338.694 828.767C373.364 852.577 402.916 882.129 426.53 916.602C455.04 958.222 474.198 1006.82 481.934 1057.14C481.984 1057.46 481.762 1057.76 481.439 1057.81C481.408 1057.82 481.377 1057.82 481.347 1057.82Z" fill="#776E42"/>
<path d="M438.148 852.803L499.567 880.801L439.313 800.989C444.18 754.224 457.155 716.114 457.155 716.114C457.155 716.114 470.759 724.729 488.478 740.664L487.996 832.619L515.946 768.718C529.369 784.364 542.574 803.19 552.46 824.786C553.851 827.823 555.124 830.854 556.289 833.873L516.313 932.174L566.28 887.719C565.767 924.071 550.047 952.713 529.89 961.312C498.97 974.502 452.417 942.98 440.491 872.551C439.39 866.051 438.629 859.443 438.148 852.803Z" fill="#776E42"/>
<path d="M488.478 740.665C497.032 748.357 506.54 757.755 515.945 768.718L487.996 832.619L488.478 740.665Z" fill="#8B865C"/>
<path d="M556.292 833.874C563.54 852.655 566.519 871.002 566.283 887.719L516.316 932.174L556.292 833.874Z" fill="#8B865C"/>
<path d="M438.15 852.803C436.884 835.319 437.586 817.608 439.316 800.99L499.569 880.802L438.15 852.803Z" fill="#8B865C"/>
<path d="M500.846 1061.54C500.783 1061.54 500.717 1061.53 500.654 1061.51C500.344 1061.41 500.179 1061.07 500.285 1060.76C513.187 1023.15 518.981 982.013 517.042 941.784C515.437 908.463 508.752 876.06 497.171 845.472C497.056 845.166 497.21 844.824 497.516 844.708C497.824 844.593 498.164 844.746 498.28 845.053C509.904 875.756 516.615 908.282 518.226 941.727C520.172 982.105 514.357 1023.4 501.407 1061.14C501.323 1061.39 501.092 1061.54 500.846 1061.54Z" fill="#776E42"/>
<path d="M418.312 1181.01H576.141V1007.32H418.312V1181.01Z" fill="#363E44"/>
<path d="M1269.65 629.014H514.957V1201.04H1269.65V629.014Z" fill="#E6D0BE"/>
<path d="M1245.98 1131.49V652.691L538.636 652.691L538.636 1131.49H1245.98Z" fill="white"/>
<path d="M906.298 1166.09C907.781 1158.39 902.738 1150.94 895.034 1149.46C887.329 1147.97 879.881 1153.02 878.397 1160.72C876.914 1168.43 881.957 1175.87 889.661 1177.36C897.366 1178.84 904.814 1173.8 906.298 1166.09Z" fill="white"/>
<path d="M1269.65 1216.55C1269.65 1249.29 1243.11 1275.83 1210.37 1275.83H419.309C386.569 1275.83 360.027 1249.29 360.027 1216.55H1269.65Z" fill="#E6D0BE"/>
<path d="M1071 1270.28C1070.68 1270.28 1070.41 1270.02 1070.41 1269.69C1070.41 1269.36 1070.68 1269.1 1071 1269.1C1096.59 1269.1 1117.41 1248.28 1117.41 1222.69C1117.41 1222.37 1117.67 1222.1 1118 1222.1C1118.33 1222.1 1118.59 1222.37 1118.59 1222.69C1118.59 1248.93 1097.24 1270.28 1071 1270.28Z" fill="#F2E6DC"/>
<path d="M794.37 1230.56C794.37 1244.47 783.091 1255.75 769.179 1255.75H680.495C666.583 1255.75 655.305 1244.47 655.305 1230.56H794.37Z" fill="#F2E6DC"/>
<path d="M1208.61 942.439H1205.05C1204.73 942.439 1204.46 942.173 1204.46 941.846C1204.46 941.519 1204.73 941.253 1205.05 941.253H1208.02V938.289C1208.02 937.962 1208.28 937.696 1208.61 937.696C1208.94 937.696 1209.2 937.962 1209.2 938.289V941.846C1209.2 942.174 1208.94 942.439 1208.61 942.439Z" fill="#E6D0BE"/>
<path d="M1197.94 942.439H1190.84C1190.51 942.439 1190.24 942.173 1190.24 941.846C1190.24 941.519 1190.51 941.253 1190.84 941.253H1197.94C1198.27 941.253 1198.54 941.519 1198.54 941.846C1198.54 942.173 1198.27 942.439 1197.94 942.439ZM1183.73 942.439H1176.62C1176.29 942.439 1176.03 942.173 1176.03 941.846C1176.03 941.519 1176.29 941.253 1176.62 941.253H1183.73C1184.05 941.253 1184.32 941.519 1184.32 941.846C1184.32 942.173 1184.05 942.439 1183.73 942.439ZM1169.51 942.439H1162.4C1162.08 942.439 1161.81 942.173 1161.81 941.846C1161.81 941.519 1162.08 941.253 1162.4 941.253H1169.51C1169.84 941.253 1170.1 941.519 1170.1 941.846C1170.1 942.173 1169.84 942.439 1169.51 942.439ZM1155.3 942.439H1148.19C1147.86 942.439 1147.59 942.173 1147.59 941.846C1147.59 941.519 1147.86 941.253 1148.19 941.253H1155.3C1155.62 941.253 1155.89 941.519 1155.89 941.846C1155.89 942.173 1155.62 942.439 1155.3 942.439ZM1141.08 942.439H1133.97C1133.64 942.439 1133.38 942.173 1133.38 941.846C1133.38 941.519 1133.64 941.253 1133.97 941.253H1141.08C1141.41 941.253 1141.67 941.519 1141.67 941.846C1141.67 942.173 1141.41 942.439 1141.08 942.439ZM1126.86 942.439H1119.76C1119.43 942.439 1119.16 942.173 1119.16 941.846C1119.16 941.519 1119.43 941.253 1119.76 941.253H1126.86C1127.19 941.253 1127.46 941.519 1127.46 941.846C1127.46 942.173 1127.19 942.439 1126.86 942.439ZM1112.65 942.439H1105.54C1105.21 942.439 1104.95 942.173 1104.95 941.846C1104.95 941.519 1105.21 941.253 1105.54 941.253H1112.65C1112.98 941.253 1113.24 941.519 1113.24 941.846C1113.24 942.173 1112.97 942.439 1112.65 942.439ZM1098.43 942.439H1091.32C1091 942.439 1090.73 942.173 1090.73 941.846C1090.73 941.519 1091 941.253 1091.32 941.253H1098.43C1098.76 941.253 1099.02 941.519 1099.02 941.846C1099.02 942.173 1098.76 942.439 1098.43 942.439ZM1084.22 942.439H1077.11C1076.78 942.439 1076.52 942.173 1076.52 941.846C1076.52 941.519 1076.78 941.253 1077.11 941.253H1084.22C1084.54 941.253 1084.81 941.519 1084.81 941.846C1084.81 942.173 1084.54 942.439 1084.22 942.439ZM1070 942.439H1062.89C1062.56 942.439 1062.3 942.173 1062.3 941.846C1062.3 941.519 1062.56 941.253 1062.89 941.253H1070C1070.33 941.253 1070.59 941.519 1070.59 941.846C1070.59 942.173 1070.33 942.439 1070 942.439ZM1055.78 942.439H1048.68C1048.35 942.439 1048.08 942.173 1048.08 941.846C1048.08 941.519 1048.35 941.253 1048.68 941.253H1055.78C1056.11 941.253 1056.38 941.519 1056.38 941.846C1056.38 942.173 1056.11 942.439 1055.78 942.439ZM1041.57 942.439H1034.46C1034.13 942.439 1033.87 942.173 1033.87 941.846C1033.87 941.519 1034.13 941.253 1034.46 941.253H1041.57C1041.89 941.253 1042.16 941.519 1042.16 941.846C1042.16 942.173 1041.89 942.439 1041.57 942.439ZM1027.35 942.439H1020.24C1019.92 942.439 1019.65 942.173 1019.65 941.846C1019.65 941.519 1019.92 941.253 1020.24 941.253H1027.35C1027.68 941.253 1027.94 941.519 1027.94 941.846C1027.94 942.173 1027.68 942.439 1027.35 942.439ZM1013.14 942.439H1006.03C1005.7 942.439 1005.43 942.173 1005.43 941.846C1005.43 941.519 1005.7 941.253 1006.03 941.253H1013.14C1013.46 941.253 1013.73 941.519 1013.73 941.846C1013.73 942.173 1013.46 942.439 1013.14 942.439ZM998.92 942.439H991.812C991.484 942.439 991.219 942.173 991.219 941.846C991.219 941.519 991.484 941.253 991.812 941.253H998.92C999.248 941.253 999.513 941.519 999.513 941.846C999.513 942.173 999.248 942.439 998.92 942.439Z" fill="#E6D0BE"/>
<path d="M984.704 942.439H981.147C980.82 942.439 980.555 942.173 980.555 941.846V938.289C980.555 937.962 980.82 937.696 981.147 937.696C981.475 937.696 981.74 937.962 981.74 938.289V941.253H984.704C985.032 941.253 985.297 941.519 985.297 941.846C985.297 942.173 985.032 942.439 984.704 942.439Z" fill="#E6D0BE"/>
<path d="M981.147 931.774C980.82 931.774 980.555 931.508 980.555 931.181V924.074C980.555 923.746 980.82 923.481 981.147 923.481C981.475 923.481 981.74 923.746 981.74 924.074V931.181C981.74 931.508 981.475 931.774 981.147 931.774ZM981.147 917.558C980.82 917.558 980.555 917.293 980.555 916.965V909.858C980.555 909.53 980.82 909.265 981.147 909.265C981.475 909.265 981.74 909.53 981.74 909.858V916.965C981.74 917.293 981.475 917.558 981.147 917.558ZM981.147 903.342C980.82 903.342 980.555 903.077 980.555 902.749V895.642C980.555 895.314 980.82 895.049 981.147 895.049C981.475 895.049 981.74 895.314 981.74 895.642V902.749C981.74 903.077 981.475 903.342 981.147 903.342ZM981.147 889.126C980.82 889.126 980.555 888.861 980.555 888.533V881.425C980.555 881.098 980.82 880.832 981.147 880.832C981.475 880.832 981.74 881.098 981.74 881.425V888.533C981.74 888.861 981.475 889.126 981.147 889.126ZM981.147 874.91C980.82 874.91 980.555 874.645 980.555 874.317V867.21C980.555 866.883 980.82 866.617 981.147 866.617C981.475 866.617 981.74 866.883 981.74 867.21V874.317C981.74 874.645 981.475 874.91 981.147 874.91ZM981.147 860.694C980.82 860.694 980.555 860.429 980.555 860.102V852.994C980.555 852.667 980.82 852.401 981.147 852.401C981.475 852.401 981.74 852.667 981.74 852.994V860.102C981.74 860.429 981.475 860.694 981.147 860.694ZM981.147 846.478C980.82 846.478 980.555 846.213 980.555 845.886V838.777C980.555 838.45 980.82 838.185 981.147 838.185C981.475 838.185 981.74 838.45 981.74 838.777V845.886C981.74 846.213 981.475 846.478 981.147 846.478ZM981.147 832.262C980.82 832.262 980.555 831.997 980.555 831.67V824.561C980.555 824.234 980.82 823.969 981.147 823.969C981.475 823.969 981.74 824.234 981.74 824.561V831.67C981.74 831.997 981.475 832.262 981.147 832.262ZM981.147 818.046C980.82 818.046 980.555 817.78 980.555 817.453V810.345C980.555 810.018 980.82 809.753 981.147 809.753C981.475 809.753 981.74 810.018 981.74 810.345V817.453C981.74 817.781 981.475 818.046 981.147 818.046ZM981.147 803.831C980.82 803.831 980.555 803.565 980.555 803.238V796.13C980.555 795.802 980.82 795.537 981.147 795.537C981.475 795.537 981.74 795.802 981.74 796.13V803.238C981.74 803.565 981.475 803.831 981.147 803.831ZM981.147 789.614C980.82 789.614 980.555 789.348 980.555 789.021V781.913C980.555 781.586 980.82 781.32 981.147 781.32C981.475 781.32 981.74 781.586 981.74 781.913V789.021C981.74 789.349 981.475 789.614 981.147 789.614ZM981.147 775.398C980.82 775.398 980.555 775.133 980.555 774.805V767.698C980.555 767.37 980.82 767.105 981.147 767.105C981.475 767.105 981.74 767.37 981.74 767.698V774.805C981.74 775.133 981.475 775.398 981.147 775.398ZM981.147 761.182C980.82 761.182 980.555 760.917 980.555 760.589V753.481C980.555 753.154 980.82 752.888 981.147 752.888C981.475 752.888 981.74 753.154 981.74 753.481V760.589C981.74 760.917 981.475 761.182 981.147 761.182ZM981.147 746.966C980.82 746.966 980.555 746.701 980.555 746.373V739.265C980.555 738.938 980.82 738.672 981.147 738.672C981.475 738.672 981.74 738.938 981.74 739.265V746.373C981.74 746.701 981.475 746.966 981.147 746.966ZM981.147 732.75C980.82 732.75 980.555 732.485 980.555 732.157V725.05C980.555 724.723 980.82 724.457 981.147 724.457C981.475 724.457 981.74 724.723 981.74 725.05V732.157C981.74 732.485 981.475 732.75 981.147 732.75Z" fill="#E6D0BE"/>
<path d="M981.147 718.534C980.82 718.534 980.555 718.269 980.555 717.942V714.385C980.555 714.058 980.82 713.792 981.147 713.792H984.704C985.032 713.792 985.297 714.058 985.297 714.385C985.297 714.712 985.032 714.978 984.704 714.978H981.74V717.942C981.74 718.269 981.475 718.534 981.147 718.534Z" fill="#E6D0BE"/>
<path d="M1197.94 714.978H1190.83C1190.51 714.978 1190.24 714.712 1190.24 714.385C1190.24 714.058 1190.51 713.792 1190.83 713.792H1197.94C1198.27 713.792 1198.54 714.058 1198.54 714.385C1198.54 714.712 1198.27 714.978 1197.94 714.978ZM1183.73 714.978H1176.62C1176.29 714.978 1176.03 714.712 1176.03 714.385C1176.03 714.058 1176.29 713.792 1176.62 713.792H1183.73C1184.05 713.792 1184.32 714.058 1184.32 714.385C1184.32 714.712 1184.05 714.978 1183.73 714.978ZM1169.51 714.978H1162.4C1162.08 714.978 1161.81 714.712 1161.81 714.385C1161.81 714.058 1162.08 713.792 1162.4 713.792H1169.51C1169.84 713.792 1170.1 714.058 1170.1 714.385C1170.1 714.712 1169.84 714.978 1169.51 714.978ZM1155.3 714.978H1148.19C1147.86 714.978 1147.59 714.712 1147.59 714.385C1147.59 714.058 1147.86 713.792 1148.19 713.792H1155.3C1155.62 713.792 1155.89 714.058 1155.89 714.385C1155.89 714.712 1155.62 714.978 1155.3 714.978ZM1141.08 714.978H1133.97C1133.64 714.978 1133.38 714.712 1133.38 714.385C1133.38 714.058 1133.64 713.792 1133.97 713.792H1141.08C1141.41 713.792 1141.67 714.058 1141.67 714.385C1141.67 714.712 1141.41 714.978 1141.08 714.978ZM1126.86 714.978H1119.76C1119.43 714.978 1119.16 714.712 1119.16 714.385C1119.16 714.058 1119.43 713.792 1119.76 713.792H1126.86C1127.19 713.792 1127.46 714.058 1127.46 714.385C1127.46 714.712 1127.19 714.978 1126.86 714.978ZM1112.65 714.978H1105.54C1105.21 714.978 1104.95 714.712 1104.95 714.385C1104.95 714.058 1105.21 713.792 1105.54 713.792H1112.65C1112.98 713.792 1113.24 714.058 1113.24 714.385C1113.24 714.712 1112.97 714.978 1112.65 714.978ZM1098.43 714.978H1091.32C1091 714.978 1090.73 714.712 1090.73 714.385C1090.73 714.058 1091 713.792 1091.32 713.792H1098.43C1098.76 713.792 1099.02 714.058 1099.02 714.385C1099.02 714.712 1098.76 714.978 1098.43 714.978ZM1084.22 714.978H1077.11C1076.78 714.978 1076.52 714.712 1076.52 714.385C1076.52 714.058 1076.78 713.792 1077.11 713.792H1084.22C1084.54 713.792 1084.81 714.058 1084.81 714.385C1084.81 714.712 1084.54 714.978 1084.22 714.978ZM1070 714.978H1062.89C1062.56 714.978 1062.3 714.712 1062.3 714.385C1062.3 714.058 1062.56 713.792 1062.89 713.792H1070C1070.33 713.792 1070.59 714.058 1070.59 714.385C1070.59 714.712 1070.33 714.978 1070 714.978ZM1055.78 714.978H1048.68C1048.35 714.978 1048.08 714.712 1048.08 714.385C1048.08 714.058 1048.35 713.792 1048.68 713.792H1055.78C1056.11 713.792 1056.38 714.058 1056.38 714.385C1056.38 714.712 1056.11 714.978 1055.78 714.978ZM1041.57 714.978H1034.46C1034.13 714.978 1033.87 714.712 1033.87 714.385C1033.87 714.058 1034.13 713.792 1034.46 713.792H1041.57C1041.89 713.792 1042.16 714.058 1042.16 714.385C1042.16 714.712 1041.89 714.978 1041.57 714.978ZM1027.35 714.978H1020.24C1019.92 714.978 1019.65 714.712 1019.65 714.385C1019.65 714.058 1019.92 713.792 1020.24 713.792H1027.35C1027.68 713.792 1027.94 714.058 1027.94 714.385C1027.94 714.712 1027.68 714.978 1027.35 714.978ZM1013.14 714.978H1006.03C1005.7 714.978 1005.43 714.712 1005.43 714.385C1005.43 714.058 1005.7 713.792 1006.03 713.792H1013.14C1013.46 713.792 1013.73 714.058 1013.73 714.385C1013.73 714.712 1013.46 714.978 1013.14 714.978ZM998.919 714.978H991.812C991.484 714.978 991.219 714.712 991.219 714.385C991.219 714.058 991.484 713.792 991.812 713.792H998.919C999.247 713.792 999.512 714.058 999.512 714.385C999.512 714.712 999.247 714.978 998.919 714.978Z" fill="#E6D0BE"/>
<path d="M1208.61 718.534C1208.28 718.534 1208.02 718.269 1208.02 717.942V714.978H1205.05C1204.73 714.978 1204.46 714.712 1204.46 714.385C1204.46 714.058 1204.73 713.792 1205.05 713.792H1208.61C1208.94 713.792 1209.2 714.058 1209.2 714.385V717.942C1209.2 718.269 1208.94 718.534 1208.61 718.534Z" fill="#E6D0BE"/>
<path d="M1208.61 931.774C1208.28 931.774 1208.02 931.508 1208.02 931.181V924.074C1208.02 923.746 1208.28 923.481 1208.61 923.481C1208.94 923.481 1209.2 923.746 1209.2 924.074V931.181C1209.2 931.508 1208.94 931.774 1208.61 931.774ZM1208.61 917.558C1208.28 917.558 1208.02 917.293 1208.02 916.965V909.857C1208.02 909.53 1208.28 909.264 1208.61 909.264C1208.94 909.264 1209.2 909.53 1209.2 909.857V916.965C1209.2 917.293 1208.94 917.558 1208.61 917.558ZM1208.61 903.342C1208.28 903.342 1208.02 903.077 1208.02 902.749V895.641C1208.02 895.314 1208.28 895.048 1208.61 895.048C1208.94 895.048 1209.2 895.314 1209.2 895.641V902.749C1209.2 903.077 1208.94 903.342 1208.61 903.342ZM1208.61 889.126C1208.28 889.126 1208.02 888.861 1208.02 888.533V881.426C1208.02 881.099 1208.28 880.833 1208.61 880.833C1208.94 880.833 1209.2 881.099 1209.2 881.426V888.533C1209.2 888.861 1208.94 889.126 1208.61 889.126ZM1208.61 874.91C1208.28 874.91 1208.02 874.645 1208.02 874.317V867.209C1208.02 866.882 1208.28 866.616 1208.61 866.616C1208.94 866.616 1209.2 866.882 1209.2 867.209V874.317C1209.2 874.645 1208.94 874.91 1208.61 874.91ZM1208.61 860.694C1208.28 860.694 1208.02 860.429 1208.02 860.102V852.993C1208.02 852.666 1208.28 852.4 1208.61 852.4C1208.94 852.4 1209.2 852.666 1209.2 852.993V860.102C1209.2 860.429 1208.94 860.694 1208.61 860.694ZM1208.61 846.478C1208.28 846.478 1208.02 846.213 1208.02 845.886V838.778C1208.02 838.451 1208.28 838.185 1208.61 838.185C1208.94 838.185 1209.2 838.451 1209.2 838.778V845.886C1209.2 846.213 1208.94 846.478 1208.61 846.478ZM1208.61 832.262C1208.28 832.262 1208.02 831.997 1208.02 831.67V824.561C1208.02 824.234 1208.28 823.969 1208.61 823.969C1208.94 823.969 1209.2 824.234 1209.2 824.561V831.67C1209.2 831.997 1208.94 832.262 1208.61 832.262ZM1208.61 818.046C1208.28 818.046 1208.02 817.781 1208.02 817.454V810.345C1208.02 810.018 1208.28 809.753 1208.61 809.753C1208.94 809.753 1209.2 810.018 1209.2 810.345V817.454C1209.2 817.781 1208.94 818.046 1208.61 818.046ZM1208.61 803.831C1208.28 803.831 1208.02 803.565 1208.02 803.238V796.13C1208.02 795.803 1208.28 795.537 1208.61 795.537C1208.94 795.537 1209.2 795.803 1209.2 796.13V803.238C1209.2 803.565 1208.94 803.831 1208.61 803.831ZM1208.61 789.614C1208.28 789.614 1208.02 789.348 1208.02 789.021V781.914C1208.02 781.586 1208.28 781.321 1208.61 781.321C1208.94 781.321 1209.2 781.586 1209.2 781.914V789.021C1209.2 789.349 1208.94 789.614 1208.61 789.614ZM1208.61 775.398C1208.28 775.398 1208.02 775.133 1208.02 774.805V767.697C1208.02 767.37 1208.28 767.104 1208.61 767.104C1208.94 767.104 1209.2 767.37 1209.2 767.697V774.805C1209.2 775.133 1208.94 775.398 1208.61 775.398ZM1208.61 761.182C1208.28 761.182 1208.02 760.917 1208.02 760.589V753.482C1208.02 753.155 1208.28 752.889 1208.61 752.889C1208.94 752.889 1209.2 753.155 1209.2 753.482V760.589C1209.2 760.917 1208.94 761.182 1208.61 761.182ZM1208.61 746.966C1208.28 746.966 1208.02 746.701 1208.02 746.373V739.266C1208.02 738.939 1208.28 738.673 1208.61 738.673C1208.94 738.673 1209.2 738.939 1209.2 739.266V746.373C1209.2 746.701 1208.94 746.966 1208.61 746.966ZM1208.61 732.75C1208.28 732.75 1208.02 732.485 1208.02 732.157V725.05C1208.02 724.723 1208.28 724.457 1208.61 724.457C1208.94 724.457 1209.2 724.723 1209.2 725.05V732.157C1209.2 732.485 1208.94 732.75 1208.61 732.75Z" fill="#E6D0BE"/>
<path d="M1182.04 688.436H937.688V918.128H1182.04V688.436Z" fill="#E6D0BE"/>
<path d="M1162.76 709.338H954.426V791.524H1162.76V709.338Z" fill="#F2E6DC"/>
<path d="M1162.76 816.945H1111.47C1111.14 816.945 1110.88 816.68 1110.88 816.353C1110.88 816.025 1111.14 815.76 1111.47 815.76H1162.76C1163.09 815.76 1163.35 816.025 1163.35 816.353C1163.35 816.68 1163.09 816.945 1162.76 816.945Z" fill="white"/>
<path d="M1085.33 816.945H954.425C954.097 816.945 953.832 816.68 953.832 816.353C953.832 816.025 954.097 815.76 954.425 815.76H1085.33C1085.65 815.76 1085.92 816.025 1085.92 816.353C1085.92 816.68 1085.65 816.945 1085.33 816.945Z" fill="white"/>
<path d="M1162.76 843.085H1035.4C1035.07 843.085 1034.81 842.819 1034.81 842.492C1034.81 842.165 1035.07 841.899 1035.4 841.899H1162.76C1163.09 841.899 1163.35 842.165 1163.35 842.492C1163.35 842.819 1163.09 843.085 1162.76 843.085Z" fill="white"/>
<path d="M1009.26 843.085H954.425C954.097 843.085 953.832 842.819 953.832 842.492C953.832 842.165 954.097 841.899 954.425 841.899H1009.26C1009.59 841.899 1009.85 842.165 1009.85 842.492C1009.85 842.819 1009.59 843.085 1009.26 843.085Z" fill="white"/>
<path d="M1162.76 869.226H1052.44C1052.11 869.226 1051.84 868.961 1051.84 868.633C1051.84 868.306 1052.11 868.041 1052.44 868.041H1162.76C1163.09 868.041 1163.36 868.306 1163.36 868.633C1163.36 868.961 1163.09 869.226 1162.76 869.226Z" fill="white"/>
<path d="M1026.29 869.226H954.425C954.097 869.226 953.832 868.961 953.832 868.633C953.832 868.306 954.097 868.041 954.425 868.041H1026.29C1026.62 868.041 1026.89 868.306 1026.89 868.633C1026.89 868.961 1026.62 869.226 1026.29 869.226Z" fill="white"/>
<path d="M1162.76 895.366H1094.44C1094.11 895.366 1093.84 895.101 1093.84 894.773C1093.84 894.446 1094.11 894.181 1094.44 894.181H1162.76C1163.09 894.181 1163.35 894.446 1163.35 894.773C1163.35 895.101 1163.09 895.366 1162.76 895.366Z" fill="white"/>
<path d="M1068.29 895.366H954.425C954.097 895.366 953.832 895.101 953.832 894.773C953.832 894.446 954.097 894.181 954.425 894.181H1068.29C1068.62 894.181 1068.89 894.446 1068.89 894.773C1068.89 895.101 1068.62 895.366 1068.29 895.366Z" fill="white"/>
<path d="M826.755 1085.19H823.198C822.87 1085.19 822.605 1084.93 822.605 1084.6C822.605 1084.27 822.87 1084.01 823.198 1084.01H826.162V1081.04C826.162 1080.72 826.427 1080.45 826.755 1080.45C827.083 1080.45 827.348 1080.72 827.348 1081.04V1084.6C827.348 1084.93 827.083 1085.19 826.755 1085.19Z" fill="#E6D0BE"/>
<path d="M816.091 1085.19H808.984C808.656 1085.19 808.391 1084.93 808.391 1084.6C808.391 1084.27 808.656 1084.01 808.984 1084.01H816.091C816.419 1084.01 816.684 1084.27 816.684 1084.6C816.684 1084.93 816.419 1085.19 816.091 1085.19ZM801.875 1085.19H794.767C794.439 1085.19 794.174 1084.93 794.174 1084.6C794.174 1084.27 794.439 1084.01 794.767 1084.01H801.875C802.203 1084.01 802.468 1084.27 802.468 1084.6C802.468 1084.93 802.203 1085.19 801.875 1085.19ZM787.66 1085.19H780.552C780.224 1085.19 779.959 1084.93 779.959 1084.6C779.959 1084.27 780.224 1084.01 780.552 1084.01H787.66C787.987 1084.01 788.252 1084.27 788.252 1084.6C788.252 1084.93 787.987 1085.19 787.66 1085.19ZM773.444 1085.19H766.336C766.008 1085.19 765.743 1084.93 765.743 1084.6C765.743 1084.27 766.008 1084.01 766.336 1084.01H773.444C773.771 1084.01 774.036 1084.27 774.036 1084.6C774.036 1084.93 773.771 1085.19 773.444 1085.19ZM759.228 1085.19H752.119C751.792 1085.19 751.527 1084.93 751.527 1084.6C751.527 1084.27 751.792 1084.01 752.119 1084.01H759.228C759.555 1084.01 759.82 1084.27 759.82 1084.6C759.82 1084.93 759.555 1085.19 759.228 1085.19ZM745.012 1085.19H737.904C737.576 1085.19 737.311 1084.93 737.311 1084.6C737.311 1084.27 737.576 1084.01 737.904 1084.01H745.012C745.34 1084.01 745.605 1084.27 745.605 1084.6C745.605 1084.93 745.339 1085.19 745.012 1085.19ZM730.795 1085.19H723.687C723.36 1085.19 723.095 1084.93 723.095 1084.6C723.095 1084.27 723.36 1084.01 723.687 1084.01H730.795C731.123 1084.01 731.388 1084.27 731.388 1084.6C731.388 1084.93 731.123 1085.19 730.795 1085.19ZM716.58 1085.19H709.472C709.144 1085.19 708.879 1084.93 708.879 1084.6C708.879 1084.27 709.144 1084.01 709.472 1084.01H716.58C716.908 1084.01 717.173 1084.27 717.173 1084.6C717.173 1084.93 716.907 1085.19 716.58 1085.19ZM702.363 1085.19H695.256C694.928 1085.19 694.663 1084.93 694.663 1084.6C694.663 1084.27 694.928 1084.01 695.256 1084.01H702.363C702.691 1084.01 702.956 1084.27 702.956 1084.6C702.956 1084.93 702.691 1085.19 702.363 1085.19ZM688.148 1085.19H681.04C680.712 1085.19 680.447 1084.93 680.447 1084.6C680.447 1084.27 680.712 1084.01 681.04 1084.01H688.148C688.476 1084.01 688.741 1084.27 688.741 1084.6C688.741 1084.93 688.476 1085.19 688.148 1085.19ZM673.931 1085.19H666.824C666.496 1085.19 666.231 1084.93 666.231 1084.6C666.231 1084.27 666.496 1084.01 666.824 1084.01H673.931C674.259 1084.01 674.524 1084.27 674.524 1084.6C674.524 1084.93 674.259 1085.19 673.931 1085.19ZM659.716 1085.19H652.608C652.28 1085.19 652.015 1084.93 652.015 1084.6C652.015 1084.27 652.28 1084.01 652.608 1084.01H659.716C660.043 1084.01 660.308 1084.27 660.308 1084.6C660.308 1084.93 660.043 1085.19 659.716 1085.19ZM645.5 1085.19H638.392C638.064 1085.19 637.799 1084.93 637.799 1084.6C637.799 1084.27 638.064 1084.01 638.392 1084.01H645.5C645.827 1084.01 646.092 1084.27 646.092 1084.6C646.092 1084.93 645.827 1085.19 645.5 1085.19ZM631.284 1085.19H624.176C623.848 1085.19 623.583 1084.93 623.583 1084.6C623.583 1084.27 623.848 1084.01 624.176 1084.01H631.284C631.611 1084.01 631.876 1084.27 631.876 1084.6C631.876 1084.93 631.611 1085.19 631.284 1085.19ZM617.068 1085.19H609.96C609.632 1085.19 609.367 1084.93 609.367 1084.6C609.367 1084.27 609.632 1084.01 609.96 1084.01H617.068C617.396 1084.01 617.661 1084.27 617.661 1084.6C617.661 1084.93 617.396 1085.19 617.068 1085.19Z" fill="#E6D0BE"/>
<path d="M602.853 1085.19H599.296C598.968 1085.19 598.703 1084.93 598.703 1084.6V1081.04C598.703 1080.72 598.968 1080.45 599.296 1080.45C599.624 1080.45 599.889 1080.72 599.889 1081.04V1084.01H602.853C603.181 1084.01 603.446 1084.27 603.446 1084.6C603.446 1084.93 603.181 1085.19 602.853 1085.19Z" fill="#E6D0BE"/>
<path d="M599.296 1074.53C598.968 1074.53 598.703 1074.26 598.703 1073.94V1066.83C598.703 1066.5 598.968 1066.24 599.296 1066.24C599.624 1066.24 599.889 1066.5 599.889 1066.83V1073.94C599.889 1074.26 599.624 1074.53 599.296 1074.53ZM599.296 1060.31C598.968 1060.31 598.703 1060.05 598.703 1059.72V1052.61C598.703 1052.29 598.968 1052.02 599.296 1052.02C599.624 1052.02 599.889 1052.29 599.889 1052.61V1059.72C599.889 1060.05 599.624 1060.31 599.296 1060.31ZM599.296 1046.1C598.968 1046.1 598.703 1045.83 598.703 1045.51V1038.4C598.703 1038.07 598.968 1037.8 599.296 1037.8C599.624 1037.8 599.889 1038.07 599.889 1038.4V1045.51C599.889 1045.83 599.624 1046.1 599.296 1046.1ZM599.296 1031.88C598.968 1031.88 598.703 1031.62 598.703 1031.29V1024.18C598.703 1023.85 598.968 1023.59 599.296 1023.59C599.624 1023.59 599.889 1023.85 599.889 1024.18V1031.29C599.889 1031.62 599.624 1031.88 599.296 1031.88ZM599.296 1017.67C598.968 1017.67 598.703 1017.4 598.703 1017.07V1009.97C598.703 1009.64 598.968 1009.37 599.296 1009.37C599.624 1009.37 599.889 1009.64 599.889 1009.97V1017.07C599.889 1017.4 599.624 1017.67 599.296 1017.67ZM599.296 1003.45C598.968 1003.45 598.703 1003.18 598.703 1002.86V995.75C598.703 995.422 598.968 995.157 599.296 995.157C599.624 995.157 599.889 995.422 599.889 995.75V1002.86C599.889 1003.18 599.624 1003.45 599.296 1003.45ZM599.296 989.234C598.968 989.234 598.703 988.969 598.703 988.641V981.533C598.703 981.206 598.968 980.94 599.296 980.94C599.624 980.94 599.889 981.206 599.889 981.533V988.641C599.889 988.969 599.624 989.234 599.296 989.234ZM599.296 975.018C598.968 975.018 598.703 974.752 598.703 974.425V967.317C598.703 966.989 598.968 966.724 599.296 966.724C599.624 966.724 599.889 966.989 599.889 967.317V974.425C599.889 974.753 599.624 975.018 599.296 975.018ZM599.296 960.802C598.968 960.802 598.703 960.536 598.703 960.209V953.101C598.703 952.774 598.968 952.509 599.296 952.509C599.624 952.509 599.889 952.774 599.889 953.101V960.209C599.889 960.537 599.624 960.802 599.296 960.802ZM599.296 946.586C598.968 946.586 598.703 946.32 598.703 945.993V938.885C598.703 938.558 598.968 938.292 599.296 938.292C599.624 938.292 599.889 938.558 599.889 938.885V945.993C599.889 946.321 599.624 946.586 599.296 946.586ZM599.296 932.37C598.968 932.37 598.703 932.104 598.703 931.777V924.669C598.703 924.342 598.968 924.076 599.296 924.076C599.624 924.076 599.889 924.342 599.889 924.669V931.777C599.889 932.105 599.624 932.37 599.296 932.37ZM599.296 918.154C598.968 918.154 598.703 917.888 598.703 917.561V910.453C598.703 910.126 598.968 909.861 599.296 909.861C599.624 909.861 599.889 910.126 599.889 910.453V917.561C599.889 917.889 599.624 918.154 599.296 918.154ZM599.296 903.938C598.968 903.938 598.703 903.672 598.703 903.345V896.237C598.703 895.91 598.968 895.644 599.296 895.644C599.624 895.644 599.889 895.91 599.889 896.237V903.345C599.889 903.673 599.624 903.938 599.296 903.938ZM599.296 889.722C598.968 889.722 598.703 889.456 598.703 889.129V882.021C598.703 881.694 598.968 881.428 599.296 881.428C599.624 881.428 599.889 881.694 599.889 882.021V889.129C599.889 889.456 599.624 889.722 599.296 889.722ZM599.296 875.506C598.968 875.506 598.703 875.241 598.703 874.913V867.806C598.703 867.478 598.968 867.213 599.296 867.213C599.624 867.213 599.889 867.478 599.889 867.806V874.913C599.889 875.241 599.624 875.506 599.296 875.506Z" fill="#E6D0BE"/>
<path d="M599.296 861.29C598.968 861.29 598.703 861.025 598.703 860.697V857.141C598.703 856.813 598.968 856.548 599.296 856.548H602.853C603.181 856.548 603.446 856.813 603.446 857.141C603.446 857.468 603.181 857.733 602.853 857.733H599.889V860.697C599.889 861.025 599.624 861.29 599.296 861.29Z" fill="#E6D0BE"/>
<path d="M816.091 857.733H808.983C808.655 857.733 808.39 857.468 808.39 857.141C808.39 856.813 808.655 856.548 808.983 856.548H816.091C816.419 856.548 816.684 856.813 816.684 857.141C816.684 857.468 816.419 857.733 816.091 857.733ZM801.875 857.733H794.767C794.439 857.733 794.174 857.468 794.174 857.141C794.174 856.813 794.439 856.548 794.767 856.548H801.875C802.203 856.548 802.468 856.813 802.468 857.141C802.468 857.468 802.203 857.733 801.875 857.733ZM787.659 857.733H780.551C780.223 857.733 779.958 857.468 779.958 857.141C779.958 856.813 780.223 856.548 780.551 856.548H787.659C787.987 856.548 788.252 856.813 788.252 857.141C788.252 857.468 787.987 857.733 787.659 857.733ZM773.444 857.733H766.335C766.007 857.733 765.743 857.468 765.743 857.141C765.743 856.813 766.007 856.548 766.335 856.548H773.444C773.771 856.548 774.036 856.813 774.036 857.141C774.036 857.468 773.771 857.733 773.444 857.733ZM759.227 857.733H752.119C751.792 857.733 751.527 857.468 751.527 857.141C751.527 856.813 751.792 856.548 752.119 856.548H759.227C759.555 856.548 759.82 856.813 759.82 857.141C759.82 857.468 759.555 857.733 759.227 857.733ZM745.012 857.733H737.903C737.576 857.733 737.311 857.468 737.311 857.141C737.311 856.813 737.576 856.548 737.903 856.548H745.012C745.339 856.548 745.604 856.813 745.604 857.141C745.604 857.468 745.339 857.733 745.012 857.733ZM730.795 857.733H723.687C723.36 857.733 723.095 857.468 723.095 857.141C723.095 856.813 723.36 856.548 723.687 856.548H730.795C731.123 856.548 731.388 856.813 731.388 857.141C731.388 857.468 731.123 857.733 730.795 857.733ZM716.579 857.733H709.472C709.144 857.733 708.879 857.468 708.879 857.141C708.879 856.813 709.144 856.548 709.472 856.548H716.579C716.907 856.548 717.172 856.813 717.172 857.141C717.172 857.468 716.906 857.733 716.579 857.733ZM702.363 857.733H695.256C694.928 857.733 694.663 857.468 694.663 857.141C694.663 856.813 694.928 856.548 695.256 856.548H702.363C702.691 856.548 702.956 856.813 702.956 857.141C702.956 857.468 702.691 857.733 702.363 857.733ZM688.147 857.733H681.04C680.712 857.733 680.447 857.468 680.447 857.141C680.447 856.813 680.712 856.548 681.04 856.548H688.147C688.475 856.548 688.74 856.813 688.74 857.141C688.74 857.468 688.475 857.733 688.147 857.733ZM673.931 857.733H666.823C666.495 857.733 666.23 857.468 666.23 857.141C666.23 856.813 666.495 856.548 666.823 856.548H673.931C674.259 856.548 674.524 856.813 674.524 857.141C674.524 857.468 674.259 857.733 673.931 857.733ZM659.715 857.733H652.608C652.28 857.733 652.015 857.468 652.015 857.141C652.015 856.813 652.28 856.548 652.608 856.548H659.715C660.043 856.548 660.308 856.813 660.308 857.141C660.308 857.468 660.043 857.733 659.715 857.733ZM645.499 857.733H638.391C638.063 857.733 637.798 857.468 637.798 857.141C637.798 856.813 638.063 856.548 638.391 856.548H645.499C645.827 856.548 646.092 856.813 646.092 857.141C646.092 857.468 645.827 857.733 645.499 857.733ZM631.284 857.733H624.176C623.848 857.733 623.583 857.468 623.583 857.141C623.583 856.813 623.848 856.548 624.176 856.548H631.284C631.611 856.548 631.876 856.813 631.876 857.141C631.876 857.468 631.611 857.733 631.284 857.733ZM617.068 857.733H609.96C609.632 857.733 609.367 857.468 609.367 857.141C609.367 856.813 609.632 856.548 609.96 856.548H617.068C617.395 856.548 617.66 856.813 617.66 857.141C617.66 857.468 617.395 857.733 617.068 857.733Z" fill="#E6D0BE"/>
<path d="M826.755 861.29C826.427 861.29 826.162 861.025 826.162 860.697V857.733H823.198C822.87 857.733 822.605 857.468 822.605 857.141C822.605 856.813 822.87 856.548 823.198 856.548H826.755C827.083 856.548 827.348 856.813 827.348 857.141V860.697C827.348 861.025 827.083 861.29 826.755 861.29Z" fill="#E6D0BE"/>
<path d="M826.757 1074.53C826.429 1074.53 826.164 1074.26 826.164 1073.94V1066.83C826.164 1066.5 826.429 1066.24 826.757 1066.24C827.085 1066.24 827.35 1066.5 827.35 1066.83V1073.94C827.35 1074.26 827.085 1074.53 826.757 1074.53ZM826.757 1060.31C826.429 1060.31 826.164 1060.05 826.164 1059.72V1052.61C826.164 1052.29 826.429 1052.02 826.757 1052.02C827.085 1052.02 827.35 1052.29 827.35 1052.61V1059.72C827.35 1060.05 827.085 1060.31 826.757 1060.31ZM826.757 1046.1C826.429 1046.1 826.164 1045.83 826.164 1045.51V1038.4C826.164 1038.07 826.429 1037.8 826.757 1037.8C827.085 1037.8 827.35 1038.07 827.35 1038.4V1045.51C827.35 1045.83 827.085 1046.1 826.757 1046.1ZM826.757 1031.88C826.429 1031.88 826.164 1031.62 826.164 1031.29V1024.18C826.164 1023.85 826.429 1023.59 826.757 1023.59C827.085 1023.59 827.35 1023.85 827.35 1024.18V1031.29C827.35 1031.62 827.085 1031.88 826.757 1031.88ZM826.757 1017.67C826.429 1017.67 826.164 1017.4 826.164 1017.07V1009.96C826.164 1009.64 826.429 1009.37 826.757 1009.37C827.085 1009.37 827.35 1009.64 827.35 1009.96V1017.07C827.35 1017.4 827.085 1017.67 826.757 1017.67ZM826.757 1003.45C826.429 1003.45 826.164 1003.18 826.164 1002.86V995.749C826.164 995.421 826.429 995.156 826.757 995.156C827.085 995.156 827.35 995.421 827.35 995.749V1002.86C827.35 1003.18 827.085 1003.45 826.757 1003.45ZM826.757 989.234C826.429 989.234 826.164 988.968 826.164 988.641V981.533C826.164 981.206 826.429 980.94 826.757 980.94C827.085 980.94 827.35 981.206 827.35 981.533V988.641C827.35 988.969 827.085 989.234 826.757 989.234ZM826.757 975.018C826.429 975.018 826.164 974.752 826.164 974.425V967.317C826.164 966.989 826.429 966.724 826.757 966.724C827.085 966.724 827.35 966.989 827.35 967.317V974.425C827.35 974.753 827.085 975.018 826.757 975.018ZM826.757 960.802C826.429 960.802 826.164 960.536 826.164 960.209V953.101C826.164 952.773 826.429 952.508 826.757 952.508C827.085 952.508 827.35 952.773 827.35 953.101V960.209C827.35 960.537 827.085 960.802 826.757 960.802ZM826.757 946.586C826.429 946.586 826.164 946.32 826.164 945.993V938.885C826.164 938.558 826.429 938.293 826.757 938.293C827.085 938.293 827.35 938.558 827.35 938.885V945.993C827.35 946.32 827.085 946.586 826.757 946.586ZM826.757 932.37C826.429 932.37 826.164 932.104 826.164 931.777V924.669C826.164 924.342 826.429 924.077 826.757 924.077C827.085 924.077 827.35 924.342 827.35 924.669V931.777C827.35 932.104 827.085 932.37 826.757 932.37ZM826.757 918.154C826.429 918.154 826.164 917.888 826.164 917.561V910.453C826.164 910.126 826.429 909.86 826.757 909.86C827.085 909.86 827.35 910.126 827.35 910.453V917.561C827.35 917.888 827.085 918.154 826.757 918.154ZM826.757 903.938C826.429 903.938 826.164 903.672 826.164 903.345V896.238C826.164 895.91 826.429 895.645 826.757 895.645C827.085 895.645 827.35 895.91 827.35 896.238V903.345C827.35 903.672 827.085 903.938 826.757 903.938ZM826.757 889.722C826.429 889.722 826.164 889.456 826.164 889.129V882.022C826.164 881.694 826.429 881.429 826.757 881.429C827.085 881.429 827.35 881.694 827.35 882.022V889.129C827.35 889.456 827.085 889.722 826.757 889.722ZM826.757 875.506C826.429 875.506 826.164 875.241 826.164 874.913V867.806C826.164 867.478 826.429 867.213 826.757 867.213C827.085 867.213 827.35 867.478 827.35 867.806V874.913C827.35 875.241 827.085 875.506 826.757 875.506Z" fill="#E6D0BE"/>
<path d="M795.753 832.732L573.91 835.262L576.5 1062.45L798.344 1059.92L795.753 832.732Z" fill="#E6D0BE"/>
<path d="M606.148 1008.7C659.601 1008.09 713.053 1007.48 766.504 1006.87C741.926 928.227 726.723 908.433 716.924 909.629C702.767 911.357 699.059 956.994 679.592 958.518C667.89 959.434 663.023 943.428 651.218 942.98C641.066 942.596 626.071 953.73 606.148 1008.7Z" fill="white"/>
<path d="M675.554 904.502C679.907 893.928 674.864 881.826 664.29 877.473C653.716 873.12 641.615 878.162 637.261 888.737C632.908 899.311 637.951 911.412 648.525 915.765C659.099 920.119 671.2 915.076 675.554 904.502Z" fill="white"/>
<path d="M1208.61 991.308H862.359V1010.33H1208.61V991.308Z" fill="#F2E6DC"/>
<path d="M1208.61 1026.68H862.359V1045.7H1208.61V1026.68Z" fill="#F2E6DC"/>
<path d="M1208.61 1064.82H862.359V1083.84H1208.61V1064.82Z" fill="#F2E6DC"/>
<path d="M748.525 713.892C745.405 715.534 737.437 715.72 734.422 713.892C535.173 593.075 568.019 289.177 568.019 289.177L741.351 237L914.928 289.177C914.928 289.177 945.952 609.997 748.525 713.892Z" fill="#D3BBA3"/>
<path d="M741.214 671.071C738.952 671.071 736.717 670.706 735.407 669.895C698.37 646.971 668.196 614.135 645.724 572.301C627.755 538.854 614.644 499.613 606.753 455.667C593.321 380.867 599.783 317.501 599.85 316.869C599.875 316.633 600.038 316.435 600.265 316.365L741.176 273.064C741.289 273.029 741.412 273.029 741.524 273.064L882.634 316.365C882.864 316.435 883.028 316.637 883.05 316.876C883.113 317.542 889.207 384.402 875.592 460.933C867.594 505.898 854.459 545.363 836.551 578.229C814.149 619.344 784.176 650.191 747.464 669.913C746.088 670.652 743.636 671.071 741.214 671.071ZM600.991 317.383C600.468 322.822 595.067 383.907 607.925 455.488C620.289 524.32 652.551 617.216 736.031 668.888C738.365 670.333 744.598 670.107 746.902 668.869C829.595 624.447 861.89 531.175 874.421 460.753C887.467 387.434 882.389 323.011 881.906 317.382L741.351 274.252L600.991 317.383Z" fill="#F2E6DC"/>
<path d="M669.914 430.841V486.767C669.914 526.392 702.036 558.513 741.661 558.513C781.286 558.513 813.408 526.391 813.408 486.767V430.841H669.914ZM747.388 490.614V520.882H735.934V490.614C729.678 488.287 725.214 482.279 725.214 475.213C725.214 466.13 732.577 458.767 741.661 458.767C750.744 458.767 758.108 466.13 758.108 475.213C758.108 482.279 753.644 488.287 747.388 490.614Z" fill="#F7F1EB"/>
<path d="M805.506 416.4C805.178 416.4 804.913 416.134 804.913 415.807C804.913 380.931 776.539 352.556 741.663 352.556C706.786 352.556 678.412 380.931 678.412 415.807C678.412 416.134 678.147 416.4 677.819 416.4C677.492 416.4 677.227 416.134 677.227 415.807C677.227 380.277 706.133 351.371 741.663 351.371C777.193 351.371 806.098 380.277 806.098 415.807C806.098 416.134 805.833 416.4 805.506 416.4Z" fill="#363E44"/>
<rect width="1482" height="1482" fill="black" style="mix-blend-mode:saturation"/>
</g>
<defs>
<clipPath id="clip0_2284_3">
<rect width="1482" height="1482" fill="white"/>
</clipPath>
</defs>
</svg>
