<svg width="440" height="340" viewBox="0 0 440 340" fill="none" xmlns="http://www.w3.org/2000/svg">
<g clip-path="url(#clip0_2198_3509)">
<rect width="440" height="340" fill="white"/>
<path d="M405.434 167.918C401.325 210.533 376.148 254.011 333.255 266.682C296.772 277.856 257.734 270.971 220.781 279.567C165.562 292.884 93.6737 329.183 47.2982 278.154C13.4473 235.251 33.4242 162.469 58.9842 118.696C142.119 -15.4132 420.089 -42.4323 405.434 167.918Z" fill="#F2D9AF"/>
<path d="M118.883 319.681C122.292 307.891 123.492 297.391 123.074 288.062C120.797 236.852 69.9567 220.918 69.9567 220.918C69.9567 220.918 61.6771 243.798 68.4578 268.773C73.5387 287.483 87.0742 307.368 118.883 319.681Z" fill="#F2E9DA"/>
<path d="M75.0855 230.124L118.62 318.004C118.815 318.397 118.171 318.628 117.978 318.237L74.4426 230.357C74.2475 229.964 74.8917 229.733 75.0855 230.124Z" fill="#FFA727"/>
<path d="M92.9387 267.457L98.5953 251.014C99.2095 249.213 99.8236 247.413 100.438 245.612C100.58 245.195 101.202 245.48 101.062 245.893L94.5426 265.005C93.9285 266.806 94.1768 265.937 93.5619 267.739C93.4192 268.155 92.7974 267.869 92.9387 267.457Z" fill="#FFA727"/>
<path d="M105.712 293.233L111.369 276.791C111.983 274.989 112.597 273.189 113.212 271.388C113.354 270.971 113.975 271.256 113.835 271.67L107.316 290.781C106.702 292.583 106.95 291.714 106.335 293.515C106.193 293.932 105.571 293.646 105.712 293.233Z" fill="#FFA727"/>
<path d="M83.7454 286.573L100.253 292.035C102.058 292.638 103.863 293.241 105.667 293.843C106.086 293.982 106.235 293.315 105.821 293.176L86.6671 286.783C84.8625 286.181 85.7032 286.51 83.8986 285.907C83.481 285.767 83.3313 286.435 83.7454 286.573Z" fill="#FFA727"/>
<path d="M70.6631 260.162L87.1706 265.624C88.9753 266.226 90.7806 266.829 92.5852 267.431C93.0035 267.57 93.1525 266.903 92.7384 266.765L73.5841 260.371C71.7795 259.769 72.6202 260.097 70.8156 259.494C70.3987 259.356 70.2497 260.024 70.6631 260.162Z" fill="#FFA727"/>
<path d="M119.34 319.747C114.773 308.356 109.257 299.341 103.187 292.245C69.8813 253.278 20 272.002 20 272.002C20 272.002 27.5529 295.132 48.2649 310.647C63.7833 322.269 86.6896 329.615 119.34 319.747Z" fill="#FFA727"/>
<path d="M29.7093 276.102L118.102 318.586C118.497 318.776 118.132 319.355 117.739 319.165L29.3463 276.682C28.9504 276.491 29.3162 275.913 29.7093 276.102Z" fill="#F2E9DA"/>
<path d="M66.7541 294.543L61.0954 278.102C60.4714 276.304 59.8475 274.507 59.2236 272.709C59.0788 272.293 59.7447 272.136 59.8881 272.548L66.5093 291.625C67.1332 293.423 66.7947 292.585 67.4186 294.383C67.5627 294.798 66.8968 294.955 66.7541 294.543Z" fill="#F2E9DA"/>
<path d="M92.6799 307.005L87.0212 290.564C86.3972 288.766 85.7733 286.969 85.1494 285.171C85.0046 284.755 85.6705 284.597 85.8139 285.01L92.4351 304.087C93.059 305.884 92.7204 305.047 93.3444 306.845C93.4884 307.26 92.8226 307.417 92.6799 307.005Z" fill="#F2E9DA"/>
<path d="M71.2719 315.27L87.6451 309.418C89.4385 308.783 91.232 308.147 93.0254 307.511C93.4409 307.364 93.1478 306.746 92.7365 306.891L73.704 313.638C71.9105 314.273 72.7758 314.015 70.9823 314.65C70.5669 314.798 70.8606 315.416 71.2719 315.27Z" fill="#F2E9DA"/>
<path d="M44.7052 302.502L61.0784 296.65C62.8718 296.014 64.6653 295.378 66.4587 294.742C66.8742 294.595 66.5811 293.977 66.1698 294.123L47.1373 300.869C45.3438 301.505 46.2091 301.246 44.4156 301.882C44.0008 302.029 44.2939 302.648 44.7052 302.502Z" fill="#F2E9DA"/>
<path d="M231.576 325.011H112.501C105.63 325.011 99.999 319.558 99.7787 312.69L91.9754 69.3115C91.7453 62.1252 97.5082 56.1748 104.698 56.1748H223.772C230.642 56.1748 236.274 61.6279 236.494 68.496L244.298 311.874C244.528 319.06 238.765 325.011 231.576 325.011Z" fill="#FFBD29"/>
<path d="M121.12 325.361C114.018 325.361 108.276 319.8 108.049 312.701L100.245 69.3229C100.131 65.7521 101.436 62.3715 103.922 59.8052C106.408 57.2388 109.744 55.8252 113.317 55.8252C113.51 55.8252 113.667 55.9819 113.667 56.1749C113.667 56.368 113.51 56.5247 113.317 56.5247C109.935 56.5247 106.777 57.8628 104.425 60.292C102.072 62.7213 100.836 65.9206 100.944 69.3005L108.747 312.679C108.963 319.397 114.397 324.662 121.12 324.662C121.313 324.662 121.469 324.818 121.469 325.011C121.469 325.204 121.313 325.361 121.12 325.361Z" fill="#25292B"/>
<path d="M243.97 300.485H117.457L110.199 75.0073H236.712L243.97 300.485Z" fill="#F2E9DA"/>
<path d="M208.029 318.278H154.896C151.417 318.278 148.586 315.447 148.586 311.968C148.586 308.489 151.417 305.658 154.896 305.658H208.029C211.509 305.658 214.339 308.489 214.339 311.968C214.34 315.447 211.509 318.278 208.029 318.278ZM154.896 306.358C151.802 306.358 149.285 308.874 149.285 311.968C149.285 315.062 151.802 317.579 154.896 317.579H208.029C211.123 317.579 213.639 315.061 213.639 311.968C213.639 308.875 211.122 306.358 208.029 306.358H154.896Z" fill="#25292B"/>
<path d="M212.425 70.3458H139.728C138.67 70.3458 137.809 69.4855 137.809 68.4272C137.809 67.3689 138.67 66.5078 139.728 66.5078H212.425C213.484 66.5078 214.345 67.3689 214.345 68.4272C214.345 69.4855 213.484 70.3458 212.425 70.3458ZM139.728 67.2073C139.056 67.2073 138.508 67.7543 138.508 68.4272C138.508 69.1 139.055 69.6463 139.728 69.6463H212.425C213.097 69.6463 213.645 69.0993 213.645 68.4272C213.645 67.755 213.098 67.2073 212.425 67.2073H139.728Z" fill="#25292B"/>
<path d="M99.1027 180.128C98.9146 180.128 98.7593 179.978 98.7537 179.789L95.9572 92.5614C95.9509 92.3683 96.1027 92.2067 96.2951 92.2004C96.4776 92.1801 96.6497 92.3452 96.656 92.5383L99.4525 179.767C99.4588 179.959 99.307 180.122 99.1146 180.128C99.1111 180.128 99.1069 180.128 99.1027 180.128Z" fill="#25292B"/>
<path d="M252.512 186.759H133.296C128.679 186.759 124.902 182.982 124.902 178.366V151.847C124.902 147.23 128.679 143.453 133.296 143.453H252.512C257.129 143.453 260.906 147.23 260.906 151.847V178.366C260.906 182.982 257.129 186.759 252.512 186.759Z" fill="#FFA727"/>
<path d="M169.137 165.176C169.137 165.823 168.611 166.348 167.964 166.348H165.015C164.757 170.31 163.225 173.193 161.429 175.242C163.37 176.826 165.199 177.431 165.231 177.44C165.846 177.633 166.192 178.294 165.995 178.908C165.841 179.409 165.376 179.728 164.88 179.728C164.762 179.728 164.645 179.709 164.528 179.676C164.363 179.625 162.08 178.889 159.727 176.901C157.336 178.912 155.03 179.658 154.978 179.676C154.86 179.709 154.744 179.728 154.626 179.728C154.129 179.728 153.665 179.409 153.51 178.908C153.314 178.289 153.66 177.633 154.274 177.44C154.434 177.389 156.196 176.802 158.076 175.284C156.914 173.957 155.863 172.274 155.193 170.155C154.996 169.536 155.339 168.88 155.953 168.683C156.07 168.645 156.192 168.627 156.309 168.627C156.806 168.627 157.265 168.946 157.425 169.447C157.968 171.158 158.821 172.537 159.769 173.639C161.203 171.946 162.427 169.583 162.666 166.349H152.539C151.892 166.349 151.367 165.823 151.367 165.176C151.367 164.529 151.892 164.004 152.539 164.004H158.451V161.44C158.451 160.793 158.977 160.268 159.624 160.268C160.271 160.268 160.796 160.793 160.796 161.44V164.004H167.964C168.611 164.004 169.137 164.529 169.137 165.176Z" fill="#F2E9DA"/>
<path d="M143.974 168.923L141.888 163.555L138.24 154.165C138.067 153.715 137.631 153.419 137.153 153.415C137.148 153.415 137.148 153.415 137.148 153.415C136.665 153.415 136.233 153.71 136.055 154.161L132.379 163.56C132.36 163.593 132.351 163.631 132.337 163.668L130.28 168.923C130.045 169.523 130.34 170.203 130.945 170.442C131.546 170.677 132.225 170.381 132.465 169.776L134.26 165.186H140.008L141.789 169.771C141.972 170.236 142.413 170.521 142.882 170.521C143.022 170.521 143.168 170.497 143.309 170.442C143.914 170.208 144.209 169.528 143.974 168.923ZM135.174 162.842L137.143 157.812L139.098 162.842H135.174Z" fill="#F2E9DA"/>
<path d="M150.876 178.837C150.877 178.915 150.869 178.992 150.853 179.066C150.849 179.088 150.845 179.109 150.84 179.131C150.832 179.157 150.825 179.183 150.816 179.212C150.808 179.235 150.801 179.259 150.791 179.281C150.747 179.391 150.686 179.496 150.611 179.591C150.597 179.608 150.583 179.626 150.565 179.642C150.492 179.725 150.403 179.798 150.303 179.859C150.277 179.875 150.251 179.889 150.225 179.903L144.949 182.612C144.775 182.701 144.589 182.743 144.407 182.743C143.974 182.743 143.556 182.506 143.345 182.097C143.045 181.51 143.276 180.793 143.861 180.492L145.776 179.508C141.489 178.334 137.893 175.262 136.102 171.029C135.846 170.425 136.13 169.725 136.736 169.469C137.34 169.211 138.04 169.495 138.298 170.102C139.94 173.986 143.397 176.705 147.442 177.445L146.398 175.725C146.056 175.162 146.236 174.43 146.799 174.088C147.36 173.748 148.094 173.926 148.434 174.489L150.676 178.182L150.702 178.223C150.717 178.247 150.73 178.271 150.743 178.297C150.769 178.346 150.791 178.396 150.808 178.448C150.816 178.474 150.826 178.5 150.832 178.526C150.836 178.537 150.84 178.55 150.842 178.561C150.846 178.576 150.849 178.589 150.851 178.604C150.867 178.681 150.875 178.76 150.876 178.837Z" fill="#F2E9DA"/>
<path d="M162.506 160.191C162.346 160.266 162.177 160.301 162.01 160.301C161.56 160.301 161.129 160.043 160.927 159.606C158.918 155.224 154.505 152.392 149.685 152.392C148.086 152.392 146.532 152.693 145.08 153.278L148.011 154.019C148.648 154.182 149.036 154.829 148.873 155.466C148.737 156.006 148.254 156.367 147.721 156.367C147.623 156.367 147.525 156.354 147.426 156.33L141.595 154.857L141.56 154.849C141.555 154.849 141.553 154.847 141.548 154.845C141.523 154.84 141.499 154.831 141.473 154.823C141.347 154.782 141.234 154.721 141.133 154.643C141.113 154.628 141.094 154.611 141.074 154.596C141.055 154.578 141.037 154.563 141.02 154.546C140.967 154.494 140.918 154.438 140.878 154.377C140.864 154.357 140.85 154.335 140.839 154.316C140.769 154.205 140.72 154.086 140.691 153.958C140.685 153.937 140.68 153.913 140.678 153.891C140.671 153.861 140.667 153.83 140.664 153.8C140.662 153.763 140.66 153.727 140.66 153.69C140.66 153.655 140.662 153.621 140.664 153.586C140.666 153.572 140.666 153.562 140.669 153.548C140.673 153.514 140.679 153.479 140.686 153.444C140.69 153.429 140.692 153.416 140.697 153.401L141.977 147.572C142.12 146.928 142.755 146.523 143.399 146.664C144.04 146.804 144.447 147.439 144.306 148.083L143.594 151.321C145.493 150.457 147.558 150.008 149.685 150.008C155.435 150.008 160.696 153.386 163.093 158.611C163.368 159.209 163.103 159.917 162.506 160.191Z" fill="#F2E9DA"/>
<path d="M222.619 158.745H176.337C175.426 158.745 174.68 157.999 174.68 157.087C174.68 156.175 175.426 155.43 176.337 155.43H222.619C223.531 155.43 224.277 156.176 224.277 157.087C224.277 158 223.531 158.745 222.619 158.745Z" fill="#F2E9DA"/>
<path d="M251.42 166.604H176.337C175.426 166.604 174.68 165.858 174.68 164.946C174.68 164.034 175.426 163.288 176.337 163.288H251.42C252.332 163.288 253.078 164.034 253.078 164.946C253.078 165.858 252.332 166.604 251.42 166.604Z" fill="#F2E9DA"/>
<path d="M251.42 174.783H176.337C175.426 174.783 174.68 174.037 174.68 173.126C174.68 172.213 175.426 171.468 176.337 171.468H251.42C252.332 171.468 253.078 172.214 253.078 173.126C253.078 174.037 252.332 174.783 251.42 174.783Z" fill="#F2E9DA"/>
<path d="M248.202 187.109H128.986C124.164 187.109 120.242 183.187 120.242 178.365V151.847C120.242 147.025 124.164 143.104 128.986 143.104H248.202C253.023 143.104 256.945 147.025 256.945 151.847V178.365C256.945 183.187 253.023 187.109 248.202 187.109ZM128.986 143.803C124.55 143.803 120.942 147.412 120.942 151.847V178.365C120.942 182.801 124.55 186.409 128.986 186.409H248.202C252.637 186.409 256.246 182.801 256.246 178.365V151.847C256.246 147.412 252.637 143.803 248.202 143.803H128.986Z" fill="#25292B"/>
<path d="M265.661 238.529H146.444C141.828 238.529 138.051 234.752 138.051 230.135V203.616C138.051 199 141.828 195.223 146.444 195.223H265.661C270.277 195.223 274.054 199 274.054 203.616V230.135C274.054 234.752 270.277 238.529 265.661 238.529Z" fill="#FFBD29"/>
<path d="M235.768 210.514H189.486C188.574 210.514 187.828 209.768 187.828 208.856C187.828 207.945 188.574 207.198 189.486 207.198H235.768C236.68 207.198 237.425 207.945 237.425 208.856C237.425 209.767 236.68 210.514 235.768 210.514Z" fill="#F2E9DA"/>
<path d="M264.568 218.372H189.486C188.574 218.372 187.828 217.626 187.828 216.714C187.828 215.803 188.574 215.057 189.486 215.057H264.568C265.48 215.057 266.226 215.803 266.226 216.714C266.227 217.626 265.48 218.372 264.568 218.372Z" fill="#F2E9DA"/>
<path d="M264.568 226.552H189.486C188.574 226.552 187.828 225.806 187.828 224.894C187.828 223.983 188.574 223.236 189.486 223.236H264.568C265.48 223.236 266.226 223.983 266.226 224.894C266.227 225.805 265.48 226.552 264.568 226.552Z" fill="#F2E9DA"/>
<path d="M157.143 224.755C157.187 225.125 157.079 225.492 156.846 225.785C156.579 226.121 156.178 226.315 155.747 226.315C155.432 226.315 155.123 226.208 154.872 226.01L144.542 217.757C144.21 217.489 144.016 217.089 144.016 216.662C144.016 216.231 144.209 215.83 144.542 215.563L154.738 207.422C155.032 207.185 155.398 207.081 155.773 207.12C156.144 207.164 156.479 207.349 156.712 207.642C156.945 207.935 157.053 208.302 157.01 208.673C156.971 209.047 156.786 209.379 156.493 209.616L147.671 216.663L156.626 223.817C156.919 224.048 157.104 224.38 157.143 224.755Z" fill="#F2E9DA"/>
<path d="M183.293 216.661C183.293 217.088 183.104 217.489 182.767 217.756L172.437 226.009C172.191 226.207 171.881 226.315 171.562 226.315C171.131 226.315 170.734 226.121 170.463 225.785C170.23 225.491 170.122 225.125 170.166 224.754C170.209 224.379 170.394 224.048 170.687 223.815L179.638 216.661L170.816 209.614C170.523 209.377 170.342 209.046 170.299 208.671C170.256 208.3 170.364 207.933 170.597 207.64C171.079 207.032 171.967 206.934 172.57 207.421L182.767 215.562C183.104 215.83 183.293 216.23 183.293 216.661Z" fill="#F2E9DA"/>
<path d="M168.378 205.668C168.555 205.999 168.59 206.379 168.478 206.737L162.087 227.518C161.927 228.035 161.475 228.423 160.936 228.496C160.872 228.505 160.807 228.509 160.747 228.509C160.605 228.509 160.467 228.487 160.333 228.445C159.592 228.216 159.174 227.432 159.402 226.69L165.793 205.914C165.905 205.552 166.146 205.259 166.479 205.082C166.81 204.91 167.194 204.871 167.552 204.983C167.909 205.095 168.202 205.336 168.378 205.668Z" fill="#F2E9DA"/>
<path d="M261.354 238.877H142.138C137.316 238.877 133.395 234.955 133.395 230.134V203.615C133.395 198.794 137.316 194.872 142.138 194.872H261.354C266.176 194.872 270.098 198.794 270.098 203.615V230.134C270.098 234.955 266.175 238.877 261.354 238.877ZM142.138 195.572C137.703 195.572 134.094 199.18 134.094 203.615V230.134C134.094 234.569 137.703 238.178 142.138 238.178H261.354C265.789 238.178 269.398 234.569 269.398 230.134V203.615C269.398 199.18 265.789 195.572 261.354 195.572H142.138Z" fill="#25292B"/>
<path d="M283.887 287.632H164.671C160.054 287.632 156.277 283.855 156.277 279.239V252.72C156.277 248.103 160.054 244.326 164.671 244.326H283.887C288.504 244.326 292.281 248.103 292.281 252.72V279.239C292.281 283.855 288.504 287.632 283.887 287.632Z" fill="#FFA727"/>
<path d="M253.994 259.619H207.712C206.801 259.619 206.055 258.873 206.055 257.961C206.055 257.05 206.8 256.304 207.712 256.304H253.994C254.906 256.304 255.652 257.049 255.652 257.961C255.652 258.873 254.906 259.619 253.994 259.619Z" fill="#F2E9DA"/>
<path d="M282.795 267.477H207.712C206.801 267.477 206.055 266.73 206.055 265.819C206.055 264.907 206.8 264.161 207.712 264.161H282.795C283.706 264.161 284.453 264.907 284.453 265.819C284.453 266.731 283.707 267.477 282.795 267.477Z" fill="#F2E9DA"/>
<path d="M282.795 275.656H207.712C206.801 275.656 206.055 274.91 206.055 273.999C206.055 273.086 206.8 272.341 207.712 272.341H282.795C283.706 272.341 284.453 273.086 284.453 273.999C284.453 274.91 283.707 275.656 282.795 275.656Z" fill="#F2E9DA"/>
<path d="M176.118 282.596C176.044 282.596 175.97 282.589 175.896 282.575C173.951 282.223 172.099 281.545 170.39 280.559C168.643 279.556 167.128 278.29 165.887 276.798C165.449 276.272 165.517 275.49 166.04 275.048L167.129 274.126C166.621 273.412 166.184 272.656 165.818 271.864L164.49 272.345C164.178 272.457 163.835 272.442 163.535 272.301C163.235 272.161 163.003 271.907 162.891 271.596C162.227 269.762 161.883 267.822 161.867 265.83C161.883 263.818 162.227 261.879 162.891 260.045C163.003 259.733 163.235 259.479 163.535 259.339C163.835 259.198 164.178 259.183 164.49 259.296L165.818 259.776C166.183 258.984 166.621 258.228 167.129 257.512L166.041 256.593C165.517 256.151 165.448 255.369 165.887 254.841C167.124 253.353 168.639 252.086 170.39 251.077C172.103 250.092 173.955 249.416 175.896 249.064C176.222 249.005 176.558 249.078 176.831 249.268C177.103 249.457 177.289 249.747 177.347 250.073L177.597 251.472C178.464 251.393 179.338 251.393 180.207 251.472L180.457 250.073C180.515 249.747 180.7 249.458 180.973 249.268C181.244 249.078 181.58 249.005 181.906 249.064C185.776 249.757 189.424 251.862 191.914 254.839C192.355 255.365 192.287 256.149 191.763 256.593L190.673 257.513C191.18 258.229 191.618 258.986 191.982 259.776L193.315 259.295C193.627 259.182 193.97 259.198 194.27 259.339C194.57 259.479 194.802 259.734 194.914 260.046C195.578 261.893 195.921 263.834 195.933 265.812C195.933 265.817 195.933 265.822 195.933 265.827C195.921 267.805 195.578 269.745 194.914 271.592C194.802 271.904 194.57 272.159 194.27 272.299C193.97 272.441 193.626 272.456 193.315 272.343L191.982 271.862C191.617 272.653 191.18 273.409 190.673 274.124L191.763 275.046C192.287 275.49 192.354 276.273 191.914 276.8C189.391 279.816 185.837 281.867 181.908 282.575C181.58 282.633 181.245 282.56 180.973 282.37C180.701 282.181 180.516 281.891 180.457 281.565L180.207 280.166C179.339 280.245 178.464 280.245 177.595 280.166L177.348 281.564C177.29 281.891 177.104 282.181 176.832 282.37C176.62 282.518 176.371 282.596 176.118 282.596ZM168.642 276.116C169.517 276.99 170.52 277.754 171.636 278.395C172.734 279.029 173.901 279.514 175.117 279.842L175.346 278.553C175.404 278.227 175.589 277.937 175.861 277.748C176.134 277.558 176.469 277.485 176.796 277.543C178.182 277.791 179.621 277.791 181.007 277.543C181.333 277.485 181.668 277.558 181.941 277.747C182.212 277.936 182.398 278.226 182.456 278.552L182.686 279.842C185.122 279.177 187.393 277.869 189.16 276.114L188.15 275.258C187.624 274.813 187.558 274.026 188.004 273.499C188.925 272.41 189.632 271.187 190.107 269.861C190.219 269.549 190.45 269.294 190.75 269.152C191.05 269.011 191.395 268.995 191.707 269.108L192.938 269.553C193.262 268.34 193.429 267.089 193.436 265.82C193.429 264.549 193.261 263.299 192.938 262.086L191.707 262.531C191.395 262.644 191.051 262.628 190.75 262.487C190.45 262.345 190.219 262.091 190.107 261.778C189.633 260.455 188.925 259.229 188.002 258.134C187.558 257.608 187.624 256.821 188.151 256.376L189.159 255.524C187.391 253.766 185.121 252.458 182.687 251.796L182.456 253.087C182.398 253.413 182.213 253.703 181.941 253.892C181.669 254.082 181.333 254.155 181.007 254.096C179.618 253.847 178.179 253.848 176.8 254.096C176.474 254.155 176.138 254.082 175.866 253.892C175.594 253.703 175.408 253.413 175.349 253.087L175.119 251.796C173.902 252.125 172.736 252.609 171.636 253.24C170.52 253.884 169.517 254.649 168.643 255.522L169.654 256.376C169.908 256.59 170.065 256.896 170.093 257.226C170.121 257.556 170.016 257.883 169.802 258.137C168.879 259.228 168.17 260.452 167.695 261.778C167.583 262.091 167.352 262.345 167.052 262.487C166.751 262.628 166.407 262.644 166.095 262.531L164.867 262.086C164.544 263.294 164.376 264.548 164.366 265.829C164.376 267.095 164.544 268.345 164.867 269.552L166.095 269.107C166.407 268.994 166.752 269.01 167.052 269.151C167.352 269.292 167.584 269.547 167.696 269.86C168.172 271.187 168.88 272.411 169.801 273.496C170.016 273.749 170.121 274.076 170.094 274.407C170.066 274.737 169.909 275.043 169.656 275.257L168.642 276.116Z" fill="#F2E9DA"/>
<path d="M178.899 273.018C174.929 273.018 171.699 269.789 171.699 265.819C171.699 261.849 174.929 258.619 178.899 258.619C182.869 258.619 186.099 261.849 186.099 265.819C186.099 269.789 182.868 273.018 178.899 273.018ZM178.899 261.116C176.306 261.116 174.196 263.225 174.196 265.818C174.196 268.411 176.306 270.521 178.899 270.521C181.492 270.521 183.601 268.411 183.601 265.818C183.601 263.225 181.492 261.116 178.899 261.116Z" fill="#F2E9DA"/>
<path d="M279.576 287.983H160.361C155.539 287.983 151.617 284.061 151.617 279.239V252.721C151.617 247.899 155.539 243.978 160.361 243.978H279.577C284.398 243.978 288.32 247.899 288.32 252.721V279.239C288.319 284.061 284.398 287.983 279.576 287.983ZM160.361 244.677C155.925 244.677 152.317 248.286 152.317 252.721V279.239C152.317 283.675 155.925 287.283 160.361 287.283H279.577C284.012 287.283 287.621 283.675 287.621 279.239V252.721C287.621 248.286 284.012 244.677 279.577 244.677H160.361Z" fill="#25292B"/>
<path d="M170.47 127.897C199.902 127.897 223.761 104.038 223.761 74.6064C223.761 45.1749 199.902 21.3159 170.47 21.3159C141.039 21.3159 117.18 45.1749 117.18 74.6064C117.18 104.038 141.039 127.897 170.47 127.897Z" fill="#FFA727"/>
<path d="M170.469 130.748C139.513 130.748 114.328 105.563 114.328 74.6067C114.328 43.6502 139.513 18.4658 170.469 18.4658C201.425 18.4658 226.61 43.6502 226.61 74.6067C226.61 105.563 201.425 130.748 170.469 130.748ZM170.469 19.1653C139.899 19.1653 115.028 44.0363 115.028 74.6067C115.028 105.177 139.899 130.048 170.469 130.048C201.039 130.048 225.91 105.177 225.91 74.6067C225.91 44.0363 201.039 19.1653 170.469 19.1653Z" fill="#25292B"/>
<mask id="mask0_2198_3509" style="mask-type:luminance" maskUnits="userSpaceOnUse" x="117" y="21" width="123" height="107">
<path d="M239.489 53.7286V80.0966H223.481C220.735 106.952 198.048 127.899 170.474 127.899C141.038 127.899 117.18 104.041 117.18 74.605C117.18 45.1741 141.038 21.3159 170.474 21.3159C192.496 21.3159 211.396 34.6737 219.513 53.7286H239.489Z" fill="white"/>
</mask>
<g mask="url(#mask0_2198_3509)">
<path d="M223.127 139.93C220.39 139.93 218.012 137.899 217.648 135.113C212.874 98.5109 197.104 93.8196 196.945 93.7769C197.034 93.8007 197.081 93.8084 197.081 93.8084L199.415 82.9932C200.094 83.1401 206.239 84.6397 212.793 92.0611C220.887 101.229 226.213 115.232 228.619 133.682C229.014 136.712 226.878 139.488 223.848 139.883C223.607 139.915 223.366 139.93 223.127 139.93Z" fill="#25292B"/>
</g>
<mask id="mask1_2198_3509" style="mask-type:luminance" maskUnits="userSpaceOnUse" x="117" y="21" width="123" height="107">
<path d="M239.489 53.7286V80.0966H223.481C220.735 106.952 198.048 127.899 170.474 127.899C141.038 127.899 117.18 104.041 117.18 74.605C117.18 45.1741 141.038 21.3159 170.474 21.3159C192.496 21.3159 211.396 34.6737 219.513 53.7286H239.489Z" fill="white"/>
</mask>
<g mask="url(#mask1_2198_3509)">
<path d="M185.378 117.9H159.66V136.774H185.378V117.9Z" fill="#25292B"/>
</g>
<mask id="mask2_2198_3509" style="mask-type:luminance" maskUnits="userSpaceOnUse" x="117" y="21" width="123" height="107">
<path d="M239.489 53.7286V80.0966H223.481C220.735 106.952 198.048 127.899 170.474 127.899C141.038 127.899 117.18 104.041 117.18 74.605C117.18 45.1741 141.038 21.3159 170.474 21.3159C192.496 21.3159 211.396 34.6737 219.513 53.7286H239.489Z" fill="white"/>
</mask>
<g mask="url(#mask2_2198_3509)">
<path d="M204.162 54.4985C204.162 56.2738 204.031 58.0239 203.77 59.7236C202.749 66.4574 196.986 71.4467 190.176 71.4467H150.753C144.114 71.4467 138.32 66.719 137.24 60.1663C136.933 58.3204 136.777 56.4298 136.777 54.4985C136.777 35.6646 151.865 25.4048 170.473 25.4048C172.771 25.4048 175.015 25.5608 177.182 25.8727C192.57 28.0705 204.162 37.9875 204.162 54.4985Z" fill="#F2E9DA"/>
</g>
<mask id="mask3_2198_3509" style="mask-type:luminance" maskUnits="userSpaceOnUse" x="117" y="21" width="123" height="107">
<path d="M239.489 53.7286V80.0966H223.481C220.735 106.952 198.048 127.899 170.474 127.899C141.038 127.899 117.18 104.041 117.18 74.605C117.18 45.1741 141.038 21.3159 170.474 21.3159C192.496 21.3159 211.396 34.6737 219.513 53.7286H239.489Z" fill="white"/>
</mask>
<g mask="url(#mask3_2198_3509)">
<path d="M204.165 54.4984C204.165 56.2736 204.034 58.0237 203.773 59.7234C202.751 66.4572 196.989 71.4465 190.179 71.4465H164.179C157.54 71.4465 151.746 66.7188 150.665 60.1662C150.358 58.3203 150.203 56.4296 150.203 54.4984C150.203 37.993 161.791 28.0703 177.184 25.8726C192.573 28.0703 204.165 37.9874 204.165 54.4984Z" fill="#25292B"/>
</g>
<mask id="mask4_2198_3509" style="mask-type:luminance" maskUnits="userSpaceOnUse" x="117" y="21" width="123" height="107">
<path d="M239.489 53.7286V80.0966H223.481C220.735 106.952 198.048 127.899 170.474 127.899C141.038 127.899 117.18 104.041 117.18 74.605C117.18 45.1741 141.038 21.3159 170.474 21.3159C192.496 21.3159 211.396 34.6737 219.513 53.7286H239.489Z" fill="white"/>
</mask>
<g mask="url(#mask4_2198_3509)">
<path d="M140.913 65.6002C137.174 65.6002 134.133 62.5582 134.133 58.8195V51.2694C134.133 47.5301 137.175 44.4888 140.913 44.4888C144.652 44.4888 147.694 47.5308 147.694 51.2694V58.8188C147.694 62.5582 144.653 65.6002 140.913 65.6002ZM140.913 45.1882C137.56 45.1882 134.832 47.9162 134.832 51.2694V58.8188C134.832 62.1721 137.56 64.9 140.913 64.9C144.267 64.9 146.995 62.1721 146.995 58.8188V51.2694C146.995 47.9162 144.267 45.1882 140.913 45.1882Z" fill="#25292B"/>
</g>
<mask id="mask5_2198_3509" style="mask-type:luminance" maskUnits="userSpaceOnUse" x="117" y="21" width="123" height="107">
<path d="M239.489 53.7286V80.0966H223.481C220.735 106.952 198.048 127.899 170.474 127.899C141.038 127.899 117.18 104.041 117.18 74.605C117.18 45.1741 141.038 21.3159 170.474 21.3159C192.496 21.3159 211.396 34.6737 219.513 53.7286H239.489Z" fill="white"/>
</mask>
<g mask="url(#mask5_2198_3509)">
<path d="M173.174 57.375C176.289 57.375 178.813 54.7043 178.813 51.4099C178.813 48.1155 176.289 45.4448 173.174 45.4448C170.06 45.4448 167.535 48.1155 167.535 51.4099C167.535 54.7043 170.06 57.375 173.174 57.375Z" fill="#FFBD29"/>
</g>
<mask id="mask6_2198_3509" style="mask-type:luminance" maskUnits="userSpaceOnUse" x="117" y="21" width="123" height="107">
<path d="M239.489 53.7286V80.0966H223.481C220.735 106.952 198.048 127.899 170.474 127.899C141.038 127.899 117.18 104.041 117.18 74.605C117.18 45.1741 141.038 21.3159 170.474 21.3159C192.496 21.3159 211.396 34.6737 219.513 53.7286H239.489Z" fill="white"/>
</mask>
<g mask="url(#mask6_2198_3509)">
<path d="M195.729 57.375C198.843 57.375 201.368 54.7043 201.368 51.4099C201.368 48.1155 198.843 45.4448 195.729 45.4448C192.615 45.4448 190.09 48.1155 190.09 51.4099C190.09 54.7043 192.615 57.375 195.729 57.375Z" fill="#FFBD29"/>
</g>
<mask id="mask7_2198_3509" style="mask-type:luminance" maskUnits="userSpaceOnUse" x="117" y="21" width="123" height="107">
<path d="M239.489 53.7286V80.0966H223.481C220.735 106.952 198.048 127.899 170.474 127.899C141.038 127.899 117.18 104.041 117.18 74.605C117.18 45.1741 141.038 21.3159 170.474 21.3159C192.496 21.3159 211.396 34.6737 219.513 53.7286H239.489Z" fill="white"/>
</mask>
<g mask="url(#mask7_2198_3509)">
<path d="M179.656 77.2868H164.557C164.364 77.2868 164.207 77.1301 164.207 76.9371V72.2765C164.207 72.0834 164.364 71.9268 164.557 71.9268H179.656C179.849 71.9268 180.005 72.0834 180.005 72.2765V76.9371C180.005 77.1301 179.849 77.2868 179.656 77.2868ZM164.906 76.5873H179.305V72.6262H164.906V76.5873Z" fill="#25292B"/>
</g>
<mask id="mask8_2198_3509" style="mask-type:luminance" maskUnits="userSpaceOnUse" x="117" y="21" width="123" height="107">
<path d="M239.489 53.7286V80.0966H223.481C220.735 106.952 198.048 127.899 170.474 127.899C141.038 127.899 117.18 104.041 117.18 74.605C117.18 45.1741 141.038 21.3159 170.474 21.3159C192.496 21.3159 211.396 34.6737 219.513 53.7286H239.489Z" fill="white"/>
</mask>
<g mask="url(#mask8_2198_3509)">
<path d="M138.004 95.392C138.004 93.6167 138.135 91.8667 138.396 90.167C139.418 83.4332 145.18 78.4438 151.99 78.4438H191.413C198.052 78.4438 203.846 83.1716 204.926 89.7242C205.233 91.5701 205.389 93.4608 205.389 95.392C205.389 114.226 190.301 124.486 171.693 124.486C169.395 124.486 167.152 124.33 164.985 124.018C149.596 121.82 138.004 111.903 138.004 95.392Z" fill="#F2E9DA"/>
</g>
<mask id="mask9_2198_3509" style="mask-type:luminance" maskUnits="userSpaceOnUse" x="117" y="21" width="123" height="107">
<path d="M239.489 53.7286V80.0966H223.481C220.735 106.952 198.048 127.899 170.474 127.899C141.038 127.899 117.18 104.041 117.18 74.605C117.18 45.1741 141.038 21.3159 170.474 21.3159C192.496 21.3159 211.396 34.6737 219.513 53.7286H239.489Z" fill="white"/>
</mask>
<g mask="url(#mask9_2198_3509)">
<path d="M202.019 91.6935C202.019 94.3787 200.923 96.8234 199.148 98.5937C197.378 100.364 194.939 101.465 192.248 101.465H165.377C160.001 101.465 155.605 97.0647 155.605 91.6935C155.605 89.0082 156.707 86.5636 158.477 84.7932C160.247 83.0228 162.691 81.9219 165.377 81.9219H192.248C197.624 81.9219 202.019 86.3173 202.019 91.6935Z" fill="#FFBD29"/>
</g>
<mask id="mask10_2198_3509" style="mask-type:luminance" maskUnits="userSpaceOnUse" x="117" y="21" width="123" height="107">
<path d="M239.489 53.7286V80.0966H223.481C220.735 106.952 198.048 127.899 170.474 127.899C141.038 127.899 117.18 104.041 117.18 74.605C117.18 45.1741 141.038 21.3159 170.474 21.3159C192.496 21.3159 211.396 34.6737 219.513 53.7286H239.489Z" fill="white"/>
</mask>
<g mask="url(#mask10_2198_3509)">
<path d="M158.372 120.959C158.299 120.959 158.225 120.935 158.161 120.887C154.941 118.444 153.298 114.881 152.487 112.321C151.423 108.966 151.127 105.45 150.966 102.149C150.606 94.8012 150.881 87.3721 151.784 80.0676C151.808 79.8766 151.983 79.7402 152.174 79.7633C152.366 79.7871 152.502 79.9612 152.479 80.1536C151.581 87.4183 151.307 94.8068 151.665 102.115C151.825 105.368 152.115 108.831 153.154 112.11C153.935 114.572 155.511 117.997 158.585 120.329C158.739 120.446 158.769 120.665 158.652 120.819C158.582 120.91 158.478 120.959 158.372 120.959Z" fill="#25292B"/>
</g>
<mask id="mask11_2198_3509" style="mask-type:luminance" maskUnits="userSpaceOnUse" x="117" y="21" width="123" height="107">
<path d="M239.489 53.7286V80.0966H223.481C220.735 106.952 198.048 127.899 170.474 127.899C141.038 127.899 117.18 104.041 117.18 74.605C117.18 45.1741 141.038 21.3159 170.474 21.3159C192.496 21.3159 211.396 34.6737 219.513 53.7286H239.489Z" fill="white"/>
</mask>
<g mask="url(#mask11_2198_3509)">
<path d="M142.385 104.141C138.657 104.141 135.625 101.109 135.625 97.382V87.7433C135.625 84.0166 138.657 80.9844 142.385 80.9844C146.111 80.9844 149.144 84.0166 149.144 87.7433V97.382C149.144 101.109 146.112 104.141 142.385 104.141ZM142.385 81.6831C139.043 81.6831 136.324 84.4013 136.324 87.7427V97.3813C136.324 100.723 139.043 103.441 142.385 103.441C145.726 103.441 148.444 100.723 148.444 97.3813V87.7427C148.445 84.4013 145.726 81.6831 142.385 81.6831Z" fill="#25292B"/>
</g>
<mask id="mask12_2198_3509" style="mask-type:luminance" maskUnits="userSpaceOnUse" x="117" y="21" width="123" height="107">
<path d="M239.489 53.7286V80.0966H223.481C220.735 106.952 198.048 127.899 170.474 127.899C141.038 127.899 117.18 104.041 117.18 74.605C117.18 45.1741 141.038 21.3159 170.474 21.3159C192.496 21.3159 211.396 34.6737 219.513 53.7286H239.489Z" fill="white"/>
</mask>
<g mask="url(#mask12_2198_3509)">
<path d="M185.648 56.187H181.03C181.03 56.187 180.537 60.5678 185.41 60.5678C190.284 60.5678 189.723 56.187 189.723 56.187H185.648Z" fill="#F2E9DA"/>
</g>
<mask id="mask13_2198_3509" style="mask-type:luminance" maskUnits="userSpaceOnUse" x="117" y="21" width="123" height="107">
<path d="M239.489 53.7286V80.0966H223.481C220.735 106.952 198.048 127.899 170.474 127.899C141.038 127.899 117.18 104.041 117.18 74.605C117.18 45.1741 141.038 21.3159 170.474 21.3159C192.496 21.3159 211.396 34.6737 219.513 53.7286H239.489Z" fill="white"/>
</mask>
<g mask="url(#mask13_2198_3509)">
<path d="M121.087 141.7C123.824 141.7 126.202 139.669 126.566 136.882C130.014 110.444 139.2 100.655 144.095 97.2407C145.951 95.946 146.836 93.6594 146.331 91.4533C145.463 87.6642 141.046 85.8876 137.839 88.0839C135.886 89.422 133.678 91.2749 131.421 93.8308C123.35 102.971 118.033 116.919 115.616 135.288C115.252 138.05 116.916 140.759 119.602 141.498C120.102 141.636 120.6 141.699 121.087 141.7Z" fill="#25292B"/>
</g>
<mask id="mask14_2198_3509" style="mask-type:luminance" maskUnits="userSpaceOnUse" x="117" y="21" width="123" height="107">
<path d="M239.489 53.7286V80.0966H223.481C220.735 106.952 198.048 127.899 170.474 127.899C141.038 127.899 117.18 104.041 117.18 74.605C117.18 45.1741 141.038 21.3159 170.474 21.3159C192.496 21.3159 211.396 34.6737 219.513 53.7286H239.489Z" fill="white"/>
</mask>
<g mask="url(#mask14_2198_3509)">
<path d="M141.147 56.4042C140.954 56.4042 140.797 56.2475 140.797 56.0545V36.2867C140.797 36.0937 140.954 35.937 141.147 35.937C141.34 35.937 141.496 36.0937 141.496 36.2867V56.0545C141.496 56.2475 141.34 56.4042 141.147 56.4042Z" fill="#25292B"/>
</g>
<mask id="mask15_2198_3509" style="mask-type:luminance" maskUnits="userSpaceOnUse" x="117" y="21" width="123" height="107">
<path d="M239.489 53.7286V80.0966H223.481C220.735 106.952 198.048 127.899 170.474 127.899C141.038 127.899 117.18 104.041 117.18 74.605C117.18 45.1741 141.038 21.3159 170.474 21.3159C192.496 21.3159 211.396 34.6737 219.513 53.7286H239.489Z" fill="white"/>
</mask>
<g mask="url(#mask15_2198_3509)">
<path d="M141.151 60.1277C142.803 60.1277 144.142 58.1566 144.142 55.7252C144.142 53.2938 142.803 51.3228 141.151 51.3228C139.499 51.3228 138.16 53.2938 138.16 55.7252C138.16 58.1566 139.499 60.1277 141.151 60.1277Z" fill="#FFBD29"/>
</g>
<mask id="mask16_2198_3509" style="mask-type:luminance" maskUnits="userSpaceOnUse" x="117" y="21" width="123" height="107">
<path d="M239.489 53.7286V80.0966H223.481C220.735 106.952 198.048 127.899 170.474 127.899C141.038 127.899 117.18 104.041 117.18 74.605C117.18 45.1741 141.038 21.3159 170.474 21.3159C192.496 21.3159 211.396 34.6737 219.513 53.7286H239.489Z" fill="white"/>
</mask>
<g mask="url(#mask16_2198_3509)">
<path d="M140.941 39.827C142.793 39.827 144.295 38.3251 144.295 36.4723C144.295 34.6196 142.793 33.1177 140.941 33.1177C139.088 33.1177 137.586 34.6196 137.586 36.4723C137.586 38.3251 139.088 39.827 140.941 39.827Z" fill="#25292B"/>
</g>
<mask id="mask17_2198_3509" style="mask-type:luminance" maskUnits="userSpaceOnUse" x="117" y="21" width="123" height="107">
<path d="M239.489 53.7286V80.0966H223.481C220.735 106.952 198.048 127.899 170.474 127.899C141.038 127.899 117.18 104.041 117.18 74.605C117.18 45.1741 141.038 21.3159 170.474 21.3159C192.496 21.3159 211.396 34.6737 219.513 53.7286H239.489Z" fill="white"/>
</mask>
<g mask="url(#mask17_2198_3509)">
<path d="M178.342 100.698C177.696 100.698 177.168 100.169 177.168 99.5232V84.337C177.168 83.6907 177.697 83.1626 178.342 83.1626C178.989 83.1626 179.517 83.6914 179.517 84.337V99.5232C179.517 100.169 178.988 100.698 178.342 100.698Z" fill="#F2E9DA"/>
<path d="M174.745 96.4897C174.098 96.4897 173.57 95.9609 173.57 95.3153V88.5431C173.57 87.8967 174.099 87.3687 174.745 87.3687C175.391 87.3687 175.919 87.8974 175.919 88.5431V95.3153C175.92 95.9609 175.391 96.4897 174.745 96.4897Z" fill="#F2E9DA"/>
<path d="M168.018 97.3519C167.372 97.3519 166.844 96.8231 166.844 96.1775V87.6817C166.844 87.0354 167.373 86.5073 168.018 86.5073C168.664 86.5073 169.193 87.0361 169.193 87.6817V96.1768C169.193 96.8231 168.664 97.3519 168.018 97.3519Z" fill="#F2E9DA"/>
<path d="M171.264 94.9012C170.618 94.9012 170.09 94.3724 170.09 93.7268V90.1329C170.09 89.4866 170.619 88.9585 171.264 88.9585C171.911 88.9585 172.439 89.4873 172.439 90.1329V93.7268C172.439 94.3724 171.911 94.9012 171.264 94.9012Z" fill="#F2E9DA"/>
<path d="M164.667 94.9012C164.02 94.9012 163.492 94.3724 163.492 93.7268V90.1329C163.492 89.4866 164.021 88.9585 164.667 88.9585C165.313 88.9585 165.841 89.4873 165.841 90.1329V93.7268C165.842 94.3724 165.313 94.9012 164.667 94.9012Z" fill="#F2E9DA"/>
<path d="M181.928 87.3682C182.575 87.3682 183.103 87.897 183.103 88.5426V95.3148C183.103 95.9611 182.574 96.4892 181.928 96.4892C181.282 96.4892 180.754 95.9604 180.754 95.3148V88.5426C180.754 87.897 181.283 87.3682 181.928 87.3682Z" fill="#F2E9DA"/>
<path d="M188.655 86.5073C189.301 86.5073 189.829 87.0361 189.829 87.6817V96.1768C189.829 96.8231 189.301 97.3512 188.655 97.3512C188.009 97.3512 187.48 96.8224 187.48 96.1768V87.6817C187.48 87.0354 188.009 86.5073 188.655 86.5073Z" fill="#F2E9DA"/>
<path d="M185.405 88.9575C186.051 88.9575 186.579 89.4863 186.579 90.1319V93.7258C186.579 94.3721 186.051 94.9002 185.405 94.9002C184.759 94.9002 184.23 94.3714 184.23 93.7258V90.1319C184.23 89.4863 184.759 88.9575 185.405 88.9575Z" fill="#F2E9DA"/>
<path d="M192.003 88.9575C192.649 88.9575 193.177 89.4863 193.177 90.1319V93.7258C193.177 94.3721 192.648 94.9002 192.003 94.9002C191.356 94.9002 190.828 94.3714 190.828 93.7258V90.1319C190.827 89.4863 191.356 88.9575 192.003 88.9575Z" fill="#F2E9DA"/>
</g>
<path d="M390.583 268.441L373.992 284.547L373.113 292.408C373.113 292.408 359.799 304.67 368.394 313.524L402.349 280.562L390.583 268.441Z" fill="#FFBD29"/>
<path d="M383.045 263.798L371.988 279.523L375.882 282.714L389.024 269.957L383.045 263.798Z" fill="#F2E9DA"/>
<path d="M367.779 312.3C367.687 312.3 367.596 312.265 367.529 312.195C367.394 312.056 367.397 311.834 367.536 311.7L400.287 279.906C400.427 279.771 400.648 279.776 400.782 279.913C400.916 280.052 400.914 280.274 400.775 280.408L368.023 312.202C367.954 312.267 367.867 312.3 367.779 312.3Z" fill="#25292B"/>
<path d="M373.116 292.757C373.014 292.757 372.913 292.713 372.844 292.627C372.722 292.477 372.745 292.257 372.895 292.136C373.166 291.917 379.575 286.778 384.41 287.406C384.601 287.431 384.736 287.606 384.712 287.799C384.686 287.99 384.508 288.123 384.318 288.1C379.785 287.504 373.4 292.628 373.335 292.68C373.271 292.732 373.193 292.757 373.116 292.757Z" fill="#25292B"/>
<path d="M374.154 287.986C373.615 287.986 373.072 287.967 372.532 287.91C371.184 287.768 370.026 287.404 369.09 286.828C368.486 286.457 368.076 286.047 367.836 285.578C367.512 284.948 367.537 284.208 367.899 283.695C368.294 283.135 369.063 282.861 370.001 282.942C371.197 283.045 372.442 283.58 373.604 284.492C374.364 285.089 375.028 285.786 375.656 286.494C375.656 285.16 375.806 283.999 376.109 282.968C376.44 281.841 377.141 280.261 378.597 279.13C379.009 278.81 379.373 278.619 379.745 278.528C380.255 278.401 380.766 278.483 381.143 278.752C381.77 279.195 381.98 280.076 381.718 281.166C381.398 282.498 380.703 283.787 379.65 284.996C378.996 285.747 378.203 286.47 377.193 287.232C378.599 287.22 379.983 286.964 381.27 286.403C382.109 286.037 382.751 285.614 383.232 285.109C383.797 284.516 384.13 283.806 384.17 283.107C384.212 282.353 383.882 281.615 383.33 281.227C383.171 281.115 383.134 280.897 383.244 280.74C383.355 280.581 383.575 280.544 383.731 280.654C384.477 281.179 384.924 282.157 384.868 283.146C384.82 284.01 384.418 284.88 383.739 285.593C383.192 286.165 382.476 286.64 381.55 287.044C379.88 287.772 378.043 288.06 376.235 287.878C376.186 287.909 376.127 287.927 376.065 287.93C375.436 287.958 374.797 287.986 374.154 287.986ZM369.686 283.628C369.306 283.628 368.749 283.703 368.47 284.099C368.259 284.397 368.255 284.863 368.458 285.259C368.639 285.612 368.965 285.93 369.456 286.233C370.302 286.753 371.362 287.084 372.606 287.215C373.524 287.312 374.469 287.296 375.396 287.259C374.71 286.471 373.992 285.686 373.172 285.042C372.117 284.214 371 283.729 369.94 283.638C369.874 283.633 369.786 283.628 369.686 283.628ZM380.21 279.169C380.112 279.169 380.012 279.182 379.911 279.207C379.638 279.274 379.357 279.425 379.025 279.682C378.004 280.476 377.206 281.712 376.779 283.165C376.454 284.269 376.319 285.489 376.36 286.976C377.53 286.13 378.414 285.349 379.122 284.536C380.099 283.413 380.743 282.223 381.036 281.002C381.107 280.707 381.294 279.716 380.737 279.322C380.597 279.222 380.411 279.169 380.21 279.169Z" fill="#25292B"/>
<path d="M321.213 308.004H298.091L291.984 313.032C291.984 313.032 273.891 312.556 273.891 324.896H321.213V308.004Z" fill="#FFBD29"/>
<path d="M319.038 299.419L300.152 303.001L300.723 308.003H319.038V299.419Z" fill="#F2E9DA"/>
<path d="M320.191 323.688H274.545C274.352 323.688 274.195 323.531 274.195 323.338C274.195 323.145 274.352 322.988 274.545 322.988H320.191C320.384 322.988 320.541 323.145 320.541 323.338C320.541 323.531 320.384 323.688 320.191 323.688Z" fill="#25292B"/>
<path d="M303.297 317.877C303.194 317.877 303.092 317.832 303.022 317.745C300.185 314.163 292.033 313.388 291.951 313.381C291.759 313.363 291.617 313.193 291.634 313.001C291.652 312.808 291.823 312.668 292.014 312.684C292.361 312.715 300.547 313.493 303.57 317.311C303.69 317.463 303.665 317.682 303.513 317.802C303.45 317.852 303.373 317.877 303.297 317.877Z" fill="#25292B"/>
<path d="M304.164 315.545C303.426 315.545 302.642 315.385 301.772 315.058C300.044 314.41 298.508 313.317 297.328 311.896C297.307 311.869 297.289 311.841 297.276 311.81C297.275 311.809 297.275 311.808 297.275 311.807L297.216 311.872C296.353 311.104 295.459 310.311 294.699 309.4C293.83 308.359 293.253 307.29 292.982 306.225C292.808 305.541 292.799 304.961 292.953 304.457C293.161 303.777 293.694 303.264 294.31 303.148C294.983 303.018 295.724 303.359 296.342 304.071C297.129 304.979 297.65 306.232 297.847 307.694C297.977 308.648 297.968 309.611 297.925 310.559C298.857 309.595 299.756 308.883 300.706 308.345C301.729 307.768 303.334 307.121 305.165 307.324C305.682 307.382 306.078 307.498 306.408 307.691C306.861 307.956 307.171 308.37 307.255 308.825C307.396 309.58 306.934 310.357 305.986 310.958C304.828 311.692 303.431 312.133 301.835 312.266C300.84 312.348 299.769 312.316 298.515 312.159C299.509 313.143 300.704 313.912 302.017 314.405C302.873 314.726 303.624 314.867 304.327 314.843C305.145 314.812 305.879 314.534 306.394 314.059C306.949 313.548 307.225 312.788 307.1 312.124C307.064 311.934 307.189 311.752 307.378 311.715C307.564 311.681 307.75 311.804 307.787 311.994C307.957 312.889 307.597 313.902 306.868 314.573C306.231 315.16 305.337 315.504 304.353 315.543C304.291 315.544 304.227 315.545 304.164 315.545ZM298.097 311.395C299.523 311.604 300.703 311.658 301.778 311.568C303.261 311.443 304.551 311.039 305.613 310.366C305.868 310.204 306.694 309.623 306.569 308.952C306.522 308.701 306.33 308.455 306.056 308.294C305.813 308.152 305.506 308.064 305.089 308.018C303.803 307.872 302.37 308.208 301.052 308.953C300.05 309.518 299.103 310.3 298.097 311.395ZM294.599 303.82C294.547 303.82 294.493 303.824 294.439 303.835C294.081 303.902 293.753 304.233 293.622 304.661C293.506 305.04 293.518 305.495 293.66 306.053C293.905 307.015 294.435 307.991 295.236 308.952C295.828 309.66 296.516 310.307 297.207 310.926C297.263 309.883 297.296 308.818 297.156 307.788C296.976 306.46 296.512 305.333 295.814 304.53C295.62 304.304 295.136 303.82 294.599 303.82Z" fill="#25292B"/>
<path d="M385.21 264.22L371.674 281.604C368.127 278.635 336.723 251.971 326.819 229.971C323.13 221.778 320.596 210.009 318.859 198.269C317.149 186.686 316.218 175.127 315.727 167.063C317.645 167.214 319.674 167.296 321.803 167.279C327.875 167.249 334.762 166.465 342.265 164.396C343.127 164.158 343.998 163.904 344.877 163.632C345.312 163.499 345.752 163.357 346.191 163.214C347.717 162.714 349.264 162.163 350.837 161.551C351.539 163.688 352.13 165.942 352.488 168.213C354.125 178.651 353.539 217.942 353.539 217.942C358.934 229.919 373.79 254.657 385.21 264.22Z" fill="#25292B"/>
<path d="M321.213 299.007L296.858 303.625C286.98 251.531 288.217 207.06 290.807 179.715V179.702C291.497 172.781 292.639 166.666 293.918 161.473C293.948 161.49 294.112 161.58 294.405 161.727C295.375 162.206 297.771 163.3 301.361 164.395C304.998 165.502 309.859 166.606 315.725 167.063C316.216 175.126 318.038 192.275 319.75 203.859C318.551 226.946 313.455 258.083 321.213 299.007Z" fill="#25292B"/>
<path d="M319.747 204.209C319.575 204.209 319.425 204.081 319.402 203.905L315.409 174.139L299.797 170.48C299.609 170.436 299.492 170.247 299.537 170.059C299.581 169.872 299.768 169.754 299.957 169.798L316.039 173.567L316.07 173.806L320.095 203.811C320.121 204.002 319.987 204.179 319.795 204.205C319.779 204.208 319.763 204.209 319.747 204.209Z" fill="#F6EFE0"/>
<path d="M376.913 272.269C376.812 272.269 376.711 272.225 376.642 272.14C375.339 270.542 344.692 232.864 341.83 221.181C338.98 209.545 336.432 169.416 336.407 169.012C336.394 168.82 336.541 168.654 336.734 168.642C336.941 168.637 337.094 168.777 337.105 168.969C337.13 169.373 339.674 209.439 342.509 221.015C345.334 232.546 376.866 271.309 377.184 271.699C377.306 271.849 377.284 272.069 377.134 272.191C377.069 272.243 376.991 272.269 376.913 272.269Z" fill="#F6EFE0"/>
<path d="M325.338 152.498C325.506 158.631 325.778 163.427 326.076 167.129C324.61 167.224 323.184 167.271 321.801 167.276C319.671 167.293 317.642 167.211 315.724 167.06C309.967 166.612 305.174 165.539 301.559 164.453C304.179 141.414 312.897 90.758 313.104 89.5605C313.104 89.5563 313.104 89.5563 313.104 89.5521L313.108 89.5437L330.476 89.5396C330.476 89.5396 324.796 132.639 325.338 152.498Z" fill="#F2E9DA"/>
<path d="M344.261 147.676C344.261 147.676 348.29 153.856 350.833 161.549C350.833 161.549 353.315 167.281 356.151 176.697C356.151 176.697 350.441 187.053 345.61 187.747C340.775 188.436 327.522 178.218 327.522 178.218C327.522 178.218 326.738 175.416 326.075 167.129C325.777 163.427 325.506 158.631 325.337 152.498C324.795 132.64 330.474 89.5391 330.474 89.5391H335.758C343.658 89.5391 350.592 94.8054 352.712 102.42L360.008 129.743C362.52 138.764 355.849 147.426 346.95 147.813C346.075 147.848 345.174 147.806 344.261 147.676Z" fill="#FFBD29"/>
<path d="M345.314 176.118C345.229 176.118 345.144 176.087 345.077 176.025C339.03 170.42 334.565 163.289 332.164 155.402C332.108 155.217 332.211 155.022 332.397 154.966C332.584 154.909 332.777 155.014 332.833 155.198C335.198 162.967 339.596 169.992 345.552 175.512C345.693 175.643 345.703 175.865 345.571 176.006C345.502 176.08 345.408 176.118 345.314 176.118Z" fill="#25292B"/>
<path d="M313.106 89.5437L313.102 89.5521C313.102 89.5563 313.102 89.5563 313.102 89.5605C312.895 90.7587 304.177 141.414 301.556 164.453C301.056 168.827 300.781 172.206 300.819 174.063C300.819 174.063 295.312 184.755 290.019 183.407C287.089 182.661 290.782 169.866 294.661 158.592C294.661 158.583 294.665 158.579 294.665 158.574C295.415 155.803 296.195 153.342 296.932 151.209C299.044 145.145 300.863 141.728 301.035 141.413C301.039 141.4 301.044 141.391 301.044 141.391L299.759 131.734H281.879L294.088 100.7C296.734 93.9685 303.233 89.543 310.465 89.543H313.106V89.5437Z" fill="#FFBD29"/>
<path d="M367.185 73.2013C366.297 77.8255 362.471 81.441 358.096 82.8589C353.105 84.4795 347.516 83.5961 342.892 81.2683C340.948 80.2897 339.147 79.0447 337.548 77.5793C336.147 76.4979 334.854 75.2696 333.708 73.9078C332.1 71.994 330.782 69.8396 329.799 67.5426C328.726 65.0259 327.959 62.2546 328.019 59.5008C328.075 57.0834 328.872 54.6052 330.622 52.8684C332.298 51.2051 334.811 50.4119 337.108 51.1358C339.31 51.8297 340.478 53.8421 341.646 55.6782C342.271 56.6609 342.944 57.6178 343.861 58.3543C344.801 59.1084 345.917 59.626 347.072 59.9659C351.86 61.3837 357.148 59.9876 361.776 62.1035C365.935 64.0047 368.033 68.7925 367.185 73.2013Z" fill="#25292B"/>
<path d="M335.778 64.6763C335.778 73.2336 328.841 80.171 320.284 80.171C311.726 80.171 302.281 67.8708 302.281 59.3135C302.281 50.7561 311.725 49.1816 320.284 49.1816C328.841 49.1816 335.778 56.1183 335.778 64.6763Z" fill="#25292B"/>
<path d="M335.61 72.2504C334.701 75.1119 332.783 76.8186 330.111 76.3017L330.477 89.5406L327.628 91.9321C323.078 95.7547 316.191 94.6215 313.105 89.5448L313.967 84.8604L311.864 83.1754C308.352 80.3572 306.309 76.108 306.309 71.6041V64.3855C313.196 66.079 317.854 64.2044 320.59 62.2696C322.664 60.8085 323.633 59.313 323.633 59.313L324.84 61.4205L327.701 66.4196V66.4539L327.714 66.4406C328.649 65.5229 329.847 64.9493 331.101 64.8374C331.752 64.7772 332.416 64.8458 333.067 65.0528C335.903 65.9538 336.584 69.186 335.61 72.2504Z" fill="#F2E9DA"/>
<path d="M317.007 86.3512C315.909 86.3512 314.81 85.984 313.892 85.2489L313.746 85.1307C313.596 85.009 313.574 84.7886 313.696 84.6382C313.819 84.4886 314.039 84.4669 314.188 84.5879L314.331 84.7047C315.907 85.9665 318.107 85.9665 319.68 84.7033L322.473 82.465C322.623 82.3454 322.843 82.3685 322.965 82.5195C323.085 82.6699 323.061 82.8903 322.91 83.0113L320.118 85.2489C319.203 85.9833 318.105 86.3512 317.007 86.3512Z" fill="#25292B"/>
<path d="M331.075 75.2131C330.901 75.2131 330.75 75.0823 330.729 74.9053C330.706 74.7136 330.842 74.5395 331.034 74.5164C332.069 74.3919 332.998 73.5259 333.194 72.5033C333.294 71.9822 333.211 71.4499 332.969 71.0428C332.714 70.6134 332.272 70.321 331.817 70.2804C331.348 70.2342 330.878 70.4742 330.669 70.8568C330.589 71.0023 330.417 71.0708 330.26 71.0232C330.101 70.975 329.998 70.8218 330.013 70.6574C330.113 69.553 330.284 68.3946 330.858 67.407C331.144 66.9146 331.49 66.5431 331.888 66.3025C332.391 65.9983 332.968 65.915 333.471 66.0745C334.057 66.2606 334.49 66.7908 334.525 67.3643C334.537 67.5567 334.39 67.7231 334.197 67.7343C334.007 67.7448 333.839 67.5993 333.827 67.4063C333.81 67.1195 333.571 66.839 333.259 66.7404C332.954 66.6432 332.575 66.7026 332.25 66.9006C331.955 67.0796 331.69 67.3678 331.464 67.7581C331.111 68.366 330.928 69.071 330.819 69.7901C331.138 69.6264 331.508 69.5488 331.88 69.5837C332.554 69.6446 333.202 70.0664 333.571 70.6854C333.9 71.2373 334.013 71.9479 333.881 72.6355C333.626 73.9659 332.464 75.0494 331.118 75.2117C331.103 75.2124 331.09 75.2131 331.075 75.2131Z" fill="#25292B"/>
<path d="M309.139 71.2649C309.947 71.2649 310.602 70.5399 310.602 69.6456C310.602 68.7513 309.947 68.0264 309.139 68.0264C308.331 68.0264 307.676 68.7513 307.676 69.6456C307.676 70.5399 308.331 71.2649 309.139 71.2649Z" fill="#25292B"/>
<path d="M318.038 71.2649C318.846 71.2649 319.501 70.5399 319.501 69.6456C319.501 68.7513 318.846 68.0264 318.038 68.0264C317.229 68.0264 316.574 68.7513 316.574 69.6456C316.574 70.5399 317.229 71.2649 318.038 71.2649Z" fill="#25292B"/>
<path d="M310.352 65.8616C309.24 65.5083 307.988 65.7056 307.083 66.4631C306.903 66.6135 306.826 66.8912 306.984 67.0905C307.127 67.2703 307.419 67.3507 307.611 67.1899C307.7 67.1157 307.792 67.0451 307.89 66.9821C307.937 66.9513 307.986 66.922 308.034 66.8933C308.04 66.8905 308.046 66.887 308.051 66.8842C308.077 66.8709 308.103 66.8583 308.129 66.8457C308.233 66.7961 308.341 66.752 308.451 66.7142C308.505 66.6953 308.561 66.6786 308.616 66.6625C308.626 66.6597 308.636 66.6569 308.643 66.6548C308.674 66.6478 308.705 66.6408 308.736 66.6345C308.85 66.6121 308.965 66.596 309.08 66.5869C309.138 66.582 309.196 66.5792 309.254 66.5778C309.282 66.5771 309.312 66.5771 309.34 66.5771C309.342 66.5771 309.342 66.5771 309.342 66.5771C309.345 66.5771 309.343 66.5771 309.35 66.5778C309.466 66.5848 309.581 66.596 309.695 66.6149C309.752 66.6247 309.809 66.6359 309.865 66.6492C309.893 66.6555 309.921 66.6632 309.95 66.6702C309.957 66.6723 309.961 66.673 309.964 66.6737C309.97 66.6758 309.973 66.6765 309.98 66.6785C310.204 66.7492 310.478 66.6988 310.575 66.4554C310.657 66.2526 310.591 65.9378 310.352 65.8616Z" fill="#25292B"/>
<path d="M316.608 66.4564C316.705 66.6998 316.98 66.7508 317.202 66.6795C317.209 66.6774 317.213 66.676 317.218 66.6746C317.222 66.6739 317.225 66.6732 317.233 66.6711C317.261 66.6641 317.289 66.6564 317.318 66.6501C317.374 66.6368 317.431 66.6256 317.488 66.6158C317.602 66.5963 317.717 66.5858 317.832 66.5788C317.839 66.5781 317.837 66.5781 317.841 66.5781C317.842 66.5781 317.841 66.5781 317.842 66.5781C317.871 66.5781 317.9 66.5781 317.929 66.5788C317.987 66.5802 318.045 66.583 318.103 66.5879C318.218 66.597 318.333 66.613 318.447 66.6354C318.477 66.6417 318.509 66.648 318.54 66.6557C318.547 66.6578 318.556 66.6599 318.566 66.6634C318.622 66.6795 318.677 66.6963 318.732 66.7152C318.842 66.7529 318.949 66.7963 319.054 66.8467C319.08 66.8593 319.106 66.8719 319.131 66.8851C319.137 66.8879 319.143 66.8914 319.148 66.8942C319.197 66.9229 319.245 66.9523 319.293 66.9831C319.39 67.0467 319.483 67.1167 319.571 67.1908C319.764 67.3517 320.056 67.2712 320.199 67.0915C320.357 66.8928 320.279 66.6151 320.099 66.4641C319.194 65.7058 317.943 65.5086 316.831 65.8625C316.592 65.9381 316.526 66.2528 316.608 66.4564Z" fill="#25292B"/>
<path d="M310.608 76.6152C310.517 76.6152 310.429 76.5802 310.363 76.5152C310.279 76.4326 310.242 76.3137 310.264 76.1983L311.701 68.8322C311.738 68.6419 311.922 68.5188 312.111 68.5559C312.301 68.593 312.425 68.7762 312.388 68.9658L311.053 75.8115L314.593 75.0491C314.784 75.0092 314.968 75.1281 315.009 75.317C315.05 75.5058 314.929 75.6919 314.741 75.7325L310.682 76.6068C310.657 76.6124 310.633 76.6152 310.608 76.6152Z" fill="#25292B"/>
<path d="M315.475 78.7019C315.331 78.7019 315.197 78.6124 315.145 78.469C315.08 78.2872 315.176 78.0871 315.358 78.0221C316.787 77.5142 317.841 76.102 317.922 74.5877C317.932 74.3953 318.106 74.247 318.29 74.2568C318.483 74.2673 318.63 74.4317 318.62 74.6247C318.525 76.4133 317.28 78.0808 315.592 78.681C315.553 78.6949 315.513 78.7019 315.475 78.7019Z" fill="#25292B"/>
<path d="M321.168 94.5523C315.241 94.5523 312.814 89.7477 312.79 89.6994C312.705 89.5259 312.776 89.3175 312.95 89.2322C313.124 89.1475 313.332 89.2182 313.418 89.3909C313.508 89.5735 315.688 93.8536 321.168 93.8536C326.695 93.8536 330.161 89.3741 330.195 89.3287C330.313 89.1741 330.532 89.1454 330.685 89.2615C330.839 89.3783 330.87 89.5973 330.753 89.7512C330.604 89.9463 327.05 94.5523 321.168 94.5523Z" fill="#25292B"/>
<path d="M311.396 147.401L312.342 159.845L302.601 153.116C296.016 155.98 288.422 156.628 280.999 154.417C264.28 149.436 254.764 131.845 259.745 115.127C264.726 98.4078 282.317 88.8915 299.036 93.8724C315.754 98.8534 325.271 116.444 320.29 133.163C318.603 138.827 315.464 143.67 311.396 147.401Z" fill="#FFA727"/>
<path d="M312.343 160.195C312.273 160.195 312.204 160.174 312.144 160.133L302.563 153.514C301.045 154.164 299.468 154.698 297.873 155.104C297.683 155.153 297.495 155.038 297.448 154.851C297.401 154.664 297.514 154.473 297.701 154.426C299.322 154.013 300.924 153.464 302.464 152.795C302.573 152.747 302.702 152.759 302.801 152.828L311.939 159.141L311.049 147.428C311.041 147.321 311.082 147.216 311.161 147.143C315.303 143.344 318.344 138.475 319.957 133.063C324.333 118.371 317.187 102.387 303.334 95.8823C303.159 95.8005 303.084 95.592 303.167 95.4171C303.248 95.2423 303.455 95.1667 303.632 95.2493C317.795 101.9 325.101 118.242 320.627 133.263C318.995 138.742 315.93 143.676 311.759 147.544L312.692 159.819C312.702 159.953 312.634 160.082 312.517 160.149C312.463 160.18 312.403 160.195 312.343 160.195Z" fill="#25292B"/>
<path d="M257.697 114.404C257.662 114.404 257.627 114.399 257.593 114.387C257.408 114.329 257.306 114.134 257.364 113.949C259.945 105.725 265.712 98.541 273.183 94.2414C273.349 94.1455 273.564 94.2022 273.661 94.3701C273.758 94.5372 273.7 94.7513 273.532 94.8478C266.21 99.0607 260.561 106.099 258.031 114.159C257.984 114.308 257.846 114.404 257.697 114.404Z" fill="#25292B"/>
<path d="M255.636 113.795C255.613 113.795 255.589 113.793 255.565 113.788C255.375 113.749 255.254 113.565 255.292 113.375C255.817 110.809 256.859 108.296 258.304 106.11C258.41 105.948 258.627 105.904 258.788 106.011C258.949 106.117 258.994 106.334 258.887 106.496C257.491 108.608 256.485 111.035 255.978 113.515C255.944 113.681 255.798 113.795 255.636 113.795Z" fill="#25292B"/>
<path d="M267.406 127.359C264.99 127.359 263.023 125.393 263.023 122.977C263.023 120.56 264.99 118.595 267.406 118.595C269.822 118.595 271.788 120.561 271.788 122.977C271.788 125.393 269.822 127.359 267.406 127.359ZM267.406 119.294C265.375 119.294 263.723 120.946 263.723 122.977C263.723 125.007 265.374 126.66 267.406 126.66C269.437 126.66 271.089 125.007 271.089 122.977C271.089 120.946 269.436 119.294 267.406 119.294Z" fill="#25292B"/>
<path d="M282.46 127.359C280.044 127.359 278.078 125.393 278.078 122.977C278.078 120.56 280.044 118.595 282.46 118.595C284.877 118.595 286.843 120.561 286.843 122.977C286.843 125.393 284.877 127.359 282.46 127.359ZM282.46 119.294C280.43 119.294 278.778 120.946 278.778 122.977C278.778 125.007 280.429 126.66 282.46 126.66C284.492 126.66 286.144 125.007 286.144 122.977C286.144 120.946 284.492 119.294 282.46 119.294Z" fill="#25292B"/>
<path d="M296.788 127.359C294.372 127.359 292.406 125.393 292.406 122.977C292.406 120.56 294.372 118.595 296.788 118.595C299.204 118.595 301.171 120.561 301.171 122.977C301.17 125.393 299.204 127.359 296.788 127.359ZM296.788 119.294C294.758 119.294 293.106 120.946 293.106 122.977C293.106 125.007 294.757 126.66 296.788 126.66C298.82 126.66 300.471 125.007 300.471 122.977C300.47 120.946 298.819 119.294 296.788 119.294Z" fill="#25292B"/>
<path d="M258.199 116.327C258.7 116.391 259.13 116.653 259.417 117.026C259.704 117.399 259.852 117.879 259.788 118.381L259.241 122.671C259.113 123.672 258.19 124.387 257.187 124.26C256.689 124.196 256.258 123.935 255.972 123.561C255.683 123.188 255.537 122.708 255.601 122.206L256.148 117.916C256.276 116.914 257.2 116.2 258.199 116.327Z" fill="#F2E9DA"/>
<path d="M263.8 131.824C263.931 132.232 263.886 132.657 263.703 133.012C263.52 133.367 263.205 133.654 262.797 133.786L259.306 134.915C258.49 135.178 257.608 134.727 257.344 133.912C257.214 133.506 257.259 133.081 257.442 132.726C257.624 132.369 257.94 132.084 258.348 131.952L261.839 130.823C262.654 130.56 263.537 131.011 263.8 131.824Z" fill="#F2E9DA"/>
<path d="M263.283 128.404C263.438 128.882 263.384 129.384 263.168 129.802C262.954 130.222 262.581 130.559 262.1 130.714L257.986 132.044C257.025 132.355 255.985 131.823 255.675 130.864C255.52 130.384 255.574 129.885 255.789 129.465C256.005 129.046 256.377 128.711 256.858 128.555L260.972 127.225C261.933 126.914 262.972 127.443 263.283 128.404Z" fill="#F2E9DA"/>
<path d="M262.158 124.912C262.313 125.393 262.259 125.891 262.044 126.312C261.829 126.732 261.456 127.069 260.976 127.224L256.862 128.554C255.9 128.865 254.86 128.333 254.55 127.372C254.394 126.892 254.449 126.393 254.664 125.975C254.881 125.556 255.252 125.218 255.733 125.063L259.847 123.732C260.808 123.422 261.848 123.954 262.158 124.912Z" fill="#F2E9DA"/>
<path d="M260.979 121.439C261.135 121.919 261.05 122.428 260.785 122.861C260.52 123.296 260.081 123.656 259.526 123.835L255.999 124.975C254.889 125.334 253.727 124.841 253.417 123.883C253.262 123.403 253.347 122.894 253.611 122.458C253.876 122.021 254.316 121.663 254.87 121.484L258.397 120.344C259.507 119.985 260.669 120.477 260.979 121.439Z" fill="#F2E9DA"/>
<path d="M255.728 121.557C255.577 121.557 255.439 121.459 255.393 121.307C255.339 121.122 255.444 120.927 255.629 120.872L259.38 119.755C259.567 119.699 259.759 119.806 259.815 119.99C259.869 120.176 259.764 120.37 259.579 120.425L255.828 121.542C255.794 121.552 255.761 121.557 255.728 121.557Z" fill="#25292B"/>
<path d="M255.729 125.413C255.581 125.413 255.444 125.319 255.396 125.171C255.337 124.987 255.437 124.791 255.621 124.731L259.736 123.401C259.919 123.341 260.117 123.443 260.176 123.626C260.236 123.81 260.135 124.007 259.951 124.066L255.836 125.396C255.8 125.408 255.764 125.413 255.729 125.413Z" fill="#25292B"/>
<path d="M256.858 128.904C256.71 128.904 256.573 128.81 256.525 128.662C256.465 128.478 256.566 128.282 256.749 128.222L260.864 126.892C261.051 126.833 261.245 126.934 261.304 127.117C261.364 127.301 261.263 127.497 261.08 127.557L256.966 128.887C256.929 128.899 256.894 128.904 256.858 128.904Z" fill="#25292B"/>
<path d="M257.694 132.46C257.546 132.46 257.41 132.367 257.361 132.219C257.301 132.036 257.401 131.839 257.585 131.778L262.337 130.229C262.524 130.17 262.718 130.27 262.778 130.454C262.838 130.637 262.738 130.834 262.554 130.894L257.802 132.444C257.767 132.455 257.73 132.46 257.694 132.46Z" fill="#25292B"/>
<path d="M338.903 127.493L315.705 123.899L311.77 143.034L336.835 146.615L338.903 127.493Z" fill="#FFBD29"/>
<path d="M315.152 126.575L312.342 140.249C311.903 140.305 311.455 140.323 310.998 140.293L294.027 139.206C293.001 139.142 292.217 138.25 292.282 137.224C292.312 136.711 292.553 136.259 292.915 135.944C293.036 135.836 293.17 135.741 293.32 135.673L291.781 135.544C290.755 135.48 289.971 134.587 290.036 133.562C290.07 133.053 290.311 132.601 290.669 132.282C291.027 131.967 291.252 131.798 291.765 131.829C290.744 131.765 289.955 130.876 290.024 129.851C290.054 129.338 290.295 128.886 290.653 128.567C291.011 128.252 291.489 128.071 292.007 128.106C290.981 128.041 290.197 127.149 290.262 126.124C290.292 125.611 290.533 125.158 290.895 124.843C291.249 124.525 291.731 124.343 292.244 124.378L305.552 125.227L301.897 122.314C300.863 121.491 300.695 119.974 301.518 118.944C302.027 118.306 302.794 117.996 303.552 118.047C304.026 118.077 304.492 118.245 304.888 118.56L309.082 121.904L309.112 121.93L315.152 126.575Z" fill="#F2E9DA"/>
<path d="M344.258 148.025C344.242 148.025 344.224 148.025 344.208 148.022L311.718 143.38C311.623 143.366 311.536 143.314 311.481 143.235C311.426 143.156 311.406 143.058 311.425 142.963L315.36 123.829C315.398 123.645 315.58 123.527 315.755 123.554L338.426 127.066L333.529 108.534C333.48 108.347 333.591 108.155 333.777 108.107C333.966 108.058 334.155 108.169 334.204 108.355L339.238 127.404C339.268 127.518 339.238 127.639 339.159 127.727C339.082 127.814 338.962 127.856 338.847 127.839L315.977 124.295L312.184 142.739L344.306 147.329C344.497 147.356 344.631 147.533 344.603 147.724C344.578 147.899 344.428 148.025 344.258 148.025Z" fill="#25292B"/>
<path d="M300.564 128.975C300.557 128.975 300.55 128.975 300.542 128.974L291.8 128.417C291.608 128.404 291.461 128.238 291.473 128.045C291.486 127.854 291.615 127.711 291.845 127.719L300.587 128.276C300.779 128.289 300.925 128.454 300.913 128.647C300.901 128.832 300.748 128.975 300.564 128.975Z" fill="#25292B"/>
<path d="M300.326 132.763C300.319 132.763 300.311 132.763 300.304 132.762L291.562 132.205C291.369 132.192 291.223 132.026 291.235 131.833C291.248 131.642 291.382 131.499 291.606 131.507L300.348 132.064C300.541 132.077 300.687 132.242 300.675 132.436C300.664 132.62 300.509 132.763 300.326 132.763Z" fill="#25292B"/>
<path d="M300.501 136.452C300.494 136.452 300.486 136.452 300.479 136.451L293.273 135.992C293.08 135.979 292.934 135.813 292.946 135.62C292.959 135.429 293.089 135.287 293.317 135.294L300.523 135.753C300.716 135.766 300.862 135.932 300.85 136.125C300.839 136.31 300.684 136.452 300.501 136.452Z" fill="#25292B"/>
<path d="M369.728 223.882C369.602 223.882 369.487 223.815 369.425 223.707L366.125 217.996C366.062 217.888 366.062 217.754 366.125 217.646L369.425 211.936C369.487 211.828 369.602 211.761 369.728 211.761C369.853 211.761 369.968 211.827 370.03 211.935L373.338 217.645C373.401 217.754 373.401 217.888 373.338 217.997L370.03 223.708C369.968 223.815 369.853 223.882 369.728 223.882ZM366.832 217.821L369.728 222.833L372.63 217.821L369.728 212.809L366.832 217.821Z" fill="#25292B"/>
<path d="M360.555 217.039C359.457 217.039 358.562 216.145 358.562 215.046C358.562 213.947 359.456 213.054 360.555 213.054C361.654 213.054 362.547 213.947 362.547 215.046C362.547 216.145 361.653 217.039 360.555 217.039ZM360.555 213.754C359.842 213.754 359.262 214.334 359.262 215.046C359.262 215.76 359.842 216.34 360.555 216.34C361.268 216.34 361.848 215.76 361.848 215.046C361.847 214.334 361.267 213.754 360.555 213.754Z" fill="#25292B"/>
<path d="M366.428 209.711C365.468 209.711 364.688 208.931 364.688 207.971C364.688 207.012 365.468 206.231 366.428 206.231C367.387 206.231 368.168 207.012 368.168 207.971C368.168 208.931 367.387 209.711 366.428 209.711ZM366.428 206.93C365.854 206.93 365.387 207.397 365.387 207.97C365.387 208.544 365.854 209.011 366.428 209.011C367.001 209.011 367.469 208.544 367.469 207.97C367.469 207.397 367.001 206.93 366.428 206.93Z" fill="#25292B"/>
<path d="M358.91 210.512C358.199 210.512 357.621 209.934 357.621 209.224C357.621 208.513 358.199 207.935 358.91 207.935C359.62 207.935 360.198 208.513 360.198 209.224C360.198 209.934 359.62 210.512 358.91 210.512ZM358.91 208.635C358.585 208.635 358.321 208.899 358.321 209.224C358.321 209.549 358.585 209.813 358.91 209.813C359.234 209.813 359.498 209.549 359.498 209.224C359.498 208.899 359.234 208.635 358.91 208.635Z" fill="#25292B"/>
<path d="M298.495 49.5309C298.37 49.5309 298.254 49.4645 298.192 49.3561L295.668 44.9865C295.605 44.8781 295.605 44.7452 295.668 44.6367L298.192 40.2672C298.254 40.1587 298.37 40.0923 298.495 40.0923C298.62 40.0923 298.735 40.1587 298.798 40.2672L301.328 44.6367C301.391 44.7452 301.391 44.8788 301.328 44.9872L298.798 49.3568C298.735 49.4645 298.62 49.5309 298.495 49.5309ZM296.375 44.8116L298.496 48.4831L300.621 44.8116L298.496 41.1401L296.375 44.8116Z" fill="#25292B"/>
<path d="M292.524 42.9712C291.426 42.9712 290.531 42.0773 290.531 40.9791C290.531 39.8803 291.425 38.9863 292.524 38.9863C293.623 38.9863 294.516 39.8803 294.516 40.9791C294.516 42.0773 293.622 42.9712 292.524 42.9712ZM292.524 39.6858C291.811 39.6858 291.231 40.2657 291.231 40.9791C291.231 41.6919 291.811 42.2717 292.524 42.2717C293.237 42.2717 293.817 41.6919 293.817 40.9791C293.817 40.2657 293.237 39.6858 292.524 39.6858Z" fill="#25292B"/>
<path d="M298.397 38.0431C297.437 38.0431 296.656 37.2625 296.656 36.3028C296.656 35.3431 297.437 34.5625 298.397 34.5625C299.356 34.5625 300.137 35.3431 300.137 36.3028C300.137 37.2625 299.357 38.0431 298.397 38.0431ZM298.397 35.262C297.823 35.262 297.356 35.7285 297.356 36.3028C297.356 36.877 297.823 37.3436 298.397 37.3436C298.97 37.3436 299.437 36.877 299.437 36.3028C299.438 35.7292 298.971 35.262 298.397 35.262Z" fill="#25292B"/>
<path d="M292.523 36.2009C291.812 36.2009 291.234 35.6231 291.234 34.9124C291.234 34.2018 291.812 33.624 292.523 33.624C293.233 33.624 293.811 34.2025 293.811 34.9124C293.811 35.6224 293.233 36.2009 292.523 36.2009ZM292.523 34.3235C292.198 34.3235 291.934 34.5879 291.934 34.9124C291.934 35.237 292.198 35.5014 292.523 35.5014C292.847 35.5014 293.112 35.2377 293.112 34.9124C293.112 34.5872 292.847 34.3235 292.523 34.3235Z" fill="#25292B"/>
<path d="M71.5747 208.21C71.4495 208.21 71.3341 208.143 71.2719 208.035L67.9725 202.324C67.9102 202.216 67.9102 202.082 67.9725 201.974L71.2719 196.264C71.3341 196.156 71.4495 196.089 71.5747 196.089C71.6992 196.089 71.8147 196.155 71.8776 196.263L75.184 201.974C75.247 202.082 75.247 202.216 75.184 202.325L71.8776 208.036C71.8147 208.144 71.6992 208.21 71.5747 208.21ZM68.6796 202.149L71.5754 207.161L74.4775 202.149L71.5754 197.137L68.6796 202.149Z" fill="#25292B"/>
<path d="M85.274 204.558C84.1752 204.558 83.2812 203.665 83.2812 202.566C83.2812 201.467 84.1752 200.573 85.274 200.573C86.3722 200.573 87.2661 201.467 87.2661 202.566C87.2661 203.665 86.3722 204.558 85.274 204.558ZM85.274 201.273C84.5606 201.273 83.9807 201.853 83.9807 202.566C83.9807 203.279 84.5606 203.859 85.274 203.859C85.9868 203.859 86.5667 203.279 86.5667 202.566C86.5667 201.853 85.9868 201.273 85.274 201.273Z" fill="#25292B"/>
<path d="M68.4512 194.04C67.4915 194.04 66.7109 193.26 66.7109 192.301C66.7109 191.341 67.4915 190.561 68.4512 190.561C69.4109 190.561 70.1915 191.341 70.1915 192.301C70.1922 193.259 69.4109 194.04 68.4512 194.04ZM68.4512 191.259C67.8777 191.259 67.4104 191.727 67.4104 192.3C67.4104 192.874 67.877 193.34 68.4512 193.34C69.0255 193.34 69.492 192.874 69.492 192.3C69.492 191.727 69.0255 191.259 68.4512 191.259Z" fill="#25292B"/>
<path d="M78.3744 200.601C77.6637 200.601 77.0859 200.024 77.0859 199.313C77.0859 198.602 77.6637 198.024 78.3744 198.024C79.085 198.024 79.6628 198.602 79.6628 199.313C79.6628 200.024 79.085 200.601 78.3744 200.601ZM78.3744 198.725C78.0498 198.725 77.7854 198.989 77.7854 199.314C77.7854 199.638 78.0491 199.902 78.3744 199.902C78.6996 199.902 78.9633 199.638 78.9633 199.314C78.9633 198.989 78.6996 198.725 78.3744 198.725Z" fill="#25292B"/>
<path d="M78.7729 194.041C78.6477 194.041 78.5323 193.973 78.4701 193.866L76.3983 190.279C76.336 190.172 76.336 190.037 76.3983 189.93L78.4701 186.343C78.5323 186.235 78.6477 186.168 78.7729 186.168C78.8975 186.168 79.0129 186.234 79.0758 186.342L81.1525 189.929C81.2155 190.037 81.2155 190.172 81.1525 190.28L79.0758 193.866C79.0129 193.974 78.8975 194.041 78.7729 194.041ZM77.1047 190.105L78.7729 192.992L80.4454 190.105L78.7729 187.216L77.1047 190.105Z" fill="#25292B"/>
<path d="M60.8353 207.468C60.1246 207.468 59.5469 206.891 59.5469 206.18C59.5469 205.469 60.1246 204.892 60.8353 204.892C61.546 204.892 62.1237 205.469 62.1237 206.18C62.1237 206.891 61.546 207.468 60.8353 207.468ZM60.8353 205.591C60.5107 205.591 60.2463 205.855 60.2463 206.18C60.2463 206.505 60.51 206.769 60.8353 206.769C61.1605 206.769 61.4243 206.505 61.4243 206.18C61.4243 205.855 61.1598 205.591 60.8353 205.591Z" fill="#25292B"/>
<path d="M287.584 89.8934C287.391 89.8934 287.235 89.7367 287.235 89.5437V52.5802C287.235 48.24 283.704 44.7098 279.363 44.7098C274.96 44.7098 271.429 48.2407 271.429 52.5802V81.1661C271.429 85.9778 267.514 89.8934 262.701 89.8934C257.889 89.8934 253.974 85.9785 253.974 81.1661V24.3069C253.974 19.9667 250.443 16.4358 246.104 16.4358C241.763 16.4358 238.232 19.9667 238.232 24.3069V39.3343C238.232 44.06 234.387 47.9042 229.662 47.9042H221.326C221.133 47.9042 220.977 47.7476 220.977 47.5545C220.977 47.3615 221.133 47.2048 221.326 47.2048H229.662C234.002 47.2048 237.533 43.6739 237.533 39.3343V24.3069C237.533 19.5813 241.378 15.7363 246.104 15.7363C250.829 15.7363 254.674 19.5813 254.674 24.3069V81.1661C254.674 85.5924 258.274 89.1939 262.701 89.1939C267.128 89.1939 270.729 85.5931 270.729 81.1661V52.5802C270.729 47.8546 274.574 44.0103 279.3 44.0103C284.089 44.0103 287.934 47.8553 287.934 52.5802V89.543C287.934 89.7367 287.778 89.8934 287.584 89.8934Z" fill="#25292B"/>
<path d="M419.652 325.361H53.5841C53.3911 325.361 53.2344 325.204 53.2344 325.011C53.2344 324.818 53.3911 324.661 53.5841 324.661H419.652C419.845 324.661 420.001 324.818 420.001 325.011C420.001 325.204 419.845 325.361 419.652 325.361Z" fill="#25292B"/>
<rect width="440" height="340" fill="black" style="mix-blend-mode:saturation"/>
</g>
<defs>
<clipPath id="clip0_2198_3509">
<rect width="440" height="340" fill="white"/>
</clipPath>
</defs>
</svg>
