<svg width="440" height="300" viewBox="0 0 440 300" fill="none" xmlns="http://www.w3.org/2000/svg">
<g clip-path="url(#clip0_2193_3095)">
<rect width="440" height="300" fill="white"/>
<g opacity="0.5">
<path opacity="0.5" d="M220.006 264.55C294.575 264.55 355.025 262.381 355.025 259.705C355.025 257.029 294.575 254.86 220.006 254.86C145.438 254.86 84.9883 257.029 84.9883 259.705C84.9883 262.381 145.438 264.55 220.006 264.55Z" fill="#FF8D8D"/>
<g opacity="0.3">
<path opacity="0.8" d="M220.029 259.316C288.6 259.316 344.187 203.729 344.187 135.158C344.187 66.5875 288.6 11 220.029 11C151.459 11 95.8711 66.5875 95.8711 135.158C95.8711 203.729 151.459 259.316 220.029 259.316Z" fill="#FF8D8D"/>
<path opacity="0.6" d="M174.316 237.807C202.725 209.398 202.725 163.338 174.316 134.929C145.907 106.521 99.8476 106.521 71.4388 134.929C43.0299 163.338 43.0299 209.398 71.4388 237.807C99.8476 266.216 145.907 266.216 174.316 237.807Z" fill="#FF8D8D"/>
<path opacity="0.6" d="M368.562 237.808C396.971 209.399 396.971 163.339 368.562 134.93C340.154 106.521 294.094 106.521 265.685 134.93C237.276 163.339 237.276 209.399 265.685 237.808C294.094 266.217 340.154 266.217 368.562 237.808Z" fill="#FF8D8D"/>
<path opacity="0.5" d="M375.27 147.548C394.734 128.084 394.734 96.5266 375.27 77.0628C355.806 57.5989 324.249 57.5989 304.785 77.0628C285.322 96.5266 285.322 128.084 304.785 147.548C324.249 167.011 355.806 167.011 375.27 147.548Z" fill="#FF8D8D"/>
<path opacity="0.5" d="M135.216 147.546C154.679 128.082 154.679 96.5247 135.216 77.0608C115.752 57.597 84.1945 57.597 64.7307 77.0608C45.2668 96.5247 45.2668 128.082 64.7307 147.546C84.1945 167.009 115.752 167.009 135.216 147.546Z" fill="#FF8D8D"/>
</g>
</g>
<g opacity="0.5">
<g opacity="0.8">
<path opacity="0.8" d="M85.983 177.079C85.8396 177.079 85.6961 177.02 85.5944 176.918C85.2358 176.56 85.525 176.193 85.8312 175.804C86.0227 175.56 86.3156 175.202 86.7006 174.739C87.4078 173.889 88.4349 172.676 89.84 171.031C92.4494 167.977 96.0148 163.841 99.4628 159.842C101.76 157.177 104.167 154.386 106.33 151.867C104.063 154.173 101.561 156.73 99.1719 159.17C82.7482 175.953 82.6008 175.953 82.1631 175.956C82.0186 175.957 81.8709 175.896 81.7688 175.794C81.4092 175.435 81.7094 175.05 81.9506 174.741C82.1141 174.532 82.3549 174.238 82.6868 173.843C83.2893 173.126 84.1743 172.097 85.3926 170.697C87.6693 168.082 90.7977 164.53 94.11 160.77C98.116 156.222 102.901 150.79 106.605 146.517C103.671 149.498 100.155 153.108 96.8391 156.514C92.4507 161.02 87.9132 165.679 84.4548 169.168C78.5103 175.165 78.2914 175.166 77.9598 175.168C77.9588 175.168 77.9575 175.168 77.9565 175.168C77.8127 175.168 77.6599 175.106 77.5585 175.005C77.1299 174.576 77.4404 174.203 78.7474 172.632C79.5327 171.688 80.6843 170.351 82.2682 168.542C85.2115 165.182 89.1078 160.811 93.2326 156.183C96.815 152.164 100.82 147.672 104.055 143.99C100.413 147.665 95.9003 152.269 91.8739 156.379C75.4806 173.108 75.3802 173.108 74.9575 173.11C74.9569 173.11 74.9559 173.11 74.9549 173.11C74.8114 173.11 74.6673 173.051 74.5659 172.949C74.1402 172.524 74.4011 172.213 75.8492 170.491C76.6859 169.497 77.9088 168.086 79.5881 166.178C82.7062 162.635 86.9905 157.843 91.134 153.209C94.2788 149.692 97.5917 145.986 100.46 142.753C97.9419 145.316 95.1488 148.174 92.4837 150.901C73.8437 169.975 72.7869 170.885 72.2568 170.888C72.1187 170.886 71.9605 170.828 71.8581 170.726C71.4338 170.301 71.7 169.985 73.1785 168.232C74.0351 167.216 75.2858 165.775 77.0021 163.825C80.1879 160.207 84.5493 155.326 88.7672 150.607C91.998 146.993 95.407 143.178 98.3246 139.888C94.5957 143.647 90.1456 148.169 86.1435 152.236C70.1311 168.507 70.0804 168.507 69.6885 168.509C69.546 168.52 69.4022 168.451 69.3002 168.349C68.9072 167.956 69.2458 167.511 69.7141 166.894C70.0457 166.458 70.5571 165.827 71.2343 165.017C72.4616 163.55 74.227 161.503 76.6318 158.758C81.0359 153.733 86.7093 147.368 91.7148 141.753C91.7245 141.742 91.7341 141.731 91.7435 141.721C91.2781 142.196 90.8108 142.673 90.3454 143.149C85.4523 148.148 79.9063 153.813 75.63 158.114C68.1886 165.597 67.9461 165.598 67.6102 165.6C67.6095 165.6 67.6085 165.6 67.6075 165.6C67.4638 165.6 67.3123 165.539 67.2109 165.437C66.8443 165.07 67.1595 164.667 67.4374 164.31C67.6342 164.058 67.9248 163.705 68.3257 163.231C69.0523 162.372 70.1168 161.146 71.5799 159.483C74.3067 156.383 77.9775 152.265 81.8639 147.905C85.7909 143.499 90.1876 138.567 93.71 134.564C90.6656 137.656 87.0612 141.355 83.6563 144.85C67.0625 161.878 66.1758 162.637 65.6614 162.64C65.5133 162.639 65.3648 162.58 65.2627 162.478C64.8421 162.057 65.1233 161.72 66.474 160.099C67.2656 159.149 68.4218 157.802 70.0097 155.982C72.9563 152.603 76.9934 148.046 80.8975 143.639C83.711 140.463 86.6712 137.122 89.2619 134.176C86.4531 137.014 83.2563 140.261 80.2172 143.347C64.2676 159.543 64.2073 159.544 63.8126 159.545C63.812 159.545 63.8113 159.545 63.8106 159.545C63.6671 159.545 63.5257 159.487 63.4243 159.386C63.0463 159.007 63.2338 158.785 64.1345 157.716C64.6046 157.158 65.2977 156.351 66.2531 155.249C68.0462 153.181 70.5805 150.287 73.2632 147.224C77.5692 142.307 83.1502 135.933 87.1816 131.231C83.3837 135.043 78.4382 140.083 74.3207 144.28C63.847 154.954 63.847 154.954 63.4937 154.956C63.493 154.956 63.492 154.956 63.491 154.956C63.3476 154.956 63.2078 154.898 63.1064 154.796C62.7481 154.438 63.028 154.071 63.3519 153.646C63.5551 153.38 63.8653 152.99 64.2743 152.487C65.0209 151.57 66.0987 150.27 67.5702 148.516C70.2866 145.276 73.846 141.077 77.2883 137.017C78.6581 135.401 80.0401 133.771 81.3371 132.238C79.5384 134.076 77.6246 136.041 75.8519 137.861C63.5941 150.448 63.4813 150.449 63.0617 150.452C62.9079 150.444 62.7688 150.393 62.6664 150.29C62.2864 149.91 62.4832 149.654 63.4283 148.422C63.941 147.753 64.6883 146.806 65.7127 145.526C67.6102 143.154 70.1805 139.989 72.6658 136.927C73.9548 135.34 75.2961 133.688 76.5474 132.141C76.0954 132.605 75.6381 133.074 75.183 133.54C64.4207 144.579 64.2986 144.58 63.895 144.582C63.7512 144.573 63.6021 144.523 63.4997 144.421C63.1631 144.085 63.3662 143.761 63.8106 143.05C64.0634 142.646 64.4338 142.076 64.9425 141.308C65.8825 139.888 67.1548 138.003 68.3851 136.181C68.9509 135.343 69.5377 134.474 70.0931 133.648C68.4085 135.356 68.3695 135.356 68.1393 135.357C68.1386 135.357 68.1376 135.357 68.1369 135.357C67.9935 135.357 67.8547 135.3 67.7533 135.198C67.5422 134.987 67.5422 134.644 67.7533 134.433C67.7813 134.405 67.812 134.381 67.8441 134.36C68.1036 134.13 69.5277 132.681 70.5765 131.614C73.1001 129.045 73.1001 129.045 73.3633 129.044C73.5131 129.046 73.6468 129.101 73.7489 129.203C74.0808 129.535 73.8787 129.856 73.4764 130.496C73.2489 130.858 72.915 131.37 72.4556 132.063C71.6039 133.347 70.4761 135.018 69.2822 136.786C68.4262 138.054 67.4848 139.449 66.6578 140.685C68.8745 138.461 71.9112 135.346 74.4084 132.785C82.1447 124.85 82.1661 124.85 82.524 124.847C82.6625 124.848 82.8116 124.905 82.9137 125.007C83.2889 125.382 83.0818 125.652 82.2095 126.786C81.7328 127.406 81.0369 128.287 80.0822 129.48C78.3095 131.694 75.8676 134.701 73.5061 137.609C71.7924 139.72 69.9116 142.037 68.2497 144.097C70.3393 141.971 72.7735 139.472 75.0773 137.106C87.9662 123.871 88.0973 123.87 88.5317 123.867C88.6651 123.867 88.8259 123.927 88.928 124.029C89.2796 124.381 88.9924 124.75 88.7618 125.046C88.6131 125.238 88.3902 125.514 88.1024 125.866C87.5643 126.522 86.7793 127.464 85.7018 128.746C83.6926 131.136 80.9828 134.333 78.1143 137.717C75.8055 140.44 73.2842 143.414 71.0175 146.101C71.8401 145.263 72.6904 144.396 73.5488 143.522C92.2872 124.424 92.4744 124.423 92.9261 124.421C92.9267 124.421 92.9277 124.421 92.9284 124.421C93.0718 124.421 93.219 124.481 93.3204 124.583C93.7033 124.966 93.3828 125.396 92.9775 125.941C92.6926 126.325 92.2525 126.878 91.6704 127.588C90.6163 128.873 89.0991 130.665 87.0325 133.066C83.2486 137.464 78.3765 143.027 74.0775 147.936C73.817 148.234 73.5571 148.53 73.2989 148.825C75.2958 146.802 77.4101 144.655 79.4467 142.587C96.7317 125.035 96.8268 125.034 97.2274 125.033C97.3808 125.041 97.5149 125.091 97.6167 125.193C98.0397 125.616 97.7534 125.959 96.379 127.61C95.5708 128.581 94.3905 129.956 92.7706 131.814C89.7663 135.26 85.6695 139.885 81.7077 144.356C78.7788 147.662 75.6888 151.15 73.0397 154.165C76.0404 151.115 79.5561 147.507 82.882 144.094C99.4404 127.102 100.325 126.345 100.838 126.341C100.839 126.341 100.841 126.341 100.842 126.341C100.985 126.341 101.135 126.402 101.237 126.504C101.66 126.927 101.457 127.205 99.7397 129.255C98.7733 130.41 97.3692 132.036 95.447 134.228C91.8966 138.278 87.2073 143.538 82.6725 148.625C80.1272 151.481 77.5495 154.373 75.2835 156.928C79.6251 152.556 85.0273 147.037 89.5731 142.392C103.214 128.457 103.255 128.457 103.645 128.455C103.646 128.455 103.647 128.455 103.648 128.455C103.792 128.455 103.933 128.513 104.035 128.615C104.395 128.974 104.088 129.354 103.864 129.631C103.714 129.817 103.488 130.085 103.194 130.428C102.645 131.068 101.834 131.995 100.717 133.26C98.6204 135.634 95.6592 138.956 92.5237 142.473C87.7707 147.805 81.686 154.631 77.0658 159.909C79.5994 157.344 82.505 154.392 85.3739 151.477C105.771 130.751 105.916 130.75 106.35 130.748C106.497 130.753 106.639 130.807 106.741 130.909C107.168 131.336 106.897 131.657 105.396 133.439C104.524 134.474 103.251 135.942 101.504 137.926C98.2645 141.607 93.8474 146.549 89.5755 151.329C86.2716 155.025 82.7776 158.935 79.8333 162.257C83.4544 158.594 87.8061 154.141 91.7118 150.145C108.211 133.261 108.33 133.261 108.773 133.258C108.92 133.261 109.064 133.317 109.167 133.42C109.598 133.851 109.292 134.216 107.82 135.97C106.943 137.014 105.663 138.492 103.907 140.489C100.651 144.191 96.2236 149.142 91.9423 153.931C89.1822 157.018 86.2876 160.255 83.7059 163.16C86.0661 160.762 88.6394 158.136 91.103 155.622C109.387 136.963 110.342 136.132 110.832 136.129C110.833 136.129 110.833 136.129 110.834 136.129C110.978 136.129 111.125 136.189 111.227 136.291C111.655 136.72 111.36 137.11 109.894 138.88C109.017 139.939 107.735 141.434 105.973 143.448C102.712 147.178 98.3045 152.122 94.0422 156.903C90.9745 160.345 87.731 163.983 84.9989 167.079C88.3725 163.659 92.428 159.494 96.0655 155.759C111.83 139.57 112.611 138.901 113.107 138.898C113.109 138.898 113.11 138.898 113.111 138.898C113.254 138.898 113.404 138.958 113.505 139.06C113.922 139.477 113.724 139.772 111.973 141.891C110.987 143.086 109.558 144.763 107.606 147.017C104.013 151.166 99.3924 156.412 94.9236 161.485C93.5432 163.052 92.1525 164.631 90.8271 166.138C93.2847 163.64 95.9474 160.92 98.3999 158.413C113.541 142.942 113.654 142.941 114.072 142.939C114.224 142.948 114.362 142.998 114.464 143.1C114.824 143.459 114.544 143.815 114.22 144.227C114.023 144.477 113.722 144.845 113.326 145.322C112.6 146.195 111.545 147.441 110.104 149.128C107.429 152.26 103.797 156.473 100.284 160.548C98.2525 162.904 96.1335 165.362 94.182 167.632C95.6161 166.169 97.1083 164.644 98.5517 163.167C114.018 147.354 114.166 147.353 114.606 147.351C114.607 147.351 114.608 147.351 114.609 147.351C114.753 147.351 114.9 147.411 115.001 147.512C115.351 147.862 115.065 148.24 114.835 148.544C114.682 148.746 114.451 149.037 114.154 149.406C113.601 150.094 112.795 151.076 111.69 152.41C109.635 154.89 106.915 158.141 104.035 161.582C101.778 164.28 99.2876 167.256 97.1373 169.841C99.8504 167.098 103.027 163.852 105.741 161.077C114.742 151.875 114.749 151.875 115.105 151.873C115.106 151.873 115.107 151.873 115.108 151.873C115.251 151.873 115.391 151.931 115.493 152.033C115.835 152.376 115.57 152.744 115.336 153.068C115.184 153.28 114.956 153.583 114.664 153.964C114.122 154.672 113.339 155.674 112.271 157.028C110.299 159.527 107.718 162.765 105.222 165.896C104.499 166.803 103.771 167.716 103.066 168.602C113.549 157.929 113.627 157.929 113.994 157.927C113.995 157.927 113.996 157.927 113.997 157.927C114.14 157.927 114.283 157.985 114.384 158.087C114.595 158.298 114.595 158.641 114.384 158.852C114.335 158.901 114.279 158.939 114.219 158.965C113.481 159.542 107.803 165.323 103.636 169.566C97.2724 176.045 97.2724 176.045 96.9698 176.046C96.9692 176.046 96.9682 176.046 96.9675 176.046C96.8241 176.046 96.6853 175.989 96.5839 175.888C96.2283 175.532 96.3707 175.348 97.1607 174.324C97.572 173.791 98.1681 173.032 98.8947 172.113C100.345 170.278 102.317 167.805 104.376 165.222C106.045 163.128 107.868 160.841 109.509 158.774C108.54 159.763 107.523 160.802 106.515 161.833C91.8159 176.859 91.6541 176.859 91.2211 176.862C91.0823 176.865 90.9278 176.802 90.8258 176.7C90.4018 176.276 90.4018 176.276 94.6547 171.137C97.0062 168.296 100.157 164.53 103.205 160.888C104.937 158.817 106.751 156.65 108.392 154.682C105.597 157.511 102.296 160.886 99.3243 163.925C86.4624 177.076 86.3897 177.077 85.9864 177.079C85.985 177.079 85.984 177.079 85.983 177.079ZM113.62 158.854C113.689 158.923 113.766 158.965 113.844 158.988C113.762 158.963 113.685 158.919 113.62 158.854ZM68.1352 134.276C68.273 134.276 68.4112 134.328 68.5166 134.433C68.3308 134.248 68.0659 134.24 67.8897 134.335C67.9665 134.296 68.0509 134.276 68.1352 134.276Z" fill="#FF8D8D"/>
</g>
<g opacity="0.8">
<path opacity="0.8" d="M217.766 67.4971C217.661 67.4971 217.556 67.4538 217.481 67.3794C217.218 67.1162 217.43 66.8466 217.655 66.5614C217.796 66.383 218.01 66.1201 218.293 65.7801C218.812 65.1563 219.566 64.2663 220.597 63.0594C222.512 60.818 225.128 57.7833 227.658 54.8484C229.344 52.8932 231.11 50.8446 232.698 48.9965C231.034 50.6885 229.198 52.5646 227.445 54.356C215.393 66.6708 215.285 66.6715 214.964 66.6732C214.858 66.6742 214.749 66.6298 214.674 66.5547C214.41 66.2909 214.63 66.0087 214.808 65.7818C214.927 65.628 215.104 65.4125 215.348 65.1227C215.79 64.5966 216.439 63.8416 217.333 62.8145C219.004 60.8954 221.3 58.289 223.73 55.5296C226.67 52.1923 230.181 48.2063 232.899 45.0708C230.746 47.2585 228.166 49.9076 225.733 52.4065C222.513 55.7131 219.183 59.1323 216.645 61.6926C212.283 66.093 212.122 66.0941 211.879 66.0957C211.878 66.0957 211.877 66.0957 211.877 66.0957C211.771 66.0957 211.659 66.05 211.585 65.9756C211.27 65.661 211.498 65.3872 212.457 64.2346C213.033 63.5421 213.879 62.5603 215.041 61.2333C217.2 58.7671 220.06 55.5599 223.087 52.164C225.715 49.215 228.654 45.9181 231.028 43.2164C228.356 45.9128 225.045 49.2918 222.09 52.3074C210.06 64.5832 209.987 64.5835 209.676 64.5852C209.675 64.5852 209.675 64.5852 209.674 64.5852C209.569 64.5852 209.463 64.5418 209.388 64.4674C209.076 64.1549 209.267 63.9274 210.33 62.6637C210.944 61.9338 211.841 60.8984 213.074 59.4983C215.362 56.8986 218.505 53.3822 221.546 49.9816C223.854 47.4006 226.285 44.6819 228.389 42.309C226.542 44.1898 224.492 46.2868 222.537 48.288C208.859 62.2844 208.083 62.9526 207.694 62.955C207.593 62.9533 207.477 62.9106 207.402 62.8355C207.09 62.5243 207.286 62.2921 208.37 61.0058C208.999 60.2602 209.917 59.2024 211.176 57.772C213.514 55.1166 216.714 51.5358 219.809 48.0728C222.18 45.4201 224.682 42.6213 226.823 40.2067C224.086 42.9652 220.821 46.2834 217.884 49.2677C206.134 61.2076 206.097 61.2076 205.809 61.2089C205.705 61.2173 205.599 61.1669 205.524 61.0919C205.236 60.8033 205.484 60.4767 205.828 60.0244C206.072 59.7041 206.447 59.2408 206.944 58.6466C207.844 57.5701 209.14 56.068 210.905 54.0541C214.136 50.3663 218.299 45.696 221.972 41.5755C221.979 41.5678 221.986 41.5598 221.993 41.5518C221.652 41.9007 221.309 42.2506 220.968 42.5999C217.377 46.2677 213.307 50.4253 210.169 53.5811C204.709 59.0723 204.531 59.0733 204.284 59.0747C204.284 59.0747 204.283 59.0747 204.282 59.0747C204.177 59.0747 204.066 59.0296 203.992 58.9549C203.723 58.686 203.954 58.3898 204.158 58.1282C204.302 57.9431 204.515 57.6839 204.81 57.3363C205.343 56.7061 206.124 55.8064 207.197 54.5858C209.198 52.3111 211.892 49.2891 214.744 46.0896C217.625 42.8568 220.852 39.237 223.437 36.2997C221.203 38.5688 218.558 41.2833 216.059 43.8476C203.882 56.3432 203.232 56.9003 202.854 56.9026C202.745 56.9013 202.637 56.8583 202.562 56.7832C202.253 56.4746 202.459 56.2271 203.45 55.0378C204.031 54.341 204.88 53.3525 206.045 52.0165C208.207 49.5369 211.169 46.193 214.034 42.9592C216.099 40.6287 218.271 38.1765 220.172 36.0152C218.112 38.0981 215.765 40.4803 213.535 42.7447C201.831 54.6299 201.787 54.6299 201.498 54.6312C201.497 54.6312 201.497 54.6312 201.496 54.6312C201.391 54.6312 201.287 54.5885 201.212 54.5141C200.935 54.2366 201.073 54.0731 201.734 53.2885C202.079 52.8788 202.588 52.2868 203.289 51.4785C204.604 49.9613 206.464 47.8376 208.433 45.5896C211.593 41.9814 215.688 37.3048 218.647 33.8538C215.86 36.6517 212.231 40.3499 209.209 43.4296C201.523 51.2626 201.523 51.2626 201.264 51.2636C201.263 51.2636 201.262 51.2636 201.262 51.2636C201.157 51.2636 201.054 51.2213 200.98 51.1469C200.717 50.884 200.922 50.6148 201.16 50.3029C201.309 50.1077 201.537 49.8215 201.837 49.4522C202.385 48.7787 203.176 47.8253 204.255 46.538C206.249 44.1608 208.861 41.0798 211.387 38.1005C212.392 36.9149 213.406 35.7183 214.358 34.5937C213.038 35.9421 211.633 37.3839 210.332 38.7196C201.338 47.9561 201.255 47.9567 200.947 47.9587C200.834 47.9531 200.732 47.9154 200.657 47.8403C200.378 47.5614 200.523 47.3733 201.216 46.4692C201.592 45.9785 202.14 45.2833 202.892 44.3439C204.285 42.6036 206.171 40.2808 207.995 38.0344C208.94 36.8695 209.925 35.6572 210.843 34.5224C210.512 34.8623 210.176 35.2066 209.842 35.5492C201.945 43.6497 201.855 43.6504 201.559 43.6521C201.453 43.6451 201.344 43.6087 201.269 43.5337C201.022 43.2868 201.171 43.0489 201.497 42.5279C201.682 42.2313 201.954 41.813 202.328 41.2489C203.018 40.2068 203.951 38.824 204.854 37.487C205.269 36.8722 205.7 36.2344 206.107 35.6282C204.871 36.8815 204.842 36.8815 204.673 36.8822C204.673 36.8822 204.672 36.8822 204.672 36.8822C204.566 36.8822 204.465 36.8401 204.39 36.7658C204.235 36.6106 204.235 36.3594 204.39 36.2043C204.411 36.1836 204.433 36.1656 204.457 36.1506C204.647 35.9822 205.693 34.9187 206.462 34.1354C208.314 32.2506 208.314 32.2506 208.507 32.2496C208.617 32.2509 208.715 32.2913 208.79 32.366C209.033 32.6096 208.885 32.8454 208.589 33.3148C208.422 33.5803 208.177 33.9563 207.84 34.465C207.215 35.4074 206.388 36.6333 205.511 37.931C204.883 38.8614 204.192 39.8845 203.586 40.7919C205.212 39.1599 207.441 36.8742 209.273 34.9947C214.95 29.1719 214.966 29.1719 215.229 29.1702C215.33 29.1706 215.439 29.2123 215.514 29.2873C215.79 29.5625 215.638 29.7603 214.998 30.5927C214.648 31.0473 214.137 31.6938 213.437 32.5689C212.136 34.1938 210.344 36.4005 208.611 38.5348C207.354 40.0833 205.973 41.7833 204.754 43.2958C206.287 41.7356 208.073 39.9012 209.764 38.1655C219.222 28.4533 219.318 28.4527 219.637 28.4507C219.735 28.4507 219.853 28.4944 219.928 28.5694C220.186 28.8273 219.975 29.0982 219.806 29.3157C219.697 29.4561 219.533 29.6593 219.322 29.9168C218.927 30.3985 218.351 31.0897 217.561 32.0304C216.086 33.7845 214.098 36.1299 211.993 38.6132C210.298 40.6117 208.448 42.7941 206.785 44.7656C207.389 44.1505 208.013 43.5147 208.643 42.8728C222.393 28.859 222.53 28.8583 222.862 28.8567C222.863 28.8567 222.863 28.8567 222.864 28.8567C222.969 28.8567 223.077 28.9007 223.151 28.9754C223.432 29.2563 223.197 29.5722 222.9 29.9722C222.69 30.2534 222.368 30.66 221.94 31.1805C221.167 32.1232 220.054 33.4382 218.537 35.2005C215.761 38.4274 212.185 42.5102 209.031 46.1123C208.84 46.3308 208.649 46.5483 208.459 46.7648C209.925 45.28 211.476 43.7048 212.971 42.1873C225.654 29.307 225.724 29.3067 226.018 29.3057C226.131 29.312 226.229 29.3484 226.304 29.4231C226.614 29.7333 226.405 29.9855 225.396 31.1968C224.803 31.909 223.937 32.9181 222.748 34.2815C220.543 36.8105 217.537 40.2037 214.63 43.4853C212.481 45.9111 210.213 48.4708 208.27 50.6832C210.472 48.4451 213.051 45.7977 215.492 43.2931C227.643 30.8238 228.292 30.2684 228.668 30.2657C228.669 30.2657 228.67 30.2657 228.671 30.2657C228.776 30.2657 228.886 30.3108 228.961 30.3852C229.271 30.6951 229.122 30.8992 227.862 32.4037C227.153 33.2507 226.122 34.4443 224.712 36.0529C222.107 39.0242 218.666 42.8845 215.338 46.6177C213.47 48.7133 211.579 50.835 209.916 52.7104C213.102 49.5019 217.066 45.4521 220.402 42.0442C230.411 31.8183 230.441 31.8183 230.728 31.8166C230.729 31.8166 230.729 31.8166 230.73 31.8166C230.835 31.8166 230.939 31.8593 231.013 31.9337C231.277 32.1976 231.052 32.4764 230.888 32.6799C230.778 32.816 230.612 33.0132 230.397 33.2644C229.993 33.7344 229.399 34.4143 228.579 35.3427C227.04 37.085 224.867 39.5229 222.567 42.1036C219.079 46.0162 214.614 51.0251 211.224 54.8978C213.083 53.016 215.215 50.8496 217.32 48.7107C232.287 33.5019 232.394 33.5016 232.712 33.5002C232.82 33.5036 232.925 33.5433 232.999 33.6183C233.312 33.9312 233.114 34.1671 232.012 35.4744C231.372 36.2344 230.438 37.3115 229.156 38.7673C226.779 41.4684 223.538 45.0948 220.403 48.6022C217.979 51.315 215.414 54.1835 213.254 56.6218C215.911 53.9337 219.105 50.6658 221.97 47.7335C234.078 35.3443 234.165 35.3437 234.49 35.342C234.598 35.344 234.704 35.3854 234.779 35.4604C235.096 35.777 234.871 36.0449 233.791 37.3315C233.147 38.0978 232.208 39.1826 230.919 40.6478C228.53 43.3642 225.281 46.998 222.14 50.5117C220.114 52.7768 217.99 55.1526 216.096 57.2846C217.828 55.5246 219.716 53.5974 221.524 51.7526C234.941 38.0604 235.642 37.4506 236.001 37.449C236.002 37.449 236.002 37.449 236.003 37.449C236.108 37.449 236.216 37.4933 236.291 37.5677C236.605 37.8823 236.389 38.1685 235.313 39.4675C234.67 40.2451 233.729 41.3416 232.436 42.8194C230.043 45.5565 226.809 49.1847 223.681 52.6934C221.43 55.2187 219.05 57.889 217.045 60.1601C219.521 57.6505 222.497 54.5945 225.166 51.8534C236.735 39.9742 237.307 39.4832 237.672 39.4808C237.673 39.4808 237.673 39.4808 237.674 39.4808C237.78 39.4808 237.889 39.5256 237.963 39.6C238.27 39.9059 238.124 40.122 236.84 41.6776C236.116 42.5542 235.067 43.7845 233.635 45.4384C230.999 48.4835 227.608 52.3328 224.329 56.0556C223.316 57.2055 222.295 58.3641 221.323 59.4699C223.126 57.6369 225.08 55.6407 226.88 53.8016C237.991 42.4485 238.073 42.4478 238.38 42.4461C238.492 42.4528 238.593 42.4892 238.668 42.5642C238.932 42.8278 238.726 43.089 238.489 43.3912C238.344 43.575 238.124 43.8452 237.833 44.1948C237.3 44.836 236.526 45.7497 235.469 46.9883C233.506 49.2864 230.84 52.3781 228.263 55.3681C226.772 57.0974 225.217 58.9008 223.785 60.5668C224.837 59.4933 225.932 58.3738 226.991 57.2906C238.34 45.6863 238.449 45.686 238.772 45.684C238.773 45.684 238.774 45.684 238.774 45.684C238.88 45.684 238.988 45.728 239.062 45.8027C239.319 46.0596 239.109 46.3365 238.94 46.5593C238.828 46.7074 238.659 46.9216 238.441 47.1922C238.035 47.6965 237.443 48.4177 236.632 49.3962C235.124 51.2162 233.128 53.6014 231.015 56.127C229.359 58.1062 227.531 60.2902 225.954 62.1874C227.944 60.1748 230.275 57.7923 232.267 55.7561C238.872 49.0042 238.877 49.0042 239.138 49.0029C239.139 49.0029 239.139 49.0029 239.14 49.0029C239.246 49.0029 239.349 49.0452 239.423 49.1196C239.674 49.3708 239.48 49.641 239.308 49.8795C239.196 50.0343 239.029 50.2572 238.815 50.5367C238.417 51.0561 237.842 51.7917 237.059 52.7851C235.612 54.6189 233.718 56.995 231.886 59.2928C231.356 59.9586 230.822 60.6285 230.304 61.278C237.997 53.4463 238.054 53.4463 238.323 53.4449C238.324 53.4449 238.325 53.4449 238.325 53.4449C238.431 53.4449 238.535 53.488 238.609 53.5624C238.764 53.7175 238.764 53.9687 238.609 54.1238C238.573 54.1598 238.532 54.1875 238.488 54.2069C237.946 54.6299 233.779 58.8725 230.722 61.9859C226.053 66.7402 226.053 66.7402 225.83 66.7412C225.83 66.7412 225.829 66.7412 225.829 66.7412C225.723 66.7412 225.622 66.6992 225.547 66.6248C225.286 66.3639 225.391 66.2285 225.971 65.4776C226.272 65.0866 226.71 64.5295 227.243 63.855C228.307 62.5086 229.754 60.6936 231.265 58.7984C232.49 57.2623 233.828 55.584 235.032 54.0675C234.321 54.7923 233.575 55.5553 232.835 56.3122C222.049 67.3377 221.93 67.3384 221.612 67.34C221.51 67.3427 221.397 67.2963 221.322 67.2212C221.011 66.91 221.011 66.91 224.132 63.1391C225.857 61.0542 228.17 58.2907 230.406 55.618C231.677 54.0985 233.008 52.5082 234.212 51.0641C232.161 53.1397 229.739 55.6163 227.559 57.8464C218.12 67.4971 218.067 67.4975 217.771 67.4988C217.768 67.4971 217.767 67.4971 217.766 67.4971ZM238.046 54.1235C238.097 54.1739 238.154 54.2049 238.211 54.2215C238.151 54.2035 238.094 54.1709 238.046 54.1235ZM204.669 36.0879C204.77 36.0879 204.872 36.1263 204.949 36.2033C204.813 36.0679 204.618 36.0616 204.489 36.1313C204.546 36.1022 204.607 36.0879 204.669 36.0879Z" fill="#FF8D8D"/>
</g>
<g opacity="0.8">
<path opacity="0.8" d="M362.194 165.54C362.124 165.54 362.053 165.512 362.004 165.462C361.829 165.287 361.97 165.108 362.12 164.918C362.213 164.799 362.356 164.625 362.544 164.399C362.888 163.984 363.389 163.393 364.075 162.591C365.347 161.101 367.086 159.084 368.768 157.133C369.888 155.834 371.062 154.472 372.117 153.244C371.011 154.369 369.791 155.616 368.626 156.806C360.615 164.991 360.544 164.991 360.33 164.992C360.26 164.993 360.188 164.963 360.138 164.914C359.962 164.738 360.109 164.551 360.226 164.4C360.306 164.298 360.424 164.154 360.585 163.962C360.879 163.612 361.311 163.111 361.905 162.428C363.016 161.152 364.541 159.42 366.157 157.586C368.11 155.368 370.444 152.719 372.25 150.635C370.819 152.089 369.105 153.85 367.487 155.51C365.347 157.708 363.134 159.981 361.447 161.682C358.548 164.607 358.441 164.608 358.28 164.609C358.28 164.609 358.279 164.609 358.278 164.609C358.208 164.609 358.133 164.579 358.084 164.529C357.875 164.32 358.026 164.138 358.664 163.372C359.047 162.912 359.608 162.259 360.381 161.377C361.816 159.738 363.716 157.606 365.728 155.349C367.475 153.39 369.429 151.198 371.006 149.402C369.23 151.195 367.029 153.441 365.065 155.444C357.07 163.603 357.021 163.604 356.815 163.605H356.813C356.743 163.605 356.673 163.576 356.624 163.526C356.416 163.319 356.543 163.167 357.249 162.327C357.657 161.842 358.254 161.154 359.073 160.223C360.594 158.495 362.683 156.158 364.704 153.898C366.237 152.183 367.853 150.376 369.252 148.799C368.024 150.049 366.662 151.443 365.362 152.773C356.271 162.075 355.756 162.52 355.497 162.521C355.43 162.52 355.353 162.491 355.303 162.441C355.096 162.235 355.226 162.081 355.947 161.225C356.364 160.73 356.975 160.027 357.812 159.076C359.365 157.311 361.492 154.931 363.549 152.63C365.125 150.867 366.787 149.006 368.211 147.402C366.392 149.235 364.222 151.44 362.27 153.424C354.46 161.359 354.436 161.36 354.244 161.36C354.175 161.366 354.105 161.332 354.055 161.283C353.863 161.091 354.028 160.874 354.257 160.573C354.418 160.36 354.667 160.052 354.998 159.657C355.596 158.942 356.457 157.943 357.63 156.605C359.778 154.154 362.545 151.05 364.986 148.311C364.991 148.306 364.996 148.301 365 148.296C364.773 148.527 364.545 148.76 364.319 148.992C361.932 151.43 359.227 154.193 357.142 156.29C353.513 159.94 353.394 159.941 353.23 159.942C353.23 159.942 353.23 159.942 353.229 159.942C353.159 159.942 353.085 159.912 353.036 159.862C352.857 159.683 353.011 159.486 353.146 159.312C353.242 159.189 353.384 159.017 353.579 158.786C353.934 158.367 354.453 157.769 355.167 156.958C356.497 155.446 358.287 153.438 360.182 151.312C362.097 149.163 364.241 146.757 365.959 144.805C364.475 146.313 362.717 148.117 361.056 149.821C352.963 158.127 352.531 158.496 352.28 158.498C352.208 158.497 352.135 158.469 352.085 158.419C351.88 158.214 352.017 158.049 352.676 157.259C353.062 156.795 353.626 156.139 354.4 155.251C355.837 153.603 357.806 151.38 359.71 149.231C361.083 147.682 362.527 146.052 363.79 144.615C362.42 146 360.861 147.583 359.379 149.088C351.6 156.987 351.57 156.988 351.378 156.988H351.377C351.307 156.988 351.238 156.96 351.188 156.91C351.004 156.726 351.096 156.617 351.535 156.096C351.764 155.823 352.103 155.43 352.569 154.893C353.443 153.884 354.679 152.473 355.988 150.979C358.087 148.581 360.81 145.472 362.776 143.179C360.923 145.038 358.511 147.496 356.503 149.543C351.395 154.749 351.395 154.749 351.223 154.75C351.223 154.75 351.222 154.75 351.221 154.75C351.151 154.75 351.083 154.722 351.034 154.672C350.859 154.497 350.996 154.318 351.154 154.111C351.253 153.981 351.404 153.791 351.604 153.546C351.968 153.098 352.493 152.465 353.211 151.609C354.536 150.029 356.272 147.981 357.951 146.001C358.619 145.213 359.293 144.418 359.925 143.67C359.048 144.566 358.114 145.525 357.25 146.412C351.272 152.552 351.216 152.552 351.012 152.553C350.937 152.55 350.869 152.525 350.819 152.475C350.634 152.289 350.73 152.164 351.191 151.563C351.441 151.237 351.805 150.775 352.305 150.151C353.23 148.994 354.484 147.45 355.696 145.957C356.325 145.183 356.979 144.377 357.589 143.623C357.369 143.849 357.146 144.078 356.924 144.305C351.674 149.689 351.615 149.689 351.418 149.691C351.348 149.686 351.276 149.662 351.225 149.612C351.061 149.448 351.16 149.29 351.377 148.943C351.501 148.746 351.681 148.468 351.929 148.093C352.388 147.401 353.008 146.482 353.608 145.593C353.884 145.185 354.17 144.761 354.441 144.358C353.62 145.191 353.601 145.191 353.488 145.192H353.487C353.417 145.192 353.349 145.163 353.3 145.114C353.197 145.011 353.197 144.844 353.3 144.741C353.314 144.727 353.329 144.715 353.344 144.705C353.471 144.593 354.166 143.886 354.677 143.366C355.908 142.113 355.908 142.113 356.036 142.113C356.109 142.114 356.175 142.14 356.224 142.19C356.386 142.352 356.288 142.508 356.092 142.82C355.981 142.997 355.818 143.247 355.593 143.585C355.178 144.211 354.628 145.026 354.046 145.889C353.628 146.507 353.169 147.187 352.766 147.79C353.847 146.706 355.328 145.187 356.546 143.937C360.319 140.067 360.33 140.067 360.504 140.066C360.572 140.066 360.644 140.094 360.694 140.144C360.877 140.327 360.776 140.458 360.35 141.011C360.118 141.314 359.779 141.743 359.313 142.325C358.448 143.405 357.257 144.872 356.106 146.29C355.27 147.319 354.353 148.449 353.542 149.454C354.561 148.417 355.749 147.198 356.872 146.045C363.158 139.59 363.222 139.589 363.434 139.588C363.499 139.588 363.577 139.617 363.627 139.667C363.799 139.838 363.659 140.018 363.546 140.163C363.474 140.256 363.365 140.391 363.225 140.563C362.962 140.883 362.58 141.342 362.054 141.967C361.074 143.133 359.753 144.692 358.354 146.342C357.228 147.671 355.998 149.121 354.892 150.432C355.294 150.023 355.708 149.6 356.127 149.174C365.266 139.859 365.357 139.859 365.578 139.858H365.579C365.649 139.858 365.72 139.887 365.77 139.937C365.957 140.123 365.8 140.333 365.602 140.599C365.463 140.786 365.249 141.056 364.965 141.402C364.451 142.029 363.711 142.903 362.703 144.074C360.857 146.219 358.481 148.932 356.384 151.326C356.257 151.471 356.131 151.616 356.005 151.76C356.979 150.773 358.009 149.726 359.003 148.718C367.433 140.157 367.479 140.157 367.675 140.156C367.749 140.16 367.815 140.184 367.864 140.234C368.071 140.44 367.931 140.608 367.261 141.413C366.866 141.886 366.291 142.557 365.501 143.463C364.035 145.144 362.038 147.399 360.105 149.58C358.677 151.193 357.17 152.894 355.878 154.364C357.341 152.876 359.056 151.117 360.678 149.452C368.753 141.165 369.185 140.795 369.435 140.794C369.435 140.794 369.436 140.794 369.437 140.794C369.507 140.794 369.58 140.823 369.63 140.873C369.836 141.079 369.737 141.215 368.899 142.215C368.428 142.778 367.743 143.571 366.806 144.64C365.074 146.615 362.787 149.181 360.576 151.662C359.334 153.055 358.077 154.465 356.972 155.711C359.09 153.578 361.724 150.887 363.941 148.622C370.594 141.825 370.614 141.825 370.804 141.824C370.805 141.824 370.806 141.824 370.806 141.824C370.876 141.824 370.945 141.853 370.994 141.902C371.17 142.078 371.02 142.263 370.911 142.398C370.838 142.489 370.728 142.62 370.584 142.787C370.316 143.099 369.921 143.551 369.376 144.168C368.353 145.326 366.909 146.946 365.38 148.662C363.062 151.262 360.094 154.591 357.841 157.165C359.076 155.914 360.493 154.475 361.892 153.053C371.84 142.944 371.911 142.944 372.123 142.943C372.194 142.946 372.264 142.972 372.313 143.022C372.522 143.23 372.389 143.386 371.657 144.255C371.232 144.761 370.611 145.476 369.759 146.444C368.179 148.239 366.025 150.65 363.941 152.981C362.33 154.784 360.626 156.69 359.19 158.311C360.956 156.524 363.078 154.353 364.983 152.403C373.03 144.169 373.088 144.169 373.304 144.167C373.376 144.169 373.446 144.196 373.496 144.246C373.707 144.457 373.557 144.634 372.839 145.49C372.412 145.999 371.788 146.72 370.931 147.694C369.343 149.499 367.184 151.914 365.096 154.25C363.749 155.755 362.338 157.334 361.079 158.751C362.23 157.581 363.485 156.3 364.686 155.074C373.604 145.974 374.069 145.568 374.308 145.567C374.308 145.567 374.309 145.567 374.31 145.567C374.38 145.567 374.451 145.597 374.501 145.647C374.71 145.856 374.566 146.046 373.852 146.909C373.424 147.426 372.798 148.155 371.939 149.137C370.348 150.956 368.199 153.368 366.12 155.699C364.624 157.378 363.042 159.152 361.71 160.662C363.355 158.994 365.333 156.963 367.107 155.141C374.796 147.245 375.176 146.919 375.419 146.918C375.419 146.918 375.419 146.918 375.42 146.918C375.49 146.918 375.563 146.947 375.612 146.997C375.816 147.2 375.719 147.344 374.865 148.377C374.384 148.96 373.687 149.778 372.735 150.877C370.983 152.9 368.729 155.459 366.55 157.933C365.877 158.698 365.198 159.468 364.552 160.203C365.751 158.985 367.049 157.657 368.246 156.435C375.63 148.889 375.685 148.889 375.889 148.888C375.963 148.892 376.031 148.917 376.08 148.966C376.256 149.142 376.119 149.315 375.961 149.516C375.865 149.638 375.718 149.818 375.525 150.05C375.171 150.476 374.657 151.083 373.954 151.906C372.649 153.434 370.878 155.488 369.164 157.476C368.174 158.625 367.14 159.824 366.188 160.931C366.888 160.217 367.615 159.473 368.32 158.753C375.863 151.041 375.935 151.04 376.15 151.039H376.151C376.221 151.039 376.293 151.069 376.342 151.118C376.513 151.289 376.374 151.473 376.261 151.621C376.187 151.72 376.074 151.862 375.93 152.042C375.66 152.377 375.266 152.856 374.728 153.507C373.726 154.716 372.399 156.302 370.994 157.98C369.894 159.296 368.679 160.747 367.63 162.008C368.954 160.67 370.503 159.087 371.827 157.733C376.217 153.246 376.22 153.246 376.394 153.245C376.394 153.245 376.395 153.245 376.395 153.245C376.465 153.245 376.534 153.273 376.583 153.322C376.75 153.49 376.621 153.669 376.507 153.828C376.433 153.931 376.321 154.078 376.179 154.264C375.914 154.609 375.533 155.098 375.012 155.759C374.05 156.978 372.791 158.557 371.574 160.084C371.222 160.526 370.867 160.971 370.523 161.403C375.635 156.198 375.673 156.198 375.852 156.197H375.854C375.924 156.197 375.993 156.226 376.043 156.275C376.146 156.378 376.146 156.545 376.043 156.648C376.019 156.672 375.991 156.69 375.962 156.703C375.602 156.984 372.833 159.804 370.8 161.873C367.697 165.033 367.697 165.033 367.549 165.034H367.548C367.478 165.034 367.411 165.005 367.361 164.956C367.188 164.783 367.257 164.693 367.643 164.194C367.843 163.934 368.134 163.563 368.488 163.115C369.196 162.22 370.157 161.014 371.162 159.754C371.976 158.733 372.865 157.618 373.664 156.61C373.192 157.091 372.696 157.598 372.204 158.101C365.036 165.429 364.957 165.43 364.746 165.431C364.678 165.433 364.603 165.402 364.553 165.352C364.346 165.145 364.346 165.145 366.42 162.639C367.567 161.253 369.104 159.417 370.59 157.64C371.435 156.631 372.32 155.574 373.12 154.614C371.757 155.993 370.147 157.639 368.698 159.121C362.425 165.536 362.389 165.536 362.193 165.537C362.195 165.54 362.194 165.54 362.194 165.54ZM375.672 156.652C375.706 156.685 375.744 156.706 375.782 156.717C375.742 156.705 375.704 156.683 375.672 156.652ZM353.489 144.665C353.556 144.665 353.623 144.69 353.675 144.742C353.584 144.651 353.455 144.647 353.369 144.693C353.406 144.674 353.448 144.665 353.489 144.665Z" fill="#FF8D8D"/>
</g>
</g>
<g opacity="0.5">
<path opacity="0.8" d="M59.0547 117.245C61.4088 115.782 63.8087 114.417 66.2189 113.073C68.6311 111.734 71.0629 110.436 73.5058 109.162C78.3953 106.622 83.3341 104.187 88.3153 101.842C93.2964 99.4965 98.3216 97.2451 103.396 95.0984C105.935 94.0289 108.485 92.9831 111.055 91.9794C113.628 90.9803 116.21 90.0029 118.839 89.1245C116.486 90.5893 114.086 91.9554 111.677 93.2997C109.265 94.6394 106.833 95.9371 104.39 97.2107C99.5002 99.751 94.5614 102.186 89.5786 104.527C84.5957 106.869 79.5708 109.121 74.4959 111.267C71.9566 112.336 69.4067 113.382 66.8367 114.386C64.2647 115.386 61.6827 116.365 59.0547 117.245Z" fill="#FF8D8D"/>
<path opacity="0.8" d="M145.789 54.1234C150.597 51.4097 155.488 48.8737 160.405 46.3918C165.325 43.9172 170.279 41.5127 175.26 39.1682C180.241 36.8234 185.252 34.5413 190.296 32.3293C195.343 30.1242 200.416 27.9736 205.573 26.0034C200.766 28.7198 195.875 31.2561 190.958 33.7377C186.038 36.2123 181.085 38.6171 176.102 40.9589C171.12 43.3014 166.109 45.5835 161.065 47.7956C156.018 49.9999 150.945 52.1509 145.789 54.1234Z" fill="#FF8D8D"/>
<path opacity="0.8" d="M356.266 174.896C359.378 173.115 362.548 171.458 365.738 169.845C368.925 168.224 372.142 166.665 375.375 165.142C378.609 163.621 381.861 162.138 385.141 160.716C388.418 159.286 391.717 157.901 395.073 156.641C391.962 158.423 388.792 160.081 385.601 161.694C382.414 163.314 379.198 164.873 375.964 166.395C372.729 167.913 369.477 169.397 366.196 170.819C362.919 172.248 359.622 173.634 356.266 174.896Z" fill="#FF8D8D"/>
</g>
<path d="M269.82 105.928V177.674H106.535V105.928C106.535 100.461 110.967 96.0317 116.432 96.0317H259.923C265.39 96.0317 269.82 100.461 269.82 105.928Z" fill="#FF6161"/>
<path opacity="0.5" d="M188.178 248.236L269.82 248.278V249.42C269.82 254.885 265.39 259.317 259.924 259.317H116.432C110.967 259.317 106.535 254.885 106.535 249.42V248.278L188.178 248.236Z" fill="#FF6161"/>
<path opacity="0.8" d="M270.924 248.278H269.819L188.177 248.236L106.535 248.278H105.43C99.1301 248.28 94.4648 243.543 95.0032 237.75L106.535 177.674H269.819L281.351 237.75C281.889 243.543 277.224 248.28 270.924 248.278Z" fill="#FF6161"/>
<path opacity="0.6" d="M161.206 115.485C162.211 111.23 159.576 106.966 155.32 105.961C151.065 104.956 146.801 107.591 145.796 111.846C144.791 116.102 147.426 120.366 151.682 121.371C155.937 122.375 160.201 119.74 161.206 115.485Z" fill="white"/>
<path opacity="0.6" d="M230.573 115.489C231.578 111.234 228.943 106.969 224.687 105.965C220.432 104.96 216.168 107.595 215.163 111.85C214.158 116.106 216.793 120.37 221.049 121.375C225.304 122.379 229.568 119.744 230.573 115.489Z" fill="white"/>
<path d="M222.861 89.1245C220.5 89.1245 218.586 91.0387 218.586 93.3998V109.347C218.586 111.708 220.5 113.622 222.861 113.622C225.222 113.622 227.137 111.708 227.137 109.347V93.3998C227.137 91.0387 225.222 89.1245 222.861 89.1245Z" fill="#A32121"/>
<path d="M153.498 89.1245C155.859 89.1245 157.773 91.0387 157.773 93.3998V109.347C157.773 111.708 155.859 113.622 153.498 113.622C151.137 113.622 149.223 111.708 149.223 109.347V93.3998C149.223 91.0387 151.137 89.1245 153.498 89.1245Z" fill="#A32121"/>
<path opacity="0.8" d="M149.35 166.989H128.42C126.233 166.989 124.461 165.216 124.461 163.03V142.099C124.461 139.913 126.233 138.141 128.42 138.141H149.35C151.537 138.141 153.309 139.913 153.309 142.099V163.03C153.309 165.216 151.537 166.989 149.35 166.989Z" fill="white"/>
<g opacity="0.8">
<path d="M205.444 146.816H168.853C168.307 146.816 167.863 146.373 167.863 145.826V141C167.863 140.453 168.306 140.01 168.853 140.01H205.444C205.99 140.01 206.434 140.453 206.434 141V145.826C206.433 146.373 205.99 146.816 205.444 146.816Z" fill="white"/>
<path d="M250.905 156.222H168.853C168.307 156.222 167.863 155.779 167.863 155.232V151.885C167.863 151.338 168.306 150.896 168.853 150.896H250.905C251.451 150.896 251.894 151.338 251.894 151.885V155.232C251.894 155.779 251.451 156.222 250.905 156.222Z" fill="white"/>
<path d="M250.905 165.119H168.853C168.307 165.119 167.863 164.676 167.863 164.129V160.782C167.863 160.236 168.306 159.792 168.853 159.792H250.905C251.451 159.792 251.894 160.236 251.894 160.782V164.129C251.894 164.676 251.451 165.119 250.905 165.119Z" fill="white"/>
</g>
<path opacity="0.6" d="M263.283 231.648L116.924 232.023C116.261 232.025 115.829 231.513 115.961 230.883L117.225 224.843C117.351 224.24 117.977 223.754 118.622 223.754L261.027 223.707C261.623 223.707 262.241 224.174 262.408 224.752L264.076 230.55C264.25 231.154 263.895 231.646 263.283 231.648Z" fill="white"/>
<g opacity="0.6">
<path d="M255.248 213.462L252.879 213.457C252.605 213.457 252.384 213.235 252.385 212.962C252.385 212.689 252.607 212.468 252.88 212.468H252.881L255.24 212.473C255.245 212.472 255.249 212.472 255.254 212.472C255.527 212.472 255.748 212.694 255.748 212.967C255.748 213.235 255.535 213.453 255.269 213.462C255.262 213.462 255.255 213.462 255.248 213.462ZM250.52 213.453H250.519L248.16 213.448C247.886 213.448 247.665 213.226 247.666 212.953C247.667 212.68 247.888 212.459 248.161 212.459H248.162L250.521 212.464C250.794 212.464 251.015 212.686 251.015 212.959C251.014 213.232 250.793 213.453 250.52 213.453ZM245.801 213.444H245.8L243.441 213.439C243.168 213.439 242.947 213.217 242.947 212.944C242.948 212.671 243.169 212.45 243.442 212.45H243.443L245.802 212.455C246.076 212.455 246.297 212.677 246.296 212.95C246.295 213.223 246.074 213.444 245.801 213.444ZM241.083 213.435H241.082L238.722 213.43C238.449 213.43 238.228 213.208 238.229 212.935C238.229 212.662 238.451 212.441 238.723 212.441H238.724L241.084 212.445C241.357 212.446 241.578 212.668 241.578 212.941C241.577 213.214 241.356 213.435 241.083 213.435ZM236.364 213.426H236.363L234.003 213.421C233.73 213.42 233.509 213.198 233.51 212.925C233.51 212.652 233.731 212.432 234.004 212.432H234.005L236.365 212.436C236.638 212.437 236.859 212.659 236.859 212.932C236.858 213.205 236.637 213.426 236.364 213.426ZM231.645 213.417H231.644L229.285 213.412C229.011 213.411 228.79 213.189 228.791 212.916C228.792 212.643 229.013 212.423 229.286 212.423H229.287L231.646 212.427C231.919 212.428 232.141 212.65 232.14 212.923C232.14 213.196 231.918 213.417 231.645 213.417ZM226.926 213.408H226.925L224.566 213.403C224.293 213.402 224.072 213.18 224.072 212.907C224.073 212.634 224.294 212.414 224.567 212.414H224.568L226.927 212.418C227.2 212.419 227.422 212.641 227.421 212.914C227.421 213.187 227.199 213.408 226.926 213.408ZM222.208 213.399H222.207L219.847 213.394C219.574 213.393 219.353 213.171 219.353 212.898C219.354 212.625 219.575 212.404 219.848 212.404H219.849L222.209 212.409C222.482 212.41 222.703 212.631 222.702 212.905C222.702 213.177 222.48 213.399 222.208 213.399ZM217.489 213.39H217.488L215.128 213.385C214.855 213.384 214.634 213.162 214.635 212.889C214.635 212.616 214.857 212.396 215.129 212.396H215.13L217.49 212.4C217.763 212.401 217.984 212.623 217.984 212.896C217.983 213.168 217.762 213.39 217.489 213.39ZM212.77 213.38H212.769L210.41 213.376C210.137 213.375 209.915 213.153 209.916 212.88C209.917 212.607 210.138 212.387 210.411 212.387H210.412L212.771 212.391C213.044 212.392 213.266 212.613 213.265 212.887C213.265 213.159 213.043 213.38 212.77 213.38ZM208.051 213.371H208.05L205.691 213.367C205.418 213.366 205.196 213.144 205.197 212.871C205.198 212.598 205.419 212.377 205.692 212.377H205.693L208.052 212.381C208.325 212.382 208.547 212.604 208.546 212.877C208.546 213.15 208.325 213.371 208.051 213.371ZM203.333 213.362H203.332L200.972 213.358C200.699 213.357 200.478 213.135 200.479 212.862C200.479 212.589 200.701 212.368 200.973 212.368H200.975L203.334 212.372C203.607 212.373 203.828 212.595 203.828 212.868C203.827 213.141 203.606 213.362 203.333 213.362ZM198.614 213.353H198.613L196.254 213.349C195.98 213.348 195.759 213.126 195.76 212.853C195.76 212.58 195.982 212.359 196.255 212.359H196.256L198.615 212.363C198.888 212.364 199.109 212.586 199.109 212.859C199.108 213.132 198.887 213.353 198.614 213.353ZM193.895 213.344H193.894L191.535 213.34C191.262 213.339 191.04 213.117 191.041 212.844C191.042 212.571 191.263 212.35 191.536 212.35H191.537L193.896 212.354C194.17 212.355 194.391 212.577 194.39 212.85C194.39 213.123 194.168 213.344 193.895 213.344ZM189.176 213.335H189.175L186.816 213.33C186.543 213.33 186.322 213.108 186.322 212.835C186.323 212.562 186.544 212.341 186.817 212.341H186.818L189.177 212.345C189.45 212.346 189.671 212.568 189.671 212.841C189.671 213.114 189.449 213.335 189.176 213.335ZM184.458 213.326H184.457L182.097 213.321C181.824 213.321 181.603 213.099 181.604 212.826C181.604 212.553 181.825 212.332 182.098 212.332H182.099L184.459 212.336C184.732 212.337 184.953 212.559 184.952 212.832C184.952 213.105 184.731 213.326 184.458 213.326ZM179.739 213.317H179.738L177.379 213.312C177.105 213.311 176.884 213.089 176.885 212.816C176.886 212.543 177.107 212.322 177.38 212.322H177.381L179.74 212.327C180.013 212.328 180.234 212.55 180.234 212.823C180.233 213.096 180.012 213.317 179.739 213.317ZM175.02 213.308H175.019L172.66 213.303C172.387 213.302 172.166 213.08 172.166 212.807C172.167 212.534 172.388 212.313 172.661 212.313H172.662L175.021 212.318C175.295 212.319 175.516 212.541 175.515 212.814C175.515 213.086 175.293 213.308 175.02 213.308ZM170.302 213.298H170.301L167.941 213.294C167.668 213.293 167.447 213.071 167.447 212.798C167.448 212.525 167.669 212.304 167.942 212.304H167.943L170.302 212.309C170.576 212.309 170.797 212.531 170.796 212.805C170.796 213.077 170.574 213.298 170.302 213.298ZM165.583 213.289H165.582L163.222 213.285C162.949 213.284 162.728 213.062 162.729 212.789C162.729 212.516 162.951 212.295 163.223 212.295H163.224L165.584 212.299C165.857 212.3 166.078 212.522 166.077 212.795C166.077 213.068 165.856 213.289 165.583 213.289ZM160.864 213.28H160.863L158.504 213.276C158.231 213.275 158.01 213.053 158.01 212.78C158.011 212.507 158.232 212.286 158.505 212.286H158.506L160.866 212.291C161.139 212.291 161.36 212.513 161.359 212.787C161.358 213.059 161.137 213.28 160.864 213.28ZM156.146 213.271H156.145L153.785 213.267C153.512 213.266 153.291 213.044 153.291 212.771C153.292 212.498 153.513 212.277 153.786 212.277H153.787L156.146 212.282C156.419 212.282 156.641 212.504 156.64 212.777C156.64 213.05 156.418 213.271 156.146 213.271ZM151.427 213.262H151.426L149.066 213.258C148.793 213.257 148.572 213.035 148.573 212.762C148.573 212.489 148.795 212.268 149.067 212.268H149.068L151.428 212.273C151.701 212.273 151.922 212.495 151.922 212.768C151.921 213.041 151.699 213.262 151.427 213.262ZM146.708 213.253H146.707L144.347 213.248C144.074 213.248 143.853 213.026 143.854 212.752C143.854 212.48 144.076 212.259 144.348 212.259H144.349L146.709 212.263C146.982 212.264 147.203 212.486 147.203 212.759C147.202 213.032 146.981 213.253 146.708 213.253ZM141.989 213.244H141.988L139.629 213.239C139.356 213.239 139.134 213.017 139.135 212.743C139.136 212.471 139.357 212.25 139.63 212.25H139.631L141.99 212.254C142.264 212.255 142.485 212.477 142.484 212.75C142.483 213.023 142.262 213.244 141.989 213.244ZM137.271 213.234H137.27L134.911 213.23C134.637 213.23 134.416 213.008 134.417 212.734C134.417 212.462 134.639 212.241 134.912 212.241H134.913L137.272 212.245C137.545 212.246 137.766 212.468 137.766 212.741C137.765 213.014 137.544 213.234 137.271 213.234ZM132.552 213.225H132.551L130.191 213.221C129.918 213.221 129.697 212.999 129.698 212.725C129.698 212.453 129.919 212.232 130.192 212.232H130.193L132.553 212.236C132.826 212.237 133.047 212.459 133.046 212.732C133.046 213.005 132.825 213.225 132.552 213.225ZM127.833 213.216H127.832L125.473 213.212C125.2 213.212 124.979 212.99 124.979 212.716C124.98 212.444 125.201 212.223 125.474 212.223H125.475L127.834 212.227C128.108 212.228 128.329 212.45 128.328 212.723C128.327 212.996 128.106 213.216 127.833 213.216ZM123.121 213.122C123.088 213.122 123.054 213.119 123.021 213.112C122.099 212.923 121.308 212.47 120.733 211.802C120.555 211.595 120.578 211.283 120.786 211.104C120.992 210.926 121.305 210.949 121.483 211.157C121.914 211.657 122.515 211.998 123.219 212.143C123.487 212.197 123.66 212.459 123.605 212.727C123.557 212.961 123.351 213.122 123.121 213.122ZM257.495 212.835C257.332 212.835 257.172 212.754 257.078 212.607C256.931 212.377 256.998 212.071 257.228 211.923C257.818 211.546 258.243 211.008 258.456 210.367C258.543 210.107 258.823 209.967 259.082 210.053C259.342 210.14 259.482 210.42 259.395 210.679C259.109 211.538 258.544 212.256 257.762 212.757C257.679 212.81 257.586 212.835 257.495 212.835ZM120.319 209.805C120.046 209.805 119.824 209.584 119.824 209.31C119.824 209.071 119.845 208.827 119.887 208.585L120.177 206.895C120.223 206.626 120.48 206.446 120.748 206.491C121.017 206.537 121.198 206.793 121.152 207.063L120.862 208.752C120.83 208.94 120.814 209.128 120.814 209.31C120.814 209.583 120.592 209.805 120.319 209.805ZM258.97 208.686C258.726 208.686 258.514 208.507 258.48 208.258L258.16 205.921C258.123 205.65 258.312 205.4 258.583 205.363C258.852 205.325 259.103 205.516 259.14 205.786L259.461 208.124C259.498 208.395 259.309 208.644 259.038 208.681C259.015 208.684 258.992 208.686 258.97 208.686ZM121.064 205.148C121.036 205.148 121.008 205.146 120.979 205.141C120.71 205.095 120.529 204.839 120.575 204.569L120.974 202.244C121.021 201.975 121.276 201.794 121.546 201.84C121.815 201.887 121.996 202.142 121.95 202.412L121.551 204.737C121.51 204.978 121.3 205.148 121.064 205.148ZM258.328 204.011C258.085 204.011 257.873 203.832 257.839 203.583L257.518 201.246C257.481 200.975 257.67 200.725 257.941 200.688C258.214 200.65 258.462 200.841 258.499 201.111L258.819 203.449C258.856 203.72 258.667 203.969 258.396 204.006C258.373 204.009 258.351 204.011 258.328 204.011ZM121.862 200.497C121.834 200.497 121.806 200.495 121.777 200.49C121.508 200.444 121.327 200.188 121.373 199.919L121.772 197.593C121.819 197.324 122.075 197.145 122.344 197.189C122.613 197.236 122.794 197.491 122.748 197.761L122.349 200.086C122.307 200.327 122.098 200.497 121.862 200.497ZM257.687 199.336C257.444 199.336 257.232 199.157 257.198 198.908L256.877 196.571C256.84 196.3 257.029 196.051 257.3 196.014C257.571 195.975 257.82 196.166 257.857 196.437L258.178 198.774C258.215 199.045 258.026 199.294 257.755 199.331C257.732 199.334 257.71 199.336 257.687 199.336ZM122.66 195.846C122.632 195.846 122.604 195.844 122.575 195.839C122.306 195.793 122.125 195.538 122.171 195.268L122.57 192.943C122.617 192.673 122.872 192.494 123.142 192.539C123.411 192.585 123.592 192.84 123.546 193.11L123.147 195.435C123.105 195.676 122.896 195.846 122.66 195.846ZM257.046 194.661C256.803 194.661 256.59 194.482 256.556 194.233L256.236 191.896C256.199 191.625 256.388 191.376 256.659 191.339C256.929 191.303 257.179 191.491 257.216 191.762L257.537 194.099C257.574 194.37 257.385 194.619 257.114 194.657C257.091 194.66 257.068 194.661 257.046 194.661ZM123.457 191.196C123.43 191.196 123.402 191.194 123.373 191.189C123.104 191.143 122.923 190.887 122.969 190.617L123.37 188.285C123.421 188.016 123.679 187.839 123.948 187.89C124.216 187.94 124.393 188.199 124.343 188.467L124.329 188.543L123.944 190.785C123.903 191.026 123.694 191.196 123.457 191.196ZM256.405 189.986C256.161 189.986 255.949 189.807 255.915 189.559L255.778 188.559C255.726 188.182 255.601 187.812 255.406 187.46C255.273 187.221 255.359 186.92 255.598 186.787C255.837 186.655 256.138 186.741 256.271 186.98C256.526 187.44 256.69 187.926 256.758 188.425L256.895 189.424C256.932 189.695 256.743 189.944 256.472 189.981C256.45 189.985 256.427 189.986 256.405 189.986ZM124.973 186.83C124.847 186.83 124.722 186.783 124.626 186.688C124.431 186.497 124.428 186.183 124.619 185.988C125.218 185.378 125.972 184.907 126.798 184.629C127.057 184.542 127.338 184.68 127.425 184.94C127.513 185.199 127.374 185.479 127.115 185.567C126.435 185.796 125.816 186.182 125.325 186.682C125.229 186.78 125.101 186.83 124.973 186.83ZM254.202 186.052C254.115 186.052 254.027 186.029 253.947 185.98C253.336 185.612 252.642 185.392 251.941 185.344C251.668 185.326 251.462 185.09 251.48 184.817C251.499 184.544 251.738 184.34 252.008 184.357C252.866 184.415 253.713 184.683 254.458 185.133C254.693 185.274 254.768 185.578 254.626 185.812C254.533 185.966 254.37 186.052 254.202 186.052ZM249.615 185.335H247.256C246.983 185.335 246.761 185.113 246.761 184.84C246.761 184.567 246.983 184.345 247.256 184.345H249.615C249.889 184.345 250.11 184.567 250.11 184.84C250.11 185.113 249.889 185.335 249.615 185.335ZM244.896 185.335H242.537C242.264 185.335 242.042 185.113 242.042 184.84C242.042 184.567 242.264 184.345 242.537 184.345H244.896C245.17 184.345 245.391 184.567 245.391 184.84C245.391 185.113 245.17 185.335 244.896 185.335ZM240.178 185.335H237.819C237.545 185.335 237.324 185.113 237.324 184.84C237.324 184.567 237.545 184.345 237.819 184.345H240.178C240.451 184.345 240.672 184.567 240.672 184.84C240.672 185.113 240.451 185.335 240.178 185.335ZM235.459 185.335H233.1C232.826 185.335 232.605 185.113 232.605 184.84C232.605 184.567 232.826 184.345 233.1 184.345H235.459C235.732 184.345 235.954 184.567 235.954 184.84C235.954 185.113 235.732 185.335 235.459 185.335ZM230.74 185.335H228.381C228.107 185.335 227.886 185.113 227.886 184.84C227.886 184.567 228.107 184.345 228.381 184.345H230.74C231.013 184.345 231.235 184.567 231.235 184.84C231.235 185.113 231.013 185.335 230.74 185.335ZM226.021 185.335H223.662C223.389 185.335 223.168 185.113 223.168 184.84C223.168 184.567 223.389 184.345 223.662 184.345H226.021C226.295 184.345 226.516 184.567 226.516 184.84C226.516 185.113 226.295 185.335 226.021 185.335ZM221.303 185.335H218.943C218.67 185.335 218.449 185.113 218.449 184.84C218.449 184.567 218.67 184.345 218.943 184.345H221.303C221.576 184.345 221.798 184.567 221.798 184.84C221.798 185.113 221.576 185.335 221.303 185.335ZM216.584 185.335H214.225C213.952 185.335 213.73 185.113 213.73 184.84C213.73 184.567 213.952 184.345 214.225 184.345H216.584C216.857 184.345 217.079 184.567 217.079 184.84C217.079 185.113 216.857 185.335 216.584 185.335ZM211.865 185.335H209.506C209.233 185.335 209.011 185.113 209.011 184.84C209.011 184.567 209.233 184.345 209.506 184.345H211.865C212.138 184.345 212.36 184.567 212.36 184.84C212.36 185.113 212.138 185.335 211.865 185.335ZM207.147 185.335H204.787C204.514 185.335 204.292 185.113 204.292 184.84C204.292 184.567 204.514 184.345 204.787 184.345H207.147C207.42 184.345 207.641 184.567 207.641 184.84C207.641 185.113 207.42 185.335 207.147 185.335ZM202.428 185.335H200.068C199.795 185.335 199.574 185.113 199.574 184.84C199.574 184.567 199.795 184.345 200.068 184.345H202.428C202.701 184.345 202.923 184.567 202.923 184.84C202.923 185.113 202.701 185.335 202.428 185.335ZM197.709 185.335H195.35C195.077 185.335 194.855 185.113 194.855 184.84C194.855 184.567 195.077 184.345 195.35 184.345H197.709C197.983 184.345 198.204 184.567 198.204 184.84C198.204 185.113 197.983 185.335 197.709 185.335ZM192.99 185.335H190.631C190.358 185.335 190.136 185.113 190.136 184.84C190.136 184.567 190.358 184.345 190.631 184.345H192.99C193.264 184.345 193.485 184.567 193.485 184.84C193.485 185.113 193.264 185.335 192.99 185.335ZM188.271 185.335H185.912C185.639 185.335 185.417 185.113 185.417 184.84C185.417 184.567 185.639 184.345 185.912 184.345H188.271C188.545 184.345 188.766 184.567 188.766 184.84C188.766 185.113 188.545 185.335 188.271 185.335ZM183.553 185.335H181.194C180.92 185.335 180.699 185.113 180.699 184.84C180.699 184.567 180.92 184.345 181.194 184.345H183.553C183.826 184.345 184.047 184.567 184.047 184.84C184.047 185.113 183.826 185.335 183.553 185.335ZM178.834 185.335H176.475C176.202 185.335 175.98 185.113 175.98 184.84C175.98 184.567 176.202 184.345 176.475 184.345H178.834C179.107 184.345 179.329 184.567 179.329 184.84C179.329 185.113 179.107 185.335 178.834 185.335ZM174.115 185.335H171.756C171.483 185.335 171.261 185.113 171.261 184.84C171.261 184.567 171.483 184.345 171.756 184.345H174.115C174.389 184.345 174.61 184.567 174.61 184.84C174.61 185.113 174.389 185.335 174.115 185.335ZM169.396 185.335H167.037C166.764 185.335 166.543 185.113 166.543 184.84C166.543 184.567 166.764 184.345 167.037 184.345H169.396C169.67 184.345 169.891 184.567 169.891 184.84C169.891 185.113 169.67 185.335 169.396 185.335ZM164.678 185.335H162.319C162.045 185.335 161.824 185.113 161.824 184.84C161.824 184.567 162.045 184.345 162.319 184.345H164.678C164.951 184.345 165.173 184.567 165.173 184.84C165.173 185.113 164.951 185.335 164.678 185.335ZM159.959 185.335H157.6C157.326 185.335 157.105 185.113 157.105 184.84C157.105 184.567 157.326 184.345 157.6 184.345H159.959C160.232 184.345 160.454 184.567 160.454 184.84C160.454 185.113 160.232 185.335 159.959 185.335ZM155.241 185.335H152.881C152.608 185.335 152.386 185.113 152.386 184.84C152.386 184.567 152.608 184.345 152.881 184.345H155.241C155.514 184.345 155.735 184.567 155.735 184.84C155.735 185.113 155.514 185.335 155.241 185.335ZM150.522 185.335H148.162C147.889 185.335 147.667 185.113 147.667 184.84C147.667 184.567 147.889 184.345 148.162 184.345H150.522C150.795 184.345 151.016 184.567 151.016 184.84C151.016 185.113 150.795 185.335 150.522 185.335ZM145.803 185.335H143.443C143.17 185.335 142.949 185.113 142.949 184.84C142.949 184.567 143.17 184.345 143.443 184.345H145.803C146.076 184.345 146.298 184.567 146.298 184.84C146.298 185.113 146.076 185.335 145.803 185.335ZM141.084 185.335H138.725C138.452 185.335 138.23 185.113 138.23 184.84C138.23 184.567 138.452 184.345 138.725 184.345H141.084C141.357 184.345 141.579 184.567 141.579 184.84C141.579 185.113 141.357 185.335 141.084 185.335ZM136.366 185.335H134.006C133.733 185.335 133.511 185.113 133.511 184.84C133.511 184.567 133.733 184.345 134.006 184.345H136.366C136.639 184.345 136.86 184.567 136.86 184.84C136.86 185.113 136.639 185.335 136.366 185.335ZM131.647 185.335H129.287C129.014 185.335 128.792 185.113 128.792 184.84C128.792 184.567 129.014 184.345 129.287 184.345H131.647C131.92 184.345 132.141 184.567 132.141 184.84C132.141 185.113 131.92 185.335 131.647 185.335Z" fill="white"/>
</g>
<path opacity="0.6" d="M189.175 188.386C183.709 188.386 178.893 192.172 178.371 197.305C177.789 203.029 182.667 208.179 189.331 208.179C195.995 208.179 200.792 203.029 200.119 197.305C199.516 192.172 194.641 188.386 189.175 188.386ZM193.54 198.629H190.725L190.785 201.267C190.802 202.054 190.132 202.7 189.288 202.7C188.444 202.7 187.764 202.054 187.769 201.267L187.787 198.629H184.971C184.16 198.629 183.532 198.032 183.568 197.305C183.603 196.589 184.272 196.015 185.062 196.015H187.804L187.82 193.636C187.824 192.971 188.445 192.439 189.207 192.439C189.968 192.439 190.597 192.971 190.612 193.636L190.666 196.015H193.408C194.198 196.015 194.876 196.589 194.923 197.305C194.97 198.031 194.351 198.629 193.54 198.629Z" fill="white"/>
<path d="M296.177 87.3725C296.118 87.3688 296.06 87.3658 296 87.3628C285.217 86.853 278.743 95.0944 281.523 105.443C282.127 107.69 285.57 120.739 288.974 119.963C291.912 119.292 290.986 115.33 307.681 113.639C315.213 112.876 315.827 104.561 311.133 99.6209C309.975 98.4013 308.632 97.3665 307.495 96.1265C303.92 92.2252 302.066 87.7367 296.177 87.3725Z" fill="url(#paint0_linear_2193_3095)"/>
<path d="M285.604 122.694C285.604 122.694 279.043 141.049 277.882 151.421C276.721 161.794 287.29 158.958 287.29 158.958L285.604 122.694Z" fill="url(#paint1_linear_2193_3095)"/>
<path d="M292.954 108.746C292.954 108.746 293.975 118.179 291.027 119.359C291.027 119.359 295.615 124.295 300.311 117.057C300.311 117.057 299.372 112.097 300.311 108.21L292.954 108.746Z" fill="url(#paint2_linear_2193_3095)"/>
<path d="M283.793 252C283.793 252 283.823 254.199 283.781 255.299C283.763 255.782 288.882 258.141 289.971 254.834L289.279 252.189L285.025 250.67L283.793 252Z" fill="url(#paint3_linear_2193_3095)"/>
<path d="M291.669 211.166C291.486 211.919 291.476 212.699 291.637 213.456C294.547 227.184 289.283 252.189 289.283 252.189C285.915 253.844 283.797 251.999 283.797 251.999C283.954 236.665 281.501 234.04 280.887 203.552C280.449 181.886 282.406 169.821 283.575 164.654C284.049 162.551 284.395 161.59 284.395 161.59L292.614 159.201C292.614 159.201 292.931 159.57 293.422 160.241C294.735 162.035 297.284 165.982 298.291 170.755C298.583 172.139 298.745 173.594 298.71 175.086C298.531 182.598 293.009 205.668 291.669 211.166Z" fill="url(#paint4_linear_2193_3095)"/>
<path d="M312.132 257.267C312.132 257.267 309.813 259.639 306.617 258.324C306.462 257.119 306.16 255.595 305.742 253.83C306.921 254.234 308.976 254.487 311.716 253.112C312.036 255.622 312.212 257.251 312.132 257.267Z" fill="url(#paint5_linear_2193_3095)"/>
<path opacity="0.5" d="M298.71 175.086C298.53 182.599 293.009 205.668 291.669 211.166C292.955 205.442 294.113 182.231 289.975 171.615C285.836 160.998 283.838 165.064 283.838 165.064L283.574 164.655C284.049 162.551 284.394 161.591 284.394 161.591L292.613 159.202C292.613 159.202 292.93 159.571 293.421 160.241L298.29 170.756C298.582 172.14 298.745 173.595 298.71 175.086Z" fill="url(#paint6_linear_2193_3095)"/>
<path d="M306.167 162.004C306.167 162.004 311.957 173.115 310.02 196.33C308.083 219.545 311.079 247.595 311.715 253.112C310.416 257.267 305.741 253.83 305.741 253.83C305.741 253.83 302.373 240.454 299.929 228.439C297.485 216.425 294.663 178.655 290.984 163.585C287.304 148.516 306.167 162.004 306.167 162.004Z" fill="url(#paint7_linear_2193_3095)"/>
<path d="M286.863 139.323C286.905 139.333 287.05 139.372 287.287 139.429C287.113 139.398 286.97 139.363 286.863 139.323Z" fill="url(#paint8_linear_2193_3095)"/>
<path d="M273.566 260.872C285.529 261.464 291.073 260.475 291.073 260.475C291.365 257.168 289.973 254.834 289.973 254.834C290.038 254.942 289.386 255.432 289.303 255.487C289.008 255.682 288.678 255.817 288.34 255.911C287.098 256.257 286.035 255.854 284.844 255.53C282.371 254.857 279.576 254.255 277.097 255.215C275.559 255.81 274.45 257.048 273.929 258.601C273.887 258.726 273.41 260.864 273.566 260.872Z" fill="url(#paint9_linear_2193_3095)"/>
<path d="M306.614 258.324C306.614 258.324 305.687 259.901 305.255 261.658C305.093 262.315 305.655 262.638 306.2 262.769C309.177 263.484 311.796 263.654 314.644 262.391C315.043 262.214 315.242 261.765 315.105 261.351C314.744 260.253 313.865 258.205 312.129 257.267C312.129 257.267 310.244 258.727 306.614 258.324Z" fill="url(#paint10_linear_2193_3095)"/>
<path d="M310.431 122.38C310.17 122.056 309.881 121.75 309.567 121.463C309.212 121.214 308.753 120.896 308.221 120.549C305.98 119.074 302.47 117.031 300.303 117.076C300.303 117.076 298.466 119.966 294.082 120.134C291.502 120.134 292.503 117.331 292.609 117.074C292.238 117.896 291.039 118.691 290.334 119.141C289.959 119.381 289.568 119.6 289.166 119.796C289.16 119.802 289.156 119.805 289.152 119.805C289.085 119.836 289.023 119.869 288.958 119.897C288.954 119.897 288.95 119.899 288.948 119.901C287.994 120.376 286.47 121.126 285.893 122.047C285.812 122.176 285.751 122.312 285.695 122.451C283.299 127.428 281.174 132.498 282.671 138.002C283.727 141.887 284.023 145.794 284.385 149.778C284.401 149.951 284.415 150.122 284.428 150.293C284.479 150.921 284.522 151.541 284.56 152.154C284.748 155.177 284.789 157.963 284.601 160.048C284.548 160.619 284.479 161.137 284.391 161.591C284.56 161.685 291.539 165.548 302.413 163.073C303.616 162.798 304.871 162.447 306.166 162.005C306.166 162.005 306.166 162.003 306.168 161.997C306.176 161.966 306.21 161.844 306.263 161.638C306.345 161.316 306.481 160.792 306.655 160.095C306.659 160.079 306.663 160.066 306.667 160.054C306.677 160.009 306.689 159.961 306.7 159.916C306.712 159.867 306.722 159.82 306.736 159.771C306.74 159.755 306.743 159.739 306.747 159.724C306.759 159.671 306.773 159.618 306.785 159.565C306.791 159.545 306.796 159.527 306.802 159.505C306.822 159.419 306.843 159.327 306.867 159.237C306.907 159.066 306.95 158.893 306.995 158.713C307.022 158.591 307.054 158.465 307.083 158.338C307.159 158.018 307.24 157.676 307.325 157.323C307.387 157.044 307.454 156.759 307.521 156.465C307.572 156.237 307.625 156.007 307.68 155.772C307.684 155.744 307.692 155.713 307.7 155.684C307.759 155.42 307.818 155.153 307.879 154.881C307.938 154.614 307.996 154.341 308.057 154.064C308.081 153.946 308.106 153.826 308.132 153.707C308.157 153.587 308.183 153.467 308.209 153.345C308.26 153.104 308.313 152.857 308.366 152.607C308.379 152.546 308.391 152.483 308.403 152.421C308.415 152.358 308.429 152.295 308.442 152.23C308.464 152.126 308.486 152.022 308.507 151.918C308.529 151.812 308.55 151.706 308.572 151.602C308.583 151.533 308.597 151.464 308.613 151.394C308.674 151.085 308.737 150.771 308.8 150.453C308.878 150.065 308.953 149.668 309.029 149.269C309.055 149.134 309.082 148.994 309.108 148.855C309.135 148.717 309.161 148.576 309.186 148.437C309.21 148.311 309.233 148.184 309.257 148.056C309.329 147.646 309.404 147.233 309.476 146.813C309.512 146.623 309.543 146.43 309.579 146.236C309.602 146.103 309.623 145.967 309.645 145.833C309.714 145.43 309.781 145.026 309.847 144.615C309.855 144.566 309.863 144.519 309.871 144.47C309.883 144.395 309.895 144.318 309.909 144.242C309.975 143.822 310.04 143.396 310.105 142.97C310.284 141.764 310.449 140.541 310.598 139.318C310.602 139.295 310.602 139.271 310.604 139.248C310.694 138.496 310.778 137.75 310.851 137.006C310.865 136.864 310.878 136.725 310.89 136.586C311.395 131.211 311.416 126.059 310.431 122.38Z" fill="url(#paint11_linear_2193_3095)"/>
<path opacity="0.5" d="M298.435 162.293C298.726 162.244 299.002 162.189 299.273 162.132C304.468 160.72 306.331 155.084 306.331 155.084C307.574 149.417 305.615 142.18 304.411 138.549C304.288 138.177 303.94 137.925 303.548 137.924C299.707 137.92 293.305 137.052 293.305 137.052C297.882 137.357 301.784 136.645 303.104 136.362C303.38 136.303 303.573 136.056 303.562 135.774C303.445 132.767 303.494 129.995 304.02 129.568C304.348 129.3 305.583 132.309 307.061 136.385C307.275 136.654 307.471 136.924 307.642 137.188C308.904 139.153 310.516 138.255 310.516 138.255C310.516 138.255 310.557 138.613 310.606 139.247V139.249C310.604 139.271 310.604 139.294 310.6 139.318C310.451 140.541 310.286 141.764 310.108 142.969C310.043 143.395 309.978 143.821 309.911 144.241C309.898 144.318 309.886 144.394 309.874 144.469C309.866 144.518 309.858 144.565 309.85 144.614C309.762 145.162 309.673 145.7 309.579 146.236C309.546 146.43 309.513 146.622 309.479 146.813C309.407 147.233 309.33 147.645 309.257 148.055C309.236 148.183 309.212 148.311 309.187 148.436C309.161 148.576 309.136 148.717 309.11 148.854C309.085 148.994 309.057 149.133 309.032 149.269C308.954 149.667 308.879 150.064 308.802 150.453C308.74 150.77 308.677 151.085 308.616 151.393C308.6 151.464 308.587 151.532 308.573 151.601C308.551 151.705 308.531 151.811 308.51 151.917C308.488 152.021 308.465 152.126 308.443 152.23C308.43 152.294 308.418 152.357 308.406 152.42C308.394 152.483 308.381 152.546 308.367 152.607C308.316 152.856 308.263 153.103 308.212 153.345C308.186 153.467 308.161 153.586 308.135 153.706C308.109 153.826 308.084 153.946 308.059 154.063C307.998 154.34 307.939 154.611 307.88 154.88H307.882C307.821 155.153 307.762 155.42 307.703 155.683C307.696 155.712 307.688 155.744 307.684 155.771C307.628 156.007 307.575 156.237 307.524 156.464C307.458 156.759 307.391 157.043 307.328 157.322C307.244 157.675 307.163 158.017 307.086 158.337C307.057 158.465 307.026 158.59 306.998 158.712C306.953 158.893 306.91 159.065 306.871 159.236C306.847 159.326 306.826 159.418 306.806 159.505C306.8 159.527 306.794 159.544 306.788 159.564C306.776 159.617 306.762 159.67 306.751 159.723C306.747 159.739 306.743 159.754 306.739 159.77C306.725 159.819 306.715 159.866 306.704 159.915C306.692 159.96 306.68 160.008 306.67 160.053C306.666 160.064 306.663 160.078 306.659 160.094C306.484 160.791 306.348 161.315 306.266 161.637H306.264C306.211 161.841 306.178 161.965 306.17 161.996C306.168 162.002 306.168 162.004 306.168 162.004C304.874 162.445 303.62 162.797 302.416 163.072C291.542 165.547 284.563 161.684 284.395 161.589C290.633 162.78 295.157 162.843 298.435 162.293Z" fill="url(#paint12_linear_2193_3095)"/>
<path d="M284.184 101.784C284.184 101.784 286.319 105.317 286.416 108.441C286.514 111.565 288.734 114.949 292.833 116.246C292.833 116.246 300.493 113.192 301.139 108.24C301.139 108.24 300.956 106.176 300.919 104.853C300.882 103.529 302.547 102.425 301.22 100.593C299.894 98.7609 299.299 100.326 299.299 100.326C299.299 100.326 298.686 98.8013 298.064 97.553C297.442 96.3053 284.184 101.784 284.184 101.784Z" fill="url(#paint13_linear_2193_3095)"/>
<path d="M284.184 101.784C284.184 101.784 289.958 108.833 299.727 100.313C309.497 91.7921 290.553 96.4747 290.553 96.4747L284.184 101.784Z" fill="url(#paint14_linear_2193_3095)"/>
<path opacity="0.3" d="M368.023 172.321L230.274 198.248C228.027 198.671 225.863 197.192 225.44 194.945L219.381 162.753C218.958 160.506 220.437 158.342 222.684 157.919L360.433 131.992C362.68 131.569 364.844 133.048 365.267 135.295L371.326 167.487C371.749 169.734 370.27 171.898 368.023 172.321Z" fill="#FF6161"/>
<path d="M370.562 168.605L232.813 194.532C230.566 194.955 228.402 193.476 227.979 191.229L221.92 159.037C221.497 156.79 222.976 154.626 225.223 154.203L362.972 128.276C365.219 127.853 367.383 129.332 367.806 131.579L373.865 163.771C374.288 166.018 372.809 168.182 370.562 168.605Z" fill="#FCEBEB"/>
<g opacity="0.8">
<path opacity="0.8" d="M262.402 182.761L241.832 186.632C239.684 187.037 237.614 185.623 237.21 183.474L233.339 162.905C232.934 160.756 234.348 158.687 236.497 158.282L257.066 154.411C259.215 154.006 261.284 155.42 261.688 157.569L265.56 178.138C265.964 180.287 264.55 182.357 262.402 182.761Z" fill="#FF6161"/>
<g opacity="0.8">
<path d="M313.799 152.56L277.839 159.329C277.302 159.43 276.784 159.076 276.683 158.539L275.791 153.796C275.69 153.259 276.043 152.742 276.58 152.64L312.54 145.872C313.077 145.771 313.595 146.124 313.696 146.662L314.588 151.405C314.689 151.942 314.336 152.459 313.799 152.56Z" fill="#FF6161"/>
<path d="M360.217 153.395L279.581 168.572C279.044 168.673 278.527 168.32 278.425 167.783L277.806 164.494C277.705 163.957 278.058 163.439 278.596 163.338L359.232 148.161C359.769 148.06 360.286 148.413 360.387 148.951L361.006 152.24C361.107 152.777 360.754 153.294 360.217 153.395Z" fill="#FF6161"/>
<path d="M361.861 162.139L281.226 177.316C280.688 177.417 280.171 177.064 280.07 176.526L279.451 173.238C279.35 172.7 279.703 172.183 280.24 172.082L360.876 156.905C361.413 156.804 361.931 157.157 362.032 157.695L362.651 160.983C362.752 161.521 362.399 162.038 361.861 162.139Z" fill="#FF6161"/>
</g>
</g>
<path d="M307.717 164.113C307.717 164.113 307.165 165.877 307.057 166.665C306.949 167.454 305.232 169.77 304.276 170.683C303.321 171.597 303.305 170.545 303.985 169.626C304.665 168.707 305.043 167.65 305.043 167.65L306.214 164.296L307.717 164.113Z" fill="url(#paint15_linear_2193_3095)"/>
<path d="M306.37 164.812C306.37 164.812 305.535 166.615 305.31 167.441C305.085 168.267 302.931 170.498 301.785 171.339C300.638 172.18 300.768 171.055 301.621 170.17C302.475 169.285 303.393 168.277 303.393 168.277L304.741 164.797L306.37 164.812Z" fill="url(#paint16_linear_2193_3095)"/>
<path d="M305.207 164.907C305.207 164.907 304.136 166.581 303.801 167.369C303.466 168.157 301.031 170.076 299.781 170.754C298.531 171.433 298.812 170.336 299.777 169.574C300.743 168.812 301.789 167.938 301.789 167.938L303.595 164.672L305.207 164.907Z" fill="url(#paint17_linear_2193_3095)"/>
<path d="M304.532 165.267C304.532 165.267 302.951 166.472 302.366 167.097C301.781 167.722 298.835 168.687 297.428 168.895C296.021 169.103 296.661 168.169 297.83 167.785C298.998 167.401 300.281 166.94 300.281 166.94L303.1 164.493L304.532 165.267Z" fill="url(#paint18_linear_2193_3095)"/>
<path d="M301.985 165.461C301.985 165.461 302.806 164.487 301.427 164.151C300.048 163.815 299.056 163.991 298.557 163.479C298.058 162.965 298.055 162.836 298.34 162.693C298.626 162.549 299.359 163.322 300.243 162.754C301.127 162.185 302.329 162.456 303.074 161.657C303.819 160.858 307.572 162.369 307.717 164.113C307.863 165.858 304.234 166.524 304.234 166.524L301.985 165.461Z" fill="url(#paint19_linear_2193_3095)"/>
<path d="M306.211 166.23C306.22 166.221 306.226 166.213 306.234 166.204C306.234 166.204 306.234 166.204 306.235 166.202C306.237 166.197 306.236 166.193 306.238 166.188C306.238 166.188 306.227 166.202 306.211 166.23Z" fill="url(#paint20_linear_2193_3095)"/>
<path d="M306.211 166.23C306.22 166.221 306.226 166.213 306.234 166.204C306.234 166.204 306.234 166.204 306.235 166.202C306.237 166.197 306.236 166.193 306.238 166.188C306.238 166.188 306.227 166.202 306.211 166.23Z" fill="url(#paint21_linear_2193_3095)"/>
<path d="M303.84 161.516C303.871 161.61 304.805 164.185 307.63 164.478C308.062 163.937 308.49 163.393 308.914 162.845C309.922 161.551 310.909 160.242 311.885 158.925C313.663 156.52 315.548 154.023 317.232 151.422C317.484 151.033 317.731 150.642 317.973 150.248C317.977 150.24 317.982 150.232 317.986 150.222C318.097 150.027 318.515 149.242 318.866 148.078C318.815 147.741 318.762 147.403 318.709 147.066C318.625 146.526 318.536 145.984 318.444 145.444C317.774 144.767 316.781 144.182 315.984 143.777C315.277 143.416 314.724 143.198 314.69 143.185L314.677 143.222C314.453 143.793 314.14 144.321 313.712 144.775C313.444 145.246 312.843 146.267 312.052 147.604C311.781 148.063 311.486 148.56 311.176 149.084C309.301 152.248 306.823 156.426 305.017 159.512C304.645 160.156 304.144 160.988 303.84 161.516Z" fill="url(#paint22_linear_2193_3095)"/>
<path d="M305.016 125.765C305.297 129.389 305.889 133.272 307.136 136.67C308.327 139.888 310.033 142.928 311.41 146.078C311.565 146.429 311.724 146.798 311.881 147.179C311.94 147.319 311.997 147.46 312.054 147.603C312.468 148.644 312.829 149.759 312.929 150.86L314.048 151.005L317.235 151.422C317.486 151.033 317.733 150.642 317.975 150.248C317.979 150.24 317.985 150.232 317.989 150.222C318.099 150.028 318.517 149.242 318.868 148.078C318.817 147.741 318.764 147.403 318.711 147.066C318.627 146.526 318.538 145.984 318.446 145.444C317.816 141.726 317.029 138.019 316.039 134.399C314.963 130.451 313.909 125.351 310.642 122.553C310.326 122.281 309.986 122.031 309.628 121.806C309.519 121.739 309.414 121.676 309.304 121.613C308.876 121.371 308.487 121.22 308.139 121.146C307.264 120.955 306.634 121.238 306.182 121.742C305.041 123.012 305.018 125.682 305.016 125.765Z" fill="url(#paint23_linear_2193_3095)"/>
<rect width="440" height="300" fill="black" style="mix-blend-mode:saturation"/>
</g>
<defs>
<linearGradient id="paint0_linear_2193_3095" x1="302.983" y1="114.054" x2="278.064" y2="83.8274" gradientUnits="userSpaceOnUse">
<stop stop-color="#5C2100"/>
<stop offset="1" stop-color="#A23200"/>
</linearGradient>
<linearGradient id="paint1_linear_2193_3095" x1="297.032" y1="126.115" x2="277.303" y2="153.533" gradientUnits="userSpaceOnUse">
<stop stop-color="#A23200"/>
<stop offset="1" stop-color="#FF0000"/>
</linearGradient>
<linearGradient id="paint2_linear_2193_3095" x1="296.125" y1="109.355" x2="295.677" y2="118.042" gradientUnits="userSpaceOnUse">
<stop stop-color="#F0877E"/>
<stop offset="1" stop-color="#FABEB2"/>
</linearGradient>
<linearGradient id="paint3_linear_2193_3095" x1="285.547" y1="249.395" x2="287.329" y2="257.003" gradientUnits="userSpaceOnUse">
<stop stop-color="#F0877E"/>
<stop offset="1" stop-color="#FABEB2"/>
</linearGradient>
<linearGradient id="paint4_linear_2193_3095" x1="292.239" y1="257.061" x2="288.965" y2="166.878" gradientUnits="userSpaceOnUse">
<stop stop-color="#A23200"/>
<stop offset="1" stop-color="#5C2100"/>
</linearGradient>
<linearGradient id="paint5_linear_2193_3095" x1="308.795" y1="253.938" x2="309.601" y2="257.793" gradientUnits="userSpaceOnUse">
<stop stop-color="#F0877E"/>
<stop offset="1" stop-color="#FABEB2"/>
</linearGradient>
<linearGradient id="paint6_linear_2193_3095" x1="291.475" y1="260.199" x2="291.072" y2="149.773" gradientUnits="userSpaceOnUse">
<stop stop-color="#A23200"/>
<stop offset="1" stop-color="#5C2100"/>
</linearGradient>
<linearGradient id="paint7_linear_2193_3095" x1="303.505" y1="256.652" x2="300.231" y2="166.469" gradientUnits="userSpaceOnUse">
<stop stop-color="#A23200"/>
<stop offset="1" stop-color="#5C2100"/>
</linearGradient>
<linearGradient id="paint8_linear_2193_3095" x1="291.503" y1="168.229" x2="285.355" y2="128.159" gradientUnits="userSpaceOnUse">
<stop stop-color="#A23200"/>
<stop offset="1" stop-color="#FF0000"/>
</linearGradient>
<linearGradient id="paint9_linear_2193_3095" x1="280.17" y1="264.023" x2="285.208" y2="254.171" gradientUnits="userSpaceOnUse">
<stop stop-color="#A23200"/>
<stop offset="1" stop-color="#5C2100"/>
</linearGradient>
<linearGradient id="paint10_linear_2193_3095" x1="310.271" y1="264.517" x2="310.047" y2="257.128" gradientUnits="userSpaceOnUse">
<stop stop-color="#A23200"/>
<stop offset="1" stop-color="#5C2100"/>
</linearGradient>
<linearGradient id="paint11_linear_2193_3095" x1="303.776" y1="171.733" x2="294.371" y2="127.698" gradientUnits="userSpaceOnUse">
<stop stop-color="#A23200"/>
<stop offset="1" stop-color="#FF0000"/>
</linearGradient>
<linearGradient id="paint12_linear_2193_3095" x1="300.613" y1="165.868" x2="283.512" y2="79.5071" gradientUnits="userSpaceOnUse">
<stop stop-color="#A23200"/>
<stop offset="1" stop-color="#FF0000"/>
</linearGradient>
<linearGradient id="paint13_linear_2193_3095" x1="292.716" y1="94.028" x2="294.188" y2="110.944" gradientUnits="userSpaceOnUse">
<stop stop-color="#F0877E"/>
<stop offset="1" stop-color="#FABEB2"/>
</linearGradient>
<linearGradient id="paint14_linear_2193_3095" x1="304.639" y1="112.691" x2="279.72" y2="82.4643" gradientUnits="userSpaceOnUse">
<stop stop-color="#5C2100"/>
<stop offset="1" stop-color="#A23200"/>
</linearGradient>
<linearGradient id="paint15_linear_2193_3095" x1="324.851" y1="114.561" x2="301.725" y2="178.491" gradientUnits="userSpaceOnUse">
<stop stop-color="#F0877E"/>
<stop offset="1" stop-color="#FABEB2"/>
</linearGradient>
<linearGradient id="paint16_linear_2193_3095" x1="323.22" y1="113.971" x2="300.094" y2="177.9" gradientUnits="userSpaceOnUse">
<stop stop-color="#F0877E"/>
<stop offset="1" stop-color="#FABEB2"/>
</linearGradient>
<linearGradient id="paint17_linear_2193_3095" x1="321.738" y1="113.434" x2="298.611" y2="177.364" gradientUnits="userSpaceOnUse">
<stop stop-color="#F0877E"/>
<stop offset="1" stop-color="#FABEB2"/>
</linearGradient>
<linearGradient id="paint18_linear_2193_3095" x1="320.15" y1="112.86" x2="297.024" y2="176.79" gradientUnits="userSpaceOnUse">
<stop stop-color="#F0877E"/>
<stop offset="1" stop-color="#FABEB2"/>
</linearGradient>
<linearGradient id="paint19_linear_2193_3095" x1="321.173" y1="113.231" x2="298.047" y2="177.16" gradientUnits="userSpaceOnUse">
<stop stop-color="#F0877E"/>
<stop offset="1" stop-color="#FABEB2"/>
</linearGradient>
<linearGradient id="paint20_linear_2193_3095" x1="306.184" y1="166.219" x2="306.259" y2="166.199" gradientUnits="userSpaceOnUse">
<stop stop-color="#F0877E"/>
<stop offset="1" stop-color="#FABEB2"/>
</linearGradient>
<linearGradient id="paint21_linear_2193_3095" x1="305.833" y1="166.313" x2="306.33" y2="166.18" gradientUnits="userSpaceOnUse">
<stop stop-color="#F0877E"/>
<stop offset="1" stop-color="#FABEB2"/>
</linearGradient>
<linearGradient id="paint22_linear_2193_3095" x1="314.549" y1="169.432" x2="305.144" y2="125.397" gradientUnits="userSpaceOnUse">
<stop stop-color="#A23200"/>
<stop offset="1" stop-color="#FF0000"/>
</linearGradient>
<linearGradient id="paint23_linear_2193_3095" x1="318.581" y1="168.572" x2="309.175" y2="124.536" gradientUnits="userSpaceOnUse">
<stop stop-color="#A23200"/>
<stop offset="1" stop-color="#FF0000"/>
</linearGradient>
<clipPath id="clip0_2193_3095">
<rect width="440" height="300" fill="white"/>
</clipPath>
</defs>
</svg>
