<svg width="440" height="440" viewBox="0 0 440 440" fill="none" xmlns="http://www.w3.org/2000/svg">
<rect width="440" height="440" fill="white"/>
<path d="M337.723 161.899C325.62 113.67 286.883 72.5061 237.967 60.5951C209.775 53.7301 178.508 57.9481 154.6 74.3901C137.675 86.0301 124.937 103.98 119.871 123.919C114.141 146.477 122.693 169.954 116.145 192.353C108.062 220.003 80.7019 234.157 62.0789 253.88C45.8719 271.044 32.0319 291.847 29.4029 315.307C26.1529 344.317 42.8799 367.324 68.2449 379.266C89.7589 389.394 115.156 389.674 137.886 382.688C158.497 376.353 176.953 364.479 197.065 356.704C213.983 350.164 233.973 347.589 251.664 352.657C278.915 360.463 298.918 384.072 329.225 382.356C358.849 380.678 382.311 356.538 396.556 332.504C403.652 320.533 409.441 307.471 410.818 293.617C412.319 278.503 407.481 264.037 396.353 253.41C381.289 239.024 357.202 234.126 347.33 215.784C338.788 199.907 342.06 179.183 337.723 161.899Z" fill="#EFBA98"/>
<path d="M129.849 230.615C123.941 230.613 117.195 231.31 109.906 233.01L112.964 240.04L105.094 234.255C98.5004 236.143 91.5364 238.865 84.4084 242.616L91.2754 247.034L81.3944 244.513L81.4184 244.24C71.5964 249.777 61.5154 257.308 51.6914 267.375C51.6914 267.375 66.8314 266.127 85.4534 263.492L88.9714 258.629L86.8954 263.286C91.7064 262.593 96.7234 261.81 101.756 260.932L106.453 253.918L106.057 260.158C115.001 258.5 123.807 256.545 131.38 254.276L126.101 249.48L135.407 252.999C147.054 249.081 154.816 244.315 153.784 238.638C153.753 235.318 146.689 231.741 135.423 230.832L126.901 235.563L129.849 230.615Z" fill="#C1725D"/>
<path d="M154.338 192.907C152.684 187.533 150.16 181.592 146.57 175.439L141.033 180.19L144.088 171.411C140.523 165.943 136.095 160.373 130.687 154.94L128.593 162.424L128.117 152.731L128.372 152.676C120.583 145.294 110.909 138.236 99 132.123C99 132.123 104.378 145.543 111.994 161.741L117.403 163.578L112.586 162.995C114.565 167.176 116.683 171.52 118.892 175.852L126.588 178.158L120.802 179.547C124.816 187.217 129.063 194.678 133.249 200.93L136.131 194.784L135.539 204.235C142.366 213.73 148.877 219.453 153.751 216.924C156.762 215.965 158.035 208.538 155.704 198.037L149.013 191.612L154.338 192.907Z" fill="#C1725D"/>
<path d="M165.412 231.763C165.341 231.551 165.129 231.409 164.898 231.434C157.244 232.248 148.681 229.966 140.472 226.401C142.436 222.707 150.126 206.843 147.617 189.138C147.617 189.138 141.452 215.791 140.138 226.258C138.518 225.547 136.913 224.784 135.331 223.988C136.036 221.346 138.826 209.674 138.23 192.377C138.23 192.377 137.731 185.625 138.86 182.297C138.86 182.297 128.981 207.669 134.878 223.759C132.179 222.385 129.555 220.914 127.052 219.412C128.05 217.523 134.31 203.981 126.52 174.251C126.52 174.251 119.819 201.493 126.762 219.237C124.368 217.792 122.087 216.324 119.966 214.892C118.73 214.057 117.523 213.219 116.348 212.384C116.715 211.214 122.088 193.33 116.99 163.665C116.99 163.665 108.714 198.321 116.262 212.324C114.25 210.892 112.336 209.471 110.545 208.1C110.998 205.483 112.748 193.578 110.58 176.321C110.58 176.321 109.473 169.642 110.296 166.225C110.296 166.225 102.82 192.145 109.977 207.662C108.072 206.193 106.312 204.785 104.734 203.49C105.348 200.316 109.33 177.64 101.319 160.487C101.319 160.487 99.3503 190.251 104.395 203.21C102.31 201.491 100.555 199.98 99.2073 198.793C99.4483 195.283 100.142 177.102 90.2293 161.625C90.2293 161.625 95.7053 188.42 98.8623 198.488C97.8973 197.633 97.1692 196.971 96.7132 196.55C95.3542 192.392 90.0223 175.567 89.7233 166.65C89.7233 166.65 80.9963 169.959 86.2883 182.353C86.2883 182.353 87.7393 186.433 90.4563 190.584C85.5203 186.375 77.8592 181.458 68.6302 180.976C68.6302 180.976 74.6483 193.968 95.3673 196.566C95.3923 196.629 95.4293 196.688 95.4813 196.738C95.5183 196.774 96.9253 198.103 99.3563 200.222C95.6493 198.469 82.6243 192.838 64.9383 191.11C64.9383 191.11 84.1593 202.056 99.9993 200.779C100.981 201.628 102.105 202.581 103.354 203.616C98.8403 202.768 83.1843 200.307 65.9363 203.18C65.9363 203.18 90.2143 210.235 104.013 204.161C105.667 205.52 107.522 207.004 109.536 208.554C105.526 208.183 88.4802 206.967 64.6562 210.348C64.6562 210.348 81.2173 216.852 109.862 208.805C111.321 209.923 112.861 211.074 114.469 212.238C110.86 211.936 102.43 211.734 93.1043 215.023C93.1043 215.023 87.7623 216.101 85.1623 213.818C85.1623 213.818 89.4203 226.301 115.414 212.915C116.708 213.839 118.04 214.768 119.409 215.693C119.67 215.869 119.937 216.047 120.203 216.224C116.822 216.175 106.754 216.815 90.1063 224.409C90.1063 224.409 83.1042 226.465 78.7393 223.131C78.7393 223.131 89.9063 237.163 120.895 216.684C122.394 217.673 123.961 218.673 125.585 219.665C122.324 219.848 113.034 221.221 97.2443 230.06C97.2443 230.06 88.5863 235.641 77.7903 232.774C77.7903 232.774 97.4363 241.003 126.298 220.095C127.618 220.891 128.972 221.678 130.354 222.449C127.384 223.344 113.298 227.972 98.3512 239.335C98.3512 239.335 119.879 234.3 130.632 222.603C133.514 224.2 136.513 225.718 139.568 227.066C137.225 228.244 119.75 236.929 110.369 238.625C110.369 238.625 114.907 246.781 126.404 239.75C126.404 239.75 136.351 234.483 139.737 227.142C148.191 230.852 157.056 233.249 165.001 232.404C165.269 232.376 165.463 232.135 165.435 231.867C165.431 231.831 165.423 231.796 165.412 231.763Z" fill="#DB9A84"/>
<path d="M297.462 140.798C300.47 135.047 303.223 128.123 305.275 120.162L296.875 119.563L306.51 114.843C308.026 107.462 308.917 99.297 308.892 90.449L301.097 94.888L308.577 86.55L308.831 86.712C308.436 74.332 306.232 60.685 301.427 46C301.427 46 294.941 61.376 288.034 80.848L290.979 86.747L287.501 82.357C285.728 87.394 283.939 92.677 282.233 98.024L286.673 106.165L280.799 102.605C277.863 112.157 275.288 121.726 273.644 130.253L280.999 127.552L272.839 134.823C270.729 148.156 271.422 158.138 277.474 160.022C280.722 161.681 287.798 156.622 294.414 146.115L294.143 135.411L297.462 140.798Z" fill="#C1725D"/>
<path d="M258.534 176.386C258.587 176.118 258.821 175.913 259.106 175.907C268.508 175.702 278.529 171.603 287.921 166.006C284.966 161.835 273.178 143.809 273.463 121.963C273.463 121.963 285.082 153.301 288.304 165.78C290.157 164.666 291.982 163.492 293.775 162.282C292.51 159.191 287.312 145.48 285.342 124.428C285.342 124.428 284.895 116.169 283.01 112.311C283.01 112.311 298.93 141.519 294.289 161.933C297.346 159.849 300.297 157.657 303.095 155.447C301.592 153.314 291.898 137.878 296.71 100.639C296.71 100.639 309.071 132.607 303.419 155.19C306.095 153.067 308.631 150.932 310.978 148.867C312.346 147.663 313.678 146.459 314.972 145.264C314.345 143.903 305.05 123.068 306.611 86.327C306.611 86.327 322.035 127.034 315.067 145.177C317.282 143.129 319.381 141.109 321.337 139.168C320.381 136.067 316.407 121.914 316.348 100.665C316.348 100.665 316.65 92.399 315.12 88.387C315.12 88.387 328.214 118.633 321.957 138.549C324.036 136.473 325.951 134.493 327.661 132.677C326.423 128.927 318.067 102.068 325.106 80.036C325.106 80.036 332.125 115.796 328.029 132.285C330.288 129.877 332.179 127.773 333.628 126.125C332.79 121.909 329.118 99.987 338.722 79.688C338.722 79.688 336.258 113.009 333.999 125.702C335.036 124.516 335.815 123.6 336.302 123.019C337.302 117.768 341.144 96.551 340.118 85.699C340.118 85.699 351.208 88.35 346.725 104.193C346.725 104.193 345.601 109.362 342.956 114.816C348.282 108.947 356.8 101.796 367.908 99.776C367.908 99.776 362.638 116.456 337.935 122.829C337.914 122.909 337.879 122.987 337.823 123.055C337.783 123.104 336.286 124.934 333.669 127.88C337.888 125.178 352.795 116.328 373.958 111.482C373.958 111.482 352.37 127.738 332.977 128.656C331.919 129.837 330.706 131.168 329.353 132.617C334.69 130.886 353.279 125.467 374.626 126.264C374.626 126.264 346.305 138.592 328.638 133.38C326.846 135.285 324.829 137.372 322.63 139.563C327.431 138.489 347.898 134.362 377.293 134.752C377.293 134.752 358.237 145.211 322.274 139.919C320.68 141.501 318.994 143.136 317.225 144.797C321.552 143.869 331.736 142.313 343.549 144.846C343.549 144.846 350.19 145.321 352.986 142.15C352.986 142.15 349.77 157.94 316.188 145.764C314.764 147.085 313.294 148.419 311.779 149.752C311.49 150.006 311.194 150.263 310.899 150.52C314.988 149.934 327.288 149.143 348.644 155.753C348.644 155.753 357.449 157.155 362.219 152.434C362.219 152.434 350.871 171.175 310.132 151.184C308.469 152.616 306.727 154.072 304.913 155.526C308.893 155.24 320.365 155.458 340.874 163.712C340.874 163.712 352.234 169.127 364.87 163.973C364.87 163.973 342.345 177.003 304.116 156.16C302.641 157.329 301.122 158.494 299.567 159.643C303.305 160.265 321.095 163.681 340.976 175.124C340.976 175.124 314.106 172.374 299.255 159.874C296.011 162.258 292.614 164.564 289.121 166.673C292.143 167.736 314.671 175.54 326.302 176.135C326.302 176.135 322.073 186.725 307.046 179.994C307.046 179.994 294.173 175.16 288.927 166.791C279.261 172.602 268.891 176.887 259.133 177.1C258.804 177.107 258.531 176.846 258.524 176.517C258.521 176.472 258.525 176.428 258.534 176.386Z" fill="#DB9A84"/>
<path d="M271.796 379.193H155.133C146.963 379.193 140.34 372.57 140.34 364.4V110.587C140.34 102.417 146.963 95.7939 155.133 95.7939H271.796C279.966 95.7939 286.589 102.417 286.589 110.587V364.4C286.589 372.569 279.966 379.193 271.796 379.193Z" fill="#B24914"/>
<path d="M155.132 374.406C149.614 374.406 145.125 369.918 145.125 364.4V110.587C145.125 105.069 149.614 100.581 155.132 100.581H271.795C277.313 100.581 281.801 105.07 281.801 110.587V364.4C281.801 369.918 277.313 374.406 271.795 374.406H155.132Z" fill="#F9E3D6"/>
<path d="M246.402 111.819H178.887C170.881 111.819 163.802 106.618 161.41 98.9771H263.878C261.487 106.618 254.409 111.819 246.402 111.819Z" fill="#B24914"/>
<path d="M179.095 103.165C179.095 101.971 178.127 101.004 176.934 101.004C175.74 101.004 174.773 101.972 174.773 103.165C174.773 104.359 175.741 105.326 176.934 105.326C178.127 105.327 179.095 104.359 179.095 103.165Z" fill="white"/>
<path d="M226.357 105.327H198.825C197.631 105.327 196.664 104.359 196.664 103.166C196.664 101.972 197.632 101.005 198.825 101.005H226.357C227.551 101.005 228.518 101.973 228.518 103.166C228.518 104.359 227.55 105.327 226.357 105.327Z" fill="white"/>
<path d="M275.965 129.852V211.789C275.965 217.351 271.456 221.85 265.904 221.85H161.03C155.478 221.85 150.969 217.351 150.969 211.789V129.852C150.969 124.3 155.478 119.8 161.03 119.8H265.904C271.456 119.8 275.965 124.299 275.965 129.852Z" fill="white"/>
<path d="M275.965 129.852V143.781H150.969V129.852C150.969 124.3 155.478 119.8 161.03 119.8H265.904C271.456 119.8 275.965 124.299 275.965 129.852Z" fill="#A9D4B8"/>
<path d="M186.086 129.128V136.092H184.763L181.291 131.864V136.092H179.699V129.128H181.032L184.494 133.357V129.128H186.086Z" fill="white"/>
<path d="M188.293 132.611C188.293 130.542 189.904 129.009 192.103 129.009C194.292 129.009 195.914 130.531 195.914 132.611C195.914 134.69 194.292 136.213 192.103 136.213C189.905 136.212 188.293 134.68 188.293 132.611ZM194.282 132.611C194.282 131.288 193.347 130.382 192.103 130.382C190.859 130.382 189.924 131.287 189.924 132.611C189.924 133.934 190.859 134.84 192.103 134.84C193.347 134.839 194.282 133.934 194.282 132.611Z" fill="white"/>
<path d="M204.584 129.128L201.569 136.092H199.977L196.973 129.128H198.714L200.833 134.103L202.982 129.128H204.584Z" fill="white"/>
<path d="M211.544 134.799V136.092H206.152V129.128H211.415V130.421H207.754V131.933H210.987V133.187H207.754V134.798H211.544V134.799Z" fill="white"/>
<path d="M220.154 136.093L220.144 131.915L218.095 135.357H217.368L215.328 132.004V136.093H213.816V129.129H215.149L217.755 133.457L220.322 129.129H221.645L221.665 136.093H220.154Z" fill="white"/>
<path d="M230.7 134.192C230.7 135.396 229.744 136.092 227.913 136.092H224.312V129.128H227.714C229.455 129.128 230.351 129.855 230.351 130.939C230.351 131.635 229.993 132.172 229.425 132.471C230.202 132.72 230.7 133.317 230.7 134.192ZM225.914 130.342V131.984H227.516C228.302 131.984 228.73 131.706 228.73 131.158C228.73 130.611 228.302 130.342 227.516 130.342H225.914ZM229.077 134.023C229.077 133.436 228.631 133.157 227.795 133.157H225.914V134.878H227.795C228.63 134.879 229.077 134.621 229.077 134.023Z" fill="white"/>
<path d="M238.306 134.799V136.092H232.914V129.128H238.177V130.421H234.516V131.933H237.749V133.187H234.516V134.798H238.306V134.799Z" fill="white"/>
<path d="M245.018 136.093L243.675 134.153H243.595H242.193V136.093H240.582V129.129H243.596C245.456 129.129 246.62 130.094 246.62 131.656C246.62 132.701 246.093 133.467 245.187 133.855L246.75 136.093H245.018ZM243.506 130.442H242.193V132.87H243.506C244.49 132.87 244.988 132.412 244.988 131.656C244.989 130.89 244.491 130.442 243.506 130.442Z" fill="white"/>
<path d="M233.644 151.933H223.098V160.457H233.644V151.933Z" fill="#DCEEE2"/>
<path d="M248.55 151.933H238.004V160.457H248.55V151.933Z" fill="#DCEEE2"/>
<path d="M263.457 151.933H252.91V160.457H263.457V151.933Z" fill="#DCEEE2"/>
<path d="M174.023 164.776H163.477V173.3H174.023V164.776Z" fill="#DCEEE2"/>
<path d="M188.929 164.776H178.383V173.3H188.929V164.776Z" fill="#DCEEE2"/>
<path d="M203.836 164.776H193.289V173.3H203.836V164.776Z" fill="#DCEEE2"/>
<path d="M218.742 164.776H208.195V173.3H218.742V164.776Z" fill="#DCEEE2"/>
<path d="M233.644 164.776H223.098V173.3H233.644V164.776Z" fill="#DCEEE2"/>
<path d="M248.55 164.776H238.004V173.3H248.55V164.776Z" fill="#DCEEE2"/>
<path d="M263.457 164.776H252.91V173.3H263.457V164.776Z" fill="#DCEEE2"/>
<path d="M174.023 177.62H163.477V186.144H174.023V177.62Z" fill="#DCEEE2"/>
<path d="M188.929 177.62H178.383V186.144H188.929V177.62Z" fill="#DCEEE2"/>
<path d="M203.836 177.62H193.289V186.144H203.836V177.62Z" fill="#DCEEE2"/>
<path d="M218.742 177.62H208.195V186.144H218.742V177.62Z" fill="#DCEEE2"/>
<path d="M233.644 177.62H223.098V186.144H233.644V177.62Z" fill="#DCEEE2"/>
<path d="M248.55 177.62H238.004V186.144H248.55V177.62Z" fill="#DCEEE2"/>
<path d="M263.457 177.62H252.91V186.144H263.457V177.62Z" fill="#DCEEE2"/>
<path d="M174.023 190.463H163.477V198.987H174.023V190.463Z" fill="#DCEEE2"/>
<path d="M188.929 190.463H178.383V198.987H188.929V190.463Z" fill="#DCEEE2"/>
<path d="M203.836 190.463H193.289V198.987H203.836V190.463Z" fill="#DCEEE2"/>
<path d="M218.742 190.463H208.195V198.987H218.742V190.463Z" fill="#DCEEE2"/>
<path d="M233.644 190.463H223.098V198.987H233.644V190.463Z" fill="#DCEEE2"/>
<path d="M248.55 190.463H238.004V198.987H248.55V190.463Z" fill="#DCEEE2"/>
<path d="M263.457 190.463H252.91V198.987H263.457V190.463Z" fill="#DCEEE2"/>
<path d="M174.023 203.307H163.477V211.831H174.023V203.307Z" fill="#DCEEE2"/>
<path d="M188.929 203.307H178.383V211.831H188.929V203.307Z" fill="#DCEEE2"/>
<path d="M203.836 203.307H193.289V211.831H203.836V203.307Z" fill="#DCEEE2"/>
<path d="M218.742 203.307H208.195V211.831H218.742V203.307Z" fill="#DCEEE2"/>
<path d="M233.644 203.307H223.098V211.831H233.644V203.307Z" fill="#F9E3D6"/>
<path d="M248.55 203.307H238.004V211.831H248.55V203.307Z" fill="#F9E3D6"/>
<path d="M263.457 203.307H252.91V211.831H263.457V203.307Z" fill="#F9E3D6"/>
<path d="M252.319 248.791H174.617C169.891 248.791 166.059 244.96 166.059 240.233C166.059 235.507 169.89 231.675 174.617 231.675H252.319C257.045 231.675 260.877 235.506 260.877 240.233C260.877 244.959 257.045 248.791 252.319 248.791Z" fill="white"/>
<path d="M248.233 244.428H178.699C176.382 244.428 174.504 242.55 174.504 240.233C174.504 237.916 176.382 236.038 178.699 236.038H248.234C250.551 236.038 252.429 237.916 252.429 240.233C252.428 242.55 250.55 244.428 248.233 244.428Z" fill="#F9E3D6"/>
<path d="M201.564 244.428H178.863C176.546 244.428 174.668 242.55 174.668 240.233C174.668 237.916 176.546 236.038 178.863 236.038H201.564C203.881 236.038 205.759 237.916 205.759 240.233C205.76 242.55 203.881 244.428 201.564 244.428Z" fill="#A9D4B8"/>
<path d="M265.04 350.804H161.888C155.856 350.804 150.965 345.914 150.965 339.881V276.503C150.965 270.471 155.855 265.58 161.888 265.58H265.04C271.072 265.58 275.963 270.47 275.963 276.503V339.881C275.962 345.914 271.072 350.804 265.04 350.804Z" fill="white"/>
<path d="M173.664 298.096C180.734 298.096 186.465 292.365 186.465 285.295C186.465 278.225 180.734 272.494 173.664 272.494C166.594 272.494 160.863 278.225 160.863 285.295C160.863 292.365 166.594 298.096 173.664 298.096Z" fill="#A9D4B8"/>
<path d="M247.925 281.717H196.475C195.869 281.717 195.379 281.226 195.379 280.621C195.379 280.015 195.87 279.524 196.475 279.524H247.925C248.531 279.524 249.021 280.015 249.021 280.621C249.021 281.226 248.53 281.717 247.925 281.717Z" fill="#F9E3D6"/>
<path d="M243.136 286.392H196.475C195.869 286.392 195.379 285.901 195.379 285.296C195.379 284.69 195.87 284.2 196.475 284.2H243.136C243.742 284.2 244.232 284.691 244.232 285.296C244.232 285.901 243.741 286.392 243.136 286.392Z" fill="#F9E3D6"/>
<path d="M221.889 291.066H196.475C195.869 291.066 195.379 290.575 195.379 289.969C195.379 289.363 195.87 288.873 196.475 288.873H221.889C222.495 288.873 222.986 289.364 222.986 289.969C222.986 290.576 222.495 291.066 221.889 291.066Z" fill="#F9E3D6"/>
<path d="M266.062 280.62H256.711V289.971H266.062V280.62Z" fill="#A9D4B8"/>
<path d="M173.664 326.722C180.734 326.722 186.465 320.991 186.465 313.921C186.465 306.851 180.734 301.12 173.664 301.12C166.594 301.12 160.863 306.851 160.863 313.921C160.863 320.991 166.594 326.722 173.664 326.722Z" fill="#F9E3D6"/>
<path d="M247.925 310.343H196.475C195.869 310.343 195.379 309.852 195.379 309.247C195.379 308.641 195.87 308.15 196.475 308.15H247.925C248.531 308.15 249.021 308.641 249.021 309.247C249.021 309.852 248.53 310.343 247.925 310.343Z" fill="#F9E3D6"/>
<path d="M229.196 315.018H196.475C195.869 315.018 195.379 314.527 195.379 313.922C195.379 313.316 195.87 312.826 196.475 312.826H229.196C229.802 312.826 230.292 313.317 230.292 313.922C230.292 314.527 229.801 315.018 229.196 315.018Z" fill="#F9E3D6"/>
<path d="M208.972 319.693H196.475C195.869 319.693 195.379 319.202 195.379 318.596C195.379 317.99 195.87 317.5 196.475 317.5H208.972C209.578 317.5 210.069 317.991 210.069 318.596C210.069 319.201 209.578 319.693 208.972 319.693Z" fill="#F9E3D6"/>
<path d="M266.062 309.364H256.711V318.715H266.062V309.364Z" fill="#A9D4B8"/>
<path d="M187.938 340.784C187.938 341.883 187.066 342.518 185.396 342.518H182.109V336.163H185.214C186.803 336.163 187.62 336.826 187.62 337.815C187.62 338.451 187.293 338.941 186.775 339.213C187.484 339.44 187.938 339.985 187.938 340.784ZM183.571 337.27V338.768H185.032C185.749 338.768 186.14 338.514 186.14 338.015C186.14 337.515 185.749 337.27 185.032 337.27H183.571ZM186.458 340.63C186.458 340.095 186.049 339.84 185.287 339.84H183.571V341.411H185.287C186.05 341.411 186.458 341.175 186.458 340.63Z" fill="#B24914"/>
<path d="M189.57 339.341C189.57 337.452 191.041 336.055 193.048 336.055C195.045 336.055 196.525 337.444 196.525 339.341C196.525 341.238 195.045 342.628 193.048 342.628C191.04 342.628 189.57 341.23 189.57 339.341ZM195.036 339.341C195.036 338.134 194.182 337.308 193.048 337.308C191.913 337.308 191.06 338.134 191.06 339.341C191.06 340.549 191.913 341.375 193.048 341.375C194.182 341.375 195.036 340.549 195.036 339.341Z" fill="#B24914"/>
<path d="M198.145 339.341C198.145 337.452 199.616 336.055 201.622 336.055C203.619 336.055 205.1 337.444 205.1 339.341C205.1 341.238 203.62 342.628 201.622 342.628C199.616 342.628 198.145 341.23 198.145 339.341ZM203.611 339.341C203.611 338.134 202.757 337.308 201.623 337.308C200.488 337.308 199.635 338.134 199.635 339.341C199.635 340.549 200.489 341.375 201.623 341.375C202.757 341.375 203.611 340.549 203.611 339.341Z" fill="#B24914"/>
<path d="M209.437 340.021L208.583 340.911V342.518H207.121V336.163H208.583V339.132L211.397 336.163H213.031L210.398 338.996L213.185 342.518H211.469L209.437 340.021Z" fill="#B24914"/>
<path d="M224.062 336.163V342.518H222.855L219.686 338.66V342.518H218.234V336.163H219.45L222.61 340.021V336.163H224.062Z" fill="#B24914"/>
<path d="M226.082 339.341C226.082 337.452 227.553 336.055 229.559 336.055C231.557 336.055 233.036 337.444 233.036 339.341C233.036 341.238 231.557 342.628 229.559 342.628C227.553 342.628 226.082 341.23 226.082 339.341ZM231.547 339.341C231.547 338.134 230.693 337.308 229.559 337.308C228.424 337.308 227.571 338.134 227.571 339.341C227.571 340.549 228.424 341.375 229.559 341.375C230.694 341.375 231.547 340.549 231.547 339.341Z" fill="#B24914"/>
<path d="M244.455 336.163L242.376 342.518H240.796L239.398 338.214L237.955 342.518H236.385L234.297 336.163H235.821L237.256 340.63L238.754 336.163H240.116L241.568 340.666L243.048 336.163H244.455Z" fill="#B24914"/>
<path d="M58.6953 200.323C58.6953 197.769 56.6243 195.698 54.0703 195.698C51.5163 195.698 49.4453 197.769 49.4453 200.323C49.4453 202.877 51.5163 204.948 54.0703 204.948C56.6243 204.948 58.6953 202.877 58.6953 200.323Z" fill="#FFE8DC"/>
<path d="M221.586 390.807C221.586 388.253 219.515 386.182 216.961 386.182C214.407 386.182 212.336 388.253 212.336 390.807C212.336 393.361 214.407 395.432 216.961 395.432C219.515 395.432 221.586 393.361 221.586 390.807Z" fill="#FFE8DC"/>
<path d="M64.6584 231.035C65.8376 231.035 66.7934 230.079 66.7934 228.9C66.7934 227.721 65.8376 226.765 64.6584 226.765C63.4793 226.765 62.5234 227.721 62.5234 228.9C62.5234 230.079 63.4793 231.035 64.6584 231.035Z" fill="#FFE8DC"/>
<path d="M275.963 68.2368C277.142 68.2368 278.098 67.2809 278.098 66.1018C278.098 64.9227 277.142 63.9668 275.963 63.9668C274.784 63.9668 273.828 64.9227 273.828 66.1018C273.828 67.2809 274.784 68.2368 275.963 68.2368Z" fill="#FFE8DC"/>
<path d="M379.43 176.994C379.43 175.815 378.474 174.859 377.295 174.859C376.116 174.859 375.16 175.815 375.16 176.994C375.16 178.173 376.116 179.129 377.295 179.129C378.474 179.129 379.43 178.173 379.43 176.994Z" fill="#FFE8DC"/>
<path d="M198.559 387.469C198.559 386.29 197.603 385.334 196.424 385.334C195.245 385.334 194.289 386.29 194.289 387.469C194.289 388.648 195.245 389.604 196.424 389.604C197.603 389.604 198.559 388.648 198.559 387.469Z" fill="#FFE8DC"/>
<path d="M250 386.182C250 385.003 249.044 384.047 247.865 384.047C246.686 384.047 245.73 385.003 245.73 386.182C245.73 387.361 246.686 388.317 247.865 388.317C249.044 388.317 250 387.361 250 386.182Z" fill="#FFE8DC"/>
<path d="M385.031 224.275C385.031 221.721 382.96 219.65 380.406 219.65C377.852 219.65 375.781 221.721 375.781 224.275C375.781 226.829 377.852 228.9 380.406 228.9C382.96 228.9 385.031 226.829 385.031 224.275Z" fill="#FFE8DC"/>
<path d="M244.715 84.1787C244.715 81.6247 242.644 79.5537 240.09 79.5537C237.536 79.5537 235.465 81.6247 235.465 84.1787C235.465 86.7327 237.536 88.8037 240.09 88.8037C242.644 88.8037 244.715 86.7337 244.715 84.1787Z" fill="#FFE8DC"/>
<rect x="29" y="46" width="382.085" height="349.432" fill="black" style="mix-blend-mode:saturation"/>
</svg>
