<svg width="440" height="440" viewBox="0 0 440 440" fill="none" xmlns="http://www.w3.org/2000/svg">
<rect width="440" height="440" fill="white"/>
<path d="M220.607 413.372C324.722 413.372 409.124 404.848 409.124 394.333C409.124 383.818 324.722 375.294 220.607 375.294C116.492 375.294 32.0898 383.818 32.0898 394.333C32.0898 404.848 116.492 413.372 220.607 413.372Z" fill="#EDF0FC"/>
<path d="M127.948 331.556C121.671 331.6 124.663 351.956 124.663 351.956C124.663 351.956 115.338 329.932 108.165 329.14C100.992 328.348 107.291 347.555 107.291 347.555C107.291 347.555 88.6495 326.678 83.8315 327.904C79.0135 329.13 87.8424 340.777 87.8424 340.777C87.8424 340.777 56.9305 325.229 54.1975 331.13C51.4655 337.031 83.3185 350.546 83.3185 350.546C83.3185 350.546 68.7265 351.347 70.9085 355.815C73.0895 360.282 101.068 360.994 101.068 360.994C101.068 360.994 82.3464 368.614 87.5914 373.572C92.8354 378.53 115.662 371.395 115.662 371.395C115.662 371.395 98.2034 382.281 102.23 387.097C106.257 391.913 143.193 372.34 143.193 372.34C143.193 372.34 134.226 331.511 127.948 331.556Z" fill="#EB725F"/>
<path d="M129.937 347.926L131.773 355.051C132.369 357.43 133.048 359.787 133.686 362.154L135.373 368.32L129.583 365.547L120.122 361.104C119.02 358.194 117.917 355.284 116.731 352.405L114.916 348.005C114.271 346.553 113.664 345.087 112.987 343.648C113.419 345.179 113.921 346.684 114.386 348.203L115.899 352.715C116.767 355.296 117.7 357.853 118.639 360.407L107.237 355.053L100.995 352.204C99.7694 350.144 98.5404 348.085 97.2374 346.07L95.2224 342.961C94.5144 341.946 93.8404 340.911 93.1024 339.914C93.6144 341.044 94.1914 342.136 94.7344 343.248L96.4714 346.52C97.3444 348.16 98.2644 349.772 99.1924 351.38L84.7794 344.802C77.2734 341.428 69.7594 338.072 62.1914 334.831C69.5584 338.505 76.9784 342.064 84.4074 345.606L98.8934 352.41C96.9984 352.761 95.1054 353.121 93.2224 353.539C90.8034 354.062 88.3874 354.605 85.9934 355.272C88.4704 355.075 90.9254 354.752 93.3774 354.411C95.8234 354.084 98.2544 353.668 100.684 353.251L106.753 356.102L118.281 361.365C115.685 362.327 113.091 363.295 110.522 364.33C107.563 365.508 104.611 366.704 101.703 368.02C104.775 367.153 107.804 366.167 110.826 365.163C113.827 364.18 116.797 363.112 119.767 362.044L129.211 366.355L135.076 368.978L129.259 371.718C127.035 372.776 124.793 373.796 122.587 374.894C118.155 377.045 113.731 379.214 109.36 381.498C113.931 379.648 118.449 377.682 122.959 375.699C125.224 374.729 127.453 373.682 129.7 372.673L136.428 369.62L136.468 369.602L140.48 371.397C144.254 373.039 148.011 374.716 151.8 376.326C148.122 374.478 144.411 372.698 140.718 370.882L136.754 368.983L136.741 368.939L134.699 361.872C134.009 359.519 133.36 357.154 132.629 354.813L130.482 347.775C129.726 345.44 129.008 343.095 128.218 340.77C128.755 343.164 129.365 345.539 129.937 347.926Z" fill="#F9AB43"/>
<g opacity="0.1">
<path d="M84.4533 339.135C76.3603 335.307 56.3703 326.435 54.1973 331.129C53.3523 332.954 55.8183 335.507 59.6233 338.163C66.7833 336.862 75.3533 337.161 84.4533 339.135Z" fill="#0046A0"/>
<path d="M107.221 347.331C121.873 354.795 132.822 365.11 137.666 375.17C141.017 373.493 143.195 372.34 143.195 372.34C143.195 372.34 134.228 331.512 127.95 331.556C121.673 331.6 124.665 351.956 124.665 351.956C124.665 351.956 115.34 329.932 108.167 329.14C101.449 328.398 106.546 345.195 107.221 347.331Z" fill="#0046A0"/>
<path d="M87.1017 339.758C91.8947 340.957 96.8067 342.608 101.718 344.736C103.518 345.516 105.269 346.342 106.974 347.205C104.544 344.519 88.2837 326.772 83.8297 327.906C79.8847 328.909 85.0857 336.895 87.1017 339.758Z" fill="#0046A0"/>
</g>
<path d="M350.286 334.077C350.928 327.832 330.367 328.582 330.367 328.582C330.367 328.582 353.278 321.72 354.85 314.677C356.422 307.633 336.641 311.795 336.641 311.795C336.641 311.795 359.43 295.547 358.737 290.624C358.045 285.701 345.504 293.203 345.504 293.203C345.504 293.203 364.339 264.176 358.771 260.815C353.204 257.454 336.288 287.639 336.288 287.639C336.288 287.639 337.087 273.047 332.408 274.727C327.729 276.407 323.963 304.14 323.963 304.14C323.963 304.14 318.434 284.697 312.933 289.368C307.432 294.039 312.029 317.509 312.029 317.509C312.029 317.509 303.117 298.964 297.89 302.441C292.663 305.918 308.081 344.772 308.081 344.772C308.081 344.772 349.643 340.322 350.286 334.077Z" fill="#EB725F"/>
<path d="M333.796 334.263L326.513 335.31C324.083 335.643 321.666 336.059 319.243 336.435L312.93 337.438L316.32 331.986L321.771 323.067C324.785 322.29 327.797 321.511 330.789 320.647L335.361 319.324C336.874 318.842 338.398 318.398 339.903 317.883C338.334 318.145 336.783 318.48 335.222 318.776L330.571 319.787C327.911 320.367 325.267 321.015 322.626 321.67L329.195 310.922L332.709 305.029C334.891 304.035 337.071 303.039 339.217 301.964L342.528 300.301C343.614 299.708 344.717 299.152 345.789 298.527C344.61 298.913 343.461 299.367 342.296 299.784L338.853 301.152C337.127 301.84 335.424 302.578 333.725 303.325L341.84 289.717C346.014 282.625 350.172 275.522 354.221 268.355C349.764 275.276 345.415 282.263 341.082 289.26L332.735 302.915C332.593 300.993 332.443 299.072 332.233 297.155C331.977 294.693 331.702 292.232 331.301 289.78C331.226 292.264 331.278 294.74 331.349 297.214C331.407 299.681 331.555 302.142 331.703 304.604L328.206 310.325L321.714 321.209C321.042 318.523 320.363 315.839 319.615 313.172C318.767 310.102 317.901 307.037 316.912 304.002C317.437 307.151 318.087 310.269 318.754 313.383C319.404 316.474 320.14 319.543 320.877 322.612L315.559 331.528L312.31 337.071L310.222 330.989C309.414 328.662 308.644 326.323 307.795 324.01C306.141 319.369 304.469 314.735 302.676 310.141C304.016 314.887 305.476 319.593 306.954 324.292C307.671 326.649 308.467 328.98 309.225 331.323L311.525 338.345L311.539 338.387L309.317 342.179C307.273 345.751 305.194 349.302 303.18 352.892C305.419 349.438 307.594 345.944 309.803 342.472L312.124 338.74L312.17 338.732L319.418 337.475C321.832 337.047 324.254 336.66 326.661 336.189L333.891 334.824C336.294 334.328 338.704 333.87 341.101 333.34C338.658 333.609 336.23 333.956 333.796 334.263Z" fill="#F9AB43"/>
<g opacity="0.1">
<path d="M347.508 290.014C352.198 282.388 363.202 263.488 358.774 260.815C357.052 259.776 354.245 261.948 351.188 265.44C351.699 272.699 350.465 281.185 347.508 290.014Z" fill="#0046A0"/>
<path d="M336.871 311.748C327.85 325.497 316.4 335.252 305.871 338.967C307.171 342.481 308.08 344.772 308.08 344.772C308.08 344.772 349.644 340.322 350.286 334.077C350.929 327.832 330.367 328.582 330.367 328.582C330.367 328.582 353.278 321.72 354.85 314.677C356.321 308.081 339.068 311.311 336.871 311.748Z" fill="#0046A0"/>
<path d="M346.598 292.581C344.882 297.214 342.704 301.917 340.052 306.565C339.08 308.269 338.067 309.919 337.023 311.519C339.959 309.397 359.377 295.175 358.737 290.624C358.17 286.593 349.664 290.89 346.598 292.581Z" fill="#0046A0"/>
</g>
<path d="M72.919 271.19C74.051 273.797 75.464 276.303 76.903 278.749C80.502 284.869 84.685 290.646 89.331 296.013C95.678 303.346 102.953 309.882 111.042 315.242C120.711 321.65 131.531 326.259 142.876 328.696C156.914 331.711 171.461 331.358 185.52 328.663C187.563 328.271 189.596 327.829 191.619 327.345C192.248 327.195 191.928 326.24 191.301 326.39C176.937 329.822 161.946 330.961 147.327 328.52C135.759 326.588 124.647 322.433 114.631 316.335C106.243 311.229 98.679 304.822 92.061 297.579C87.075 292.121 82.61 286.175 78.749 279.871C76.982 276.985 75.411 273.873 73.933 271.005C73.911 270.962 73.893 270.917 73.874 270.873C73.619 270.283 72.66 270.594 72.919 271.19Z" fill="#6E7FDD"/>
<path d="M78.1188 280.761C75.6338 279.24 73.9398 277.391 72.4448 275.46C70.9888 273.513 69.8238 271.445 68.9198 269.269C68.0118 267.095 67.3708 264.81 67.0228 262.403C66.7118 259.981 66.6058 257.475 67.2958 254.638C69.7898 256.155 71.4868 258.003 72.9808 259.934C74.4368 261.881 75.5998 263.95 76.4958 266.129C77.3958 268.307 78.0338 270.593 78.3828 272.999C78.6898 275.423 78.7998 277.928 78.1188 280.761Z" fill="#6E7FDD"/>
<path d="M68.2266 256.89C69.0816 258.628 69.8756 260.391 70.6596 262.158C71.4456 263.924 72.1806 265.712 72.9446 267.487C73.6626 269.282 74.4046 271.066 75.0996 272.87C75.7946 274.674 76.4806 276.482 77.1046 278.315C76.2486 276.578 75.4556 274.814 74.6706 273.048C73.8866 271.281 73.1486 269.495 72.3876 267.718C71.6706 265.923 70.9266 264.139 70.2326 262.335C69.5376 260.531 68.8516 258.723 68.2266 256.89Z" fill="#0046A0"/>
<path opacity="0.1" d="M72.9804 259.934C71.4874 258.002 69.7894 256.155 67.2954 254.638C67.2054 255.008 67.1304 255.371 67.0664 255.73C68.5574 256.934 69.7344 258.268 70.8004 259.648C72.2564 261.595 73.4194 263.664 74.3154 265.843C75.2154 268.021 75.8534 270.307 76.2024 272.713C76.4704 274.817 76.5864 276.984 76.1674 279.372C76.7644 279.857 77.4064 280.323 78.1194 280.759C78.8004 277.926 78.6904 275.421 78.3814 272.999C78.0334 270.593 77.3954 268.307 76.4944 266.129C75.5994 263.95 74.4364 261.882 72.9804 259.934Z" fill="#0046A0"/>
<path d="M83.3107 288.245C81.7387 285.792 81.0207 283.39 80.5167 281C80.0557 278.613 79.9087 276.244 80.0447 273.891C80.1757 271.538 80.5957 269.202 81.3327 266.885C82.1097 264.57 83.1067 262.268 84.9647 260.017C86.5467 262.47 87.2687 264.873 87.7697 267.263C88.2307 269.65 88.3747 272.019 88.2307 274.371C88.0907 276.723 87.6677 279.059 86.9317 281.376C86.1527 283.691 85.1587 285.993 83.3107 288.245Z" fill="#6E7FDD"/>
<path d="M84.8225 262.45C84.8335 264.387 84.7785 266.319 84.7145 268.251C84.6515 270.183 84.5335 272.112 84.4455 274.043C84.3085 275.971 84.1985 277.901 84.0375 279.827C83.8755 281.754 83.7045 283.68 83.4665 285.602C83.4545 283.665 83.5095 281.732 83.5735 279.8C83.6385 277.868 83.7535 275.939 83.8435 274.008C83.9815 272.08 84.0905 270.15 84.2525 268.224C84.4135 266.298 84.5845 264.372 84.8225 262.45Z" fill="#0046A0"/>
<path opacity="0.1" d="M87.7702 267.263C87.2692 264.873 86.5472 262.471 84.9652 260.017C84.7232 260.31 84.4972 260.605 84.2832 260.9C85.0992 262.634 85.5762 264.348 85.9342 266.055C86.3952 268.442 86.5392 270.811 86.3952 273.163C86.2552 275.515 85.8322 277.851 85.0962 280.168C84.4192 282.178 83.5792 284.179 82.1602 286.145C82.4862 286.842 82.8602 287.541 83.3112 288.245C85.1592 285.993 86.1532 283.691 86.9322 281.376C87.6682 279.059 88.0912 276.723 88.2312 274.371C88.3752 272.019 88.2312 269.65 87.7702 267.263Z" fill="#0046A0"/>
<path d="M83.1318 287.763C80.4418 288.88 77.9498 289.165 75.5088 289.241C73.0778 289.275 70.7198 289.004 68.4278 288.456C66.1348 287.914 63.9088 287.09 61.7568 285.958C59.6138 284.787 57.5238 283.4 55.6328 281.176C58.3258 280.049 60.8178 279.761 63.2588 279.687C65.6898 279.652 68.0478 279.927 70.3378 280.482C72.6288 281.033 74.8538 281.859 77.0058 282.991C79.1468 284.165 81.2388 285.548 83.1318 287.763Z" fill="#6E7FDD"/>
<path d="M58.0039 281.743C59.9129 282.072 61.8059 282.466 63.6959 282.869C65.5869 283.271 67.4649 283.726 69.3509 284.151C71.2249 284.624 73.1049 285.072 74.9729 285.569C76.8409 286.067 78.7069 286.573 80.5569 287.146C78.6479 286.818 76.7549 286.424 74.8639 286.021C72.9729 285.617 71.0939 285.165 69.2089 284.738C67.3349 284.263 65.4549 283.817 63.5869 283.319C61.7199 282.821 59.8539 282.314 58.0039 281.743Z" fill="#0046A0"/>
<path opacity="0.1" d="M63.2588 279.686C60.8178 279.759 58.3258 280.048 55.6328 281.175C55.8788 281.465 56.1288 281.739 56.3818 282.002C58.2318 281.503 60.0028 281.334 61.7468 281.282C64.1778 281.247 66.5358 281.522 68.8258 282.077C71.1168 282.628 73.3418 283.455 75.4938 284.586C77.3538 285.605 79.1758 286.784 80.8628 288.526C81.6058 288.328 82.3598 288.082 83.1328 287.761C81.2398 285.546 79.1488 284.163 77.0068 282.989C74.8548 281.857 72.6298 281.031 70.3388 280.48C68.0478 279.926 65.6898 279.652 63.2588 279.686Z" fill="#0046A0"/>
<path d="M94.4966 300.662C92.5586 298.487 91.4716 296.227 90.5986 293.946C89.7686 291.661 89.2516 289.344 89.0156 286.999C88.7756 284.655 88.8226 282.282 89.1866 279.878C89.5896 277.47 90.2136 275.04 91.6946 272.524C93.6426 274.698 94.7326 276.958 95.6036 279.239C96.4346 281.524 96.9486 283.841 97.1746 286.187C97.4056 288.532 97.3556 290.905 96.9926 293.309C96.5876 295.718 95.9676 298.148 94.4966 300.662Z" fill="#6E7FDD"/>
<path d="M91.9375 274.95C92.2535 276.861 92.5025 278.778 92.7415 280.697C92.9825 282.615 93.1695 284.539 93.3855 286.459C93.5535 288.385 93.7475 290.307 93.8905 292.235C94.0335 294.163 94.1675 296.092 94.2335 298.027C93.9175 296.116 93.6675 294.199 93.4275 292.281C93.1885 290.363 92.9995 288.439 92.7845 286.518C92.6185 284.592 92.4225 282.67 92.2805 280.741C92.1385 278.815 92.0055 276.886 91.9375 274.95Z" fill="#0046A0"/>
<path opacity="0.1" d="M95.6042 279.24C94.7342 276.959 93.6432 274.699 91.6952 272.525C91.5022 272.853 91.3252 273.179 91.1602 273.504C92.2382 275.088 92.9792 276.706 93.6002 278.335C94.4302 280.62 94.9452 282.937 95.1722 285.283C95.4032 287.628 95.3532 290.001 94.9902 292.405C94.6372 294.496 94.1222 296.604 93.0292 298.769C93.4602 299.406 93.9402 300.038 94.4962 300.662C95.9672 298.148 96.5872 295.718 96.9932 293.309C97.3562 290.905 97.4072 288.532 97.1752 286.187C96.9492 283.842 96.4342 281.525 95.6042 279.24Z" fill="#0046A0"/>
<path d="M94.2467 300.215C91.7647 301.741 89.3497 302.413 86.9507 302.872C84.5547 303.287 82.1837 303.39 79.8337 303.21C77.4837 303.035 75.1567 302.571 72.8537 301.791C70.5537 300.971 68.2707 299.93 66.0547 298.03C68.5367 296.494 70.9527 295.818 73.3517 295.362C75.7477 294.946 78.1187 294.846 80.4677 295.035C82.8167 295.219 85.1447 295.686 87.4467 296.466C89.7467 297.287 92.0297 298.325 94.2467 300.215Z" fill="#6E7FDD"/>
<path d="M68.4844 298.217C70.4214 298.242 72.3524 298.333 74.2834 298.435C76.2144 298.535 78.1404 298.689 80.0694 298.813C81.9944 298.986 83.9214 299.133 85.8444 299.33C87.7674 299.528 89.6894 299.735 91.6074 300.01C89.6704 299.986 87.7394 299.894 85.8084 299.793C83.8774 299.692 81.9514 299.54 80.0224 299.414C78.0974 299.239 76.1704 299.095 74.2474 298.896C72.3244 298.698 70.4014 298.491 68.4844 298.217Z" fill="#0046A0"/>
<path opacity="0.1" d="M73.3517 295.36C70.9527 295.816 68.5367 296.492 66.0547 298.028C66.3437 298.275 66.6337 298.507 66.9247 298.727C68.6737 297.944 70.3967 297.499 72.1097 297.173C74.5057 296.757 76.8767 296.657 79.2257 296.846C81.5747 297.03 83.9017 297.497 86.2047 298.277C88.2017 298.992 90.1857 299.869 92.1257 301.325C92.8287 301.012 93.5347 300.651 94.2467 300.213C92.0297 298.323 89.7467 297.286 87.4467 296.463C85.1437 295.683 82.8167 295.216 80.4677 295.032C78.1187 294.844 75.7477 294.944 73.3517 295.36Z" fill="#0046A0"/>
<path d="M107.882 312.292C105.622 310.453 104.19 308.395 102.965 306.282C101.782 304.158 100.902 301.953 100.297 299.676C99.687 297.4 99.356 295.05 99.332 292.618C99.347 290.176 99.576 287.678 100.637 284.959C102.906 286.795 104.342 288.852 105.565 290.966C106.749 293.09 107.626 295.295 108.223 297.575C108.825 299.853 109.153 302.204 109.177 304.635C109.159 307.078 108.934 309.575 107.882 312.292Z" fill="#6E7FDD"/>
<path d="M101.262 287.315C101.878 289.151 102.429 291.005 102.971 292.86C103.514 294.715 104.005 296.585 104.525 298.446C104.997 300.32 105.495 302.188 105.944 304.068C106.392 305.949 106.831 307.832 107.205 309.732C106.588 307.896 106.037 306.043 105.495 304.187C104.953 302.331 104.46 300.462 103.942 298.6C103.471 296.725 102.972 294.858 102.525 292.978C102.076 291.099 101.637 289.216 101.262 287.315Z" fill="#0046A0"/>
<path opacity="0.1" d="M105.567 290.966C104.345 288.852 102.908 286.795 100.639 284.959C100.501 285.313 100.378 285.664 100.266 286.011C101.583 287.403 102.571 288.882 103.445 290.392C104.629 292.516 105.506 294.721 106.103 297.001C106.705 299.279 107.033 301.63 107.057 304.061C107.042 306.182 106.868 308.345 106.134 310.656C106.661 311.216 107.235 311.763 107.884 312.291C108.936 309.574 109.161 307.077 109.179 304.635C109.155 302.204 108.827 299.853 108.225 297.575C107.627 295.296 106.75 293.09 105.567 290.966Z" fill="#0046A0"/>
<path d="M107.563 311.889C105.356 313.79 103.078 314.839 100.783 315.674C98.4838 316.465 96.1588 316.944 93.8108 317.14C91.4628 317.341 89.0918 317.254 86.6938 316.85C84.2928 316.407 81.8738 315.742 79.3828 314.219C81.5888 312.308 83.8668 311.255 86.1618 310.423C88.4608 309.631 90.7858 309.155 93.1348 308.968C95.4828 308.776 97.8548 308.866 100.253 309.269C102.654 309.716 105.073 310.376 107.563 311.889Z" fill="#6E7FDD"/>
<path d="M81.8125 314.018C83.7285 313.735 85.6495 313.517 87.5715 313.31C89.4935 313.101 91.4195 312.946 93.3435 312.762C95.2715 312.626 97.1975 312.465 99.1275 312.353C101.058 312.242 102.988 312.141 104.924 312.107C103.008 312.391 101.088 312.609 99.1655 312.816C97.2435 313.023 95.3175 313.18 93.3935 313.363C91.4655 313.497 89.5395 313.661 87.6095 313.771C85.6795 313.882 83.7485 313.983 81.8125 314.018Z" fill="#0046A0"/>
<path opacity="0.1" d="M86.1618 310.423C83.8658 311.255 81.5888 312.308 79.3828 314.219C79.7078 314.418 80.0308 314.6 80.3528 314.771C81.9548 313.719 83.5848 313.006 85.2238 312.412C87.5228 311.62 89.8478 311.144 92.1968 310.957C94.5458 310.765 96.9178 310.855 99.3148 311.258C101.4 311.645 103.499 312.196 105.646 313.325C106.29 312.905 106.93 312.436 107.563 311.89C105.073 310.377 102.654 309.717 100.253 309.27C97.8548 308.867 95.4828 308.777 93.1348 308.969C90.7858 309.156 88.4608 309.631 86.1618 310.423Z" fill="#0046A0"/>
<path d="M124.588 321.934C122.018 320.562 120.217 318.817 118.61 316.978C117.042 315.12 115.756 313.125 114.725 311.006C113.69 308.889 112.915 306.646 112.426 304.264C111.972 301.865 111.718 299.369 112.239 296.497C114.818 297.864 116.622 299.608 118.227 301.448C119.796 303.306 121.079 305.302 122.102 307.425C123.129 309.546 123.902 311.79 124.392 314.172C124.842 316.572 125.1 319.066 124.588 321.934Z" fill="#6E7FDD"/>
<path d="M113.305 298.69C114.261 300.374 115.158 302.087 116.045 303.805C116.934 305.522 117.774 307.263 118.641 308.99C119.464 310.739 120.31 312.477 121.111 314.236C121.911 315.996 122.703 317.76 123.434 319.553C122.477 317.869 121.581 316.156 120.693 314.439C119.806 312.721 118.964 310.982 118.098 309.254C117.277 307.504 116.428 305.768 115.629 304.007C114.828 302.247 114.037 300.483 113.305 298.69Z" fill="#0046A0"/>
<path opacity="0.1" d="M118.226 301.448C116.621 299.608 114.817 297.864 112.238 296.497C112.17 296.871 112.117 297.238 112.074 297.601C113.634 298.715 114.887 299.977 116.033 301.292C117.602 303.15 118.885 305.146 119.908 307.269C120.935 309.39 121.708 311.634 122.198 314.015C122.59 316.1 122.834 318.256 122.557 320.665C123.181 321.114 123.85 321.541 124.588 321.935C125.1 319.067 124.842 316.573 124.391 314.172C123.901 311.79 123.129 309.546 122.101 307.425C121.078 305.302 119.795 303.306 118.226 301.448Z" fill="#0046A0"/>
<path d="M124.196 321.6C122.394 323.889 120.36 325.355 118.267 326.614C116.162 327.831 113.973 328.747 111.705 329.39C109.439 330.037 107.095 330.406 104.664 330.469C102.222 330.494 99.7214 330.306 96.9844 329.288C98.7834 326.989 100.816 325.52 102.91 324.263C105.014 323.045 107.205 322.132 109.475 321.498C111.743 320.859 114.088 320.493 116.519 320.429C118.962 320.408 121.463 320.592 124.196 321.6Z" fill="#6E7FDD"/>
<path d="M99.332 328.626C101.158 327.981 103.002 327.399 104.849 326.827C106.695 326.254 108.556 325.733 110.409 325.183C112.275 324.68 114.134 324.152 116.007 323.673C117.88 323.194 119.756 322.725 121.65 322.32C119.824 322.966 117.98 323.548 116.134 324.12C114.287 324.692 112.427 325.215 110.573 325.763C108.706 326.264 106.848 326.794 104.974 327.272C103.101 327.751 101.225 328.22 99.332 328.626Z" fill="#0046A0"/>
<path opacity="0.1" d="M102.91 324.264C100.816 325.521 98.7834 326.99 96.9844 329.289C97.3404 329.422 97.6934 329.539 98.0424 329.644C99.4124 328.305 100.875 327.292 102.371 326.395C104.475 325.177 106.666 324.264 108.936 323.63C111.204 322.991 113.549 322.625 115.98 322.561C118.101 322.542 120.266 322.68 122.589 323.376C123.14 322.84 123.679 322.257 124.196 321.6C121.463 320.592 118.962 320.408 116.52 320.43C114.089 320.494 111.744 320.86 109.476 321.499C107.205 322.133 105.014 323.045 102.91 324.264Z" fill="#0046A0"/>
<path d="M140.345 327.824C137.68 326.649 135.753 325.043 134.013 323.329C132.31 321.594 130.878 319.7 129.692 317.665C128.501 315.632 127.56 313.453 126.894 311.114C126.262 308.755 125.822 306.286 126.126 303.382C128.8 304.552 130.73 306.156 132.468 307.871C134.172 309.606 135.601 311.501 136.78 313.541C137.963 315.579 138.901 317.759 139.568 320.097C140.197 322.458 140.641 324.926 140.345 327.824Z" fill="#6E7FDD"/>
<path d="M127.352 305.49C128.431 307.098 129.454 308.739 130.468 310.385C131.483 312.03 132.451 313.703 133.445 315.361C134.396 317.043 135.37 318.713 136.301 320.407C137.231 322.102 138.152 323.802 139.016 325.535C137.936 323.928 136.913 322.286 135.899 320.64C134.886 318.994 133.916 317.322 132.924 315.663C131.974 313.98 130.998 312.311 130.069 310.616C129.138 308.923 128.216 307.223 127.352 305.49Z" fill="#0046A0"/>
<path opacity="0.1" d="M132.466 307.872C130.728 306.157 128.798 304.553 126.124 303.383C126.084 303.761 126.059 304.132 126.043 304.496C127.682 305.49 129.026 306.655 130.268 307.88C131.972 309.615 133.401 311.51 134.58 313.55C135.763 315.588 136.701 317.768 137.368 320.106C137.915 322.155 138.32 324.287 138.224 326.71C138.88 327.111 139.579 327.487 140.344 327.824C140.64 324.926 140.196 322.458 139.566 320.098C138.899 317.76 137.961 315.58 136.778 313.542C135.599 311.502 134.17 309.607 132.466 307.872Z" fill="#0046A0"/>
<path d="M139.929 327.52C138.304 329.938 136.385 331.552 134.392 332.964C132.385 334.336 130.269 335.412 128.057 336.223C125.846 337.038 123.536 337.581 121.117 337.826C118.684 338.034 116.175 338.033 113.371 337.224C114.993 334.797 116.911 333.179 118.904 331.77C120.911 330.398 123.028 329.324 125.243 328.521C127.457 327.714 129.768 327.174 132.187 326.928C134.62 326.723 137.128 326.72 139.929 327.52Z" fill="#6E7FDD"/>
<path d="M115.66 336.388C117.433 335.608 119.228 334.89 121.027 334.181C122.825 333.471 124.642 332.812 126.449 332.125C128.272 331.484 130.087 330.818 131.919 330.2C133.751 329.582 135.586 328.974 137.445 328.428C135.673 329.209 133.878 329.927 132.079 330.636C130.28 331.344 128.464 332.006 126.657 332.691C124.833 333.33 123.019 333.998 121.187 334.615C119.354 335.233 117.518 335.842 115.66 336.388Z" fill="#0046A0"/>
<path opacity="0.1" d="M118.904 331.77C116.91 333.18 114.993 334.798 113.371 337.224C113.737 337.329 114.096 337.42 114.452 337.499C115.718 336.061 117.102 334.942 118.526 333.935C120.533 332.563 122.65 331.489 124.865 330.686C127.079 329.879 129.39 329.339 131.809 329.093C133.922 328.915 136.092 328.891 138.461 329.411C138.971 328.835 139.463 328.213 139.93 327.52C137.129 326.72 134.621 326.723 132.188 326.928C129.769 327.174 127.458 327.714 125.244 328.521C123.027 329.324 120.911 330.398 118.904 331.77Z" fill="#0046A0"/>
<path d="M160.509 330.43C157.654 329.852 155.429 328.696 153.362 327.394C151.327 326.063 149.524 324.52 147.929 322.785C146.331 321.053 144.946 319.126 143.795 316.984C142.673 314.815 141.715 312.497 141.391 309.596C144.254 310.167 146.481 311.321 148.546 312.624C150.581 313.955 152.383 315.5 153.971 317.241C155.563 318.978 156.946 320.908 158.097 323.049C159.216 325.22 160.178 327.535 160.509 330.43Z" fill="#6E7FDD"/>
<path d="M143.039 311.392C144.437 312.732 145.787 314.116 147.13 315.508C148.473 316.898 149.777 318.325 151.102 319.732C152.391 321.172 153.7 322.594 154.971 324.051C156.242 325.508 157.506 326.971 158.72 328.48C157.321 327.141 155.971 325.756 154.629 324.365C153.287 322.973 151.982 321.548 150.658 320.14C149.37 318.699 148.06 317.278 146.79 315.82C145.518 314.364 144.254 312.9 143.039 311.392Z" fill="#0046A0"/>
<path opacity="0.1" d="M148.546 312.624C146.481 311.321 144.253 310.167 141.391 309.596C141.433 309.974 141.487 310.341 141.55 310.7C143.363 311.32 144.926 312.171 146.401 313.102C148.436 314.432 150.238 315.978 151.826 317.718C153.418 319.455 154.801 321.385 155.952 323.526C156.924 325.411 157.776 327.407 158.201 329.794C158.928 330.045 159.691 330.263 160.51 330.429C160.179 327.535 159.218 325.219 158.098 323.048C156.947 320.907 155.564 318.978 153.972 317.24C152.382 315.5 150.581 313.955 148.546 312.624Z" fill="#0046A0"/>
<path d="M160.037 330.222C158.967 332.931 157.437 334.919 155.793 336.724C154.125 338.493 152.289 339.998 150.301 341.263C148.316 342.532 146.175 343.557 143.864 344.314C141.532 345.037 139.081 345.574 136.168 345.383C137.233 342.665 138.76 340.675 140.406 338.871C142.073 337.101 143.911 335.599 145.904 334.342C147.894 333.08 150.036 332.058 152.346 331.3C154.681 330.579 157.13 330.039 160.037 330.222Z" fill="#6E7FDD"/>
<path d="M138.227 344.076C139.792 342.935 141.392 341.849 142.997 340.772C144.602 339.694 146.235 338.661 147.853 337.604C149.497 336.588 151.127 335.55 152.784 334.554C154.442 333.559 156.104 332.572 157.803 331.641C156.239 332.783 154.639 333.869 153.033 334.946C151.427 336.023 149.795 337.057 148.176 338.113C146.531 339.128 144.902 340.168 143.244 341.162C141.587 342.158 139.925 343.145 138.227 344.076Z" fill="#0046A0"/>
<path opacity="0.1" d="M140.406 338.871C138.76 340.674 137.233 342.665 136.168 345.383C136.548 345.408 136.919 345.419 137.283 345.421C138.212 343.745 139.324 342.356 140.5 341.068C142.167 339.298 144.005 337.796 145.997 336.539C147.987 335.277 150.129 334.255 152.44 333.497C154.466 332.871 156.581 332.383 159.006 332.385C159.381 331.714 159.729 331.001 160.037 330.223C157.129 330.04 154.681 330.58 152.347 331.301C150.037 332.059 147.895 333.081 145.905 334.343C143.911 335.599 142.074 337.101 140.406 338.871Z" fill="#0046A0"/>
<path d="M390.967 336.11C388.988 338.15 386.781 339.996 384.572 341.776C379.044 346.232 373.092 350.161 366.851 353.543C358.324 358.164 349.211 361.712 339.75 363.872C328.441 366.454 316.691 366.948 305.216 365.224C291.017 363.09 277.531 357.626 265.328 350.143C263.555 349.056 261.809 347.924 260.086 346.758C259.55 346.395 260.187 345.615 260.721 345.976C272.95 354.257 286.573 360.613 301.113 363.489C312.618 365.764 324.482 365.798 336.005 363.628C345.655 361.81 354.993 358.486 363.742 354.044C370.333 350.697 376.61 346.709 382.447 342.174C385.119 340.097 387.687 337.74 390.083 335.578C390.119 335.546 390.151 335.509 390.185 335.475C390.633 335.014 391.42 335.644 390.967 336.11Z" fill="#6E7FDD"/>
<path d="M382.723 343.229C385.584 342.683 387.822 341.551 389.903 340.272C391.952 338.963 393.773 337.44 395.386 335.723C397.003 334.009 398.409 332.098 399.584 329.968C400.73 327.812 401.714 325.504 402.069 322.607C399.2 323.147 396.96 324.276 394.881 325.556C392.831 326.864 391.013 328.389 389.406 330.112C387.795 331.832 386.391 333.746 385.216 335.874C384.073 338.033 383.086 340.338 382.723 343.229Z" fill="#6E7FDD"/>
<path d="M400.4 324.385C398.987 325.709 397.622 327.079 396.264 328.455C394.905 329.83 393.586 331.243 392.246 332.635C390.941 334.061 389.617 335.468 388.329 336.911C387.042 338.354 385.762 339.803 384.531 341.298C385.945 339.974 387.31 338.605 388.668 337.229C390.026 335.852 391.346 334.441 392.686 333.048C393.99 331.621 395.316 330.215 396.602 328.771C397.889 327.329 399.169 325.88 400.4 324.385Z" fill="#0046A0"/>
<path opacity="0.1" d="M394.882 325.557C396.961 324.276 399.201 323.147 402.07 322.608C402.024 322.986 401.966 323.352 401.899 323.711C400.079 324.311 398.507 325.145 397.022 326.059C394.972 327.367 393.154 328.892 391.547 330.615C389.936 332.335 388.532 334.249 387.357 336.377C386.364 338.251 385.49 340.237 385.039 342.62C384.309 342.863 383.544 343.072 382.723 343.229C383.086 340.338 384.073 338.033 385.216 335.875C386.391 333.746 387.795 331.833 389.406 330.113C391.014 328.39 392.832 326.865 394.882 325.557Z" fill="#0046A0"/>
<path d="M375.225 348.4C377.562 346.66 379.082 344.666 380.396 342.607C381.67 340.536 382.643 338.371 383.347 336.122C384.055 333.875 384.486 331.541 384.615 329.113C384.705 326.673 384.584 324.167 383.641 321.405C381.295 323.142 379.771 325.135 378.459 327.194C377.185 329.265 376.214 331.431 375.519 333.682C374.82 335.932 374.391 338.267 374.262 340.695C374.174 343.136 374.291 345.641 375.225 348.4Z" fill="#6E7FDD"/>
<path d="M382.914 323.732C382.22 325.54 381.589 327.368 380.968 329.199C380.345 331.029 379.775 332.876 379.175 334.713C378.622 336.565 378.045 338.41 377.516 340.269C376.987 342.129 376.468 343.991 376.012 345.873C376.707 344.065 377.338 342.238 377.959 340.407C378.58 338.576 379.153 336.73 379.751 334.892C380.302 333.039 380.882 331.196 381.409 329.336C381.938 327.477 382.458 325.614 382.914 323.732Z" fill="#0046A0"/>
<path opacity="0.1" d="M378.459 327.194C379.771 325.135 381.295 323.142 383.641 321.405C383.764 321.765 383.872 322.12 383.968 322.472C382.592 323.806 381.541 325.242 380.604 326.712C379.33 328.783 378.359 330.949 377.664 333.2C376.965 335.45 376.536 337.785 376.407 340.213C376.331 342.333 376.411 344.501 377.045 346.842C376.494 347.379 375.897 347.901 375.226 348.4C374.292 345.641 374.175 343.136 374.262 340.695C374.391 338.267 374.82 335.933 375.519 333.682C376.213 331.431 377.184 329.265 378.459 327.194Z" fill="#0046A0"/>
<path d="M375.562 348.011C377.685 350.006 379.916 351.152 382.173 352.084C384.436 352.974 386.739 353.552 389.076 353.849C391.413 354.151 393.785 354.166 396.198 353.866C398.616 353.526 401.062 352.967 403.615 351.553C401.493 349.548 399.264 348.399 397.007 347.469C394.744 346.578 392.441 346.003 390.102 345.715C387.764 345.422 385.39 345.41 382.977 345.709C380.559 346.051 378.115 346.607 375.562 348.011Z" fill="#6E7FDD"/>
<path d="M401.197 351.248C399.295 350.882 397.385 350.582 395.474 350.292C393.563 350.001 391.645 349.763 389.73 349.496C387.81 349.277 385.893 349.033 383.969 348.838C382.046 348.644 380.12 348.46 378.188 348.342C380.089 348.709 382 349.008 383.911 349.299C385.822 349.589 387.74 349.828 389.655 350.094C391.576 350.311 393.492 350.558 395.415 350.75C397.338 350.945 399.264 351.13 401.197 351.248Z" fill="#0046A0"/>
<path opacity="0.1" d="M397.005 347.469C399.263 348.399 401.492 349.549 403.614 351.553C403.281 351.737 402.95 351.906 402.621 352.062C401.066 350.942 399.468 350.159 397.856 349.495C395.593 348.604 393.291 348.029 390.952 347.741C388.614 347.448 386.24 347.436 383.827 347.735C381.727 348.032 379.606 348.492 377.413 349.527C376.788 349.079 376.169 348.583 375.559 348.011C378.111 346.607 380.557 346.051 382.975 345.709C385.388 345.409 387.761 345.421 390.1 345.715C392.44 346.003 394.743 346.578 397.005 347.469Z" fill="#0046A0"/>
<path d="M360.378 356.07C362.959 354.719 364.773 352.988 366.395 351.162C367.978 349.317 369.28 347.332 370.327 345.221C371.379 343.113 372.172 340.876 372.68 338.498C373.153 336.102 373.427 333.609 372.929 330.732C370.339 332.079 368.521 333.808 366.902 335.635C365.318 337.48 364.019 339.466 362.98 341.581C361.936 343.693 361.146 345.932 360.637 348.309C360.167 350.706 359.889 353.198 360.378 356.07Z" fill="#6E7FDD"/>
<path d="M371.85 332.917C370.88 334.593 369.97 336.298 369.069 338.009C368.167 339.719 367.313 341.453 366.432 343.173C365.595 344.915 364.735 346.647 363.92 348.4C363.106 350.154 362.3 351.91 361.555 353.698C362.525 352.022 363.435 350.317 364.337 348.607C365.238 346.897 366.094 345.163 366.973 343.441C367.808 341.698 368.67 339.969 369.483 338.215C370.298 336.462 371.103 334.704 371.85 332.917Z" fill="#0046A0"/>
<path opacity="0.1" d="M366.903 335.635C368.522 333.808 370.34 332.078 372.93 330.732C372.995 331.107 373.045 331.474 373.085 331.837C371.517 332.938 370.253 334.191 369.096 335.496C367.512 337.341 366.213 339.327 365.174 341.442C364.13 343.554 363.34 345.793 362.831 348.17C362.423 350.251 362.161 352.405 362.419 354.817C361.791 355.261 361.119 355.683 360.378 356.07C359.889 353.198 360.167 350.706 360.637 348.309C361.146 345.931 361.936 343.693 362.98 341.581C364.02 339.466 365.319 337.48 366.903 335.635Z" fill="#0046A0"/>
<path d="M360.773 355.739C362.557 358.042 364.579 359.525 366.662 360.8C368.757 362.034 370.94 362.967 373.201 363.627C375.461 364.292 377.803 364.68 380.233 364.762C382.674 364.806 385.177 364.638 387.922 363.642C386.141 361.329 384.12 359.843 382.036 358.57C379.941 357.335 377.758 356.405 375.494 355.753C373.231 355.096 370.889 354.711 368.459 354.628C366.016 354.588 363.514 354.753 360.773 355.739Z" fill="#6E7FDD"/>
<path d="M385.579 362.962C383.758 362.302 381.92 361.707 380.078 361.12C378.236 360.532 376.378 359.995 374.53 359.431C372.668 358.913 370.813 358.372 368.944 357.878C367.075 357.385 365.204 356.899 363.312 356.479C365.133 357.14 366.973 357.736 368.815 358.323C370.657 358.909 372.513 359.447 374.362 360.01C376.225 360.526 378.079 361.072 379.948 361.564C381.818 362.058 383.689 362.541 385.579 362.962Z" fill="#0046A0"/>
<path opacity="0.1" d="M382.035 358.572C384.119 359.845 386.14 361.331 387.921 363.644C387.563 363.774 387.21 363.888 386.861 363.991C385.501 362.641 384.046 361.617 382.558 360.707C380.463 359.472 378.28 358.542 376.016 357.89C373.753 357.233 371.411 356.849 368.981 356.765C366.86 356.729 364.694 356.85 362.365 357.528C361.818 356.988 361.285 356.4 360.773 355.739C363.514 354.753 366.016 354.588 368.459 354.63C370.889 354.713 373.231 355.098 375.494 355.755C377.757 356.407 379.94 357.337 382.035 358.572Z" fill="#0046A0"/>
<path d="M343.747 362.227C346.51 361.304 348.577 359.884 350.469 358.339C352.326 356.769 353.927 355.017 355.297 353.1C356.672 351.186 357.81 349.104 358.69 346.837C359.538 344.547 360.206 342.129 360.172 339.21C357.401 340.127 355.331 341.545 353.441 343.091C351.584 344.66 349.985 346.414 348.622 348.337C347.255 350.256 346.118 352.34 345.237 354.606C344.392 356.897 343.722 359.314 343.747 362.227Z" fill="#6E7FDD"/>
<path d="M358.756 341.194C357.532 342.695 356.362 344.234 355.2 345.779C354.037 347.323 352.918 348.899 351.775 350.457C350.672 352.044 349.547 353.616 348.464 355.217C347.381 356.818 346.306 358.425 345.285 360.071C346.51 358.571 347.68 357.031 348.842 355.486C350.004 353.941 351.125 352.366 352.266 350.807C353.368 349.219 354.494 347.649 355.577 346.047C356.659 344.447 357.734 342.84 358.756 341.194Z" fill="#0046A0"/>
<path opacity="0.1" d="M353.442 343.091C355.332 341.545 357.402 340.127 360.173 339.21C360.177 339.59 360.169 339.961 360.15 340.326C358.426 341.164 356.979 342.199 355.63 343.303C353.773 344.872 352.174 346.626 350.811 348.549C349.444 350.468 348.307 352.552 347.426 354.818C346.692 356.808 346.091 358.893 345.961 361.314C345.27 361.652 344.54 361.962 343.747 362.227C343.721 359.314 344.392 356.898 345.238 354.606C346.119 352.34 347.255 350.256 348.623 348.337C349.986 346.415 351.585 344.661 353.442 343.091Z" fill="#0046A0"/>
<path d="M344.188 361.964C345.582 364.522 347.342 366.307 349.195 367.898C351.067 369.45 353.074 370.718 355.202 371.731C357.328 372.748 359.578 373.503 361.964 373.972C364.367 374.404 366.865 374.637 369.733 374.091C368.343 371.524 366.584 369.735 364.73 368.147C362.859 366.594 360.851 365.329 358.719 364.324C356.59 363.315 354.338 362.563 351.953 362.094C349.547 361.662 347.05 361.427 344.188 361.964Z" fill="#6E7FDD"/>
<path d="M367.529 373.045C365.837 372.104 364.116 371.222 362.39 370.35C360.665 369.476 358.918 368.652 357.182 367.8C355.426 366.993 353.681 366.162 351.915 365.376C350.148 364.591 348.377 363.815 346.578 363.1C348.27 364.042 349.991 364.923 351.716 365.796C353.441 366.668 355.188 367.495 356.924 368.345C358.681 369.151 360.425 369.984 362.192 370.768C363.959 371.552 365.73 372.328 367.529 373.045Z" fill="#0046A0"/>
<path opacity="0.1" d="M364.729 368.146C366.583 369.735 368.343 371.523 369.732 374.09C369.358 374.161 368.991 374.218 368.63 374.264C367.502 372.714 366.229 371.472 364.905 370.337C363.034 368.784 361.026 367.519 358.894 366.514C356.764 365.505 354.513 364.753 352.128 364.284C350.04 363.911 347.882 363.685 345.475 363.984C345.021 363.363 344.588 362.699 344.188 361.964C347.05 361.427 349.548 361.663 351.952 362.093C354.338 362.562 356.588 363.315 358.717 364.323C360.849 365.327 362.857 366.593 364.729 368.146Z" fill="#0046A0"/>
<path d="M324.715 365.352C327.604 364.976 329.904 363.978 332.057 362.825C334.18 361.64 336.087 360.227 337.8 358.609C339.516 356.994 341.033 355.169 342.331 353.113C343.602 351.028 344.721 348.783 345.247 345.911C342.351 346.28 340.048 347.275 337.897 348.43C335.773 349.614 333.868 351.029 332.162 352.655C330.452 354.276 328.938 356.104 327.639 358.159C326.37 360.246 325.248 362.488 324.715 365.352Z" fill="#6E7FDD"/>
<path d="M343.478 347.587C341.989 348.825 340.545 350.112 339.109 351.406C337.671 352.699 336.271 354.031 334.85 355.341C333.463 356.687 332.058 358.014 330.687 359.378C329.317 360.742 327.954 362.113 326.637 363.533C328.127 362.295 329.57 361.009 331.007 359.715C332.443 358.421 333.845 357.091 335.265 355.779C336.651 354.432 338.058 353.106 339.427 351.741C340.797 350.377 342.16 349.006 343.478 347.587Z" fill="#0046A0"/>
<path opacity="0.1" d="M337.897 348.43C340.048 347.275 342.351 346.28 345.247 345.911C345.178 346.285 345.099 346.648 345.011 347.002C343.159 347.494 341.54 348.233 340.004 349.058C337.88 350.242 335.975 351.657 334.269 353.283C332.559 354.904 331.044 356.732 329.746 358.787C328.644 360.599 327.654 362.53 327.063 364.882C326.32 365.081 325.544 365.245 324.715 365.353C325.248 362.489 326.37 360.246 327.639 358.16C328.938 356.105 330.453 354.277 332.162 352.656C333.868 351.029 335.773 349.614 337.897 348.43Z" fill="#0046A0"/>
<path d="M325.199 365.178C326.077 367.956 327.463 370.045 328.977 371.962C330.517 373.844 332.243 375.473 334.137 376.875C336.028 378.28 338.092 379.453 340.344 380.37C342.62 381.255 345.027 381.962 347.946 381.976C347.074 379.19 345.69 377.097 344.175 375.183C342.636 373.3 340.908 371.673 339.008 370.279C337.111 368.881 335.046 367.71 332.795 366.793C330.517 365.909 328.112 365.199 325.199 365.178Z" fill="#6E7FDD"/>
<path d="M345.984 380.527C344.503 379.279 342.983 378.084 341.457 376.897C339.932 375.709 338.374 374.565 336.835 373.396C335.266 372.267 333.713 371.117 332.13 370.007C330.546 368.898 328.957 367.797 327.328 366.749C328.808 367.998 330.328 369.193 331.854 370.38C333.38 371.567 334.936 372.713 336.477 373.88C338.047 375.008 339.599 376.16 341.183 377.268C342.766 378.378 344.356 379.479 345.984 380.527Z" fill="#0046A0"/>
<path opacity="0.1" d="M344.174 375.182C345.69 377.097 347.073 379.189 347.945 381.975C347.565 381.973 347.194 381.958 346.83 381.934C346.02 380.197 345.009 378.733 343.926 377.366C342.387 375.484 340.659 373.857 338.76 372.462C336.863 371.064 334.798 369.894 332.547 368.976C330.569 368.209 328.495 367.574 326.075 367.406C325.748 366.71 325.451 365.975 325.199 365.177C328.112 365.199 330.517 365.909 332.794 366.792C335.046 367.71 337.111 368.88 339.007 370.278C340.907 371.673 342.635 373.3 344.174 375.182Z" fill="#0046A0"/>
<path d="M307.891 365.302C310.8 365.143 313.169 364.321 315.402 363.332C317.608 362.309 319.616 361.043 321.445 359.557C323.277 358.075 324.926 356.368 326.375 354.415C327.799 352.431 329.082 350.276 329.822 347.452C326.907 347.603 324.536 348.422 322.304 349.414C320.098 350.436 318.092 351.704 316.269 353.197C314.443 354.686 312.795 356.395 311.346 358.347C309.923 360.333 308.637 362.486 307.891 365.302Z" fill="#6E7FDD"/>
<path d="M327.932 348.991C326.354 350.114 324.819 351.289 323.289 352.472C321.759 353.653 320.263 354.877 318.748 356.077C317.264 357.315 315.764 358.534 314.295 359.791C312.827 361.049 311.365 362.314 309.945 363.631C311.523 362.508 313.059 361.333 314.588 360.151C316.117 358.968 317.615 357.746 319.129 356.545C320.612 355.305 322.114 354.089 323.581 352.83C325.049 351.573 326.511 350.308 327.932 348.991Z" fill="#0046A0"/>
<path opacity="0.1" d="M322.304 349.414C324.536 348.423 326.907 347.603 329.822 347.452C329.726 347.82 329.619 348.175 329.505 348.522C327.621 348.874 325.952 349.489 324.358 350.197C322.152 351.219 320.146 352.487 318.323 353.98C316.497 355.469 314.849 357.178 313.4 359.13C312.165 360.854 311.034 362.706 310.268 365.007C309.512 365.15 308.726 365.256 307.891 365.301C308.637 362.485 309.923 360.332 311.345 358.347C312.794 356.395 314.442 354.686 316.268 353.197C318.092 351.704 320.098 350.436 322.304 349.414Z" fill="#0046A0"/>
<path d="M308.387 365.164C309.054 368 310.28 370.187 311.646 372.212C313.04 374.204 314.639 375.958 316.423 377.497C318.204 379.04 320.174 380.364 322.351 381.447C324.554 382.5 326.901 383.385 329.811 383.617C329.15 380.774 327.927 378.583 326.559 376.561C325.165 374.568 323.564 372.817 321.774 371.284C319.987 369.748 318.016 368.426 315.839 367.342C313.635 366.292 311.29 365.404 308.387 365.164Z" fill="#6E7FDD"/>
<path d="M327.967 382.027C326.584 380.671 325.157 379.366 323.725 378.068C322.293 376.769 320.826 375.511 319.378 374.231C317.898 372.988 316.435 371.724 314.94 370.5C313.444 369.276 311.942 368.058 310.395 366.892C311.777 368.248 313.204 369.554 314.636 370.852C316.069 372.15 317.535 373.409 318.984 374.688C320.465 375.93 321.926 377.195 323.423 378.419C324.919 379.643 326.421 380.86 327.967 382.027Z" fill="#0046A0"/>
<path opacity="0.1" d="M326.56 376.561C327.928 378.584 329.151 380.774 329.812 383.617C329.433 383.587 329.064 383.544 328.703 383.493C328.026 381.7 327.127 380.165 326.15 378.72C324.756 376.728 323.155 374.976 321.365 373.443C319.578 371.907 317.607 370.585 315.43 369.502C313.515 368.589 311.494 367.801 309.094 367.452C308.82 366.733 308.579 365.978 308.387 365.164C311.29 365.404 313.635 366.292 315.84 367.343C318.017 368.426 319.988 369.748 321.775 371.284C323.565 372.817 325.166 374.569 326.56 376.561Z" fill="#0046A0"/>
<path d="M288.105 360.624C290.98 361.091 293.471 360.793 295.864 360.305C298.238 359.778 300.47 358.971 302.574 357.91C304.681 356.854 306.657 355.541 308.489 353.943C310.304 352.31 312.019 350.478 313.346 347.877C310.466 347.401 307.974 347.694 305.583 348.185C303.209 348.712 300.978 349.522 298.878 350.59C296.775 351.654 294.801 352.971 292.968 354.568C291.154 356.204 289.437 358.033 288.105 360.624Z" fill="#6E7FDD"/>
<path d="M311.171 348.977C309.39 349.737 307.638 350.556 305.891 351.384C304.143 352.211 302.42 353.086 300.684 353.935C298.969 354.827 297.243 355.696 295.54 356.61C293.837 357.525 292.138 358.448 290.469 359.431C292.251 358.672 294.002 357.853 295.749 357.025C297.496 356.197 299.22 355.324 300.956 354.474C302.67 353.58 304.397 352.713 306.1 351.798C307.803 350.883 309.502 349.96 311.171 348.977Z" fill="#0046A0"/>
<path opacity="0.1" d="M305.583 348.186C307.975 347.695 310.466 347.402 313.346 347.878C313.173 348.217 312.993 348.541 312.808 348.855C310.893 348.796 309.13 349.04 307.422 349.39C305.048 349.916 302.817 350.726 300.717 351.795C298.614 352.859 296.64 354.176 294.806 355.773C293.231 357.194 291.73 358.76 290.49 360.844C289.721 360.822 288.931 360.757 288.105 360.623C289.436 358.032 291.153 356.204 292.967 354.569C294.8 352.972 296.775 351.655 298.877 350.591C300.978 349.522 303.209 348.712 305.583 348.186Z" fill="#0046A0"/>
<path d="M288.621 360.595C288.666 363.508 289.396 365.907 290.297 368.177C291.233 370.421 292.42 372.477 293.833 374.362C295.243 376.25 296.884 377.965 298.779 379.488C300.706 380.988 302.81 382.355 305.602 383.204C305.564 380.285 304.838 377.884 303.935 375.615C303 373.371 301.81 371.317 300.39 369.437C298.973 367.554 297.33 365.841 295.436 364.317C293.507 362.82 291.406 361.451 288.621 360.595Z" fill="#6E7FDD"/>
<path d="M304.14 381.256C303.079 379.636 301.965 378.055 300.843 376.481C299.722 374.906 298.558 373.363 297.417 371.803C296.237 370.272 295.079 368.725 293.879 367.209C292.679 365.693 291.472 364.183 290.211 362.713C291.271 364.334 292.385 365.914 293.507 367.489C294.629 369.063 295.792 370.607 296.934 372.167C298.115 373.697 299.272 375.245 300.472 376.761C301.672 378.275 302.879 379.785 304.14 381.256Z" fill="#0046A0"/>
<path opacity="0.1" d="M303.935 375.616C304.839 377.884 305.565 380.286 305.602 383.205C305.238 383.094 304.887 382.974 304.545 382.847C304.267 380.951 303.717 379.259 303.072 377.639C302.137 375.395 300.947 373.341 299.527 371.461C298.11 369.578 296.467 367.865 294.573 366.341C292.898 365.04 291.092 363.837 288.822 362.983C288.708 362.223 288.634 361.433 288.621 360.597C291.406 361.452 293.507 362.821 295.435 364.32C297.329 365.844 298.973 367.557 300.389 369.44C301.811 371.318 303 373.371 303.935 375.616Z" fill="#0046A0"/>
<path d="M312.725 375.7C312.725 383.502 306.342 389.885 298.54 389.885H138.849C131.047 389.885 124.664 383.502 124.664 375.7V93.9941C124.664 86.1921 131.047 79.8091 138.849 79.8091H298.54C306.342 79.8091 312.725 86.1921 312.725 93.9941V375.7Z" fill="#6E7FDD"/>
<path d="M256.033 91.1309C254.448 96.7029 238.342 101.082 218.694 101.082C199.046 101.082 182.939 96.7029 181.354 91.1309H138.848V358.369H298.539V91.1309H256.033Z" fill="#C2CEF2"/>
<path d="M277.869 138.946H158.915C157.075 138.946 155.57 140.451 155.57 142.291V168.982V173.75V184.354L168.906 177.095H277.868C279.708 177.095 281.213 175.59 281.213 173.75V142.291C281.213 140.452 279.708 138.946 277.869 138.946Z" fill="#B0C1EA"/>
<path d="M270.465 146.87H166.316V147.985H270.465V146.87Z" fill="#D2DDF9"/>
<path d="M270.465 158.018H166.316V159.133H270.465V158.018Z" fill="#D2DDF9"/>
<path d="M240.327 169.167H166.316V170.282H240.327V169.167Z" fill="#D2DDF9"/>
<path d="M167.188 134.116C173.457 134.116 178.54 129.034 178.54 122.764C178.54 116.495 173.457 111.412 167.188 111.412C160.918 111.412 155.836 116.495 155.836 122.764C155.836 129.034 160.918 134.116 167.188 134.116Z" fill="#B0C1EA"/>
<mask id="mask0_2188_769" style="mask-type:luminance" maskUnits="userSpaceOnUse" x="155" y="111" width="24" height="24">
<path d="M167.188 134.116C173.457 134.116 178.54 129.034 178.54 122.764C178.54 116.495 173.457 111.412 167.188 111.412C160.918 111.412 155.836 116.495 155.836 122.764C155.836 129.034 160.918 134.116 167.188 134.116Z" fill="white"/>
</mask>
<g mask="url(#mask0_2188_769)">
<path d="M167.186 124.094C168.9 124.094 170.29 122.705 170.29 120.99C170.29 119.276 168.9 117.886 167.186 117.886C165.472 117.886 164.082 119.276 164.082 120.99C164.082 122.705 165.472 124.094 167.186 124.094Z" fill="#D2DDF9"/>
<path d="M167.188 125.247C163.71 125.247 160.891 128.066 160.891 131.544C160.891 135.022 163.71 137.841 167.188 137.841C170.666 137.841 173.485 135.022 173.485 131.544C173.485 128.066 170.665 125.247 167.188 125.247Z" fill="#D2DDF9"/>
</g>
<path d="M158.915 216.989H277.868C279.708 216.989 281.213 218.494 281.213 220.334V247.025V251.793V262.397L267.877 255.138H158.915C157.075 255.138 155.57 253.633 155.57 251.793V220.334C155.571 218.494 157.076 216.989 158.915 216.989Z" fill="#B0C1EA"/>
<path d="M270.465 224.912H166.316V226.027H270.465V224.912Z" fill="#D2DDF9"/>
<path d="M270.465 236.061H166.316V237.176H270.465V236.061Z" fill="#D2DDF9"/>
<path d="M270.464 247.21H196.453V248.325H270.464V247.21Z" fill="#D2DDF9"/>
<path d="M270.465 211.322C276.735 211.322 281.817 206.24 281.817 199.97C281.817 193.701 276.735 188.618 270.465 188.618C264.196 188.618 259.113 193.701 259.113 199.97C259.113 206.24 264.196 211.322 270.465 211.322Z" fill="#B0C1EA"/>
<mask id="mask1_2188_769" style="mask-type:luminance" maskUnits="userSpaceOnUse" x="259" y="188" width="23" height="24">
<path d="M270.465 211.322C276.735 211.322 281.817 206.24 281.817 199.97C281.817 193.701 276.735 188.618 270.465 188.618C264.196 188.618 259.113 193.701 259.113 199.97C259.113 206.24 264.196 211.322 270.465 211.322Z" fill="white"/>
</mask>
<g mask="url(#mask1_2188_769)">
<path d="M270.463 201.301C272.177 201.301 273.567 199.911 273.567 198.197C273.567 196.483 272.177 195.093 270.463 195.093C268.749 195.093 267.359 196.483 267.359 198.197C267.359 199.911 268.749 201.301 270.463 201.301Z" fill="#D2DDF9"/>
<path d="M270.465 202.454C266.987 202.454 264.168 205.273 264.168 208.751C264.168 212.228 266.987 215.048 270.465 215.048C273.943 215.048 276.762 212.229 276.762 208.751C276.762 205.273 273.943 202.454 270.465 202.454Z" fill="#D2DDF9"/>
</g>
<path d="M277.869 297.261H158.915C157.075 297.261 155.57 298.766 155.57 300.606V327.297V332.065V342.669L168.906 335.41H277.868C279.708 335.41 281.213 333.905 281.213 332.065V300.606C281.213 298.766 279.708 297.261 277.869 297.261Z" fill="#B0C1EA"/>
<path d="M270.465 305.184H166.316V306.299H270.465V305.184Z" fill="#D2DDF9"/>
<path d="M270.465 316.333H166.316V317.448H270.465V316.333Z" fill="#D2DDF9"/>
<path d="M240.327 327.481H166.316V328.596H240.327V327.481Z" fill="#D2DDF9"/>
<path d="M167.188 290.935C173.457 290.935 178.54 285.852 178.54 279.583C178.54 273.313 173.457 268.231 167.188 268.231C160.918 268.231 155.836 273.313 155.836 279.583C155.836 285.852 160.918 290.935 167.188 290.935Z" fill="#B0C1EA"/>
<mask id="mask2_2188_769" style="mask-type:luminance" maskUnits="userSpaceOnUse" x="155" y="268" width="24" height="23">
<path d="M167.188 290.935C173.457 290.935 178.54 285.852 178.54 279.583C178.54 273.313 173.457 268.231 167.188 268.231C160.918 268.231 155.836 273.313 155.836 279.583C155.836 285.852 160.918 290.935 167.188 290.935Z" fill="white"/>
</mask>
<g mask="url(#mask2_2188_769)">
<path d="M167.186 280.914C168.9 280.914 170.29 279.524 170.29 277.81C170.29 276.096 168.9 274.706 167.186 274.706C165.472 274.706 164.082 276.096 164.082 277.81C164.082 279.524 165.471 280.914 167.186 280.914Z" fill="#D2DDF9"/>
<path d="M167.188 282.067C163.71 282.067 160.891 284.886 160.891 288.364C160.891 291.842 163.71 294.661 167.188 294.661C170.666 294.661 173.485 291.842 173.485 288.364C173.484 284.886 170.665 282.067 167.188 282.067Z" fill="#D2DDF9"/>
</g>
<path d="M129.172 139.024H124.802C124.697 138.563 124.586 138.105 124.45 137.656L128.231 135.49C130.17 134.379 130.848 131.884 129.737 129.945L129.28 129.147C128.169 127.208 125.674 126.53 123.735 127.641L119.935 129.818C119.57 129.423 119.191 129.044 118.796 128.679L120.973 124.878C122.084 122.939 121.406 120.444 119.467 119.334L118.669 118.877C116.73 117.766 114.235 118.444 113.125 120.383L110.959 124.164C110.511 124.028 110.052 123.918 109.592 123.812V119.442C109.592 117.208 107.764 115.379 105.529 115.379H104.609C102.375 115.379 100.546 117.207 100.546 119.442V123.812C100.085 123.917 99.6273 124.028 99.1783 124.164L97.0123 120.383C95.9013 118.444 93.4063 117.766 91.4683 118.877L90.6693 119.334C88.7303 120.445 88.0523 122.94 89.1633 124.878L91.3403 128.679C90.9453 129.044 90.5663 129.423 90.2013 129.818L86.4003 127.641C84.4613 126.53 81.9663 127.208 80.8563 129.147L80.3993 129.945C79.2883 131.884 79.9663 134.379 81.9053 135.49L85.6873 137.656C85.5513 138.104 85.4403 138.563 85.3353 139.023H80.9653C78.7313 139.023 76.9023 140.851 76.9023 143.086V144.006C76.9023 146.24 78.7303 148.069 80.9653 148.069H85.3353C85.4403 148.53 85.5513 148.988 85.6873 149.437L81.9053 151.603C79.9663 152.714 79.2883 155.209 80.3993 157.148L80.8563 157.946C81.9673 159.885 84.4623 160.563 86.4003 159.452L90.2013 157.275C90.5663 157.67 90.9453 158.049 91.3403 158.414L89.1633 162.215C88.0523 164.154 88.7303 166.649 90.6693 167.76L91.4683 168.217C93.4073 169.328 95.9023 168.65 97.0123 166.711L99.1783 162.929C99.6263 163.065 100.085 163.175 100.546 163.281V167.651C100.546 169.885 102.374 171.714 104.609 171.714H105.529C107.763 171.714 109.592 169.886 109.592 167.651V163.281C110.053 163.176 110.511 163.065 110.959 162.929L113.125 166.711C114.236 168.65 116.731 169.328 118.669 168.217L119.467 167.76C121.406 166.649 122.084 164.154 120.973 162.215L118.796 158.414C119.191 158.049 119.57 157.67 119.935 157.275L123.736 159.452C125.675 160.563 128.17 159.885 129.281 157.946L129.738 157.148C130.849 155.209 130.171 152.714 128.232 151.603L124.45 149.437C124.586 148.989 124.697 148.53 124.802 148.069H129.172C131.406 148.069 133.235 146.241 133.235 144.006V143.086C133.234 140.852 131.406 139.024 129.172 139.024ZM105.068 157.491C97.3673 157.491 91.1233 151.248 91.1233 143.546C91.1233 135.845 97.3663 129.602 105.068 129.602C112.769 129.602 119.013 135.845 119.013 143.546C119.012 151.248 112.769 157.491 105.068 157.491Z" fill="#F9AB43"/>
<path d="M96.01 91.0809L93.123 91.7369C92.984 91.4479 92.843 91.1619 92.685 90.8859L94.858 88.8869C95.972 87.8619 96.046 86.1119 95.021 84.9979L94.599 84.5389C93.574 83.4249 91.824 83.3509 90.71 84.3759L88.526 86.3849C88.226 86.1789 87.918 85.9849 87.603 85.8039L88.471 82.9659C88.914 81.5179 88.092 79.9709 86.644 79.5289L86.048 79.3469C84.6 78.9039 83.054 79.7259 82.611 81.1739L81.747 83.9979C81.431 83.9749 81.111 83.9709 80.791 83.9709L80.135 81.0839C79.8 79.6079 78.317 78.6739 76.841 79.0099L76.233 79.1479C74.757 79.4829 73.823 80.9659 74.159 82.4419L74.815 85.3289C74.526 85.4679 74.24 85.6099 73.964 85.7669L71.965 83.5939C70.94 82.4799 69.19 82.4059 68.076 83.4309L67.617 83.8529C66.503 84.8779 66.429 86.6279 67.454 87.7419L69.463 89.9259C69.257 90.2259 69.063 90.5339 68.882 90.8489L66.044 89.9809C64.596 89.5379 63.05 90.3609 62.607 91.8079L62.425 92.4039C61.982 93.8519 62.804 95.3989 64.252 95.8409L67.076 96.7049C67.053 97.0209 67.049 97.3409 67.049 97.6609L64.162 98.3169C62.686 98.6519 61.752 100.135 62.088 101.611L62.226 102.219C62.561 103.695 64.044 104.629 65.52 104.293L68.407 103.637C68.546 103.926 68.687 104.212 68.845 104.488L66.672 106.487C65.558 107.512 65.484 109.262 66.509 110.376L66.931 110.835C67.956 111.949 69.706 112.023 70.82 110.998L73.004 108.989C73.304 109.195 73.612 109.389 73.927 109.57L73.059 112.408C72.616 113.856 73.438 115.403 74.886 115.845L75.482 116.027C76.93 116.47 78.476 115.648 78.919 114.2L79.783 111.376C80.099 111.399 80.419 111.403 80.739 111.403L81.395 114.29C81.73 115.766 83.213 116.7 84.689 116.364L85.297 116.226C86.773 115.891 87.707 114.408 87.371 112.932L86.715 110.045C87.004 109.906 87.29 109.764 87.566 109.607L89.565 111.78C90.59 112.894 92.34 112.968 93.454 111.943L93.913 111.521C95.027 110.496 95.101 108.746 94.076 107.632L92.067 105.448C92.273 105.148 92.467 104.84 92.648 104.525L95.486 105.393C96.934 105.836 98.48 105.014 98.923 103.566L99.105 102.97C99.548 101.522 98.726 99.9749 97.278 99.5329L94.454 98.6689C94.477 98.3529 94.481 98.0329 94.481 97.7129L97.368 97.0569C98.844 96.7219 99.778 95.2389 99.442 93.7629L99.304 93.1549C98.968 91.6789 97.486 90.7459 96.01 91.0809ZM82.856 106.9C77.768 108.056 72.706 104.868 71.55 99.7799C70.394 94.6919 73.582 89.6299 78.67 88.4739C83.758 87.3179 88.82 90.5059 89.976 95.5939C91.132 100.682 87.944 105.744 82.856 106.9Z" fill="#EB725F"/>
<path d="M360.374 165.76L357.537 166.404C357.401 166.121 357.261 165.839 357.107 165.568L359.242 163.604C360.337 162.597 360.409 160.878 359.402 159.783L358.987 159.332C357.98 158.237 356.261 158.165 355.166 159.172L353.02 161.145C352.725 160.943 352.423 160.752 352.113 160.574L352.966 157.786C353.401 156.364 352.593 154.844 351.171 154.409L350.585 154.23C349.163 153.795 347.643 154.603 347.208 156.025L346.36 158.799C346.049 158.777 345.735 158.773 345.42 158.772L344.776 155.935C344.447 154.485 342.99 153.568 341.54 153.897L340.943 154.033C339.493 154.362 338.576 155.819 338.905 157.269L339.549 160.106C339.265 160.242 338.984 160.381 338.713 160.536L336.749 158.401C335.742 157.306 334.023 157.234 332.928 158.241L332.477 158.656C331.382 159.663 331.31 161.382 332.317 162.477L334.291 164.623C334.089 164.918 333.898 165.22 333.72 165.53L330.932 164.677C329.51 164.242 327.99 165.05 327.555 166.472L327.376 167.058C326.941 168.48 327.749 170 329.171 170.435L331.945 171.283C331.923 171.594 331.919 171.908 331.918 172.222L329.081 172.867C327.631 173.196 326.714 174.653 327.043 176.103L327.179 176.7C327.508 178.15 328.965 179.067 330.415 178.738L333.252 178.093C333.388 178.377 333.527 178.658 333.682 178.929L331.547 180.893C330.452 181.9 330.38 183.619 331.387 184.714L331.802 185.165C332.809 186.26 334.528 186.332 335.623 185.325L337.769 183.351C338.064 183.553 338.366 183.744 338.676 183.922L337.823 186.71C337.388 188.132 338.196 189.652 339.618 190.087L340.204 190.266C341.626 190.701 343.146 189.893 343.581 188.471L344.429 185.697C344.74 185.719 345.054 185.723 345.368 185.724L346.012 188.561C346.341 190.011 347.798 190.928 349.248 190.599L349.845 190.463C351.295 190.134 352.212 188.677 351.883 187.227L351.239 184.39C351.522 184.254 351.804 184.114 352.075 183.96L354.039 186.095C355.046 187.19 356.765 187.262 357.86 186.255L358.311 185.84C359.406 184.833 359.478 183.114 358.471 182.019L356.498 179.873C356.7 179.578 356.891 179.276 357.069 178.966L359.857 179.819C361.279 180.254 362.799 179.446 363.234 178.024L363.413 177.438C363.848 176.016 363.04 174.496 361.618 174.061L358.844 173.213C358.866 172.902 358.87 172.588 358.871 172.273L361.708 171.629C363.158 171.3 364.075 169.843 363.746 168.393L363.61 167.796C363.281 166.347 361.825 165.43 360.374 165.76ZM347.452 181.301C342.453 182.437 337.48 179.305 336.345 174.306C335.209 169.307 338.341 164.334 343.34 163.199C348.339 162.063 353.312 165.195 354.447 170.194C355.582 175.193 352.451 180.165 347.452 181.301Z" fill="#EB725F"/>
<path d="M356.347 389.885H220.977V397.587H356.347V389.885Z" fill="#FFCF74"/>
<path d="M343.357 389.885H233.969L281.251 273.293H296.075L343.357 389.885Z" fill="#F9AB43"/>
<mask id="mask3_2188_769" style="mask-type:luminance" maskUnits="userSpaceOnUse" x="233" y="273" width="111" height="117">
<path d="M343.357 389.885H233.969L281.251 273.293H296.075L343.357 389.885Z" fill="white"/>
</mask>
<g mask="url(#mask3_2188_769)">
<path d="M363.135 347.036H214.191V374.984H363.135V347.036Z" fill="#FFCF74"/>
<path d="M363.135 291.479H214.191V319.427H363.135V291.479Z" fill="#FFCF74"/>
</g>
<path opacity="0.1" d="M306.201 315.002C315.009 341.776 315.815 368.39 310.016 389.885H343.355L296.072 273.293H284.777C293.573 285.059 300.996 299.178 306.201 315.002Z" fill="#0046A0"/>
<g opacity="0.3">
<path d="M279.196 296.672C276.129 304.738 273.062 312.804 269.996 320.87C265.102 333.742 260.208 346.614 255.314 359.486C254.183 362.462 253.051 365.437 251.92 368.413C250.905 371.082 255.189 372.236 256.194 369.591C259.261 361.525 262.328 353.459 265.394 345.393C270.288 332.521 275.182 319.649 280.076 306.777C281.207 303.801 282.339 300.826 283.47 297.85C284.486 295.181 280.202 294.027 279.196 296.672Z" fill="white"/>
</g>
<path d="M163.938 393.088H84.8672V397.587H163.938V393.088Z" fill="#FFCF74"/>
<path d="M156.352 393.088H92.457L120.075 324.985H128.734L156.352 393.088Z" fill="#F9AB43"/>
<mask id="mask4_2188_769" style="mask-type:luminance" maskUnits="userSpaceOnUse" x="92" y="324" width="65" height="70">
<path d="M156.352 393.088H92.457L120.075 324.985H128.734L156.352 393.088Z" fill="white"/>
</mask>
<g mask="url(#mask4_2188_769)">
<path d="M167.902 368.06H80.9023V384.384H167.902V368.06Z" fill="#FFCF74"/>
<path d="M167.902 335.608H80.9023V351.932H167.902V335.608Z" fill="#FFCF74"/>
</g>
<path opacity="0.1" d="M134.65 349.348C139.795 364.987 140.265 380.532 136.879 393.088H156.353L128.735 324.985H122.137C127.273 331.858 131.609 340.105 134.65 349.348Z" fill="#0046A0"/>
<g opacity="0.3">
<path d="M118.874 338.641C117.083 343.352 115.291 348.064 113.5 352.775C110.641 360.294 107.783 367.812 104.924 375.331C104.263 377.069 103.602 378.807 102.942 380.545C102.349 382.104 104.851 382.778 105.439 381.233C107.23 376.522 109.022 371.81 110.813 367.099C113.672 359.58 116.53 352.062 119.389 344.543C120.05 342.805 120.711 341.067 121.372 339.329C121.964 337.771 119.462 337.096 118.874 338.641Z" fill="white"/>
</g>
<path d="M343.577 215.072H336.038V207.533H333.354V215.072H325.816V217.755H333.354V225.293H336.038V217.755H343.577V215.072Z" fill="#CAD2F9"/>
<path d="M389.501 291.091H382.896V284.486H380.546V291.091H373.941V293.442H380.546V300.046H382.896V293.442H389.501V291.091Z" fill="#CAD2F9"/>
<path d="M394.168 236.333H390.397V232.562H389.055V236.333H385.285V237.675H389.055V241.446H390.397V237.675H394.168V236.333Z" fill="#CAD2F9"/>
<path d="M237.904 48.499H234.133V44.728H232.791V48.499H229.02V49.841H232.791V53.611H234.133V49.841H237.904V48.499Z" fill="#CAD2F9"/>
<path d="M267.995 34.539H260.456V27H257.772V34.539H250.234V37.222H257.772V44.76H260.456V37.222H267.995V34.539Z" fill="#CAD2F9"/>
<path d="M76.478 199.928H69.873V193.324H67.523V199.928H60.918V202.279H67.523V208.883H69.873V202.279H76.478V199.928Z" fill="#CAD2F9"/>
<path d="M50.1418 141.791H46.3708V138.021H45.0278V141.791H41.2578V143.133H45.0278V146.904H46.3708V143.133H50.1418V141.791Z" fill="#CAD2F9"/>
<path d="M45.7004 301.042H41.9294V297.272H40.5874V301.042H36.8164V302.384H40.5874V306.155H41.9294V302.384H45.7004V301.042Z" fill="#CAD2F9"/>
<path d="M123.705 63.6079H117.1V57.0029H114.749V63.6079H108.145V65.9589H114.749V72.5629H117.1V65.9589H123.705V63.6079Z" fill="#CAD2F9"/>
<path d="M198.543 57.3126C198.543 58.4656 197.608 59.4006 196.455 59.4006C195.302 59.4006 194.367 58.4656 194.367 57.3126C194.367 56.1596 195.302 55.2246 196.455 55.2246C197.609 55.2256 198.543 56.1596 198.543 57.3126Z" fill="#E2E6FF"/>
<path d="M385.287 211.036C385.287 213.22 383.517 214.99 381.333 214.99C379.149 214.99 377.379 213.22 377.379 211.036C377.379 208.852 379.149 207.082 381.333 207.082C383.517 207.083 385.287 208.853 385.287 211.036Z" fill="#E2E6FF"/>
<path d="M34.176 196.292C34.176 197.445 33.241 198.38 32.088 198.38C30.935 198.38 30 197.445 30 196.292C30 195.139 30.935 194.204 32.088 194.204C33.242 194.204 34.176 195.139 34.176 196.292Z" fill="#E2E6FF"/>
<path d="M155.752 38.5497C155.752 40.7327 153.982 42.5037 151.798 42.5037C149.614 42.5037 147.844 40.7337 147.844 38.5497C147.844 36.3657 149.614 34.5957 151.798 34.5957C153.982 34.5957 155.752 36.3657 155.752 38.5497Z" fill="#E2E6FF"/>
<path d="M38.9026 92.7506C38.9026 93.9036 37.9676 94.8386 36.8146 94.8386C35.6616 94.8386 34.7266 93.9036 34.7266 92.7506C34.7266 91.5976 35.6616 90.6626 36.8146 90.6626C37.9676 90.6626 38.9026 91.5976 38.9026 92.7506Z" fill="#E2E6FF"/>
<path d="M49.6541 363.833C49.6541 366.017 47.8841 367.787 45.7001 367.787C43.5171 367.787 41.7461 366.017 41.7461 363.833C41.7461 361.649 43.5161 359.879 45.7001 359.879C47.8841 359.879 49.6541 361.649 49.6541 363.833Z" fill="#E2E6FF"/>
<path d="M332.68 252.564C332.68 253.717 331.745 254.652 330.592 254.652C329.439 254.652 328.504 253.717 328.504 252.564C328.504 251.411 329.439 250.476 330.592 250.476C331.745 250.476 332.68 251.411 332.68 252.564Z" fill="#E2E6FF"/>
<path d="M336.781 34.5958C336.781 35.7488 335.846 36.6838 334.693 36.6838C333.54 36.6838 332.605 35.7488 332.605 34.5958C332.605 33.4428 333.54 32.5078 334.693 32.5078C335.847 32.5078 336.781 33.4428 336.781 34.5958Z" fill="#E2E6FF"/>
<path d="M61.9588 239.693C61.9588 241.877 60.1888 243.647 58.0048 243.647C55.8208 243.647 54.0508 241.877 54.0508 239.693C54.0508 237.509 55.8208 235.739 58.0048 235.739C60.1888 235.739 61.9588 237.509 61.9588 239.693Z" fill="#E2E6FF"/>
<path d="M170.8 73.5781C170.338 74.2871 170.331 74.6971 170.356 74.7691C170.395 74.8141 170.742 75.0341 171.589 75.0341H213.924C214.77 75.0341 215.117 74.8141 215.164 74.7551C215.18 74.6981 215.174 74.2861 214.712 73.5781L194.092 41.9861C193.678 41.3521 193.179 40.9731 192.757 40.9731C192.335 40.9731 191.836 41.3521 191.422 41.9871L170.8 73.5781Z" fill="#FFCF74"/>
<path d="M191.562 70.263C191.247 69.948 191.09 69.559 191.09 69.096C191.09 68.633 191.247 68.244 191.562 67.929C191.877 67.614 192.266 67.456 192.729 67.456C193.192 67.456 193.586 67.614 193.91 67.929C194.233 68.244 194.396 68.633 194.396 69.096C194.396 69.559 194.233 69.948 193.91 70.263C193.585 70.578 193.192 70.735 192.729 70.735C192.266 70.735 191.878 70.577 191.562 70.263ZM190.59 50.896H194.924L194.119 64.761H191.395L190.59 50.896Z" fill="white"/>
<rect x="30" y="27" width="379.124" height="386.372" fill="black" style="mix-blend-mode:saturation"/>
</svg>
