<svg width="440" height="440" viewBox="0 0 440 440" fill="none" xmlns="http://www.w3.org/2000/svg">
<g clip-path="url(#clip0_2188_1959)">
<path d="M440 0H0V440H440V0Z" fill="white"/>
<path d="M371.584 279.286C338.022 357.535 249.43 391.144 180.016 385.414C161.063 383.849 122.93 380.701 93.1553 352.615C35.9748 298.678 44.7811 185.935 99.5192 119.558C106.568 111.01 155.362 53.74 231.396 54.5066C287.065 55.068 323.217 66.6957 327.968 70.6034C333.97 75.5398 352.763 85.7088 364.694 104.319C392.726 148.045 392.557 230.389 371.584 279.286Z" fill="url(#paint0_linear_2188_1959)"/>
<path d="M63.1125 95.025C63.5217 93.2064 66.1027 93.1451 66.59 94.9443C71.3008 112.34 85.0825 157.567 106.701 181.697C141.901 220.985 164.988 284.475 141.917 317.041C141.917 317.041 18.5204 293.178 63.1125 95.025Z" fill="#BDD0FB"/>
<path opacity="0.43" d="M66.3132 119.815C66.3521 120.382 66.4292 120.847 66.4901 121.351L66.7023 122.833L67.159 125.789C67.4769 127.757 67.8248 129.719 68.1729 131.681C68.8831 135.603 69.6419 139.516 70.4366 143.421C72.0404 151.23 73.8556 158.994 75.7872 166.729C77.708 174.467 79.8453 182.152 82.1443 189.788C84.45 197.421 86.8646 205.026 89.5282 212.546C94.8248 227.595 100.945 242.371 108.084 256.654C111.729 263.756 115.56 270.768 119.791 277.541C124.068 284.283 128.635 290.845 133.659 297.045C133.768 297.18 133.966 297.201 134.101 297.091C134.232 296.985 134.255 296.794 134.155 296.659L134.152 296.656C129.39 290.289 124.978 283.677 120.9 276.863C116.803 270.06 113.105 263.024 109.596 255.903C106.089 248.777 102.87 241.512 99.8175 234.179C96.767 226.844 94.0216 219.385 91.3188 211.914C85.9757 196.943 81.4345 181.693 77.3159 166.333C75.2728 158.648 73.3845 150.921 71.6337 143.162C70.7521 139.284 69.9061 135.398 69.1084 131.501L67.9579 125.648L67.4128 122.717L67.1568 121.25C67.0806 120.768 66.9907 120.252 66.9415 119.827L66.9335 119.757C66.9136 119.586 66.7591 119.464 66.5882 119.484C66.4224 119.503 66.3023 119.65 66.3132 119.815Z" fill="white"/>
<path d="M96.9708 55.0006C97.6944 53.3479 100.158 53.7646 100.29 55.564C101.565 72.9605 106.337 118.472 122.439 145.379C148.656 189.19 158.91 253.767 130.994 280.466C130.994 280.466 18.1318 235.083 96.9708 55.0006Z" fill="#91B3FA"/>
<path opacity="0.43" d="M97.2714 87.7428C97.1924 88.3061 97.1719 88.7773 97.1278 89.283L97.0298 90.7768L96.8673 93.7632C96.7727 95.7542 96.7085 97.7461 96.6446 99.738C96.531 103.722 96.4668 107.707 96.4393 111.693C96.399 119.664 96.5744 127.635 96.8698 135.602C97.154 143.57 97.661 151.531 98.3364 159.477C99.0187 167.422 99.8138 175.361 100.87 183.269C102.95 199.086 105.893 214.806 109.934 230.254C112.036 237.956 114.339 245.606 117.082 253.107C119.878 260.585 122.994 267.948 126.632 275.05C126.711 275.205 126.9 275.266 127.054 275.187C127.205 275.11 127.267 274.928 127.197 274.775L127.195 274.771C123.847 267.559 120.894 260.18 118.308 252.672C115.701 245.17 113.533 237.523 111.567 229.831C109.605 222.136 107.953 214.363 106.478 206.559C105.005 198.751 103.857 190.887 102.752 183.019C100.61 167.268 99.3107 151.41 98.4472 135.531C98.0323 127.59 97.7777 119.639 97.6641 111.686C97.601 107.71 97.5743 103.732 97.5971 99.7552L97.678 93.7906L97.7489 90.8101L97.8008 89.3218C97.8257 88.8346 97.8442 88.3104 97.8836 87.8851L97.8901 87.8149C97.906 87.6435 97.7801 87.4918 97.6087 87.476C97.4424 87.4605 97.2947 87.5794 97.2714 87.7428Z" fill="white"/>
<path d="M74.9922 247.853L78.2277 348.475C78.7918 366.02 93.1909 379.983 110.828 380.087L351.783 381.507C363.571 381.577 373.613 373.012 375.334 361.405C379.102 335.994 383.903 290.528 378.497 247.853L74.9922 247.853Z" fill="url(#paint1_linear_2188_1959)"/>
<path d="M145.609 174.807L146.334 167.047C147.153 165.194 148.852 163.882 150.859 163.563C158.366 162.368 176.984 160.267 185.948 166.966L187.287 175.984L145.609 174.807Z" fill="url(#paint2_linear_2188_1959)"/>
<path d="M169.059 167.34C167.331 167.762 165.599 167.76 163.864 167.334C161.766 166.818 160.285 164.94 160.285 162.789L160.285 138.489H172.651L172.652 162.771C172.652 164.932 171.168 166.826 169.059 167.34Z" fill="url(#paint3_linear_2188_1959)"/>
<path d="M265.383 174.807L266.108 167.047C266.926 165.194 268.625 163.882 270.633 163.563C278.14 162.368 296.757 160.267 305.721 166.966L307.06 175.984L265.383 174.807Z" fill="url(#paint4_linear_2188_1959)"/>
<path d="M288.832 167.34C287.104 167.762 285.372 167.76 283.638 167.334C281.539 166.818 280.058 164.94 280.059 162.789L280.059 135.929H292.425L292.425 162.771C292.425 164.932 290.942 166.826 288.832 167.34Z" fill="url(#paint5_linear_2188_1959)"/>
<path d="M159.028 144.446L292.018 140.044C295.05 139.943 297.622 137.756 298.143 134.781C298.871 130.618 299.514 124.385 298.556 117.924C297.467 110.577 291.147 105.119 283.687 104.941C258.878 104.351 195.72 104.369 160.91 118.138C157.229 119.594 154.498 122.741 153.566 126.573C152.677 130.229 152.086 135.11 153.247 140.078C153.864 142.717 156.307 144.536 159.028 144.446Z" fill="url(#paint6_linear_2188_1959)"/>
<path d="M83.9067 171.784C126.871 171.234 312.734 169.282 366.723 175.795C371.372 176.356 375.165 179.757 376.172 184.309C379.362 198.731 385.78 232.235 385.019 265.445C384.916 269.965 381.602 273.778 377.14 274.622L253.901 297.937H210.124L78.8111 271.835C74.1825 270.915 70.7708 266.995 70.5311 262.303C69.6777 245.595 68.3435 206.391 72.8621 181.157C73.8221 175.795 78.435 171.854 83.9067 171.784Z" fill="url(#paint7_linear_2188_1959)"/>
<path d="M249.779 316.316H211.427C206.402 316.316 202.169 312.577 201.573 307.61L197.142 270.705C196.436 264.827 201.048 259.655 206.996 259.655H253.07C258.897 259.655 263.471 264.629 262.956 270.406L259.665 307.311C259.211 312.408 254.92 316.316 249.779 316.316Z" fill="url(#paint8_linear_2188_1959)"/>
<path d="M245.999 311.633H214.488C210.358 311.633 206.881 308.561 206.391 304.48L202.75 274.158C202.17 269.328 205.96 265.079 210.847 265.079H248.702C253.49 265.079 257.248 269.165 256.825 273.912L254.121 304.234C253.748 308.423 250.223 311.633 245.999 311.633Z" fill="url(#paint9_linear_2188_1959)"/>
<path d="M114.195 359.895C114.195 359.895 93.2022 314.497 107.05 265.785C107.141 265.467 107.701 265.514 107.75 265.844C112.096 294.993 113.956 326.631 114.195 359.895Z" fill="#91B3FA"/>
<path opacity="0.74" d="M114.091 358.93C113.98 358.933 113.876 358.862 113.841 358.751C110.009 346.318 108.145 325.078 107.256 309.45C106.294 292.525 106.235 278.352 106.234 278.211C106.234 278.07 106.325 277.957 106.489 277.955C106.63 277.954 106.744 278.068 106.745 278.209C106.745 278.35 106.804 292.511 107.766 309.423C108.653 325.023 110.512 346.217 114.329 358.6C114.37 358.735 114.295 358.877 114.16 358.919C114.138 358.926 114.114 358.93 114.091 358.93Z" fill="white"/>
<path d="M118.558 352.304C118.558 352.304 104.901 296.305 126.688 238.761C126.83 238.385 127.384 238.48 127.38 238.881C126.998 274.198 123.723 312.331 118.558 352.304Z" fill="#91B3FA"/>
<path opacity="0.74" d="M118.655 351.087C118.525 351.09 118.411 350.994 118.396 350.862C114.917 321.796 123.768 254.291 123.858 253.612C123.877 253.473 124.003 253.374 124.145 253.393C124.284 253.412 124.383 253.54 124.364 253.68C124.274 254.358 115.431 321.8 118.902 350.802C118.919 350.942 118.819 351.069 118.679 351.086C118.671 351.086 118.663 351.087 118.655 351.087Z" fill="white"/>
<path d="M120.882 367.522C120.882 367.522 113.794 318.552 141.909 273.633C142.093 273.34 142.629 273.504 142.579 273.838C138.16 303.366 130.56 334.816 120.882 367.522Z" fill="#91B3FA"/>
<path opacity="0.74" d="M121.145 366.558C121.143 366.558 121.141 366.558 121.14 366.558C120.999 366.558 120.884 366.444 120.883 366.304C120.825 353.295 125.323 332.052 129.107 316.523C133.205 299.706 137.371 285.78 137.413 285.641C137.453 285.506 137.595 285.429 137.73 285.47C137.865 285.51 137.942 285.653 137.901 285.788C137.86 285.926 133.697 299.842 129.603 316.646C125.826 332.147 121.335 353.345 121.394 366.301C121.394 366.44 121.283 366.554 121.145 366.558Z" fill="white"/>
<path d="M105.302 340.707L132.298 340.042C134.319 339.992 135.877 341.857 135.551 343.852C134.149 352.423 131.07 360.041 127.832 366.43C127.109 367.858 125.663 368.793 124.063 368.833L115.254 369.05C113.629 369.09 112.118 368.243 111.301 366.839C106.875 359.236 104.617 351.639 102.705 344.198C102.265 342.484 103.532 340.75 105.302 340.707Z" fill="url(#paint10_linear_2188_1959)"/>
<path d="M154.684 378.578H143.586C142.404 378.578 141.445 377.62 141.445 376.437V312.321C141.445 311.139 142.404 310.181 143.586 310.181H154.684C155.866 310.181 156.824 311.139 156.824 312.321V376.437C156.824 377.62 155.866 378.578 154.684 378.578Z" fill="#7D97F4"/>
<path d="M172.891 378.578H158.777C158.428 378.578 158.145 378.295 158.145 377.946V310.814C158.145 310.464 158.428 310.181 158.777 310.181H172.891C173.24 310.181 173.524 310.464 173.524 310.814V377.946C173.524 378.295 173.24 378.578 172.891 378.578Z" fill="url(#paint11_linear_2188_1959)"/>
<path d="M189.149 378.578H175.035C174.685 378.578 174.402 378.295 174.402 377.946V310.814C174.402 310.464 174.686 310.181 175.035 310.181H189.149C189.498 310.181 189.781 310.464 189.781 310.814V377.946C189.781 378.295 189.498 378.578 189.149 378.578Z" fill="#91B3FA"/>
<path d="M195.5 385.874H102.688V328.876H195.174C195.469 328.876 195.708 329.115 195.708 329.41V385.666C195.708 385.781 195.615 385.874 195.5 385.874Z" fill="url(#paint12_linear_2188_1959)"/>
<path d="M187.044 385.874H94.6461C94.3021 385.874 94.0234 385.595 94.0234 385.251V329.439C94.0234 329.128 94.2757 328.876 94.5868 328.876H187.044V385.874Z" fill="url(#paint13_linear_2188_1959)"/>
<path d="M381.012 61.8462C380.451 61.8977 379.954 61.4846 379.903 60.9235C379.851 60.3624 380.264 59.8659 380.825 59.8144C381.387 59.7629 381.883 60.176 381.935 60.7371C381.986 61.2982 381.573 61.7947 381.012 61.8462Z" fill="url(#paint14_linear_2188_1959)"/>
<path d="M380.017 60.3955C379.977 61.0997 378.228 61.8056 376.949 62.219L377.002 62.7995C378.559 62.2274 379.991 61.5218 380.779 61.8405L380.017 60.3955Z" fill="url(#paint15_linear_2188_1959)"/>
<path d="M360.337 66.3409C360.859 66.5522 361.111 67.1469 360.9 67.6692C360.688 68.1915 360.094 68.4436 359.571 68.2323C359.049 68.0209 358.797 67.4263 359.008 66.904C359.22 66.3817 359.814 66.1295 360.337 66.3409Z" fill="url(#paint16_linear_2188_1959)"/>
<path d="M360.558 68.0862C360.917 67.4789 362.795 67.6527 364.12 67.8711L364.339 67.3306C362.694 67.1262 361.097 67.0969 360.543 66.4526L360.558 68.0862Z" fill="url(#paint17_linear_2188_1959)"/>
<path d="M381.374 74.5858C381.021 74.1468 381.09 73.5046 381.529 73.1515C381.968 72.7984 382.611 72.868 382.964 73.3071C383.317 73.7462 383.247 74.3884 382.808 74.7414C382.369 75.0945 381.727 75.0249 381.374 74.5858Z" fill="url(#paint18_linear_2188_1959)"/>
<path d="M382.033 72.9543C381.424 73.31 379.869 72.243 378.817 71.4062L378.363 71.7717C379.7 72.752 381.08 73.5556 381.25 74.3882L382.033 72.9543Z" fill="url(#paint19_linear_2188_1959)"/>
<path d="M371.382 78.0529C376.588 78.0529 380.808 73.833 380.808 68.6275C380.808 63.422 376.588 59.2021 371.382 59.2021C366.177 59.2021 361.957 63.422 361.957 68.6275C361.957 73.833 366.177 78.0529 371.382 78.0529Z" fill="url(#paint20_linear_2188_1959)"/>
<path d="M367.688 68.6268C368.252 68.6268 368.708 68.17 368.708 67.6066C368.708 67.0432 368.252 66.5864 367.688 66.5864C367.125 66.5864 366.668 67.0432 366.668 67.6066C366.668 68.17 367.125 68.6268 367.688 68.6268Z" fill="url(#paint21_linear_2188_1959)"/>
<path d="M372.946 69.8602C373.509 69.8602 373.966 69.4034 373.966 68.84C373.966 68.2766 373.509 67.8198 372.946 67.8198C372.383 67.8198 371.926 68.2766 371.926 68.84C371.926 69.4034 372.383 69.8602 372.946 69.8602Z" fill="url(#paint22_linear_2188_1959)"/>
<path d="M370.395 63.2347C370.959 63.2347 371.415 62.7779 371.415 62.2145C371.415 61.6511 370.959 61.1943 370.395 61.1943C369.832 61.1943 369.375 61.6511 369.375 62.2145C369.375 62.7779 369.832 63.2347 370.395 63.2347Z" fill="url(#paint23_linear_2188_1959)"/>
<path d="M377.247 65.5179C377.81 65.5179 378.267 65.0612 378.267 64.4977C378.267 63.9343 377.81 63.4775 377.247 63.4775C376.683 63.4775 376.227 63.9343 376.227 64.4977C376.227 65.0612 376.683 65.5179 377.247 65.5179Z" fill="url(#paint24_linear_2188_1959)"/>
<path d="M373.977 74.2069C374.541 74.2069 374.997 73.7501 374.997 73.1867C374.997 72.6233 374.541 72.1665 373.977 72.1665C373.414 72.1665 372.957 72.6233 372.957 73.1867C372.957 73.7501 373.414 74.2069 373.977 74.2069Z" fill="url(#paint25_linear_2188_1959)"/>
<path d="M366.911 74.2069C367.474 74.2069 367.931 73.7501 367.931 73.1867C367.931 72.6233 367.474 72.1665 366.911 72.1665C366.347 72.1665 365.891 72.6233 365.891 73.1867C365.891 73.7501 366.347 74.2069 366.911 74.2069Z" fill="url(#paint26_linear_2188_1959)"/>
<path d="M371.427 56.2001C371.278 56.7436 370.717 57.0641 370.174 56.9158C369.63 56.7676 369.31 56.2067 369.458 55.6631C369.606 55.1195 370.167 54.7991 370.711 54.9473C371.254 55.0957 371.575 55.6566 371.427 56.2001Z" fill="url(#paint27_linear_2188_1959)"/>
<path d="M369.719 56.6244C370.364 56.9089 370.413 58.7945 370.352 60.1367L370.915 60.2902C370.924 58.6322 370.765 57.0431 371.339 56.417L369.719 56.6244Z" fill="url(#paint28_linear_2188_1959)"/>
<path d="M361.944 61.435C362.349 61.8268 362.36 62.4726 361.968 62.8775C361.576 63.2824 360.93 63.2929 360.526 62.9012C360.121 62.5094 360.11 61.8635 360.502 61.4587C360.894 61.0539 361.54 61.0431 361.944 61.435Z" fill="url(#paint29_linear_2188_1959)"/>
<path d="M361.492 63.1357C362.052 62.7072 363.728 63.573 364.875 64.2727L364.927 64.2194C365.105 64.0348 365.058 63.7303 364.832 63.6088C363.541 62.9156 362.335 62.3375 362.091 61.6157L361.492 63.1357Z" fill="url(#paint30_linear_2188_1959)"/>
<path d="M367.932 63.2195C368.219 63.5785 368.094 64.1544 367.654 64.5061C367.214 64.8576 366.624 64.8516 366.338 64.4926C366.051 64.1336 366.176 63.5577 366.616 63.2061C367.056 62.8545 367.646 62.8605 367.932 63.2195Z" fill="url(#paint31_linear_2188_1959)"/>
<path d="M367.168 64.7249C367.766 64.3563 369.11 65.1682 370.007 65.8195L370.065 65.7732C370.266 65.6129 370.286 65.3403 370.105 65.2266C369.076 64.5776 368.1 64.0336 368.028 63.3843L367.168 64.7249Z" fill="url(#paint32_linear_2188_1959)"/>
<path d="M362.99 68.2476C363.47 68.3192 363.792 68.8289 363.709 69.3862C363.626 69.9435 363.169 70.3372 362.689 70.2657C362.209 70.1942 361.887 69.6845 361.97 69.1272C362.053 68.5699 362.51 68.1761 362.99 68.2476Z" fill="url(#paint33_linear_2188_1959)"/>
<path d="M363.392 69.8602C363.567 69.181 364.89 68.8289 365.835 68.6716L365.846 68.5985C365.884 68.3443 365.742 68.1352 365.562 68.1792C364.533 68.4298 363.598 68.7186 363.184 68.304L363.392 69.8602Z" fill="url(#paint34_linear_2188_1959)"/>
<path d="M360.364 72.6882C360.913 72.561 361.461 72.9028 361.589 73.4516C361.716 74.0005 361.374 74.5485 360.825 74.6758C360.276 74.8031 359.728 74.4613 359.601 73.9124C359.474 73.3635 359.815 72.8155 360.364 72.6882Z" fill="url(#paint35_linear_2188_1959)"/>
<path d="M361.549 73.9899C361.496 73.3278 362.945 72.4582 364.125 71.872C364.251 71.8092 364.318 71.6683 364.286 71.531L364.249 71.3711C364.229 71.2838 364.131 71.24 364.052 71.2825C362.651 72.0394 361.392 72.863 360.598 72.6617L361.549 73.9899Z" fill="url(#paint36_linear_2188_1959)"/>
<path d="M369.057 72.9957C369.334 72.6354 369.872 72.5847 370.259 72.8824C370.645 73.1801 370.733 73.7134 370.455 74.0737C370.178 74.434 369.639 74.4847 369.253 74.187C368.867 73.8893 368.779 73.356 369.057 72.9957Z" fill="url(#paint37_linear_2188_1959)"/>
<path d="M370.463 73.3502C370.05 72.9548 370.303 71.8897 370.58 71.0987C370.609 71.014 370.562 70.9018 370.465 70.8273L370.353 70.7406C370.292 70.6933 370.215 70.701 370.198 70.7559C369.905 71.7334 369.725 72.7014 369.191 72.8611L370.463 73.3502Z" fill="url(#paint38_linear_2188_1959)"/>
<path d="M371.326 80.8548C371.469 80.3097 372.027 79.9836 372.572 80.1263C373.117 80.269 373.443 80.8265 373.3 81.3716C373.158 81.9166 372.6 82.2428 372.055 82.1001C371.51 81.9574 371.184 81.3999 371.326 80.8548Z" fill="url(#paint39_linear_2188_1959)"/>
<path d="M373.028 80.4129C372.427 80.1553 372.325 78.5162 372.351 77.2085C372.354 77.0314 372.236 76.8751 372.064 76.8303C371.928 76.7947 371.795 76.8985 371.797 77.039C371.82 78.5935 371.946 80.0406 371.41 80.6371L373.028 80.4129Z" fill="url(#paint40_linear_2188_1959)"/>
<path d="M366.237 58.0693C366.3 58.6292 365.896 59.1339 365.336 59.1963C364.777 59.2586 364.272 58.8553 364.209 58.2954C364.147 57.7355 364.55 57.2309 365.11 57.1685C365.67 57.1061 366.175 57.5094 366.237 58.0693Z" fill="url(#paint41_linear_2188_1959)"/>
<path d="M364.805 59.0931C365.488 59.1189 366.204 60.7492 366.646 62.006C366.671 62.0757 366.74 62.1191 366.814 62.1109C367.042 62.0854 367.184 61.8484 367.097 61.635C366.538 60.2583 365.959 59.0235 366.235 58.3032L364.805 59.0931Z" fill="url(#paint42_linear_2188_1959)"/>
<path d="M383.308 68.233C382.785 68.0227 382.532 67.4286 382.742 66.9059C382.952 66.3832 383.546 66.1298 384.069 66.3401C384.592 66.5502 384.845 67.1444 384.635 67.6672C384.425 68.1899 383.831 68.4432 383.308 68.233Z" fill="url(#paint43_linear_2188_1959)"/>
<path d="M383.084 66.4878C382.746 67.0644 381.039 66.9414 379.733 66.7435C379.609 66.7247 379.489 66.7934 379.442 66.9094C379.373 67.0821 379.487 67.2735 379.672 67.2938C381.183 67.4597 382.589 67.5264 383.103 68.1214L383.084 66.4878Z" fill="url(#paint44_linear_2188_1959)"/>
<path d="M378.722 69.8826C378.286 69.7074 378.104 69.1416 378.314 68.6188C378.524 68.096 379.048 67.8143 379.483 67.9895C379.919 68.1647 380.102 68.7305 379.892 69.2533C379.681 69.7761 379.158 70.0579 378.722 69.8826Z" fill="url(#paint45_linear_2188_1959)"/>
<path d="M378.629 68.1909C378.306 68.7737 376.851 68.752 375.743 68.6339C375.638 68.6227 375.532 68.6967 375.485 68.8127C375.416 68.9854 375.503 69.1658 375.66 69.1749C376.945 69.2499 378.145 69.234 378.551 69.7856L378.629 68.1909Z" fill="url(#paint46_linear_2188_1959)"/>
<path d="M374.6 63.9671C374.284 64.3397 373.68 64.3466 373.25 63.9824C372.82 63.6182 372.727 63.0209 373.043 62.6483C373.359 62.2757 373.963 62.2688 374.393 62.633C374.823 62.9972 374.915 63.5945 374.6 63.9671Z" fill="url(#paint47_linear_2188_1959)"/>
<path d="M373.047 63.4263C373.512 63.9009 373.255 65.0133 372.968 65.8212C372.941 65.8976 372.99 66.0086 373.085 66.0894C373.227 66.2096 373.401 66.2124 373.435 66.0947C373.712 65.1338 373.894 64.2028 374.451 64.1035L373.047 63.4263Z" fill="url(#paint48_linear_2188_1959)"/>
<path d="M378.278 79.4432C378.841 79.4432 379.298 78.9864 379.298 78.423C379.298 77.8596 378.841 77.4028 378.278 77.4028C377.715 77.4028 377.258 77.8596 377.258 78.423C377.258 78.9864 377.715 79.4432 378.278 79.4432Z" fill="url(#paint49_linear_2188_1959)"/>
<path d="M378.398 77.4283C377.803 77.5952 376.689 76.2867 375.88 75.2371C375.716 75.0245 375.395 75.026 375.233 75.2404C375.181 75.3095 375.183 75.4054 375.238 75.4722C376.257 76.7106 377.323 77.795 377.278 78.6183L378.398 77.4283Z" fill="url(#paint50_linear_2188_1959)"/>
<path d="M376.82 57.6275C376.397 58.0003 375.753 57.9598 375.38 57.5373C375.007 57.1147 375.048 56.47 375.47 56.0974C375.893 55.7247 376.538 55.7651 376.91 56.1876C377.283 56.6101 377.242 57.2548 376.82 57.6275Z" fill="url(#paint51_linear_2188_1959)"/>
<path d="M375.158 57.0439C375.541 57.6362 374.546 59.2385 373.758 60.3267L374.143 60.7639C375.062 59.3835 375.802 57.9684 376.626 57.7609L375.158 57.0439Z" fill="url(#paint52_linear_2188_1959)"/>
<path d="M366.7 80.4984C367.263 80.4984 367.72 80.0416 367.72 79.4782C367.72 78.9148 367.263 78.458 366.7 78.458C366.136 78.458 365.68 78.9148 365.68 79.4782C365.68 80.0416 366.136 80.4984 366.7 80.4984Z" fill="url(#paint53_linear_2188_1959)"/>
<path d="M367.675 79.2404C367.289 78.7132 368.034 77.2538 368.721 76.142C368.816 75.9888 368.793 75.7907 368.667 75.6626C368.57 75.5646 368.406 75.5857 368.337 75.7053C367.563 77.0562 366.934 78.3683 366.168 78.6089L367.675 79.2404Z" fill="url(#paint54_linear_2188_1959)"/>
<path d="M138.822 124.308C138.489 124.339 138.193 124.093 138.163 123.759C138.132 123.426 138.378 123.13 138.711 123.1C139.045 123.069 139.34 123.315 139.371 123.648C139.401 123.982 139.156 124.277 138.822 124.308Z" fill="url(#paint55_linear_2188_1959)"/>
<path d="M138.231 123.445C138.206 123.864 137.166 124.284 136.406 124.53L136.438 124.875C137.363 124.535 138.215 124.115 138.683 124.305L138.231 123.445Z" fill="url(#paint56_linear_2188_1959)"/>
<path d="M126.53 126.98C126.84 127.106 126.99 127.46 126.864 127.77C126.739 128.081 126.385 128.231 126.075 128.105C125.764 127.979 125.614 127.626 125.74 127.315C125.865 127.005 126.219 126.855 126.53 126.98Z" fill="url(#paint57_linear_2188_1959)"/>
<path d="M126.661 128.018C126.875 127.657 127.991 127.76 128.78 127.89L128.91 127.569C127.931 127.447 126.982 127.43 126.652 127.047L126.661 128.018Z" fill="url(#paint58_linear_2188_1959)"/>
<path d="M139.04 131.883C138.83 131.622 138.872 131.24 139.133 131.03C139.394 130.82 139.776 130.861 139.986 131.122C140.195 131.384 140.154 131.765 139.893 131.975C139.632 132.185 139.25 132.144 139.04 131.883Z" fill="url(#paint59_linear_2188_1959)"/>
<path d="M139.432 130.913C139.07 131.124 138.145 130.49 137.52 129.992L137.25 130.209C138.045 130.792 138.866 131.27 138.967 131.765L139.432 130.913Z" fill="url(#paint60_linear_2188_1959)"/>
<path d="M133.097 133.945C136.192 133.945 138.701 131.436 138.701 128.34C138.701 125.245 136.192 122.736 133.097 122.736C130.001 122.736 127.492 125.245 127.492 128.34C127.492 131.436 130.001 133.945 133.097 133.945Z" fill="url(#paint61_linear_2188_1959)"/>
<path d="M131.506 127.733C131.506 128.068 131.235 128.34 130.9 128.34C130.565 128.34 130.293 128.068 130.293 127.733C130.293 127.398 130.565 127.126 130.9 127.126C131.235 127.126 131.506 127.398 131.506 127.733Z" fill="url(#paint62_linear_2188_1959)"/>
<path d="M134.635 128.466C134.635 128.802 134.364 129.073 134.029 129.073C133.693 129.073 133.422 128.802 133.422 128.466C133.422 128.131 133.693 127.86 134.029 127.86C134.364 127.86 134.635 128.131 134.635 128.466Z" fill="url(#paint63_linear_2188_1959)"/>
<path d="M133.12 124.527C133.12 124.862 132.848 125.133 132.513 125.133C132.178 125.133 131.906 124.862 131.906 124.527C131.906 124.192 132.178 123.92 132.513 123.92C132.848 123.92 133.12 124.192 133.12 124.527Z" fill="url(#paint64_linear_2188_1959)"/>
<path d="M137.19 125.884C137.19 126.22 136.918 126.491 136.583 126.491C136.248 126.491 135.977 126.22 135.977 125.884C135.977 125.549 136.248 125.278 136.583 125.278C136.918 125.278 137.19 125.549 137.19 125.884Z" fill="url(#paint65_linear_2188_1959)"/>
<path d="M135.248 131.051C135.248 131.386 134.977 131.658 134.642 131.658C134.307 131.658 134.035 131.386 134.035 131.051C134.035 130.716 134.307 130.444 134.642 130.444C134.977 130.444 135.248 130.716 135.248 131.051Z" fill="url(#paint66_linear_2188_1959)"/>
<path d="M131.045 131.051C131.045 131.386 130.774 131.658 130.439 131.658C130.104 131.658 129.832 131.386 129.832 131.051C129.832 130.716 130.104 130.444 130.439 130.444C130.774 130.444 131.045 130.716 131.045 131.051Z" fill="url(#paint67_linear_2188_1959)"/>
<path d="M133.126 120.951C133.037 121.274 132.704 121.464 132.381 121.376C132.058 121.288 131.867 120.954 131.955 120.631C132.043 120.308 132.377 120.117 132.7 120.206C133.023 120.294 133.214 120.627 133.126 120.951Z" fill="url(#paint68_linear_2188_1959)"/>
<path d="M132.109 121.203C132.493 121.372 132.522 122.493 132.486 123.291L132.82 123.383C132.826 122.397 132.731 121.452 133.073 121.08L132.109 121.203Z" fill="url(#paint69_linear_2188_1959)"/>
<path d="M127.485 124.063C127.726 124.296 127.732 124.68 127.5 124.921C127.267 125.162 126.882 125.168 126.642 124.935C126.401 124.702 126.395 124.318 126.628 124.077C126.861 123.837 127.245 123.83 127.485 124.063Z" fill="url(#paint70_linear_2188_1959)"/>
<path d="M127.219 125.075C127.552 124.82 128.548 125.335 129.23 125.751L129.261 125.719C129.367 125.609 129.339 125.428 129.205 125.356C128.437 124.944 127.72 124.6 127.575 124.171L127.219 125.075Z" fill="url(#paint71_linear_2188_1959)"/>
<path d="M131.048 125.124C131.218 125.338 131.144 125.68 130.882 125.889C130.62 126.098 130.27 126.095 130.099 125.881C129.929 125.668 130.003 125.325 130.265 125.116C130.527 124.907 130.877 124.911 131.048 125.124Z" fill="url(#paint72_linear_2188_1959)"/>
<path d="M130.594 126.019C130.95 125.8 131.748 126.283 132.282 126.67L132.316 126.643C132.436 126.547 132.448 126.385 132.34 126.318C131.728 125.932 131.148 125.608 131.105 125.222L130.594 126.019Z" fill="url(#paint73_linear_2188_1959)"/>
<path d="M128.106 128.114C128.392 128.157 128.583 128.46 128.534 128.791C128.485 129.123 128.213 129.357 127.928 129.314C127.642 129.272 127.451 128.969 127.5 128.637C127.549 128.306 127.821 128.072 128.106 128.114Z" fill="url(#paint74_linear_2188_1959)"/>
<path d="M128.347 129.073C128.451 128.67 129.237 128.46 129.799 128.367L129.806 128.323C129.828 128.172 129.744 128.048 129.637 128.074C129.025 128.223 128.469 128.394 128.223 128.148L128.347 129.073Z" fill="url(#paint75_linear_2188_1959)"/>
<path d="M126.544 130.755C126.87 130.679 127.196 130.882 127.272 131.209C127.348 131.535 127.144 131.861 126.818 131.937C126.492 132.012 126.166 131.809 126.09 131.483C126.014 131.156 126.218 130.83 126.544 130.755Z" fill="url(#paint76_linear_2188_1959)"/>
<path d="M127.249 131.529C127.218 131.135 128.079 130.618 128.781 130.269C128.856 130.232 128.896 130.148 128.877 130.067L128.855 129.972C128.843 129.92 128.784 129.894 128.738 129.919C127.904 130.369 127.156 130.859 126.684 130.739L127.249 131.529Z" fill="url(#paint77_linear_2188_1959)"/>
<path d="M131.714 130.937C131.879 130.723 132.199 130.693 132.428 130.87C132.658 131.047 132.71 131.364 132.545 131.578C132.38 131.792 132.06 131.823 131.83 131.645C131.601 131.469 131.548 131.151 131.714 130.937Z" fill="url(#paint78_linear_2188_1959)"/>
<path d="M132.549 131.148C132.304 130.913 132.454 130.28 132.619 129.81C132.636 129.759 132.608 129.692 132.551 129.648L132.484 129.597C132.447 129.569 132.402 129.573 132.392 129.606C132.217 130.187 132.11 130.763 131.793 130.857L132.549 131.148Z" fill="url(#paint79_linear_2188_1959)"/>
<path d="M133.063 135.611C133.148 135.287 133.479 135.093 133.803 135.178C134.127 135.262 134.321 135.594 134.237 135.918C134.152 136.242 133.82 136.436 133.496 136.351C133.172 136.266 132.978 135.935 133.063 135.611Z" fill="url(#paint80_linear_2188_1959)"/>
<path d="M134.075 135.348C133.718 135.195 133.657 134.22 133.672 133.442C133.674 133.337 133.604 133.244 133.502 133.218C133.421 133.196 133.342 133.258 133.344 133.342C133.357 134.266 133.432 135.127 133.113 135.481L134.075 135.348Z" fill="url(#paint81_linear_2188_1959)"/>
<path d="M130.038 122.062C130.075 122.395 129.835 122.695 129.502 122.732C129.169 122.769 128.869 122.529 128.832 122.196C128.795 121.863 129.035 121.563 129.368 121.526C129.701 121.489 130.001 121.729 130.038 122.062Z" fill="url(#paint82_linear_2188_1959)"/>
<path d="M129.188 122.67C129.594 122.686 130.019 123.655 130.282 124.402C130.297 124.444 130.338 124.47 130.382 124.465C130.518 124.45 130.602 124.309 130.551 124.182C130.218 123.363 129.874 122.629 130.038 122.201L129.188 122.67Z" fill="url(#paint83_linear_2188_1959)"/>
<path d="M140.189 128.106C139.878 127.981 139.728 127.627 139.853 127.316C139.978 127.006 140.331 126.855 140.642 126.98C140.953 127.105 141.103 127.458 140.978 127.769C140.853 128.08 140.5 128.231 140.189 128.106Z" fill="url(#paint84_linear_2188_1959)"/>
<path d="M140.057 127.068C139.855 127.411 138.841 127.338 138.064 127.22C137.99 127.209 137.919 127.25 137.891 127.319C137.85 127.421 137.918 127.535 138.028 127.547C138.926 127.646 139.762 127.685 140.068 128.039L140.057 127.068Z" fill="url(#paint85_linear_2188_1959)"/>
<path d="M137.463 129.086C137.204 128.982 137.095 128.646 137.22 128.335C137.345 128.024 137.656 127.856 137.915 127.961C138.174 128.065 138.283 128.401 138.158 128.712C138.033 129.023 137.722 129.19 137.463 129.086Z" fill="url(#paint86_linear_2188_1959)"/>
<path d="M137.407 128.08C137.215 128.427 136.35 128.414 135.691 128.343C135.629 128.337 135.566 128.381 135.538 128.45C135.497 128.552 135.548 128.66 135.642 128.665C136.406 128.71 137.119 128.7 137.361 129.028L137.407 128.08Z" fill="url(#paint87_linear_2188_1959)"/>
<path d="M135.01 125.569C134.822 125.791 134.463 125.795 134.207 125.578C133.951 125.362 133.896 125.007 134.084 124.785C134.272 124.564 134.631 124.559 134.887 124.776C135.142 124.993 135.197 125.348 135.01 125.569Z" fill="url(#paint88_linear_2188_1959)"/>
<path d="M134.087 125.248C134.363 125.53 134.21 126.191 134.04 126.672C134.023 126.717 134.052 126.783 134.109 126.831C134.193 126.903 134.297 126.904 134.317 126.834C134.482 126.263 134.59 125.709 134.921 125.65L134.087 125.248Z" fill="url(#paint89_linear_2188_1959)"/>
<path d="M136.643 134.413C136.506 134.108 136.642 133.748 136.948 133.611C137.253 133.474 137.613 133.61 137.75 133.916C137.887 134.221 137.751 134.58 137.445 134.718C137.14 134.855 136.781 134.719 136.643 134.413Z" fill="url(#paint90_linear_2188_1959)"/>
<path d="M137.267 133.573C136.914 133.672 136.251 132.894 135.77 132.27C135.673 132.144 135.482 132.145 135.386 132.272C135.355 132.313 135.356 132.37 135.389 132.41C135.995 133.146 136.628 133.791 136.602 134.281L137.267 133.573Z" fill="url(#paint91_linear_2188_1959)"/>
<path d="M136.332 121.799C136.081 122.021 135.697 121.997 135.476 121.746C135.254 121.494 135.278 121.111 135.53 120.89C135.781 120.668 136.164 120.692 136.386 120.943C136.607 121.194 136.583 121.578 136.332 121.799Z" fill="url(#paint92_linear_2188_1959)"/>
<path d="M135.344 121.452C135.572 121.804 134.98 122.757 134.512 123.404L134.741 123.664C135.287 122.843 135.727 122.002 136.217 121.879L135.344 121.452Z" fill="url(#paint93_linear_2188_1959)"/>
<path d="M129.887 134.361C130.125 134.125 130.509 134.127 130.745 134.365C130.98 134.604 130.978 134.988 130.74 135.223C130.502 135.459 130.118 135.457 129.883 135.219C129.647 134.981 129.649 134.597 129.887 134.361Z" fill="url(#paint94_linear_2188_1959)"/>
<path d="M130.892 134.651C130.663 134.337 131.105 133.469 131.514 132.808C131.57 132.717 131.557 132.599 131.482 132.523C131.424 132.465 131.327 132.477 131.286 132.549C130.826 133.352 130.452 134.132 129.996 134.275L130.892 134.651Z" fill="url(#paint95_linear_2188_1959)"/>
<path d="M217.955 82.9945C217.582 83.0288 217.252 82.7541 217.218 82.3812C217.184 82.0082 217.458 81.6782 217.831 81.644C218.204 81.6097 218.534 81.8844 218.568 82.2573C218.602 82.6302 218.328 82.9602 217.955 82.9945Z" fill="url(#paint96_linear_2188_1959)"/>
<path d="M217.293 82.0303C217.266 82.4984 216.104 82.9676 215.254 83.2423L215.289 83.6282C216.324 83.2479 217.276 82.7789 217.8 82.9908L217.293 82.0303Z" fill="url(#paint97_linear_2188_1959)"/>
<path d="M204.214 85.9818C204.561 86.1223 204.729 86.5175 204.588 86.8648C204.448 87.2119 204.052 87.3795 203.705 87.2391C203.358 87.0987 203.19 86.7034 203.331 86.3561C203.471 86.009 203.867 85.8413 204.214 85.9818Z" fill="url(#paint98_linear_2188_1959)"/>
<path d="M204.362 87.142C204.6 86.7383 205.848 86.854 206.73 86.999L206.875 86.6398C205.781 86.5039 204.72 86.4844 204.352 86.0562L204.362 87.142Z" fill="url(#paint99_linear_2188_1959)"/>
<path d="M218.197 91.462C217.962 91.1702 218.008 90.7433 218.3 90.5086C218.592 90.2739 219.019 90.3202 219.253 90.612C219.488 90.9039 219.442 91.3307 219.15 91.5655C218.858 91.8002 218.431 91.7539 218.197 91.462Z" fill="url(#paint100_linear_2188_1959)"/>
<path d="M218.635 90.3776C218.23 90.6141 217.196 89.9047 216.497 89.3486L216.195 89.5915C217.084 90.2431 218.001 90.7773 218.114 91.3306L218.635 90.3776Z" fill="url(#paint101_linear_2188_1959)"/>
<path d="M211.554 93.7667C215.014 93.7667 217.819 90.9618 217.819 87.5018C217.819 84.0417 215.014 81.2368 211.554 81.2368C208.094 81.2368 205.289 84.0417 205.289 87.5018C205.289 90.9618 208.094 93.7667 211.554 93.7667Z" fill="url(#paint102_linear_2188_1959)"/>
<path d="M209.1 87.5013C209.475 87.5013 209.778 87.1977 209.778 86.8232C209.778 86.4486 209.475 86.145 209.1 86.145C208.725 86.145 208.422 86.4486 208.422 86.8232C208.422 87.1977 208.725 87.5013 209.1 87.5013Z" fill="url(#paint103_linear_2188_1959)"/>
<path d="M213.274 87.643C213.274 88.0175 212.971 88.3211 212.596 88.3211C212.222 88.3211 211.918 88.0175 211.918 87.643C211.918 87.2685 212.222 86.9648 212.596 86.9648C212.971 86.965 213.274 87.2685 213.274 87.643Z" fill="url(#paint104_linear_2188_1959)"/>
<path d="M210.901 83.9173C211.275 83.9173 211.579 83.6137 211.579 83.2392C211.579 82.8647 211.275 82.561 210.901 82.561C210.526 82.561 210.223 82.8647 210.223 83.2392C210.223 83.6137 210.526 83.9173 210.901 83.9173Z" fill="url(#paint105_linear_2188_1959)"/>
<path d="M216.13 84.7568C216.13 85.1313 215.826 85.4349 215.452 85.4349C215.077 85.4349 214.773 85.1313 214.773 84.7568C214.773 84.3822 215.077 84.0786 215.452 84.0786C215.826 84.0786 216.13 84.3823 216.13 84.7568Z" fill="url(#paint106_linear_2188_1959)"/>
<path d="M213.962 90.5321C213.962 90.9067 213.658 91.2103 213.284 91.2103C212.909 91.2103 212.605 90.9067 212.605 90.5321C212.605 90.1576 212.909 89.854 213.284 89.854C213.658 89.854 213.962 90.1576 213.962 90.5321Z" fill="url(#paint107_linear_2188_1959)"/>
<path d="M208.584 91.2103C208.959 91.2103 209.263 90.9067 209.263 90.5321C209.263 90.1576 208.959 89.854 208.584 89.854C208.21 89.854 207.906 90.1576 207.906 90.5321C207.906 90.9067 208.21 91.2103 208.584 91.2103Z" fill="url(#paint108_linear_2188_1959)"/>
<path d="M210.932 79.7411C211.307 79.7411 211.61 79.4374 211.61 79.0629C211.61 78.6884 211.307 78.3848 210.932 78.3848C210.558 78.3848 210.254 78.6884 210.254 79.0629C210.254 79.4374 210.558 79.7411 210.932 79.7411Z" fill="url(#paint109_linear_2188_1959)"/>
<path d="M210.453 79.5237C210.882 79.7127 210.914 80.9661 210.874 81.8583L211.248 81.9603C211.254 80.8583 211.148 79.802 211.53 79.3857L210.453 79.5237Z" fill="url(#paint110_linear_2188_1959)"/>
<path d="M205.282 82.7211C205.552 82.9815 205.559 83.4109 205.298 83.68C205.038 83.9491 204.608 83.9562 204.339 83.6957C204.07 83.4353 204.063 83.006 204.324 82.7369C204.584 82.4677 205.013 82.4607 205.282 82.7211Z" fill="url(#paint111_linear_2188_1959)"/>
<path d="M204.984 83.8516C205.357 83.5668 206.471 84.1423 207.233 84.6074L207.267 84.572C207.386 84.4493 207.355 84.2469 207.204 84.1661C206.346 83.7052 205.545 83.321 205.382 82.8413L204.984 83.8516Z" fill="url(#paint112_linear_2188_1959)"/>
<path d="M209.264 83.9072C209.454 84.1458 209.372 84.5287 209.079 84.7623C208.786 84.9959 208.395 84.9919 208.204 84.7534C208.013 84.5149 208.096 84.132 208.389 83.8983C208.682 83.6646 209.073 83.6686 209.264 83.9072Z" fill="url(#paint113_linear_2188_1959)"/>
<path d="M208.758 84.9076C209.155 84.6626 210.048 85.2023 210.645 85.6352L210.683 85.6045C210.817 85.498 210.83 85.3168 210.71 85.2411C210.026 84.8098 209.377 84.4482 209.33 84.0166L208.758 84.9076Z" fill="url(#paint114_linear_2188_1959)"/>
<path d="M205.976 87.2492C206.295 87.2968 206.509 87.6356 206.454 88.006C206.399 88.3764 206.095 88.6381 205.776 88.5906C205.457 88.543 205.243 88.2042 205.298 87.8338C205.353 87.4635 205.656 87.2018 205.976 87.2492Z" fill="url(#paint115_linear_2188_1959)"/>
<path d="M206.244 88.321C206.36 87.8695 207.24 87.6355 207.868 87.5309L207.875 87.4823C207.9 87.3134 207.806 87.1744 207.686 87.2036C207.003 87.3702 206.381 87.5621 206.105 87.2865L206.244 88.321Z" fill="url(#paint116_linear_2188_1959)"/>
<path d="M204.232 90.2008C204.597 90.1162 204.961 90.3433 205.046 90.7083C205.13 91.0731 204.903 91.4374 204.538 91.522C204.174 91.6065 203.809 91.3794 203.725 91.0145C203.64 90.6497 203.867 90.2855 204.232 90.2008Z" fill="url(#paint117_linear_2188_1959)"/>
<path d="M205.019 91.0664C204.984 90.6262 205.947 90.0483 206.731 89.6586C206.815 89.6168 206.859 89.5231 206.838 89.4319L206.814 89.3257C206.8 89.2677 206.735 89.2385 206.683 89.2667C205.751 89.7698 204.915 90.3173 204.387 90.1835L205.019 91.0664Z" fill="url(#paint118_linear_2188_1959)"/>
<path d="M210.01 90.4053C210.195 90.1659 210.552 90.1322 210.809 90.33C211.066 90.5279 211.124 90.8823 210.94 91.1219C210.755 91.3614 210.397 91.395 210.141 91.1972C209.884 90.9994 209.825 90.6448 210.01 90.4053Z" fill="url(#paint119_linear_2188_1959)"/>
<path d="M210.943 90.6409C210.668 90.3781 210.836 89.6702 211.02 89.1445C211.04 89.0883 211.009 89.0137 210.945 88.9641L210.87 88.9064C210.829 88.875 210.778 88.8801 210.767 88.9166C210.572 89.5664 210.452 90.2098 210.098 90.3159L210.943 90.6409Z" fill="url(#paint120_linear_2188_1959)"/>
<path d="M211.518 95.6291C211.613 95.2668 211.984 95.05 212.346 95.1448C212.708 95.2397 212.925 95.6102 212.83 95.9725C212.735 96.3349 212.365 96.5517 212.003 96.4568C211.64 96.3619 211.424 95.9913 211.518 95.6291Z" fill="url(#paint121_linear_2188_1959)"/>
<path d="M212.65 95.3353C212.25 95.164 212.182 94.0746 212.199 93.2054C212.201 93.0877 212.123 92.9838 212.009 92.9539C211.919 92.9302 211.83 92.9992 211.832 93.0927C211.847 94.1259 211.93 95.0879 211.574 95.4842L212.65 95.3353Z" fill="url(#paint122_linear_2188_1959)"/>
<path d="M208.137 80.4839C208.179 80.8561 207.911 81.1915 207.538 81.233C207.166 81.2745 206.831 81.0063 206.789 80.6342C206.748 80.262 207.016 79.9266 207.388 79.8851C207.76 79.8436 208.096 80.1117 208.137 80.4839Z" fill="url(#paint123_linear_2188_1959)"/>
<path d="M207.188 81.1642C207.641 81.1814 208.117 82.265 208.411 83.1003C208.428 83.1467 208.474 83.1755 208.523 83.1701C208.675 83.1531 208.769 82.9955 208.711 82.8537C208.339 81.9386 207.955 81.1178 208.138 80.6392L207.188 81.1642Z" fill="url(#paint124_linear_2188_1959)"/>
<path d="M219.48 87.2395C219.133 87.0998 218.964 86.7049 219.104 86.3574C219.244 86.0099 219.638 85.8415 219.986 85.9813C220.333 86.121 220.502 86.516 220.362 86.8635C220.222 87.2108 219.828 87.3792 219.48 87.2395Z" fill="url(#paint125_linear_2188_1959)"/>
<path d="M219.333 86.0796C219.108 86.4629 217.973 86.3812 217.105 86.2495C217.023 86.2371 216.943 86.2828 216.912 86.3598C216.866 86.4746 216.942 86.6018 217.065 86.6153C218.069 86.7256 219.004 86.7698 219.345 87.1654L219.333 86.0796Z" fill="url(#paint126_linear_2188_1959)"/>
<path d="M216.435 88.3359C216.145 88.2194 216.024 87.8433 216.163 87.4958C216.303 87.1483 216.651 86.9611 216.941 87.0775C217.23 87.194 217.352 87.5701 217.212 87.9176C217.072 88.2651 216.724 88.4523 216.435 88.3359Z" fill="url(#paint127_linear_2188_1959)"/>
<path d="M216.376 87.2114C216.16 87.5988 215.194 87.5844 214.457 87.5059C214.388 87.4984 214.317 87.5477 214.286 87.6247C214.239 87.7395 214.297 87.8594 214.402 87.8655C215.256 87.9153 216.054 87.9048 216.323 88.2713L216.376 87.2114Z" fill="url(#paint128_linear_2188_1959)"/>
<path d="M213.694 84.4042C213.485 84.6518 213.083 84.6565 212.797 84.4144C212.511 84.1724 212.45 83.7753 212.66 83.5276C212.869 83.28 213.271 83.2754 213.557 83.5174C213.843 83.7595 213.904 84.1565 213.694 84.4042Z" fill="url(#paint129_linear_2188_1959)"/>
<path d="M212.663 84.0444C212.972 84.3599 212.801 85.0994 212.61 85.6363C212.592 85.687 212.625 85.7608 212.688 85.8145C212.782 85.8944 212.898 85.8962 212.921 85.8181C213.105 85.1793 213.226 84.5606 213.596 84.4945L212.663 84.0444Z" fill="url(#paint130_linear_2188_1959)"/>
<path d="M215.521 94.2908C215.367 93.9492 215.52 93.5478 215.861 93.3943C216.203 93.2407 216.604 93.3932 216.758 93.7348C216.911 94.0763 216.759 94.4778 216.417 94.6312C216.076 94.7847 215.674 94.6323 215.521 94.2908Z" fill="url(#paint131_linear_2188_1959)"/>
<path d="M216.218 93.3514C215.823 93.4623 215.083 92.5926 214.545 91.8949C214.436 91.7535 214.222 91.7546 214.115 91.8972C214.08 91.943 214.082 92.0069 214.118 92.0512C214.796 92.8744 215.504 93.5951 215.474 94.1423L216.218 93.3514Z" fill="url(#paint132_linear_2188_1959)"/>
<path d="M215.17 80.1901C214.889 80.4378 214.46 80.4109 214.213 80.1301C213.965 79.8492 213.992 79.4207 214.273 79.173C214.553 78.9252 214.982 78.9521 215.23 79.233C215.477 79.5138 215.451 79.9423 215.17 80.1901Z" fill="url(#paint133_linear_2188_1959)"/>
<path d="M214.068 79.8022C214.322 80.196 213.661 81.2609 213.137 81.9842L213.393 82.2748C214.004 81.3573 214.495 80.4167 215.043 80.2787L214.068 79.8022Z" fill="url(#paint134_linear_2188_1959)"/>
<path d="M207.967 94.2323C208.233 93.9689 208.662 93.971 208.926 94.2373C209.189 94.5034 209.187 94.9328 208.921 95.1962C208.655 95.4597 208.225 95.4575 207.962 95.1913C207.698 94.9251 207.701 94.4957 207.967 94.2323Z" fill="url(#paint135_linear_2188_1959)"/>
<path d="M209.091 94.556C208.835 94.2056 209.33 93.2356 209.787 92.4966C209.85 92.3947 209.835 92.2631 209.751 92.1779C209.686 92.1128 209.577 92.1268 209.532 92.2064C209.017 93.1042 208.599 93.9765 208.09 94.1363L209.091 94.556Z" fill="url(#paint136_linear_2188_1959)"/>
<path d="M149.378 74.5637C148.818 74.6141 148.321 74.2101 148.27 73.6613C148.218 73.1126 148.631 72.6269 149.192 72.5765C149.753 72.5261 150.249 72.9302 150.301 73.4789C150.352 74.0278 149.939 74.5135 149.378 74.5637Z" fill="url(#paint137_linear_2188_1959)"/>
<path d="M148.383 73.145C148.342 73.8337 146.594 74.5242 145.316 74.9285L145.37 75.4962C146.925 74.9367 148.357 74.2466 149.144 74.5584L148.383 73.145Z" fill="url(#paint138_linear_2188_1959)"/>
<path d="M128.715 78.9598C129.237 79.1665 129.489 79.7481 129.278 80.2589C129.067 80.7697 128.472 81.0163 127.95 80.8097C127.428 80.603 127.176 80.0214 127.387 79.5105C127.598 78.9997 128.193 78.7532 128.715 78.9598Z" fill="url(#paint139_linear_2188_1959)"/>
<path d="M128.937 80.667C129.295 80.0729 131.172 80.243 132.498 80.4566L132.716 79.928C131.072 79.728 129.476 79.6993 128.922 79.0693L128.937 80.667Z" fill="url(#paint140_linear_2188_1959)"/>
<path d="M149.745 87.0235C149.392 86.594 149.461 85.9661 149.9 85.6207C150.339 85.2754 150.981 85.3434 151.334 85.7729C151.687 86.2023 151.617 86.8303 151.178 87.1757C150.739 87.521 150.098 87.4528 149.745 87.0235Z" fill="url(#paint141_linear_2188_1959)"/>
<path d="M150.403 85.4276C149.794 85.7754 148.239 84.7318 147.188 83.9136L146.734 84.2709C148.071 85.2297 149.45 86.0157 149.62 86.83L150.403 85.4276Z" fill="url(#paint142_linear_2188_1959)"/>
<path d="M139.753 90.4144C144.956 90.4144 149.174 86.2871 149.174 81.196C149.174 76.1048 144.956 71.9775 139.753 71.9775C134.55 71.9775 130.332 76.1048 130.332 81.196C130.332 86.2871 134.55 90.4144 139.753 90.4144Z" fill="url(#paint143_linear_2188_1959)"/>
<path d="M136.063 81.1952C136.626 81.1952 137.082 80.7485 137.082 80.1975C137.082 79.6464 136.626 79.1997 136.063 79.1997C135.5 79.1997 135.043 79.6464 135.043 80.1975C135.043 80.7485 135.5 81.1952 136.063 81.1952Z" fill="url(#paint144_linear_2188_1959)"/>
<path d="M141.32 82.4018C141.884 82.4018 142.34 81.9551 142.34 81.404C142.34 80.853 141.884 80.4062 141.32 80.4062C140.757 80.4062 140.301 80.853 140.301 81.404C140.301 81.9551 140.757 82.4018 141.32 82.4018Z" fill="url(#paint145_linear_2188_1959)"/>
<path d="M138.77 75.9213C139.333 75.9213 139.789 75.4746 139.789 74.9235C139.789 74.3725 139.333 73.9258 138.77 73.9258C138.207 73.9258 137.75 74.3725 137.75 74.9235C137.75 75.4746 138.207 75.9213 138.77 75.9213Z" fill="url(#paint146_linear_2188_1959)"/>
<path d="M145.617 78.1542C146.181 78.1542 146.637 77.7075 146.637 77.1565C146.637 76.6054 146.181 76.1587 145.617 76.1587C145.054 76.1587 144.598 76.6054 144.598 77.1565C144.598 77.7075 145.054 78.1542 145.617 78.1542Z" fill="url(#paint147_linear_2188_1959)"/>
<path d="M142.352 86.6528C142.915 86.6528 143.371 86.206 143.371 85.655C143.371 85.1039 142.915 84.6572 142.352 84.6572C141.789 84.6572 141.332 85.1039 141.332 85.655C141.332 86.206 141.789 86.6528 142.352 86.6528Z" fill="url(#paint148_linear_2188_1959)"/>
<path d="M135.285 86.6528C135.849 86.6528 136.305 86.206 136.305 85.655C136.305 85.1039 135.849 84.6572 135.285 84.6572C134.722 84.6572 134.266 85.1039 134.266 85.655C134.266 86.206 134.722 86.6528 135.285 86.6528Z" fill="url(#paint149_linear_2188_1959)"/>
<path d="M139.801 69.0414C139.652 69.5731 139.092 69.8864 138.548 69.7414C138.005 69.5964 137.685 69.0478 137.833 68.5162C137.981 67.9845 138.542 67.6712 139.085 67.8162C139.628 67.9612 139.949 68.5098 139.801 69.0414Z" fill="url(#paint150_linear_2188_1959)"/>
<path d="M138.094 69.4568C138.739 69.7351 138.787 71.5793 138.727 72.892L139.289 73.0421C139.298 71.4205 139.139 69.8662 139.713 69.2539L138.094 69.4568Z" fill="url(#paint151_linear_2188_1959)"/>
<path d="M130.323 74.1616C130.727 74.5448 130.738 75.1765 130.346 75.5725C129.954 75.9685 129.309 75.9788 128.904 75.5956C128.5 75.2124 128.489 74.5808 128.881 74.1848C129.272 73.7888 129.918 73.7784 130.323 74.1616Z" fill="url(#paint152_linear_2188_1959)"/>
<path d="M129.871 75.825C130.431 75.4059 132.106 76.2527 133.252 76.937L133.304 76.8849C133.483 76.7043 133.435 76.4065 133.209 76.2877C131.919 75.6096 130.713 75.0444 130.47 74.3384L129.871 75.825Z" fill="url(#paint153_linear_2188_1959)"/>
<path d="M136.306 75.9064C136.593 76.2574 136.468 76.8208 136.028 77.1646C135.588 77.5084 134.999 77.5025 134.713 77.1514C134.426 76.8004 134.551 76.237 134.991 75.8932C135.431 75.5494 136.02 75.5553 136.306 75.9064Z" fill="url(#paint154_linear_2188_1959)"/>
<path d="M135.543 77.3785C136.141 77.0179 137.484 77.8121 138.38 78.4491L138.438 78.4039C138.639 78.2471 138.659 77.9805 138.479 77.8692C137.45 77.2345 136.474 76.7024 136.403 76.0674L135.543 77.3785Z" fill="url(#paint155_linear_2188_1959)"/>
<path d="M131.364 80.8241C131.844 80.8941 132.166 81.3927 132.083 81.9376C132 82.4827 131.544 82.8678 131.064 82.7978C130.584 82.7279 130.262 82.2293 130.345 81.6843C130.428 81.1394 130.884 80.7542 131.364 80.8241Z" fill="url(#paint156_linear_2188_1959)"/>
<path d="M131.767 82.4014C131.942 81.7372 133.264 81.3928 134.209 81.2389L134.22 81.1673C134.258 80.9187 134.116 80.7143 133.936 80.7572C132.908 81.0023 131.973 81.2847 131.559 80.8792L131.767 82.4014Z" fill="url(#paint157_linear_2188_1959)"/>
<path d="M128.973 87.1376C129.536 87.1376 129.993 86.6909 129.993 86.1399C129.993 85.5888 129.536 85.1421 128.973 85.1421C128.41 85.1421 127.953 85.5888 127.953 86.1399C127.953 86.6909 128.41 87.1376 128.973 87.1376Z" fill="url(#paint158_linear_2188_1959)"/>
<path d="M129.927 86.4409C129.875 85.7933 131.323 84.9429 132.502 84.3694C132.628 84.3081 132.695 84.1702 132.663 84.0359L132.626 83.8796C132.606 83.7942 132.508 83.7513 132.429 83.7929C131.029 84.5332 129.77 85.3387 128.977 85.1419L129.927 86.4409Z" fill="url(#paint159_linear_2188_1959)"/>
<path d="M137.432 85.4684C137.709 85.1161 138.247 85.0665 138.633 85.3576C139.019 85.6488 139.107 86.1704 138.829 86.5228C138.552 86.8751 138.014 86.9247 137.628 86.6335C137.242 86.3424 137.154 85.8206 137.432 85.4684Z" fill="url(#paint160_linear_2188_1959)"/>
<path d="M138.833 85.8151C138.421 85.4284 138.673 84.3869 138.95 83.6131C138.98 83.5304 138.933 83.4206 138.836 83.3477L138.724 83.2629C138.662 83.2167 138.586 83.2241 138.569 83.2779C138.276 84.2339 138.096 85.1806 137.562 85.3367L138.833 85.8151Z" fill="url(#paint161_linear_2188_1959)"/>
<path d="M139.698 93.1545C139.84 92.6214 140.397 92.3024 140.942 92.442C141.487 92.5816 141.813 93.1267 141.67 93.6598C141.528 94.1929 140.971 94.512 140.426 94.3724C139.881 94.2329 139.555 93.6876 139.698 93.1545Z" fill="url(#paint162_linear_2188_1959)"/>
<path d="M141.399 92.7223C140.798 92.4704 140.696 90.8672 140.721 89.5882C140.725 89.4151 140.606 89.2622 140.435 89.2183C140.299 89.1835 140.166 89.285 140.168 89.4226C140.191 90.9429 140.317 92.3582 139.781 92.9416L141.399 92.7223Z" fill="url(#paint163_linear_2188_1959)"/>
<path d="M134.611 70.8693C134.674 71.417 134.27 71.9104 133.711 71.9715C133.151 72.0325 132.647 71.638 132.584 71.0903C132.522 70.5426 132.925 70.0492 133.485 69.9881C134.045 69.9272 134.549 70.3218 134.611 70.8693Z" fill="url(#paint164_linear_2188_1959)"/>
<path d="M133.18 71.8705C133.862 71.8957 134.578 73.4902 135.02 74.7194C135.045 74.7876 135.114 74.8301 135.187 74.8221C135.416 74.7972 135.558 74.5654 135.471 74.3567C134.912 73.0103 134.334 71.8025 134.609 71.0981L133.18 71.8705Z" fill="url(#paint165_linear_2188_1959)"/>
<path d="M151.675 80.8104C151.152 80.6049 150.899 80.0237 151.109 79.5125C151.319 79.0012 151.913 78.7535 152.436 78.959C152.958 79.1646 153.211 79.7458 153.001 80.2569C152.791 80.7682 152.197 81.016 151.675 80.8104Z" fill="url(#paint166_linear_2188_1959)"/>
<path d="M151.45 79.1035C151.111 79.6675 149.406 79.5472 148.1 79.3535C147.976 79.3351 147.856 79.4024 147.81 79.5158C147.74 79.6846 147.855 79.8718 148.039 79.8917C149.55 80.054 150.955 80.1192 151.468 80.7012L151.45 79.1035Z" fill="url(#paint167_linear_2188_1959)"/>
<path d="M147.089 82.4233C146.654 82.252 146.471 81.6986 146.681 81.1873C146.891 80.676 147.414 80.4005 147.85 80.5719C148.285 80.7433 148.468 81.2966 148.258 81.8079C148.048 82.3191 147.524 82.5947 147.089 82.4233Z" fill="url(#paint168_linear_2188_1959)"/>
<path d="M146.999 80.7686C146.676 81.3385 145.222 81.3173 144.114 81.2018C144.01 81.1909 143.903 81.2632 143.856 81.3766C143.787 81.5455 143.874 81.7219 144.031 81.7309C145.315 81.8042 146.515 81.7886 146.921 82.3281L146.999 80.7686Z" fill="url(#paint169_linear_2188_1959)"/>
<path d="M142.97 76.638C142.654 77.0024 142.05 77.009 141.621 76.6529C141.191 76.2967 141.098 75.7125 141.414 75.3481C141.729 74.9836 142.334 74.977 142.763 75.3331C143.193 75.6893 143.285 76.2735 142.97 76.638Z" fill="url(#paint170_linear_2188_1959)"/>
<path d="M141.415 76.1089C141.879 76.5731 141.622 77.6611 141.336 78.4512C141.309 78.5259 141.357 78.6344 141.452 78.7134C141.594 78.8311 141.768 78.8337 141.802 78.7186C142.079 77.7789 142.261 76.8683 142.817 76.7711L141.415 76.1089Z" fill="url(#paint171_linear_2188_1959)"/>
<path d="M145.719 91.1848C145.488 90.6822 145.717 90.0916 146.231 89.8658C146.745 89.6398 147.348 89.8642 147.579 90.3669C147.81 90.8695 147.581 91.4601 147.067 91.6859C146.553 91.9118 145.95 91.6874 145.719 91.1848Z" fill="url(#paint172_linear_2188_1959)"/>
<path d="M146.767 89.8031C146.173 89.9664 145.059 88.6865 144.25 87.6599C144.087 87.452 143.766 87.4534 143.604 87.6632C143.552 87.7308 143.554 87.8246 143.609 87.8899C144.628 89.1012 145.693 90.1617 145.649 90.967L146.767 89.8031Z" fill="url(#paint173_linear_2188_1959)"/>
<path d="M145.19 70.4375C144.768 70.802 144.124 70.7624 143.751 70.3492C143.379 69.9359 143.419 69.3054 143.841 68.9409C144.264 68.5764 144.908 68.6159 145.281 69.0291C145.653 69.4425 145.613 70.073 145.19 70.4375Z" fill="url(#paint174_linear_2188_1959)"/>
<path d="M143.533 69.8667C143.915 70.4459 142.92 72.013 142.133 73.0774L142.518 73.5049C143.436 72.1549 144.176 70.7709 145 70.5679L143.533 69.8667Z" fill="url(#paint175_linear_2188_1959)"/>
<path d="M135.074 92.8066C135.638 92.8066 136.094 92.3599 136.094 91.8088C136.094 91.2577 135.638 90.811 135.074 90.811C134.511 90.811 134.055 91.2577 134.055 91.8088C134.055 92.3599 134.511 92.8066 135.074 92.8066Z" fill="url(#paint176_linear_2188_1959)"/>
<path d="M136.049 91.5759C135.663 91.0604 136.408 89.6329 137.095 88.5456C137.189 88.3957 137.167 88.2021 137.04 88.0768C136.943 87.9809 136.779 88.0015 136.711 88.1187C135.937 89.4397 135.309 90.7232 134.543 90.9584L136.049 91.5759Z" fill="url(#paint177_linear_2188_1959)"/>
<rect x="53.3984" y="53.9619" width="333.204" height="332.076" fill="black" style="mix-blend-mode:saturation"/>
</g>
<defs>
<linearGradient id="paint0_linear_2188_1959" x1="410.941" y1="424.234" x2="167.022" y2="160.957" gradientUnits="userSpaceOnUse">
<stop stop-color="#DAE3FE"/>
<stop offset="1" stop-color="#E9EFFD"/>
</linearGradient>
<linearGradient id="paint1_linear_2188_1959" x1="227.956" y1="393.259" x2="227.956" y2="293.713" gradientUnits="userSpaceOnUse">
<stop stop-color="#4F52FF"/>
<stop offset="1" stop-color="#4042E2"/>
</linearGradient>
<linearGradient id="paint2_linear_2188_1959" x1="166.448" y1="66.5244" x2="166.448" y2="94.0868" gradientUnits="userSpaceOnUse">
<stop stop-color="#4F52FF"/>
<stop offset="1" stop-color="#4042E2"/>
</linearGradient>
<linearGradient id="paint3_linear_2188_1959" x1="166.469" y1="66.5245" x2="166.469" y2="94.0869" gradientUnits="userSpaceOnUse">
<stop stop-color="#4F52FF"/>
<stop offset="1" stop-color="#4042E2"/>
</linearGradient>
<linearGradient id="paint4_linear_2188_1959" x1="286.222" y1="66.5244" x2="286.222" y2="94.0868" gradientUnits="userSpaceOnUse">
<stop stop-color="#4F52FF"/>
<stop offset="1" stop-color="#4042E2"/>
</linearGradient>
<linearGradient id="paint5_linear_2188_1959" x1="286.242" y1="66.5246" x2="286.242" y2="94.0869" gradientUnits="userSpaceOnUse">
<stop stop-color="#4F52FF"/>
<stop offset="1" stop-color="#4042E2"/>
</linearGradient>
<linearGradient id="paint6_linear_2188_1959" x1="225.204" y1="147.883" x2="226.275" y2="116.307" gradientUnits="userSpaceOnUse">
<stop stop-color="#4F52FF"/>
<stop offset="1" stop-color="#4042E2"/>
</linearGradient>
<linearGradient id="paint7_linear_2188_1959" x1="227.246" y1="224.484" x2="226.443" y2="93.6294" gradientUnits="userSpaceOnUse">
<stop stop-color="#4F52FF"/>
<stop offset="1" stop-color="#4042E2"/>
</linearGradient>
<linearGradient id="paint8_linear_2188_1959" x1="241.927" y1="180.697" x2="224.671" y2="317.418" gradientUnits="userSpaceOnUse">
<stop stop-color="#09005D"/>
<stop offset="1" stop-color="#1A0F91"/>
</linearGradient>
<linearGradient id="paint9_linear_2188_1959" x1="202.691" y1="288.356" x2="256.857" y2="288.356" gradientUnits="userSpaceOnUse">
<stop stop-color="#4F52FF"/>
<stop offset="1" stop-color="#4042E2"/>
</linearGradient>
<linearGradient id="paint10_linear_2188_1959" x1="148.425" y1="391.158" x2="59.4687" y2="260.893" gradientUnits="userSpaceOnUse">
<stop stop-color="#09005D"/>
<stop offset="1" stop-color="#1A0F91"/>
</linearGradient>
<linearGradient id="paint11_linear_2188_1959" x1="281.106" y1="240.446" x2="243.557" y2="274.302" gradientUnits="userSpaceOnUse">
<stop stop-color="#09005D"/>
<stop offset="1" stop-color="#1A0F91"/>
</linearGradient>
<linearGradient id="paint12_linear_2188_1959" x1="305.145" y1="325.517" x2="160.327" y2="355.084" gradientUnits="userSpaceOnUse">
<stop stop-color="#FF928E"/>
<stop offset="1" stop-color="#FE7062"/>
</linearGradient>
<linearGradient id="paint13_linear_2188_1959" x1="158.036" y1="310.718" x2="104.073" y2="455.28" gradientUnits="userSpaceOnUse">
<stop stop-color="#FF928E"/>
<stop offset="1" stop-color="#FE7062"/>
</linearGradient>
<linearGradient id="paint14_linear_2188_1959" x1="377.971" y1="59.9859" x2="363.826" y2="55.9343" gradientUnits="userSpaceOnUse">
<stop stop-color="#FE7062"/>
<stop offset="1" stop-color="#FF928E"/>
</linearGradient>
<linearGradient id="paint15_linear_2188_1959" x1="373.784" y1="60.244" x2="348.989" y2="53.1417" gradientUnits="userSpaceOnUse">
<stop stop-color="#FE7062"/>
<stop offset="1" stop-color="#FF928E"/>
</linearGradient>
<linearGradient id="paint16_linear_2188_1959" x1="362.187" y1="69.3877" x2="372.904" y2="79.47" gradientUnits="userSpaceOnUse">
<stop stop-color="#FE7062"/>
<stop offset="1" stop-color="#FF928E"/>
</linearGradient>
<linearGradient id="paint17_linear_2188_1959" x1="366.029" y1="71.0767" x2="384.815" y2="88.7503" gradientUnits="userSpaceOnUse">
<stop stop-color="#FE7062"/>
<stop offset="1" stop-color="#FF928E"/>
</linearGradient>
<linearGradient id="paint18_linear_2188_1959" x1="381.242" y1="71.0233" x2="376.798" y2="56.9966" gradientUnits="userSpaceOnUse">
<stop stop-color="#FE7062"/>
<stop offset="1" stop-color="#FF928E"/>
</linearGradient>
<linearGradient id="paint19_linear_2188_1959" x1="378.714" y1="67.6772" x2="370.923" y2="43.0899" gradientUnits="userSpaceOnUse">
<stop stop-color="#FE7062"/>
<stop offset="1" stop-color="#FF928E"/>
</linearGradient>
<linearGradient id="paint20_linear_2188_1959" x1="372.653" y1="59.2436" x2="369.211" y2="84.6659" gradientUnits="userSpaceOnUse">
<stop stop-color="#E1473D"/>
<stop offset="1" stop-color="#E9605A"/>
</linearGradient>
<linearGradient id="paint21_linear_2188_1959" x1="366.578" y1="70.4649" x2="361.25" y2="84.1807" gradientUnits="userSpaceOnUse">
<stop stop-color="#FE7062"/>
<stop offset="1" stop-color="#FF928E"/>
</linearGradient>
<linearGradient id="paint22_linear_2188_1959" x1="371.836" y1="71.6983" x2="366.508" y2="85.414" gradientUnits="userSpaceOnUse">
<stop stop-color="#FE7062"/>
<stop offset="1" stop-color="#FF928E"/>
</linearGradient>
<linearGradient id="paint23_linear_2188_1959" x1="369.285" y1="65.0728" x2="363.957" y2="78.7885" gradientUnits="userSpaceOnUse">
<stop stop-color="#FE7062"/>
<stop offset="1" stop-color="#FF928E"/>
</linearGradient>
<linearGradient id="paint24_linear_2188_1959" x1="376.136" y1="67.356" x2="370.809" y2="81.0717" gradientUnits="userSpaceOnUse">
<stop stop-color="#FE7062"/>
<stop offset="1" stop-color="#FF928E"/>
</linearGradient>
<linearGradient id="paint25_linear_2188_1959" x1="372.867" y1="76.045" x2="367.539" y2="89.7607" gradientUnits="userSpaceOnUse">
<stop stop-color="#FE7062"/>
<stop offset="1" stop-color="#FF928E"/>
</linearGradient>
<linearGradient id="paint26_linear_2188_1959" x1="365.8" y1="76.045" x2="360.473" y2="89.7608" gradientUnits="userSpaceOnUse">
<stop stop-color="#FE7062"/>
<stop offset="1" stop-color="#FF928E"/>
</linearGradient>
<linearGradient id="paint27_linear_2188_1959" x1="368.619" y1="58.3969" x2="359.869" y2="70.2266" gradientUnits="userSpaceOnUse">
<stop stop-color="#FE7062"/>
<stop offset="1" stop-color="#FF928E"/>
</linearGradient>
<linearGradient id="paint28_linear_2188_1959" x1="367.394" y1="62.4092" x2="352.056" y2="83.1457" gradientUnits="userSpaceOnUse">
<stop stop-color="#FE7062"/>
<stop offset="1" stop-color="#FF928E"/>
</linearGradient>
<linearGradient id="paint29_linear_2188_1959" x1="362.517" y1="64.9536" x2="368.668" y2="78.3201" gradientUnits="userSpaceOnUse">
<stop stop-color="#FE7062"/>
<stop offset="1" stop-color="#FF928E"/>
</linearGradient>
<linearGradient id="paint30_linear_2188_1959" x1="365.338" y1="68.0074" x2="376.121" y2="91.4377" gradientUnits="userSpaceOnUse">
<stop stop-color="#FE7062"/>
<stop offset="1" stop-color="#FF928E"/>
</linearGradient>
<linearGradient id="paint31_linear_2188_1959" x1="367.721" y1="66.3699" x2="372.124" y2="77.8216" gradientUnits="userSpaceOnUse">
<stop stop-color="#FE7062"/>
<stop offset="1" stop-color="#FF928E"/>
</linearGradient>
<linearGradient id="paint32_linear_2188_1959" x1="369.652" y1="69.1599" x2="377.369" y2="89.2333" gradientUnits="userSpaceOnUse">
<stop stop-color="#FE7062"/>
<stop offset="1" stop-color="#FF928E"/>
</linearGradient>
<linearGradient id="paint33_linear_2188_1959" x1="365.112" y1="70.7178" x2="376.607" y2="76.569" gradientUnits="userSpaceOnUse">
<stop stop-color="#FE7062"/>
<stop offset="1" stop-color="#FF928E"/>
</linearGradient>
<linearGradient id="paint34_linear_2188_1959" x1="367.503" y1="71.3079" x2="384.53" y2="78.7433" gradientUnits="userSpaceOnUse">
<stop stop-color="#FE7062"/>
<stop offset="1" stop-color="#FF928E"/>
</linearGradient>
<linearGradient id="paint35_linear_2188_1959" x1="363.63" y1="74.1182" x2="378.194" y2="76.2113" gradientUnits="userSpaceOnUse">
<stop stop-color="#FE7062"/>
<stop offset="1" stop-color="#FF928E"/>
</linearGradient>
<linearGradient id="paint36_linear_2188_1959" x1="367.606" y1="73.3133" x2="392.658" y2="76.9136" gradientUnits="userSpaceOnUse">
<stop stop-color="#FE7062"/>
<stop offset="1" stop-color="#FF928E"/>
</linearGradient>
<linearGradient id="paint37_linear_2188_1959" x1="371.925" y1="72.2936" x2="382.035" y2="65.8638" gradientUnits="userSpaceOnUse">
<stop stop-color="#FE7062"/>
<stop offset="1" stop-color="#FF928E"/>
</linearGradient>
<linearGradient id="paint38_linear_2188_1959" x1="373.242" y1="70.7485" x2="386.241" y2="61.0217" gradientUnits="userSpaceOnUse">
<stop stop-color="#FE7062"/>
<stop offset="1" stop-color="#FF928E"/>
</linearGradient>
<linearGradient id="paint39_linear_2188_1959" x1="374.111" y1="78.6292" x2="382.738" y2="66.7094" gradientUnits="userSpaceOnUse">
<stop stop-color="#FE7062"/>
<stop offset="1" stop-color="#FF928E"/>
</linearGradient>
<linearGradient id="paint40_linear_2188_1959" x1="375.245" y1="74.7769" x2="390.012" y2="54.3735" gradientUnits="userSpaceOnUse">
<stop stop-color="#FE7062"/>
<stop offset="1" stop-color="#FF928E"/>
</linearGradient>
<linearGradient id="paint41_linear_2188_1959" x1="364.436" y1="61.1461" x2="360.66" y2="75.3673" gradientUnits="userSpaceOnUse">
<stop stop-color="#FE7062"/>
<stop offset="1" stop-color="#FF928E"/>
</linearGradient>
<linearGradient id="paint42_linear_2188_1959" x1="364.694" y1="65.2336" x2="358.139" y2="89.9175" gradientUnits="userSpaceOnUse">
<stop stop-color="#FE7062"/>
<stop offset="1" stop-color="#FF928E"/>
</linearGradient>
<linearGradient id="paint43_linear_2188_1959" x1="381.451" y1="65.19" x2="370.713" y2="55.1298" gradientUnits="userSpaceOnUse">
<stop stop-color="#FE7062"/>
<stop offset="1" stop-color="#FF928E"/>
</linearGradient>
<linearGradient id="paint44_linear_2188_1959" x1="377.75" y1="63.5301" x2="359.24" y2="46.1878" gradientUnits="userSpaceOnUse">
<stop stop-color="#FE7062"/>
<stop offset="1" stop-color="#FF928E"/>
</linearGradient>
<linearGradient id="paint45_linear_2188_1959" x1="377.307" y1="67.0172" x2="367.697" y2="58.9974" gradientUnits="userSpaceOnUse">
<stop stop-color="#FE7062"/>
<stop offset="1" stop-color="#FF928E"/>
</linearGradient>
<linearGradient id="paint46_linear_2188_1959" x1="374.23" y1="65.6093" x2="357.665" y2="51.7844" gradientUnits="userSpaceOnUse">
<stop stop-color="#FE7062"/>
<stop offset="1" stop-color="#FF928E"/>
</linearGradient>
<linearGradient id="paint47_linear_2188_1959" x1="371.373" y1="64.4804" x2="360.272" y2="71.1824" gradientUnits="userSpaceOnUse">
<stop stop-color="#FE7062"/>
<stop offset="1" stop-color="#FF928E"/>
</linearGradient>
<linearGradient id="paint48_linear_2188_1959" x1="370.034" y1="65.8168" x2="356.721" y2="75.5326" gradientUnits="userSpaceOnUse">
<stop stop-color="#FE7062"/>
<stop offset="1" stop-color="#FF928E"/>
</linearGradient>
<linearGradient id="paint49_linear_2188_1959" x1="378.119" y1="75.3608" x2="377.356" y2="60.6665" gradientUnits="userSpaceOnUse">
<stop stop-color="#FE7062"/>
<stop offset="1" stop-color="#FF928E"/>
</linearGradient>
<linearGradient id="paint50_linear_2188_1959" x1="376.537" y1="71.3886" x2="375.182" y2="45.2909" gradientUnits="userSpaceOnUse">
<stop stop-color="#FE7062"/>
<stop offset="1" stop-color="#FF928E"/>
</linearGradient>
<linearGradient id="paint51_linear_2188_1959" x1="373.267" y1="57.9204" x2="359.457" y2="62.9975" gradientUnits="userSpaceOnUse">
<stop stop-color="#FE7062"/>
<stop offset="1" stop-color="#FF928E"/>
</linearGradient>
<linearGradient id="paint52_linear_2188_1959" x1="370.037" y1="60.5999" x2="345.829" y2="69.4993" gradientUnits="userSpaceOnUse">
<stop stop-color="#FE7062"/>
<stop offset="1" stop-color="#FF928E"/>
</linearGradient>
<linearGradient id="paint53_linear_2188_1959" x1="369.512" y1="78.2564" x2="383.008" y2="72.3937" gradientUnits="userSpaceOnUse">
<stop stop-color="#FE7062"/>
<stop offset="1" stop-color="#FF928E"/>
</linearGradient>
<linearGradient id="paint54_linear_2188_1959" x1="372.45" y1="75.5197" x2="395.542" y2="65.4883" gradientUnits="userSpaceOnUse">
<stop stop-color="#FE7062"/>
<stop offset="1" stop-color="#FF928E"/>
</linearGradient>
<linearGradient id="paint55_linear_2188_1959" x1="137.014" y1="123.202" x2="128.603" y2="120.793" gradientUnits="userSpaceOnUse">
<stop stop-color="#FE7062"/>
<stop offset="1" stop-color="#FF928E"/>
</linearGradient>
<linearGradient id="paint56_linear_2188_1959" x1="134.524" y1="123.355" x2="119.78" y2="119.132" gradientUnits="userSpaceOnUse">
<stop stop-color="#FE7062"/>
<stop offset="1" stop-color="#FF928E"/>
</linearGradient>
<linearGradient id="paint57_linear_2188_1959" x1="127.63" y1="128.792" x2="134.003" y2="134.787" gradientUnits="userSpaceOnUse">
<stop stop-color="#FE7062"/>
<stop offset="1" stop-color="#FF928E"/>
</linearGradient>
<linearGradient id="paint58_linear_2188_1959" x1="129.914" y1="129.796" x2="141.085" y2="140.305" gradientUnits="userSpaceOnUse">
<stop stop-color="#FE7062"/>
<stop offset="1" stop-color="#FF928E"/>
</linearGradient>
<linearGradient id="paint59_linear_2188_1959" x1="138.962" y1="129.765" x2="136.319" y2="121.424" gradientUnits="userSpaceOnUse">
<stop stop-color="#FE7062"/>
<stop offset="1" stop-color="#FF928E"/>
</linearGradient>
<linearGradient id="paint60_linear_2188_1959" x1="137.458" y1="127.775" x2="132.826" y2="113.155" gradientUnits="userSpaceOnUse">
<stop stop-color="#FE7062"/>
<stop offset="1" stop-color="#FF928E"/>
</linearGradient>
<linearGradient id="paint61_linear_2188_1959" x1="133.852" y1="122.761" x2="131.806" y2="137.877" gradientUnits="userSpaceOnUse">
<stop stop-color="#E1473D"/>
<stop offset="1" stop-color="#E9605A"/>
</linearGradient>
<linearGradient id="paint62_linear_2188_1959" x1="130.239" y1="129.433" x2="127.072" y2="137.588" gradientUnits="userSpaceOnUse">
<stop stop-color="#FE7062"/>
<stop offset="1" stop-color="#FF928E"/>
</linearGradient>
<linearGradient id="paint63_linear_2188_1959" x1="133.368" y1="130.166" x2="130.2" y2="138.322" gradientUnits="userSpaceOnUse">
<stop stop-color="#FE7062"/>
<stop offset="1" stop-color="#FF928E"/>
</linearGradient>
<linearGradient id="paint64_linear_2188_1959" x1="131.853" y1="126.226" x2="128.685" y2="134.382" gradientUnits="userSpaceOnUse">
<stop stop-color="#FE7062"/>
<stop offset="1" stop-color="#FF928E"/>
</linearGradient>
<linearGradient id="paint65_linear_2188_1959" x1="135.923" y1="127.584" x2="132.755" y2="135.74" gradientUnits="userSpaceOnUse">
<stop stop-color="#FE7062"/>
<stop offset="1" stop-color="#FF928E"/>
</linearGradient>
<linearGradient id="paint66_linear_2188_1959" x1="133.982" y1="132.751" x2="130.814" y2="140.906" gradientUnits="userSpaceOnUse">
<stop stop-color="#FE7062"/>
<stop offset="1" stop-color="#FF928E"/>
</linearGradient>
<linearGradient id="paint67_linear_2188_1959" x1="129.778" y1="132.751" x2="126.611" y2="140.906" gradientUnits="userSpaceOnUse">
<stop stop-color="#FE7062"/>
<stop offset="1" stop-color="#FF928E"/>
</linearGradient>
<linearGradient id="paint68_linear_2188_1959" x1="131.456" y1="122.257" x2="126.253" y2="129.291" gradientUnits="userSpaceOnUse">
<stop stop-color="#FE7062"/>
<stop offset="1" stop-color="#FF928E"/>
</linearGradient>
<linearGradient id="paint69_linear_2188_1959" x1="130.727" y1="124.643" x2="121.607" y2="136.973" gradientUnits="userSpaceOnUse">
<stop stop-color="#FE7062"/>
<stop offset="1" stop-color="#FF928E"/>
</linearGradient>
<linearGradient id="paint70_linear_2188_1959" x1="127.826" y1="126.155" x2="131.483" y2="134.103" gradientUnits="userSpaceOnUse">
<stop stop-color="#FE7062"/>
<stop offset="1" stop-color="#FF928E"/>
</linearGradient>
<linearGradient id="paint71_linear_2188_1959" x1="129.506" y1="127.972" x2="135.917" y2="141.904" gradientUnits="userSpaceOnUse">
<stop stop-color="#FE7062"/>
<stop offset="1" stop-color="#FF928E"/>
</linearGradient>
<linearGradient id="paint72_linear_2188_1959" x1="130.922" y1="126.998" x2="133.54" y2="133.807" gradientUnits="userSpaceOnUse">
<stop stop-color="#FE7062"/>
<stop offset="1" stop-color="#FF928E"/>
</linearGradient>
<linearGradient id="paint73_linear_2188_1959" x1="132.07" y1="128.656" x2="136.66" y2="140.592" gradientUnits="userSpaceOnUse">
<stop stop-color="#FE7062"/>
<stop offset="1" stop-color="#FF928E"/>
</linearGradient>
<linearGradient id="paint74_linear_2188_1959" x1="129.368" y1="129.583" x2="136.203" y2="133.062" gradientUnits="userSpaceOnUse">
<stop stop-color="#FE7062"/>
<stop offset="1" stop-color="#FF928E"/>
</linearGradient>
<linearGradient id="paint75_linear_2188_1959" x1="130.791" y1="129.934" x2="140.915" y2="134.355" gradientUnits="userSpaceOnUse">
<stop stop-color="#FE7062"/>
<stop offset="1" stop-color="#FF928E"/>
</linearGradient>
<linearGradient id="paint76_linear_2188_1959" x1="128.486" y1="131.605" x2="137.146" y2="132.849" gradientUnits="userSpaceOnUse">
<stop stop-color="#FE7062"/>
<stop offset="1" stop-color="#FF928E"/>
</linearGradient>
<linearGradient id="paint77_linear_2188_1959" x1="130.851" y1="131.127" x2="145.748" y2="133.267" gradientUnits="userSpaceOnUse">
<stop stop-color="#FE7062"/>
<stop offset="1" stop-color="#FF928E"/>
</linearGradient>
<linearGradient id="paint78_linear_2188_1959" x1="133.419" y1="130.52" x2="139.431" y2="126.696" gradientUnits="userSpaceOnUse">
<stop stop-color="#FE7062"/>
<stop offset="1" stop-color="#FF928E"/>
</linearGradient>
<linearGradient id="paint79_linear_2188_1959" x1="134.202" y1="129.601" x2="141.931" y2="123.817" gradientUnits="userSpaceOnUse">
<stop stop-color="#FE7062"/>
<stop offset="1" stop-color="#FF928E"/>
</linearGradient>
<linearGradient id="paint80_linear_2188_1959" x1="134.719" y1="134.287" x2="139.848" y2="127.2" gradientUnits="userSpaceOnUse">
<stop stop-color="#FE7062"/>
<stop offset="1" stop-color="#FF928E"/>
</linearGradient>
<linearGradient id="paint81_linear_2188_1959" x1="135.394" y1="131.997" x2="144.174" y2="119.864" gradientUnits="userSpaceOnUse">
<stop stop-color="#FE7062"/>
<stop offset="1" stop-color="#FF928E"/>
</linearGradient>
<linearGradient id="paint82_linear_2188_1959" x1="128.967" y1="123.891" x2="126.721" y2="132.348" gradientUnits="userSpaceOnUse">
<stop stop-color="#FE7062"/>
<stop offset="1" stop-color="#FF928E"/>
</linearGradient>
<linearGradient id="paint83_linear_2188_1959" x1="129.122" y1="126.322" x2="125.224" y2="140.999" gradientUnits="userSpaceOnUse">
<stop stop-color="#FE7062"/>
<stop offset="1" stop-color="#FF928E"/>
</linearGradient>
<linearGradient id="paint84_linear_2188_1959" x1="139.085" y1="126.296" x2="132.7" y2="120.314" gradientUnits="userSpaceOnUse">
<stop stop-color="#FE7062"/>
<stop offset="1" stop-color="#FF928E"/>
</linearGradient>
<linearGradient id="paint85_linear_2188_1959" x1="136.885" y1="125.309" x2="125.879" y2="114.997" gradientUnits="userSpaceOnUse">
<stop stop-color="#FE7062"/>
<stop offset="1" stop-color="#FF928E"/>
</linearGradient>
<linearGradient id="paint86_linear_2188_1959" x1="136.621" y1="127.382" x2="130.907" y2="122.614" gradientUnits="userSpaceOnUse">
<stop stop-color="#FE7062"/>
<stop offset="1" stop-color="#FF928E"/>
</linearGradient>
<linearGradient id="paint87_linear_2188_1959" x1="134.792" y1="126.545" x2="124.941" y2="118.324" gradientUnits="userSpaceOnUse">
<stop stop-color="#FE7062"/>
<stop offset="1" stop-color="#FF928E"/>
</linearGradient>
<linearGradient id="paint88_linear_2188_1959" x1="133.091" y1="125.874" x2="126.49" y2="129.86" gradientUnits="userSpaceOnUse">
<stop stop-color="#FE7062"/>
<stop offset="1" stop-color="#FF928E"/>
</linearGradient>
<linearGradient id="paint89_linear_2188_1959" x1="132.295" y1="126.669" x2="124.379" y2="132.446" gradientUnits="userSpaceOnUse">
<stop stop-color="#FE7062"/>
<stop offset="1" stop-color="#FF928E"/>
</linearGradient>
<linearGradient id="paint90_linear_2188_1959" x1="137.102" y1="132.344" x2="136.649" y2="123.606" gradientUnits="userSpaceOnUse">
<stop stop-color="#FE7062"/>
<stop offset="1" stop-color="#FF928E"/>
</linearGradient>
<linearGradient id="paint91_linear_2188_1959" x1="136.161" y1="129.982" x2="135.355" y2="114.464" gradientUnits="userSpaceOnUse">
<stop stop-color="#FE7062"/>
<stop offset="1" stop-color="#FF928E"/>
</linearGradient>
<linearGradient id="paint92_linear_2188_1959" x1="134.219" y1="121.973" x2="126.008" y2="124.992" gradientUnits="userSpaceOnUse">
<stop stop-color="#FE7062"/>
<stop offset="1" stop-color="#FF928E"/>
</linearGradient>
<linearGradient id="paint93_linear_2188_1959" x1="132.299" y1="123.567" x2="117.905" y2="128.858" gradientUnits="userSpaceOnUse">
<stop stop-color="#FE7062"/>
<stop offset="1" stop-color="#FF928E"/>
</linearGradient>
<linearGradient id="paint94_linear_2188_1959" x1="131.986" y1="134.066" x2="140.011" y2="130.58" gradientUnits="userSpaceOnUse">
<stop stop-color="#FE7062"/>
<stop offset="1" stop-color="#FF928E"/>
</linearGradient>
<linearGradient id="paint95_linear_2188_1959" x1="133.732" y1="132.438" x2="147.462" y2="126.474" gradientUnits="userSpaceOnUse">
<stop stop-color="#FE7062"/>
<stop offset="1" stop-color="#FF928E"/>
</linearGradient>
<linearGradient id="paint96_linear_2188_1959" x1="215.934" y1="81.758" x2="206.531" y2="79.0649" gradientUnits="userSpaceOnUse">
<stop stop-color="#FE7062"/>
<stop offset="1" stop-color="#FF928E"/>
</linearGradient>
<linearGradient id="paint97_linear_2188_1959" x1="213.15" y1="81.9295" x2="196.669" y2="77.2087" gradientUnits="userSpaceOnUse">
<stop stop-color="#FE7062"/>
<stop offset="1" stop-color="#FF928E"/>
</linearGradient>
<linearGradient id="paint98_linear_2188_1959" x1="205.444" y1="88.007" x2="212.567" y2="94.7085" gradientUnits="userSpaceOnUse">
<stop stop-color="#FE7062"/>
<stop offset="1" stop-color="#FF928E"/>
</linearGradient>
<linearGradient id="paint99_linear_2188_1959" x1="207.998" y1="89.1298" x2="220.485" y2="100.877" gradientUnits="userSpaceOnUse">
<stop stop-color="#FE7062"/>
<stop offset="1" stop-color="#FF928E"/>
</linearGradient>
<linearGradient id="paint100_linear_2188_1959" x1="218.109" y1="89.0941" x2="215.155" y2="79.7707" gradientUnits="userSpaceOnUse">
<stop stop-color="#FE7062"/>
<stop offset="1" stop-color="#FF928E"/>
</linearGradient>
<linearGradient id="paint101_linear_2188_1959" x1="216.428" y1="86.87" x2="211.25" y2="70.5271" gradientUnits="userSpaceOnUse">
<stop stop-color="#FE7062"/>
<stop offset="1" stop-color="#FF928E"/>
</linearGradient>
<linearGradient id="paint102_linear_2188_1959" x1="212.398" y1="81.2644" x2="210.111" y2="98.1622" gradientUnits="userSpaceOnUse">
<stop stop-color="#E1473D"/>
<stop offset="1" stop-color="#E9605A"/>
</linearGradient>
<linearGradient id="paint103_linear_2188_1959" x1="208.362" y1="88.7231" x2="204.821" y2="97.8397" gradientUnits="userSpaceOnUse">
<stop stop-color="#FE7062"/>
<stop offset="1" stop-color="#FF928E"/>
</linearGradient>
<linearGradient id="paint104_linear_2188_1959" x1="211.858" y1="89.5429" x2="208.317" y2="98.6596" gradientUnits="userSpaceOnUse">
<stop stop-color="#FE7062"/>
<stop offset="1" stop-color="#FF928E"/>
</linearGradient>
<linearGradient id="paint105_linear_2188_1959" x1="210.163" y1="85.139" x2="206.622" y2="94.2557" gradientUnits="userSpaceOnUse">
<stop stop-color="#FE7062"/>
<stop offset="1" stop-color="#FF928E"/>
</linearGradient>
<linearGradient id="paint106_linear_2188_1959" x1="214.714" y1="86.6567" x2="211.172" y2="95.7733" gradientUnits="userSpaceOnUse">
<stop stop-color="#FE7062"/>
<stop offset="1" stop-color="#FF928E"/>
</linearGradient>
<linearGradient id="paint107_linear_2188_1959" x1="212.546" y1="92.432" x2="209.005" y2="101.549" gradientUnits="userSpaceOnUse">
<stop stop-color="#FE7062"/>
<stop offset="1" stop-color="#FF928E"/>
</linearGradient>
<linearGradient id="paint108_linear_2188_1959" x1="207.846" y1="92.432" x2="204.305" y2="101.549" gradientUnits="userSpaceOnUse">
<stop stop-color="#FE7062"/>
<stop offset="1" stop-color="#FF928E"/>
</linearGradient>
<linearGradient id="paint109_linear_2188_1959" x1="209.72" y1="80.7016" x2="203.904" y2="88.5647" gradientUnits="userSpaceOnUse">
<stop stop-color="#FE7062"/>
<stop offset="1" stop-color="#FF928E"/>
</linearGradient>
<linearGradient id="paint110_linear_2188_1959" x1="208.908" y1="83.3688" x2="198.713" y2="97.1521" gradientUnits="userSpaceOnUse">
<stop stop-color="#FE7062"/>
<stop offset="1" stop-color="#FF928E"/>
</linearGradient>
<linearGradient id="paint111_linear_2188_1959" x1="205.663" y1="85.0599" x2="209.752" y2="93.9445" gradientUnits="userSpaceOnUse">
<stop stop-color="#FE7062"/>
<stop offset="1" stop-color="#FF928E"/>
</linearGradient>
<linearGradient id="paint112_linear_2188_1959" x1="207.541" y1="87.0899" x2="214.708" y2="102.664" gradientUnits="userSpaceOnUse">
<stop stop-color="#FE7062"/>
<stop offset="1" stop-color="#FF928E"/>
</linearGradient>
<linearGradient id="paint113_linear_2188_1959" x1="209.124" y1="86.0011" x2="212.05" y2="93.6129" gradientUnits="userSpaceOnUse">
<stop stop-color="#FE7062"/>
<stop offset="1" stop-color="#FF928E"/>
</linearGradient>
<linearGradient id="paint114_linear_2188_1959" x1="210.409" y1="87.8555" x2="215.538" y2="101.198" gradientUnits="userSpaceOnUse">
<stop stop-color="#FE7062"/>
<stop offset="1" stop-color="#FF928E"/>
</linearGradient>
<linearGradient id="paint115_linear_2188_1959" x1="207.386" y1="88.8912" x2="215.027" y2="92.7804" gradientUnits="userSpaceOnUse">
<stop stop-color="#FE7062"/>
<stop offset="1" stop-color="#FF928E"/>
</linearGradient>
<linearGradient id="paint116_linear_2188_1959" x1="208.977" y1="89.2833" x2="220.294" y2="94.2255" gradientUnits="userSpaceOnUse">
<stop stop-color="#FE7062"/>
<stop offset="1" stop-color="#FF928E"/>
</linearGradient>
<linearGradient id="paint117_linear_2188_1959" x1="206.403" y1="91.1513" x2="216.084" y2="92.5426" gradientUnits="userSpaceOnUse">
<stop stop-color="#FE7062"/>
<stop offset="1" stop-color="#FF928E"/>
</linearGradient>
<linearGradient id="paint118_linear_2188_1959" x1="209.045" y1="90.6166" x2="225.697" y2="93.0097" gradientUnits="userSpaceOnUse">
<stop stop-color="#FE7062"/>
<stop offset="1" stop-color="#FF928E"/>
</linearGradient>
<linearGradient id="paint119_linear_2188_1959" x1="211.917" y1="89.9387" x2="218.636" y2="85.6649" gradientUnits="userSpaceOnUse">
<stop stop-color="#FE7062"/>
<stop offset="1" stop-color="#FF928E"/>
</linearGradient>
<linearGradient id="paint120_linear_2188_1959" x1="212.79" y1="88.9117" x2="221.43" y2="82.4463" gradientUnits="userSpaceOnUse">
<stop stop-color="#FE7062"/>
<stop offset="1" stop-color="#FF928E"/>
</linearGradient>
<linearGradient id="paint121_linear_2188_1959" x1="213.369" y1="94.1496" x2="219.104" y2="86.2267" gradientUnits="userSpaceOnUse">
<stop stop-color="#FE7062"/>
<stop offset="1" stop-color="#FF928E"/>
</linearGradient>
<linearGradient id="paint122_linear_2188_1959" x1="214.123" y1="91.5891" x2="223.938" y2="78.0273" gradientUnits="userSpaceOnUse">
<stop stop-color="#FE7062"/>
<stop offset="1" stop-color="#FF928E"/>
</linearGradient>
<linearGradient id="paint123_linear_2188_1959" x1="206.94" y1="82.5289" x2="204.43" y2="91.9815" gradientUnits="userSpaceOnUse">
<stop stop-color="#FE7062"/>
<stop offset="1" stop-color="#FF928E"/>
</linearGradient>
<linearGradient id="paint124_linear_2188_1959" x1="207.114" y1="85.2457" x2="202.757" y2="101.653" gradientUnits="userSpaceOnUse">
<stop stop-color="#FE7062"/>
<stop offset="1" stop-color="#FF928E"/>
</linearGradient>
<linearGradient id="paint125_linear_2188_1959" x1="218.246" y1="85.2169" x2="211.108" y2="78.53" gradientUnits="userSpaceOnUse">
<stop stop-color="#FE7062"/>
<stop offset="1" stop-color="#FF928E"/>
</linearGradient>
<linearGradient id="paint126_linear_2188_1959" x1="215.787" y1="84.1137" x2="203.484" y2="72.5865" gradientUnits="userSpaceOnUse">
<stop stop-color="#FE7062"/>
<stop offset="1" stop-color="#FF928E"/>
</linearGradient>
<linearGradient id="paint127_linear_2188_1959" x1="215.494" y1="86.4312" x2="209.107" y2="81.1006" gradientUnits="userSpaceOnUse">
<stop stop-color="#FE7062"/>
<stop offset="1" stop-color="#FF928E"/>
</linearGradient>
<linearGradient id="paint128_linear_2188_1959" x1="213.452" y1="85.4955" x2="202.441" y2="76.3063" gradientUnits="userSpaceOnUse">
<stop stop-color="#FE7062"/>
<stop offset="1" stop-color="#FF928E"/>
</linearGradient>
<linearGradient id="paint129_linear_2188_1959" x1="211.55" y1="84.7454" x2="204.171" y2="89.2" gradientUnits="userSpaceOnUse">
<stop stop-color="#FE7062"/>
<stop offset="1" stop-color="#FF928E"/>
</linearGradient>
<linearGradient id="paint130_linear_2188_1959" x1="210.66" y1="85.6334" x2="201.811" y2="92.0915" gradientUnits="userSpaceOnUse">
<stop stop-color="#FE7062"/>
<stop offset="1" stop-color="#FF928E"/>
</linearGradient>
<linearGradient id="paint131_linear_2188_1959" x1="216.034" y1="91.9773" x2="215.527" y2="82.2102" gradientUnits="userSpaceOnUse">
<stop stop-color="#FE7062"/>
<stop offset="1" stop-color="#FF928E"/>
</linearGradient>
<linearGradient id="paint132_linear_2188_1959" x1="214.981" y1="89.3369" x2="214.081" y2="71.9901" gradientUnits="userSpaceOnUse">
<stop stop-color="#FE7062"/>
<stop offset="1" stop-color="#FF928E"/>
</linearGradient>
<linearGradient id="paint133_linear_2188_1959" x1="212.808" y1="80.3848" x2="203.629" y2="83.7594" gradientUnits="userSpaceOnUse">
<stop stop-color="#FE7062"/>
<stop offset="1" stop-color="#FF928E"/>
</linearGradient>
<linearGradient id="paint134_linear_2188_1959" x1="210.664" y1="82.1659" x2="194.573" y2="88.0813" gradientUnits="userSpaceOnUse">
<stop stop-color="#FE7062"/>
<stop offset="1" stop-color="#FF928E"/>
</linearGradient>
<linearGradient id="paint135_linear_2188_1959" x1="210.313" y1="93.9021" x2="219.284" y2="90.0053" gradientUnits="userSpaceOnUse">
<stop stop-color="#FE7062"/>
<stop offset="1" stop-color="#FF928E"/>
</linearGradient>
<linearGradient id="paint136_linear_2188_1959" x1="212.265" y1="92.0829" x2="227.614" y2="85.4152" gradientUnits="userSpaceOnUse">
<stop stop-color="#FE7062"/>
<stop offset="1" stop-color="#FF928E"/>
</linearGradient>
<linearGradient id="paint137_linear_2188_1959" x1="146.344" y1="72.7276" x2="132.228" y2="68.6845" gradientUnits="userSpaceOnUse">
<stop stop-color="#FE7062"/>
<stop offset="1" stop-color="#FF928E"/>
</linearGradient>
<linearGradient id="paint138_linear_2188_1959" x1="142.147" y1="72.9661" x2="117.348" y2="65.8628" gradientUnits="userSpaceOnUse">
<stop stop-color="#FE7062"/>
<stop offset="1" stop-color="#FF928E"/>
</linearGradient>
<linearGradient id="paint139_linear_2188_1959" x1="130.542" y1="81.9638" x2="141.147" y2="91.9402" gradientUnits="userSpaceOnUse">
<stop stop-color="#FE7062"/>
<stop offset="1" stop-color="#FF928E"/>
</linearGradient>
<linearGradient id="paint140_linear_2188_1959" x1="134.388" y1="83.648" x2="153.055" y2="101.21" gradientUnits="userSpaceOnUse">
<stop stop-color="#FE7062"/>
<stop offset="1" stop-color="#FF928E"/>
</linearGradient>
<linearGradient id="paint141_linear_2188_1959" x1="149.632" y1="83.5334" x2="145.276" y2="69.7869" gradientUnits="userSpaceOnUse">
<stop stop-color="#FE7062"/>
<stop offset="1" stop-color="#FF928E"/>
</linearGradient>
<linearGradient id="paint142_linear_2188_1959" x1="147.109" y1="80.2427" x2="139.455" y2="56.0868" gradientUnits="userSpaceOnUse">
<stop stop-color="#FE7062"/>
<stop offset="1" stop-color="#FF928E"/>
</linearGradient>
<linearGradient id="paint143_linear_2188_1959" x1="140.996" y1="72.0144" x2="137.629" y2="96.8884" gradientUnits="userSpaceOnUse">
<stop stop-color="#E1473D"/>
<stop offset="1" stop-color="#E9605A"/>
</linearGradient>
<linearGradient id="paint144_linear_2188_1959" x1="134.974" y1="83.0011" x2="129.748" y2="96.4546" gradientUnits="userSpaceOnUse">
<stop stop-color="#FE7062"/>
<stop offset="1" stop-color="#FF928E"/>
</linearGradient>
<linearGradient id="paint145_linear_2188_1959" x1="140.231" y1="84.2076" x2="135.006" y2="97.6611" gradientUnits="userSpaceOnUse">
<stop stop-color="#FE7062"/>
<stop offset="1" stop-color="#FF928E"/>
</linearGradient>
<linearGradient id="paint146_linear_2188_1959" x1="137.681" y1="77.7272" x2="132.455" y2="91.1807" gradientUnits="userSpaceOnUse">
<stop stop-color="#FE7062"/>
<stop offset="1" stop-color="#FF928E"/>
</linearGradient>
<linearGradient id="paint147_linear_2188_1959" x1="144.528" y1="79.9602" x2="139.303" y2="93.4136" gradientUnits="userSpaceOnUse">
<stop stop-color="#FE7062"/>
<stop offset="1" stop-color="#FF928E"/>
</linearGradient>
<linearGradient id="paint148_linear_2188_1959" x1="141.263" y1="88.4586" x2="136.037" y2="101.912" gradientUnits="userSpaceOnUse">
<stop stop-color="#FE7062"/>
<stop offset="1" stop-color="#FF928E"/>
</linearGradient>
<linearGradient id="paint149_linear_2188_1959" x1="134.196" y1="88.4587" x2="128.971" y2="101.912" gradientUnits="userSpaceOnUse">
<stop stop-color="#FE7062"/>
<stop offset="1" stop-color="#FF928E"/>
</linearGradient>
<linearGradient id="paint150_linear_2188_1959" x1="137.019" y1="71.2088" x2="128.395" y2="82.8693" gradientUnits="userSpaceOnUse">
<stop stop-color="#FE7062"/>
<stop offset="1" stop-color="#FF928E"/>
</linearGradient>
<linearGradient id="paint151_linear_2188_1959" x1="135.825" y1="75.1243" x2="120.77" y2="95.4784" gradientUnits="userSpaceOnUse">
<stop stop-color="#FE7062"/>
<stop offset="1" stop-color="#FF928E"/>
</linearGradient>
<linearGradient id="paint152_linear_2188_1959" x1="130.872" y1="77.6136" x2="136.912" y2="90.7372" gradientUnits="userSpaceOnUse">
<stop stop-color="#FE7062"/>
<stop offset="1" stop-color="#FF928E"/>
</linearGradient>
<linearGradient id="paint153_linear_2188_1959" x1="133.687" y1="80.6258" x2="144.308" y2="103.705" gradientUnits="userSpaceOnUse">
<stop stop-color="#FE7062"/>
<stop offset="1" stop-color="#FF928E"/>
</linearGradient>
<linearGradient id="paint154_linear_2188_1959" x1="136.084" y1="78.9921" x2="140.398" y2="90.213" gradientUnits="userSpaceOnUse">
<stop stop-color="#FE7062"/>
<stop offset="1" stop-color="#FF928E"/>
</linearGradient>
<linearGradient id="paint155_linear_2188_1959" x1="138.011" y1="81.741" x2="145.598" y2="101.476" gradientUnits="userSpaceOnUse">
<stop stop-color="#FE7062"/>
<stop offset="1" stop-color="#FF928E"/>
</linearGradient>
<linearGradient id="paint156_linear_2188_1959" x1="133.474" y1="83.2637" x2="144.903" y2="89.0814" gradientUnits="userSpaceOnUse">
<stop stop-color="#FE7062"/>
<stop offset="1" stop-color="#FF928E"/>
</linearGradient>
<linearGradient id="paint157_linear_2188_1959" x1="135.876" y1="83.8661" x2="152.873" y2="91.2887" gradientUnits="userSpaceOnUse">
<stop stop-color="#FE7062"/>
<stop offset="1" stop-color="#FF928E"/>
</linearGradient>
<linearGradient id="paint158_linear_2188_1959" x1="132.005" y1="86.5756" x2="146.556" y2="88.6667" gradientUnits="userSpaceOnUse">
<stop stop-color="#FE7062"/>
<stop offset="1" stop-color="#FF928E"/>
</linearGradient>
<linearGradient id="paint159_linear_2188_1959" x1="135.988" y1="85.7947" x2="161.05" y2="89.3965" gradientUnits="userSpaceOnUse">
<stop stop-color="#FE7062"/>
<stop offset="1" stop-color="#FF928E"/>
</linearGradient>
<linearGradient id="paint160_linear_2188_1959" x1="140.287" y1="84.7621" x2="150.334" y2="78.3719" gradientUnits="userSpaceOnUse">
<stop stop-color="#FE7062"/>
<stop offset="1" stop-color="#FF928E"/>
</linearGradient>
<linearGradient id="paint161_linear_2188_1959" x1="141.574" y1="83.2596" x2="154.42" y2="73.6466" gradientUnits="userSpaceOnUse">
<stop stop-color="#FE7062"/>
<stop offset="1" stop-color="#FF928E"/>
</linearGradient>
<linearGradient id="paint162_linear_2188_1959" x1="142.456" y1="90.9593" x2="150.957" y2="79.2126" gradientUnits="userSpaceOnUse">
<stop stop-color="#FE7062"/>
<stop offset="1" stop-color="#FF928E"/>
</linearGradient>
<linearGradient id="paint163_linear_2188_1959" x1="143.558" y1="87.2045" x2="158.042" y2="67.1916" gradientUnits="userSpaceOnUse">
<stop stop-color="#FE7062"/>
<stop offset="1" stop-color="#FF928E"/>
</linearGradient>
<linearGradient id="paint164_linear_2188_1959" x1="132.827" y1="73.8827" x2="129.128" y2="87.8119" gradientUnits="userSpaceOnUse">
<stop stop-color="#FE7062"/>
<stop offset="1" stop-color="#FF928E"/>
</linearGradient>
<linearGradient id="paint165_linear_2188_1959" x1="133.098" y1="77.869" x2="126.692" y2="101.991" gradientUnits="userSpaceOnUse">
<stop stop-color="#FE7062"/>
<stop offset="1" stop-color="#FF928E"/>
</linearGradient>
<linearGradient id="paint166_linear_2188_1959" x1="149.841" y1="77.8101" x2="139.216" y2="67.8553" gradientUnits="userSpaceOnUse">
<stop stop-color="#FE7062"/>
<stop offset="1" stop-color="#FF928E"/>
</linearGradient>
<linearGradient id="paint167_linear_2188_1959" x1="146.132" y1="76.1527" x2="127.731" y2="58.9125" gradientUnits="userSpaceOnUse">
<stop stop-color="#FE7062"/>
<stop offset="1" stop-color="#FF928E"/>
</linearGradient>
<linearGradient id="paint168_linear_2188_1959" x1="145.692" y1="79.5989" x2="136.184" y2="71.6636" gradientUnits="userSpaceOnUse">
<stop stop-color="#FE7062"/>
<stop offset="1" stop-color="#FF928E"/>
</linearGradient>
<linearGradient id="paint169_linear_2188_1959" x1="142.612" y1="78.1883" x2="126.134" y2="64.4374" gradientUnits="userSpaceOnUse">
<stop stop-color="#FE7062"/>
<stop offset="1" stop-color="#FF928E"/>
</linearGradient>
<linearGradient id="paint170_linear_2188_1959" x1="139.756" y1="77.1596" x2="128.714" y2="83.8263" gradientUnits="userSpaceOnUse">
<stop stop-color="#FE7062"/>
<stop offset="1" stop-color="#FF928E"/>
</linearGradient>
<linearGradient id="paint171_linear_2188_1959" x1="138.443" y1="78.456" x2="125.277" y2="88.0642" gradientUnits="userSpaceOnUse">
<stop stop-color="#FE7062"/>
<stop offset="1" stop-color="#FF928E"/>
</linearGradient>
<linearGradient id="paint172_linear_2188_1959" x1="146.493" y1="87.7806" x2="145.747" y2="73.4082" gradientUnits="userSpaceOnUse">
<stop stop-color="#FE7062"/>
<stop offset="1" stop-color="#FF928E"/>
</linearGradient>
<linearGradient id="paint173_linear_2188_1959" x1="144.913" y1="83.8927" x2="143.587" y2="58.3542" gradientUnits="userSpaceOnUse">
<stop stop-color="#FE7062"/>
<stop offset="1" stop-color="#FF928E"/>
</linearGradient>
<linearGradient id="paint174_linear_2188_1959" x1="141.646" y1="70.7441" x2="127.878" y2="75.8058" gradientUnits="userSpaceOnUse">
<stop stop-color="#FE7062"/>
<stop offset="1" stop-color="#FF928E"/>
</linearGradient>
<linearGradient id="paint175_linear_2188_1959" x1="138.442" y1="73.3709" x2="114.374" y2="82.2187" gradientUnits="userSpaceOnUse">
<stop stop-color="#FE7062"/>
<stop offset="1" stop-color="#FF928E"/>
</linearGradient>
<linearGradient id="paint176_linear_2188_1959" x1="137.876" y1="90.5917" x2="151.319" y2="84.7518" gradientUnits="userSpaceOnUse">
<stop stop-color="#FE7062"/>
<stop offset="1" stop-color="#FF928E"/>
</linearGradient>
<linearGradient id="paint177_linear_2188_1959" x1="140.787" y1="87.9112" x2="163.707" y2="77.9543" gradientUnits="userSpaceOnUse">
<stop stop-color="#FE7062"/>
<stop offset="1" stop-color="#FF928E"/>
</linearGradient>
<clipPath id="clip0_2188_1959">
<rect width="440" height="440" fill="white"/>
</clipPath>
</defs>
</svg>
