<svg width="440" height="360" viewBox="0 0 440 360" fill="none" xmlns="http://www.w3.org/2000/svg">
<g clip-path="url(#clip0_2188_1751)">
<rect width="440" height="360" fill="white"/>
<g opacity="0.5">
<path opacity="0.5" d="M219.158 294.961C293.981 294.961 354.637 292.789 354.637 290.108C354.637 287.428 293.981 285.256 219.158 285.256C144.335 285.256 83.6797 287.428 83.6797 290.108C83.6797 292.789 144.335 294.961 219.158 294.961Z" fill="#FF8D8D"/>
<g opacity="0.3">
<path opacity="0.8" d="M219.183 289.719C287.987 289.719 343.764 234.041 343.764 165.359C343.764 96.6777 287.987 41 219.183 41C150.379 41 94.6016 96.6777 94.6016 165.359C94.6016 234.041 150.379 289.719 219.183 289.719Z" fill="#FF8D8D"/>
<path opacity="0.6" d="M173.314 268.172C201.82 239.717 201.82 193.583 173.314 165.128C144.809 136.673 98.5921 136.673 70.0864 165.128C41.5806 193.583 41.5806 239.717 70.0864 268.172C98.5921 296.627 144.809 296.627 173.314 268.172Z" fill="#FF8D8D"/>
<path opacity="0.6" d="M368.219 268.174C396.728 239.719 396.728 193.584 368.219 165.129C339.715 136.674 293.498 136.674 264.993 165.129C236.487 193.584 236.487 239.719 264.993 268.174C293.498 296.629 339.715 296.629 368.219 268.174Z" fill="#FF8D8D"/>
<path opacity="0.5" d="M374.957 177.767C394.485 158.272 394.485 126.663 374.957 107.168C355.425 87.6726 323.76 87.6726 304.23 107.168C284.699 126.663 284.699 158.272 304.23 177.767C323.76 197.262 355.425 197.262 374.957 177.767Z" fill="#FF8D8D"/>
<path opacity="0.5" d="M134.08 177.765C153.61 158.27 153.61 126.661 134.08 107.166C114.549 87.6706 82.8848 87.6706 63.3548 107.166C43.8244 126.661 43.8244 158.27 63.3548 177.765C82.8848 197.26 114.549 197.26 134.08 177.765Z" fill="#FF8D8D"/>
</g>
</g>
<g opacity="0.5">
<g opacity="0.8">
<path opacity="0.8" d="M84.6761 207.348C84.5322 207.348 84.3882 207.289 84.2861 207.188C83.9263 206.828 84.2165 206.461 84.5238 206.071C84.7163 205.827 85.0098 205.468 85.3964 205.005C86.1061 204.153 87.1367 202.938 88.5466 201.291C91.1648 198.232 94.7424 194.089 98.2021 190.083C100.507 187.414 102.922 184.618 105.093 182.096C102.818 184.405 100.307 186.966 97.9102 189.411C81.4306 206.22 81.2826 206.221 80.8435 206.223C80.6985 206.225 80.5502 206.164 80.4478 206.062C80.087 205.701 80.3882 205.316 80.6302 205.007C80.7943 204.797 81.0359 204.503 81.369 204.107C81.9735 203.389 82.8615 202.358 84.084 200.956C86.3685 198.337 89.5076 194.779 92.8311 191.013C96.8508 186.457 101.652 181.016 105.368 176.737C102.424 179.723 98.897 183.339 95.5695 186.75C91.1661 191.263 86.6132 195.93 83.143 199.425C77.1782 205.431 76.9586 205.433 76.6259 205.435C76.6249 205.435 76.6236 205.435 76.6225 205.435C76.4783 205.435 76.325 205.373 76.2232 205.271C75.7931 204.841 76.1047 204.467 77.4162 202.894C78.2041 201.949 79.3596 200.609 80.9489 198.798C83.9022 195.432 87.8118 191.054 91.9507 186.419C95.5454 182.393 99.5641 177.893 102.81 174.206C99.1554 177.887 94.6276 182.499 90.5874 186.614C74.1382 203.37 74.0374 203.371 73.613 203.373C73.6123 203.373 73.6113 203.373 73.6103 203.373C73.4661 203.373 73.3218 203.314 73.22 203.212C72.7929 202.786 73.0547 202.475 74.5077 200.75C75.3472 199.754 76.5743 198.341 78.2594 196.43C81.3881 192.881 85.687 188.081 89.8446 183.44C93.0001 179.917 96.3243 176.205 99.202 172.967C96.6758 175.534 93.8731 178.396 91.1989 181.128C72.4953 200.233 71.4349 201.145 70.903 201.148C70.7645 201.146 70.6058 201.087 70.503 200.985C70.0773 200.56 70.3444 200.243 71.8279 198.487C72.6875 197.469 73.9424 196.026 75.6646 194.073C78.8612 190.449 83.2374 185.561 87.4697 180.834C90.7116 177.213 94.1322 173.393 97.0597 170.097C93.3181 173.862 88.8528 178.391 84.8371 182.465C68.7698 198.762 68.7193 198.762 68.326 198.764C68.1831 198.775 68.0388 198.707 67.9364 198.604C67.542 198.211 67.8818 197.765 68.3518 197.147C68.6845 196.71 69.1976 196.078 69.8771 195.267C71.1086 193.798 72.88 191.747 75.293 188.998C79.7121 183.964 85.4048 177.59 90.4274 171.965C90.4368 171.954 90.4468 171.943 90.4562 171.933C89.9892 172.409 89.5203 172.887 89.0533 173.363C84.1435 178.37 78.5787 184.045 74.2878 188.352C66.821 195.848 66.5777 195.849 66.2406 195.851C66.24 195.851 66.2389 195.851 66.2379 195.851C66.0937 195.851 65.9417 195.789 65.84 195.687C65.4721 195.32 65.7884 194.916 66.0672 194.559C66.2647 194.306 66.5563 193.952 66.9586 193.478C67.6877 192.618 68.7558 191.39 70.2239 189.724C72.96 186.619 76.6433 182.494 80.5429 178.127C84.4833 173.714 88.895 168.774 92.4294 164.764C89.3747 167.862 85.7579 171.566 82.3414 175.067C65.691 192.123 64.8013 192.883 64.2851 192.886C64.1365 192.885 63.9879 192.826 63.8851 192.723C63.463 192.302 63.7452 191.964 65.1002 190.341C65.8945 189.39 67.055 188.041 68.648 186.217C71.6046 182.832 75.6555 178.268 79.5728 173.854C82.3959 170.673 85.3666 167.326 87.9658 164.376C85.1474 167.219 81.9397 170.471 78.8903 173.562C62.8863 189.784 62.8257 189.785 62.4297 189.786C62.4291 189.786 62.4284 189.786 62.4277 189.786C62.2838 189.786 62.1419 189.728 62.0398 189.626C61.6605 189.247 61.8487 189.025 62.7524 187.954C63.2241 187.395 63.9196 186.586 64.8783 185.483C66.6774 183.412 69.2204 180.513 71.9123 177.445C76.2329 172.52 81.8329 166.136 85.8781 161.426C82.0672 165.244 77.1049 170.292 72.9733 174.496C62.4639 185.187 62.4639 185.187 62.1094 185.189C62.1087 185.189 62.1077 185.189 62.1071 185.189C61.9631 185.189 61.8229 185.131 61.7211 185.03C61.3616 184.671 61.6425 184.303 61.9678 183.878C62.1717 183.611 62.4833 183.221 62.8937 182.717C63.6428 181.798 64.7243 180.496 66.2008 178.739C68.9261 175.494 72.498 171.288 75.9521 167.221C77.3265 165.603 78.7133 163.97 80.0147 162.435C78.2095 164.275 76.2895 166.243 74.5107 168.067C62.2112 180.674 62.098 180.675 61.6769 180.678C61.5226 180.67 61.383 180.619 61.2803 180.516C60.899 180.136 61.0965 179.879 62.0448 178.645C62.5593 177.975 63.3091 177.026 64.337 175.744C66.241 173.368 68.8197 170.198 71.3138 167.132C72.6071 165.541 73.9531 163.887 75.209 162.338C74.7554 162.802 74.2965 163.272 73.84 163.739C63.041 174.796 62.9184 174.797 62.5134 174.799C62.3692 174.79 62.2195 174.74 62.1168 174.637C61.7794 174.301 61.9829 173.976 62.4287 173.265C62.6825 172.86 63.054 172.289 63.5645 171.519C64.5077 170.097 65.7844 168.209 67.0189 166.384C67.5866 165.545 68.1754 164.674 68.7327 163.847C67.0423 165.558 67.0031 165.558 66.7722 165.559C66.7715 165.559 66.7705 165.559 66.7698 165.559C66.6259 165.559 66.4866 165.501 66.3849 165.4C66.173 165.188 66.173 164.845 66.3849 164.634C66.413 164.605 66.4438 164.581 66.4759 164.56C66.7367 164.33 68.1653 162.878 69.2177 161.809C71.7499 159.237 71.7499 159.237 72.014 159.236C72.1643 159.238 72.2985 159.292 72.401 159.395C72.734 159.727 72.5312 160.049 72.1275 160.69C71.8992 161.052 71.5641 161.566 71.1032 162.26C70.2487 163.546 69.1169 165.219 67.9189 166.991C67.06 168.26 66.1154 169.657 65.2856 170.895C67.5099 168.668 70.5573 165.548 73.063 162.982C80.8254 155.034 80.8471 155.034 81.2063 155.032C81.3452 155.032 81.4948 155.089 81.5973 155.192C81.9738 155.568 81.766 155.838 80.8907 156.974C80.4123 157.594 79.7144 158.477 78.7561 159.672C76.977 161.89 74.5271 164.902 72.1576 167.815C70.4381 169.929 68.5509 172.249 66.8833 174.313C68.98 172.184 71.4225 169.68 73.7342 167.311C86.6671 154.054 86.7986 154.053 87.2344 154.05C87.3683 154.05 87.5297 154.11 87.6321 154.213C87.9849 154.565 87.6967 154.934 87.4654 155.231C87.3161 155.423 87.0925 155.7 86.8036 156.052C86.2637 156.71 85.4761 157.653 84.3949 158.937C82.3789 161.331 79.6599 164.533 76.7815 167.922C74.4649 170.65 71.935 173.629 69.6605 176.32C70.486 175.481 71.3392 174.613 72.2005 173.737C91.0028 154.608 91.1906 154.607 91.6438 154.605C91.6445 154.605 91.6455 154.605 91.6461 154.605C91.7901 154.605 91.9377 154.665 92.0398 154.767C92.4237 155.151 92.1024 155.582 91.6957 156.128C91.4095 156.512 90.9683 157.066 90.3842 157.777C89.3265 159.064 87.8041 160.859 85.7305 163.264C81.9337 167.669 77.045 173.241 72.7313 178.158C72.4699 178.456 72.2092 178.753 71.9497 179.049C73.9534 177.023 76.0749 174.872 78.1184 172.801C95.4624 155.22 95.5578 155.219 95.9598 155.218C96.1138 155.226 96.2483 155.276 96.3504 155.378C96.7748 155.801 96.4877 156.146 95.1086 157.799C94.2975 158.772 93.1133 160.149 91.4878 162.01C88.4729 165.462 84.3625 170.094 80.3872 174.573C77.4483 177.884 74.3477 181.378 71.6897 184.397C74.7005 181.343 78.2282 177.729 81.5655 174.31C98.1804 157.29 99.0681 156.532 99.5829 156.529C99.5839 156.529 99.5852 156.529 99.5862 156.529C99.7305 156.529 99.8811 156.59 99.9832 156.692C100.407 157.115 100.203 157.393 98.4806 159.447C97.5109 160.603 96.102 162.233 94.1733 164.428C90.6108 168.484 85.9056 173.753 81.3553 178.849C78.801 181.709 76.2148 184.605 73.941 187.165C78.2975 182.785 83.7181 177.257 88.2794 172.606C101.967 158.648 102.008 158.648 102.4 158.645C102.401 158.645 102.402 158.645 102.403 158.645C102.547 158.645 102.688 158.704 102.791 158.805C103.151 159.166 102.844 159.546 102.619 159.824C102.469 160.01 102.242 160.279 101.947 160.621C101.395 161.263 100.582 162.191 99.4614 163.458C97.3576 165.836 94.3862 169.164 91.2401 172.686C86.4709 178.027 80.3655 184.864 75.7295 190.15C78.2718 187.582 81.1872 184.625 84.0659 181.705C104.532 160.945 104.678 160.944 105.113 160.943C105.261 160.947 105.404 161.002 105.506 161.104C105.934 161.531 105.663 161.853 104.156 163.637C103.281 164.674 102.003 166.145 100.251 168.132C97.0001 171.819 92.568 176.769 88.2815 181.556C84.9663 185.259 81.4604 189.175 78.5061 192.503C82.1395 188.834 86.5061 184.373 90.4251 180.371C106.981 163.46 107.1 163.459 107.544 163.456C107.692 163.459 107.837 163.516 107.939 163.618C108.373 164.05 108.065 164.416 106.588 166.172C105.708 167.218 104.424 168.699 102.662 170.699C99.3948 174.407 94.9526 179.366 90.6564 184.163C87.8868 187.255 84.9824 190.497 82.3919 193.407C84.7601 191.005 87.3422 188.374 89.8142 185.856C108.161 167.167 109.119 166.335 109.61 166.332C109.611 166.332 109.612 166.332 109.613 166.332C109.757 166.332 109.905 166.392 110.006 166.494C110.436 166.924 110.14 167.314 108.67 169.087C107.789 170.148 106.503 171.645 104.735 173.662C101.463 177.399 97.0403 182.351 92.7635 187.14C89.6853 190.587 86.4307 194.232 83.6893 197.332C87.0744 193.907 91.1437 189.735 94.7936 185.994C110.612 169.779 111.395 169.109 111.894 169.105C111.895 169.105 111.896 169.105 111.897 169.105C112.041 169.105 112.191 169.166 112.293 169.268C112.711 169.686 112.512 169.981 110.756 172.104C109.766 173.3 108.332 174.98 106.374 177.237C102.769 181.394 98.1318 186.648 93.6478 191.729C92.2627 193.299 90.8672 194.88 89.5374 196.39C92.0033 193.888 94.6751 191.163 97.136 188.653C112.329 173.156 112.442 173.155 112.861 173.153C113.014 173.162 113.153 173.212 113.255 173.314C113.616 173.674 113.335 174.03 113.01 174.443C112.812 174.694 112.511 175.063 112.113 175.54C111.384 176.415 110.327 177.662 108.88 179.352C106.196 182.489 102.552 186.709 99.0269 190.79C96.9884 193.151 94.8622 195.613 92.904 197.886C94.343 196.421 95.8403 194.893 97.2887 193.414C112.807 177.575 112.956 177.574 113.398 177.572C113.399 177.572 113.4 177.572 113.401 177.572C113.545 177.572 113.693 177.632 113.794 177.734C114.146 178.084 113.858 178.463 113.627 178.767C113.473 178.969 113.242 179.261 112.945 179.631C112.389 180.319 111.58 181.303 110.472 182.639C108.41 185.124 105.68 188.379 102.791 191.827C100.526 194.528 98.0271 197.509 95.8694 200.099C98.5918 197.351 101.779 194.1 104.503 191.32C113.534 182.104 113.541 182.104 113.898 182.102C113.899 182.102 113.9 182.102 113.901 182.102C114.045 182.102 114.186 182.16 114.287 182.262C114.631 182.605 114.365 182.974 114.13 183.299C113.978 183.51 113.749 183.814 113.456 184.196C112.912 184.905 112.126 185.909 111.055 187.265C109.076 189.768 106.487 193.011 103.982 196.148C103.257 197.056 102.526 197.971 101.819 198.857C112.338 188.167 112.416 188.167 112.784 188.165C112.785 188.165 112.786 188.165 112.787 188.165C112.931 188.165 113.074 188.224 113.176 188.326C113.387 188.537 113.388 188.881 113.176 189.092C113.127 189.141 113.07 189.179 113.01 189.205C112.269 189.783 106.572 195.574 102.391 199.823C96.0056 206.313 96.0056 206.313 95.702 206.314C95.7014 206.314 95.7004 206.314 95.6997 206.314C95.5558 206.314 95.4165 206.257 95.3148 206.155C94.9579 205.799 95.1009 205.614 95.8935 204.589C96.3062 204.055 96.9044 203.295 97.6334 202.374C99.0892 200.537 101.068 198.059 103.134 195.472C104.808 193.375 106.638 191.084 108.283 189.014C107.312 190.004 106.292 191.045 105.279 192.078C90.5305 207.128 90.3682 207.128 89.9337 207.131C89.7944 207.134 89.6394 207.071 89.537 206.969C89.1116 206.544 89.1116 206.544 93.379 201.397C95.7385 198.551 98.9004 194.779 101.958 191.131C103.697 189.057 105.516 186.886 107.163 184.915C104.358 187.748 101.047 191.129 98.0646 194.173C85.1588 207.346 85.0858 207.346 84.6811 207.348C84.6781 207.348 84.6771 207.348 84.6761 207.348ZM112.407 189.094C112.477 189.163 112.554 189.205 112.632 189.228C112.55 189.203 112.473 189.159 112.407 189.094ZM66.7675 164.476C66.9057 164.476 67.0443 164.528 67.1501 164.633C66.9636 164.448 66.6979 164.44 66.5211 164.535C66.5984 164.496 66.6828 164.476 66.7675 164.476Z" fill="#FF8D8D"/>
</g>
<g opacity="0.8">
<path opacity="0.8" d="M216.909 97.5881C216.803 97.5881 216.698 97.5447 216.623 97.4702C216.359 97.2066 216.572 96.9369 216.797 96.6512C216.939 96.4725 217.154 96.2092 217.438 95.8687C217.958 95.2439 218.715 94.3524 219.749 93.1435C221.671 90.8985 224.296 87.8589 226.834 84.9192C228.526 82.9608 230.298 80.9089 231.891 79.0579C230.222 80.7526 228.379 82.6317 226.62 84.426C214.527 96.7608 214.419 96.7615 214.097 96.7632C213.99 96.7642 213.881 96.7197 213.806 96.6445C213.541 96.3803 213.762 96.0976 213.94 95.8704C214.06 95.7163 214.238 95.5005 214.482 95.2101C214.925 94.6832 215.577 93.9271 216.474 92.8983C218.151 90.976 220.454 88.3651 222.893 85.6012C225.843 82.2585 229.366 78.2663 232.093 75.1258C229.933 77.317 227.344 79.9704 224.902 82.4734C221.671 85.7853 218.33 89.2098 215.784 91.7742C211.407 96.1818 211.245 96.1831 211.001 96.1848C211.001 96.1848 211 96.1848 210.999 96.1848C210.893 96.1848 210.781 96.1387 210.706 96.0642C210.391 95.7491 210.619 95.4748 211.582 94.3203C212.16 93.6267 213.008 92.6437 214.174 91.3145C216.341 88.8442 219.21 85.6319 222.247 82.2304C224.885 79.2767 227.834 75.9742 230.216 73.2682C227.534 75.9688 224.212 79.3536 221.247 82.3741C209.177 94.6698 209.103 94.6698 208.791 94.6715C208.79 94.6715 208.79 94.6715 208.789 94.6715C208.683 94.6715 208.577 94.6281 208.502 94.5535C208.189 94.2405 208.381 94.0126 209.447 92.7469C210.063 92.0158 210.964 90.9787 212.2 89.5763C214.496 86.9724 217.65 83.4507 220.702 80.0445C223.017 77.4594 225.456 74.7362 227.568 72.3594C225.714 74.2432 223.658 76.3434 221.696 78.3478C207.971 92.367 207.193 93.0366 206.802 93.0389C206.701 93.0373 206.584 92.9942 206.509 92.919C206.196 92.6072 206.393 92.375 207.481 91.0866C208.111 90.3398 209.033 89.2803 210.296 87.8475C212.642 85.1878 215.853 81.6009 218.959 78.1323C221.338 75.4753 223.848 72.6721 225.996 70.2537C223.251 73.0166 219.974 76.3404 217.027 79.3295C205.237 91.2887 205.2 91.2887 204.911 91.2901C204.806 91.2984 204.7 91.248 204.625 91.1728C204.336 90.8838 204.585 90.5563 204.93 90.1032C205.174 89.7825 205.551 89.3184 206.049 88.7233C206.953 87.645 208.253 86.1408 210.024 84.1236C213.266 80.4298 217.444 75.752 221.129 71.6246C221.136 71.6169 221.144 71.6089 221.15 71.6009C220.808 71.9504 220.464 72.3009 220.121 72.6507C216.518 76.3243 212.435 80.4889 209.286 83.6498C203.807 89.15 203.628 89.151 203.381 89.1523C203.38 89.1523 203.379 89.1523 203.379 89.1523C203.273 89.1523 203.161 89.1072 203.086 89.0324C202.817 88.763 203.049 88.4663 203.253 88.2044C203.398 88.0189 203.612 87.7593 203.907 87.4112C204.442 86.78 205.226 85.8788 206.303 84.6562C208.311 82.3778 211.014 79.3509 213.875 76.1462C216.767 72.908 220.004 69.2823 222.598 66.3403C220.356 68.6131 217.702 71.3319 215.195 73.9004C202.977 86.4164 202.324 86.9741 201.945 86.9764C201.836 86.9751 201.727 86.9323 201.651 86.8572C201.342 86.5481 201.549 86.2998 202.543 85.1086C203.126 84.4106 203.978 83.4206 205.147 82.0824C207.316 79.5988 210.289 76.2495 213.163 73.0106C215.235 70.6763 217.415 68.2201 219.322 66.0553C217.254 68.1416 214.9 70.5276 212.662 72.7957C200.918 84.7003 200.874 84.7003 200.583 84.7017C200.583 84.7017 200.582 84.7017 200.582 84.7017C200.476 84.7017 200.372 84.6589 200.297 84.5844C200.019 84.3064 200.157 84.1423 200.82 83.3565C201.166 82.9461 201.677 82.3534 202.381 81.5438C203.701 80.0242 205.567 77.8967 207.542 75.6454C210.713 72.0312 214.822 67.347 217.79 63.8904C214.994 66.6928 211.353 70.397 208.321 73.4817C200.609 81.3276 200.609 81.3276 200.349 81.3286C200.348 81.3286 200.347 81.3286 200.347 81.3286C200.241 81.3286 200.138 81.2862 200.064 81.2117C199.8 80.9484 200.006 80.6787 200.244 80.3663C200.394 80.1708 200.623 79.8838 200.923 79.5139C201.473 78.8393 202.267 77.8847 203.35 76.5953C205.35 74.2141 207.971 71.1281 210.506 68.1439C211.514 66.9564 212.532 65.7579 213.487 64.6316C212.162 65.9821 210.753 67.4262 209.448 68.7641C200.422 78.0157 200.339 78.0164 200.03 78.0184C199.917 78.0127 199.815 77.9749 199.74 77.8998C199.46 77.6204 199.605 77.4316 200.301 76.5261C200.678 76.0346 201.228 75.3383 201.983 74.3976C203.38 72.6544 205.272 70.3279 207.102 68.0778C208.051 66.911 209.039 65.6968 209.96 64.56C209.628 64.9005 209.291 65.2454 208.956 65.5885C201.031 73.7022 200.941 73.7029 200.644 73.7046C200.538 73.6975 200.428 73.6611 200.353 73.5859C200.105 73.3387 200.255 73.1005 200.582 72.5785C200.768 72.2815 201.041 71.8625 201.416 71.2975C202.108 70.2537 203.045 68.8687 203.95 67.5295C204.367 66.9137 204.799 66.2748 205.208 65.6677C203.968 66.923 203.939 66.923 203.769 66.9237C203.769 66.9237 203.768 66.9237 203.768 66.9237C203.662 66.9237 203.56 66.8816 203.485 66.8071C203.329 66.6517 203.329 66.4001 203.485 66.2447C203.506 66.224 203.528 66.206 203.552 66.1909C203.743 66.0222 204.792 64.957 205.564 64.1725C207.422 62.2846 207.422 62.2846 207.616 62.2836C207.726 62.2849 207.825 62.3254 207.9 62.4002C208.144 62.6441 207.995 62.8804 207.699 63.3505C207.531 63.6165 207.285 63.993 206.947 64.5026C206.32 65.4465 205.489 66.6744 204.61 67.9742C203.98 68.9061 203.287 69.9309 202.678 70.8397C204.31 69.2051 206.546 66.9157 208.385 65.0332C214.081 59.2009 214.097 59.2009 214.36 59.1992C214.463 59.1996 214.572 59.2413 214.647 59.3165C214.924 59.5922 214.771 59.7903 214.129 60.624C213.778 61.0794 213.266 61.7269 212.562 62.6034C211.257 64.2309 209.459 66.4412 207.72 68.579C206.459 70.1301 205.074 71.8328 203.85 73.3477C205.389 71.785 207.181 69.9476 208.877 68.2091C218.367 58.4812 218.464 58.4805 218.784 58.4785C218.882 58.4785 219 58.5223 219.076 58.5975C219.335 58.8558 219.123 59.1271 218.954 59.3449C218.844 59.4856 218.68 59.6891 218.468 59.947C218.072 60.4295 217.494 61.1218 216.701 62.0641C215.221 63.8209 213.226 66.1702 211.114 68.6575C209.413 70.6593 207.557 72.8452 205.888 74.8201C206.494 74.2038 207.12 73.5669 207.752 72.9241C221.549 58.8875 221.687 58.8868 222.019 58.8852C222.02 58.8852 222.021 58.8852 222.021 58.8852C222.127 58.8852 222.235 58.9293 222.31 59.0041C222.592 59.2854 222.356 59.6019 222.057 60.0025C221.847 60.2842 221.524 60.6915 221.095 61.2127C220.319 62.157 219.202 63.4741 217.68 65.2393C214.894 68.4714 211.306 72.5608 208.141 76.169C207.949 76.3878 207.758 76.6057 207.568 76.8225C209.038 75.3353 210.595 73.7574 212.094 72.2374C224.821 59.3362 224.891 59.3359 225.186 59.3349C225.299 59.3412 225.398 59.3777 225.473 59.4525C225.784 59.7633 225.574 60.0159 224.562 61.2291C223.966 61.9425 223.098 62.9532 221.905 64.3188C219.693 66.8519 216.676 70.2506 213.759 73.5375C211.603 75.9675 209.327 78.5313 207.377 80.7472C209.587 78.5055 212.175 75.8535 214.624 73.345C226.816 60.8555 227.467 60.2992 227.845 60.2965C227.846 60.2965 227.847 60.2965 227.848 60.2965C227.953 60.2965 228.064 60.3416 228.139 60.4161C228.45 60.7266 228.301 60.931 227.036 62.438C226.325 63.2863 225.291 64.4819 223.875 66.093C221.261 69.0692 217.808 72.9357 214.47 76.6752C212.595 78.7742 210.698 80.8993 209.029 82.7777C212.226 79.5641 216.203 75.5077 219.55 72.0941C229.594 61.8516 229.624 61.8516 229.912 61.8499C229.913 61.8499 229.913 61.8499 229.914 61.8499C230.02 61.8499 230.124 61.8927 230.198 61.9672C230.463 62.2315 230.238 62.5108 230.073 62.7146C229.962 62.851 229.796 63.0484 229.58 63.3C229.175 63.7708 228.578 64.4518 227.756 65.3817C226.212 67.1268 224.031 69.5687 221.723 72.1535C218.223 76.0727 213.743 81.0897 210.341 84.9686C212.206 83.0838 214.346 80.914 216.458 78.7715C231.476 63.538 231.584 63.5376 231.903 63.5363C232.011 63.5396 232.116 63.5794 232.191 63.6545C232.505 63.968 232.306 64.2042 231.201 65.5137C230.558 66.2748 229.621 67.3537 228.335 68.8119C225.949 71.5173 222.697 75.1499 219.552 78.6629C217.119 81.3801 214.547 84.2533 212.379 86.6954C215.045 84.003 218.249 80.7299 221.125 77.7928C233.273 65.3833 233.361 65.3827 233.687 65.381C233.795 65.383 233.902 65.4244 233.977 65.4996C234.294 65.8167 234.069 66.085 232.985 67.3738C232.34 68.1413 231.397 69.2279 230.104 70.6954C227.707 73.4162 224.447 77.0561 221.295 80.5755C219.263 82.8442 217.131 85.2236 215.23 87.359C216.968 85.5961 218.863 83.6659 220.677 81.8181C234.14 68.1038 234.843 67.4931 235.203 67.4914C235.204 67.4914 235.205 67.4914 235.205 67.4914C235.311 67.4914 235.42 67.5358 235.494 67.6103C235.81 67.9254 235.593 68.2121 234.513 69.5133C233.867 70.2921 232.923 71.3904 231.626 72.8706C229.225 75.6123 225.98 79.2463 222.841 82.7607C220.582 85.2901 218.194 87.9645 216.183 90.2392C218.667 87.7256 221.653 84.6646 224.331 81.919C235.939 70.0208 236.514 69.5289 236.879 69.5266C236.88 69.5266 236.881 69.5266 236.882 69.5266C236.988 69.5266 237.098 69.5714 237.172 69.6459C237.479 69.9523 237.333 70.1688 236.044 71.7269C235.318 72.605 234.266 73.8372 232.829 75.4937C230.184 78.5436 226.781 82.3995 223.491 86.1284C222.475 87.2802 221.45 88.4406 220.475 89.5483C222.284 87.7122 224.245 85.7128 226.051 83.8707C237.2 72.499 237.282 72.4984 237.59 72.4967C237.702 72.5034 237.804 72.5398 237.879 72.615C238.144 72.8789 237.938 73.1406 237.699 73.4433C237.554 73.6274 237.332 73.898 237.041 74.2482C236.506 74.8902 235.73 75.8054 234.668 77.046C232.699 79.3479 230.024 82.4446 227.438 85.4394C225.942 87.1716 224.382 88.9779 222.945 90.6465C224.001 89.5713 225.1 88.4503 226.162 87.3654C237.55 75.7423 237.659 75.7419 237.984 75.7399C237.984 75.7399 237.985 75.7399 237.986 75.7399C238.091 75.7399 238.2 75.784 238.274 75.8589C238.532 76.1162 238.321 76.3932 238.152 76.6164C238.039 76.7647 237.869 76.9796 237.651 77.2505C237.243 77.7557 236.65 78.4781 235.836 79.4581C234.323 81.2812 232.32 83.6702 230.2 86.1999C228.538 88.1823 226.704 90.3699 225.121 92.2701C227.119 90.2543 229.457 87.8679 231.456 85.8284C238.084 79.0655 238.088 79.0655 238.35 79.0642C238.351 79.0642 238.352 79.0642 238.353 79.0642C238.459 79.0642 238.562 79.1066 238.636 79.1812C238.889 79.4328 238.693 79.7031 238.521 79.942C238.409 80.097 238.241 80.3205 238.026 80.6005C237.627 81.1208 237.05 81.8575 236.264 82.8526C234.812 84.6893 232.912 87.0693 231.074 89.3708C230.542 90.0378 230.006 90.7087 229.486 91.3592C237.205 83.5148 237.263 83.5145 237.533 83.5132C237.534 83.5132 237.534 83.5132 237.535 83.5132C237.641 83.5132 237.746 83.5566 237.82 83.6311C237.976 83.7865 237.976 84.0381 237.821 84.1935C237.784 84.2295 237.743 84.2573 237.699 84.2767C237.155 84.7003 232.974 88.9498 229.906 92.0683C225.221 96.8303 225.221 96.8303 224.998 96.8313C224.997 96.8313 224.997 96.8313 224.996 96.8313C224.891 96.8313 224.789 96.7892 224.714 96.7147C224.452 96.4534 224.557 96.3178 225.139 95.5656C225.441 95.174 225.88 94.616 226.416 93.9404C227.484 92.5919 228.936 90.7739 230.451 88.8756C231.68 87.337 233.023 85.656 234.231 84.137C233.518 84.8631 232.769 85.6272 232.026 86.3854C221.203 97.4288 221.084 97.4294 220.765 97.4311C220.663 97.4338 220.55 97.387 220.474 97.3118C220.162 97.0001 220.162 97.0004 223.294 93.2234C225.025 91.1351 227.345 88.3671 229.589 85.69C230.865 84.1681 232.2 82.5753 233.408 81.1288C231.351 83.2078 228.92 85.6884 226.732 87.922C217.262 97.5885 217.208 97.5888 216.911 97.5901C216.91 97.5885 216.909 97.5881 216.909 97.5881ZM237.258 84.1931C237.309 84.2436 237.366 84.2743 237.423 84.291C237.363 84.273 237.306 84.2406 237.258 84.1931ZM203.767 66.1281C203.869 66.1281 203.97 66.1666 204.048 66.2437C203.911 66.1081 203.716 66.1017 203.587 66.1716C203.643 66.1425 203.705 66.1281 203.767 66.1281Z" fill="#FF8D8D"/>
</g>
<g opacity="0.8">
<path opacity="0.8" d="M361.825 195.791C361.755 195.791 361.685 195.762 361.638 195.712C361.461 195.537 361.601 195.358 361.752 195.168C361.846 195.049 361.989 194.874 362.177 194.648C362.525 194.232 363.027 193.64 363.713 192.836C364.992 191.344 366.736 189.324 368.423 187.37C369.548 186.069 370.726 184.705 371.784 183.475C370.676 184.601 369.451 185.85 368.282 187.043C360.242 195.241 360.172 195.241 359.958 195.242C359.887 195.243 359.814 195.213 359.764 195.163C359.589 194.988 359.733 194.8 359.854 194.649C359.934 194.547 360.051 194.403 360.212 194.21C360.507 193.86 360.942 193.357 361.538 192.674C362.652 191.396 364.182 189.661 365.802 187.824C367.764 185.602 370.107 182.949 371.917 180.861C370.482 182.318 368.761 184.082 367.138 185.745C364.992 187.946 362.769 190.222 361.079 191.927C358.17 194.856 358.063 194.857 357.899 194.858C357.829 194.858 357.752 194.828 357.705 194.778C357.494 194.569 357.645 194.386 358.284 193.619C358.669 193.158 359.235 192.504 360.008 191.621C361.447 189.979 363.355 187.844 365.374 185.583C367.128 183.62 369.086 181.426 370.669 179.627C368.888 181.422 366.679 183.672 364.707 185.679C356.687 193.851 356.637 193.851 356.43 193.852C356.359 193.852 356.289 193.823 356.239 193.774C356.031 193.566 356.159 193.414 356.865 192.573C357.276 192.087 357.876 191.398 358.696 190.465C360.222 188.735 362.317 186.394 364.346 184.13C365.886 182.412 367.506 180.602 368.908 179.022C367.676 180.274 366.311 181.67 365.005 183.003C355.884 192.32 355.369 192.765 355.107 192.767C355.041 192.766 354.964 192.737 354.913 192.687C354.705 192.48 354.836 192.326 355.559 191.469C355.978 190.972 356.59 190.268 357.43 189.316C358.99 187.548 361.123 185.164 363.188 182.859C364.768 181.093 366.438 179.23 367.864 177.623C366.04 179.459 363.861 181.668 361.902 183.655C354.067 191.603 354.043 191.603 353.851 191.604C353.781 191.61 353.71 191.576 353.66 191.526C353.468 191.334 353.634 191.117 353.863 190.816C354.025 190.602 354.275 190.294 354.607 189.898C355.208 189.182 356.071 188.182 357.246 186.841C359.402 184.386 362.18 181.277 364.63 178.534C364.634 178.529 364.637 178.524 364.644 178.518C364.416 178.75 364.185 178.984 363.958 179.216C361.564 181.658 358.85 184.425 356.758 186.526C353.116 190.182 352.997 190.182 352.833 190.183H352.832C352.761 190.183 352.687 190.153 352.637 190.103C352.458 189.924 352.612 189.727 352.748 189.553C352.845 189.43 352.987 189.257 353.183 189.026C353.539 188.606 354.059 188.007 354.776 187.195C356.112 185.681 357.906 183.669 359.807 181.539C361.728 179.387 363.881 176.977 365.605 175.022C364.115 176.532 362.351 178.339 360.684 180.047C352.565 188.365 352.131 188.736 351.879 188.737C351.807 188.737 351.734 188.708 351.684 188.658C351.478 188.452 351.616 188.288 352.277 187.496C352.664 187.032 353.23 186.374 354.007 185.485C355.449 183.834 357.424 181.608 359.335 179.455C360.711 177.903 362.16 176.271 363.429 174.832C362.053 176.219 360.49 177.805 359 179.312C351.197 187.224 351.167 187.224 350.974 187.225H350.973C350.903 187.225 350.833 187.197 350.784 187.147C350.599 186.962 350.691 186.853 351.132 186.331C351.362 186.058 351.701 185.664 352.169 185.126C353.046 184.116 354.286 182.702 355.599 181.206C357.705 178.804 360.436 175.69 362.411 173.393C360.55 175.255 358.13 177.718 356.115 179.768C350.991 184.982 350.991 184.982 350.818 184.983C350.818 184.983 350.818 184.983 350.817 184.983C350.747 184.983 350.678 184.955 350.629 184.905C350.453 184.73 350.59 184.551 350.749 184.343C350.848 184.213 351 184.023 351.201 183.777C351.566 183.329 352.093 182.694 352.813 181.837C354.142 180.254 355.884 178.203 357.568 176.22C358.241 175.431 358.917 174.634 359.549 173.885C358.669 174.783 357.732 175.743 356.865 176.632C350.867 182.781 350.812 182.781 350.607 182.783C350.531 182.779 350.463 182.754 350.413 182.704C350.227 182.518 350.324 182.393 350.786 181.791C351.037 181.465 351.403 181.002 351.904 180.376C352.833 179.218 354.091 177.672 355.305 176.176C355.938 175.4 356.594 174.594 357.206 173.838C356.985 174.064 356.761 174.293 356.537 174.521C351.271 179.914 351.212 179.914 351.014 179.916C350.944 179.911 350.871 179.887 350.821 179.837C350.656 179.672 350.756 179.514 350.973 179.167C351.097 178.97 351.278 178.691 351.527 178.316C351.987 177.622 352.61 176.702 353.212 175.811C353.489 175.402 353.776 174.977 354.048 174.574C353.223 175.408 353.204 175.408 353.091 175.409H353.09C353.02 175.409 352.952 175.381 352.903 175.332C352.799 175.228 352.799 175.061 352.903 174.958C352.916 174.944 352.931 174.932 352.947 174.922C353.074 174.81 353.771 174.102 354.284 173.58C355.519 172.326 355.519 172.326 355.646 172.325C355.72 172.326 355.787 172.353 355.837 172.403C355.998 172.565 355.901 172.722 355.703 173.034C355.593 173.211 355.429 173.461 355.205 173.8C354.786 174.427 354.235 175.243 353.65 176.107C353.232 176.727 352.771 177.408 352.366 178.012C353.451 176.926 354.937 175.404 356.159 174.153C359.944 170.277 359.954 170.277 360.132 170.275C360.199 170.276 360.272 170.303 360.323 170.353C360.507 170.536 360.403 170.668 359.978 171.222C359.743 171.525 359.402 171.955 358.937 172.538C358.066 173.62 356.871 175.089 355.717 176.509C354.88 177.54 353.959 178.672 353.145 179.679C354.168 178.64 355.359 177.419 356.487 176.264C362.793 169.798 362.86 169.798 363.071 169.796C363.134 169.796 363.215 169.825 363.265 169.876C363.435 170.047 363.295 170.227 363.184 170.372C363.111 170.466 363 170.601 362.86 170.773C362.595 171.093 362.214 171.554 361.685 172.18C360.701 173.348 359.375 174.909 357.973 176.562C356.841 177.892 355.61 179.345 354.5 180.658C354.903 180.248 355.318 179.825 355.737 179.398C364.908 170.068 364.999 170.068 365.22 170.067H365.223C365.293 170.067 365.364 170.096 365.414 170.146C365.601 170.333 365.444 170.543 365.246 170.809C365.106 170.997 364.892 171.267 364.607 171.614C364.092 172.241 363.348 173.117 362.338 174.29C360.487 176.438 358.1 179.156 355.998 181.554C355.871 181.699 355.743 181.844 355.616 181.988C356.594 181 357.628 179.951 358.625 178.941C367.084 170.366 367.131 170.366 367.325 170.365C367.402 170.369 367.466 170.394 367.516 170.444C367.723 170.65 367.583 170.818 366.91 171.624C366.515 172.099 365.936 172.77 365.143 173.678C363.673 175.361 361.668 177.62 359.73 179.805C358.297 181.42 356.784 183.124 355.489 184.596C356.955 183.107 358.676 181.344 360.306 179.677C368.41 171.376 368.841 171.006 369.092 171.004C369.163 171.004 369.236 171.034 369.287 171.084C369.494 171.29 369.394 171.426 368.553 172.428C368.082 172.992 367.395 173.786 366.455 174.857C364.718 176.835 362.421 179.405 360.202 181.89C358.957 183.285 357.695 184.697 356.587 185.946C358.709 183.81 361.353 181.114 363.579 178.845C370.254 172.037 370.274 172.037 370.465 172.036H370.468C370.538 172.036 370.605 172.065 370.656 172.115C370.833 172.29 370.682 172.476 370.572 172.611C370.498 172.702 370.388 172.833 370.244 173C369.976 173.313 369.578 173.766 369.032 174.384C368.008 175.544 366.559 177.167 365.022 178.885C362.696 181.489 359.72 184.824 357.457 187.402C358.699 186.149 360.118 184.707 361.524 183.283C371.506 173.158 371.576 173.158 371.787 173.157C371.861 173.16 371.931 173.186 371.981 173.236C372.189 173.444 372.055 173.601 371.322 174.472C370.893 174.977 370.271 175.694 369.417 176.664C367.83 178.462 365.668 180.876 363.579 183.211C361.963 185.017 360.252 186.927 358.813 188.55C360.584 186.76 362.712 184.585 364.624 182.633C372.697 174.385 372.758 174.385 372.975 174.383C373.046 174.385 373.116 174.412 373.166 174.462C373.377 174.673 373.23 174.851 372.507 175.708C372.078 176.218 371.452 176.94 370.592 177.915C368.999 179.724 366.833 182.143 364.738 184.482C363.385 185.99 361.969 187.571 360.707 188.991C361.862 187.819 363.121 186.536 364.326 185.308C373.273 176.193 373.742 175.787 373.983 175.786C374.053 175.786 374.127 175.815 374.174 175.865C374.384 176.074 374.241 176.265 373.524 177.13C373.096 177.647 372.466 178.377 371.603 179.361C370.01 181.183 367.851 183.598 365.765 185.934C364.266 187.615 362.676 189.393 361.34 190.904C362.99 189.234 364.975 187.199 366.756 185.375C374.471 177.466 374.853 177.14 375.097 177.138C375.168 177.138 375.241 177.168 375.292 177.217C375.496 177.421 375.399 177.565 374.542 178.6C374.056 179.183 373.36 180.003 372.403 181.104C370.646 183.131 368.383 185.693 366.197 188.172C365.521 188.937 364.841 189.708 364.192 190.445C365.394 189.224 366.699 187.895 367.897 186.671C375.308 179.113 375.362 179.113 375.569 179.112C375.643 179.116 375.71 179.14 375.76 179.19C375.938 179.366 375.8 179.539 375.64 179.74C375.543 179.863 375.395 180.043 375.205 180.275C374.846 180.702 374.331 181.311 373.625 182.135C372.316 183.665 370.538 185.723 368.821 187.713C367.827 188.864 366.789 190.065 365.835 191.174C366.535 190.459 367.265 189.714 367.974 188.993C375.543 181.268 375.613 181.267 375.83 181.266C375.901 181.266 375.974 181.296 376.025 181.345C376.195 181.516 376.055 181.701 375.941 181.849C375.867 181.948 375.753 182.09 375.61 182.271C375.338 182.606 374.943 183.086 374.401 183.738C373.397 184.949 372.065 186.537 370.656 188.218C369.551 189.536 368.333 190.99 367.282 192.253C368.61 190.913 370.164 189.327 371.492 187.971C375.897 183.476 375.901 183.476 376.075 183.475C376.145 183.475 376.215 183.504 376.266 183.553C376.433 183.721 376.302 183.9 376.189 184.059C376.112 184.162 376.001 184.31 375.857 184.497C375.593 184.842 375.211 185.332 374.689 185.993C373.722 187.214 372.46 188.796 371.238 190.325C370.883 190.769 370.528 191.215 370.184 191.647C375.312 186.433 375.352 186.433 375.533 186.432C375.603 186.432 375.673 186.461 375.723 186.511C375.824 186.614 375.824 186.781 375.723 186.884C375.697 186.908 375.67 186.927 375.64 186.939C375.278 187.221 372.5 190.045 370.461 192.118C367.348 195.283 367.348 195.283 367.201 195.283H367.198C367.128 195.283 367.061 195.255 367.01 195.206C366.836 195.032 366.907 194.942 367.292 194.442C367.492 194.182 367.787 193.811 368.142 193.362C368.851 192.466 369.815 191.257 370.823 189.995C371.64 188.973 372.533 187.856 373.337 186.846C372.861 187.328 372.363 187.836 371.871 188.34C364.677 195.68 364.597 195.68 364.386 195.682C364.319 195.683 364.242 195.653 364.192 195.602C363.984 195.395 363.984 195.395 366.066 192.885C367.218 191.497 368.758 189.657 370.251 187.878C371.097 186.867 371.984 185.808 372.788 184.847C371.422 186.228 369.805 187.877 368.353 189.361C362.056 195.786 362.023 195.786 361.825 195.787C361.829 195.791 361.825 195.791 361.825 195.791ZM375.352 186.888C375.385 186.921 375.422 186.942 375.462 186.953C375.422 186.941 375.382 186.92 375.352 186.888ZM353.093 174.882C353.16 174.882 353.228 174.907 353.279 174.958C353.188 174.868 353.059 174.864 352.973 174.91C353.01 174.891 353.052 174.882 353.093 174.882Z" fill="#FF8D8D"/>
</g>
</g>
<g opacity="0.5">
<path opacity="0.8" d="M57.6602 147.417C60.0223 145.952 62.4304 144.584 64.8488 143.238C67.2692 141.897 69.7094 140.597 72.1606 139.321C77.0667 136.777 82.0223 134.338 87.0205 131.989C92.0183 129.64 97.061 127.385 102.153 125.235C104.7 124.163 107.259 123.116 109.838 122.11C112.419 121.11 115.01 120.131 117.648 119.251C115.287 120.718 112.879 122.086 110.461 123.433C108.041 124.775 105.601 126.075 103.15 127.35C98.2436 129.895 93.2879 132.334 88.2881 134.679C83.2883 137.024 78.2463 139.28 73.154 141.43C70.6061 142.501 68.0471 143.548 65.4687 144.554C62.8883 145.555 60.2971 146.535 57.6602 147.417Z" fill="#FF8D8D"/>
<path opacity="0.8" d="M144.688 84.1931C149.512 81.475 154.42 78.9349 159.353 76.4489C164.29 73.9702 169.26 71.5618 174.259 69.2135C179.257 66.8649 184.285 64.5791 189.346 62.3635C194.41 60.1549 199.501 58.0007 204.675 56.0273C199.852 58.7482 194.945 61.2886 190.011 63.7742C185.073 66.2528 180.103 68.6615 175.104 71.0071C170.104 73.3534 165.076 75.6393 160.016 77.855C154.951 80.0629 149.861 82.2174 144.688 84.1931Z" fill="#FF8D8D"/>
<path opacity="0.8" d="M355.883 205.161C359.006 203.377 362.189 201.718 365.389 200.102C368.586 198.478 371.816 196.918 375.059 195.391C378.303 193.868 381.566 192.382 384.857 190.958C388.147 189.526 391.458 188.139 394.825 186.877C391.702 188.662 388.522 190.322 385.319 191.938C382.122 193.561 378.895 195.122 375.648 196.646C372.405 198.168 369.141 199.654 365.848 201.078C362.561 202.509 359.25 203.897 355.883 205.161Z" fill="#FF8D8D"/>
</g>
<path d="M322.084 136.082V207.944H158.242V136.082C158.242 130.606 162.689 126.169 168.173 126.169H312.153C317.639 126.169 322.084 130.606 322.084 136.082Z" fill="#FF6161"/>
<path opacity="0.5" d="M240.163 278.621L322.084 278.662V279.806C322.084 285.28 317.639 289.719 312.153 289.719H168.173C162.689 289.719 158.242 285.28 158.242 279.806V278.662L240.163 278.621Z" fill="#FF6161"/>
<path opacity="0.8" d="M323.192 278.663H322.084L240.163 278.621L158.242 278.663H157.134C150.812 278.665 146.131 273.92 146.671 268.118L158.242 207.944H322.084L333.654 268.118C334.195 273.921 329.514 278.665 323.192 278.663Z" fill="#FF6161"/>
<path opacity="0.6" d="M213.213 145.065C213.916 140.741 210.975 136.668 206.644 135.966C202.313 135.265 198.232 138.2 197.53 142.524C196.827 146.847 199.768 150.92 204.099 151.622C208.429 152.323 212.51 149.387 213.213 145.065Z" fill="white"/>
<path opacity="0.6" d="M282.685 145.643C283.693 141.381 281.049 137.11 276.779 136.103C272.509 135.097 268.23 137.736 267.222 141.998C266.214 146.26 268.858 150.532 273.128 151.538C277.398 152.544 281.676 149.905 282.685 145.643Z" fill="white"/>
<path d="M274.962 119.251C272.593 119.251 270.672 121.168 270.672 123.533V139.506C270.672 141.871 272.593 143.789 274.962 143.789C277.331 143.789 279.252 141.871 279.252 139.506V123.533C279.252 121.168 277.331 119.251 274.962 119.251Z" fill="#A32121"/>
<path d="M205.364 119.251C207.733 119.251 209.654 121.168 209.654 123.533V139.506C209.654 141.871 207.733 143.789 205.364 143.789C202.995 143.789 201.074 141.871 201.074 139.506V123.533C201.074 121.168 202.995 119.251 205.364 119.251Z" fill="#A32121"/>
<path opacity="0.8" d="M201.201 197.241H180.199C178.005 197.241 176.227 195.466 176.227 193.276V172.311C176.227 170.121 178.005 168.346 180.199 168.346H201.201C203.394 168.346 205.173 170.121 205.173 172.311V193.276C205.173 195.466 203.394 197.241 201.201 197.241Z" fill="white"/>
<g opacity="0.8">
<path d="M257.49 177.036H220.774C220.226 177.036 219.781 176.592 219.781 176.044V171.21C219.781 170.663 220.226 170.218 220.774 170.218H257.49C258.038 170.218 258.483 170.662 258.483 171.21V176.044C258.483 176.592 258.039 177.036 257.49 177.036Z" fill="white"/>
<path d="M303.106 186.456H220.774C220.226 186.456 219.781 186.012 219.781 185.464V182.112C219.781 181.565 220.226 181.121 220.774 181.121H303.106C303.654 181.121 304.099 181.565 304.099 182.112V185.464C304.099 186.012 303.654 186.456 303.106 186.456Z" fill="white"/>
<path d="M303.106 195.367H220.774C220.226 195.367 219.781 194.924 219.781 194.376V191.024C219.781 190.476 220.226 190.033 220.774 190.033H303.106C303.654 190.033 304.099 190.476 304.099 191.024V194.376C304.099 194.924 303.654 195.367 303.106 195.367Z" fill="white"/>
</g>
<path opacity="0.6" d="M198.857 243.3L176.043 243.302C173.66 243.303 172.026 241.35 172.391 238.968L175.652 217.629C175.971 215.542 178.006 213.869 180.201 213.869H201.212C203.406 213.869 205.07 215.542 204.928 217.629L203.468 238.965C203.304 241.346 201.239 243.299 198.857 243.3Z" fill="white"/>
<g opacity="0.6">
<path d="M258.208 222.217L220.598 222.218C220.036 222.218 219.592 221.782 219.606 221.245L219.727 216.577C219.74 216.056 220.198 215.635 220.749 215.635L257.654 215.634C258.206 215.634 258.689 216.055 258.734 216.576L259.14 221.244C259.187 221.78 258.769 222.217 258.208 222.217Z" fill="white"/>
<path d="M306.982 231.735L220.378 231.742C219.801 231.742 219.345 231.281 219.36 230.715L219.448 227.287C219.463 226.734 219.935 226.286 220.503 226.286L305.799 226.282C306.367 226.282 306.925 226.73 307.047 227.283L307.801 230.709C307.925 231.275 307.559 231.735 306.982 231.735Z" fill="white"/>
<path d="M309.044 241.228L220.162 241.238C219.57 241.238 219.102 240.754 219.118 240.157L219.211 236.548C219.226 235.965 219.711 235.494 220.294 235.494L307.798 235.486C308.381 235.486 308.956 235.957 309.084 236.539L309.878 240.147C310.009 240.743 309.636 241.228 309.044 241.228Z" fill="white"/>
</g>
<path opacity="0.6" d="M315.524 262.006L168.666 262.381C168 262.383 167.567 261.871 167.7 261.239L168.968 255.189C169.094 254.586 169.722 254.099 170.369 254.098L313.259 254.051C313.858 254.051 314.478 254.519 314.645 255.099L316.319 260.905C316.494 261.51 316.138 262.004 315.524 262.006Z" fill="white"/>
<path d="M188.62 191.51C188.099 191.51 187.596 191.305 187.222 190.935L181.357 185.132C180.579 184.361 180.573 183.106 181.345 182.329C182.117 181.551 183.375 181.545 184.154 182.316L188.392 186.51L197.05 174.878C197.704 173.999 198.948 173.816 199.828 174.469C200.709 175.122 200.892 176.364 200.238 177.242L190.215 190.71C189.871 191.171 189.344 191.461 188.77 191.504C188.72 191.508 188.67 191.51 188.62 191.51Z" fill="#FF6161"/>
<path d="M148.452 282.326C148.452 282.326 148.422 284.522 148.463 285.621C148.481 286.103 143.359 288.459 142.27 285.156L142.962 282.515L147.219 280.997L148.452 282.326Z" fill="url(#paint0_linear_2188_1751)"/>
<path d="M158.687 291.188C146.716 291.779 141.169 290.791 141.169 290.791C140.877 287.489 142.27 285.158 142.27 285.157C142.205 285.266 142.857 285.754 142.941 285.81C143.235 286.005 143.566 286.139 143.905 286.234C145.147 286.579 146.21 286.176 147.402 285.852C149.876 285.18 152.674 284.579 155.155 285.537C156.693 286.132 157.803 287.369 158.324 288.919C158.366 289.045 158.843 291.18 158.687 291.188Z" fill="url(#paint1_linear_2188_1751)"/>
<path d="M159.976 136.651C159.976 136.651 160.476 139.005 161.194 139.707C161.194 139.707 159.141 140.773 158.891 140.73C158.64 140.687 159.976 136.651 159.976 136.651Z" fill="url(#paint2_linear_2188_1751)"/>
<path d="M159.803 128.065C159.803 128.065 160.521 133.593 160.291 137.275C160.06 140.957 160.185 143.606 155.708 145.28C155.708 145.28 145.226 144.919 144.726 139.111C144.726 139.111 144.683 135.127 144.776 133.567C144.869 132.008 143.115 130.767 144.621 128.562C146.126 126.358 146.706 128.18 146.706 128.18C146.706 128.18 147.429 126.363 148.151 124.871C148.872 123.379 159.803 128.065 159.803 128.065Z" fill="url(#paint3_linear_2188_1751)"/>
<path d="M123.992 189.317C123.992 189.317 122.822 189.504 121.304 191.776C119.343 189.584 115.679 186.03 113.849 183.724C110.687 179.741 108.61 177.858 106.563 173.093C105.512 170.642 107.45 168.225 109.182 166.707C113.541 162.887 117.668 158.81 122.044 155.005C123.136 154.056 124.243 153.122 125.374 152.215C125.806 151.869 128.357 150.305 128.372 149.923C128.372 149.923 128.283 152.1 128.073 154.626C127.891 156.817 127.618 159.273 127.232 160.795C126.626 163.183 123.725 165.369 122.014 166.947C120.011 168.791 117.56 170.367 115.692 172.317C115.372 172.65 115.2 172.966 115.133 173.271C114.922 174.265 115.848 175.161 116.51 176.307C117.442 177.923 118.372 179.542 119.301 181.159C120.864 183.878 122.42 186.602 123.992 189.317Z" fill="url(#paint4_linear_2188_1751)"/>
<path opacity="0.5" d="M127.231 160.795C126.625 163.184 123.724 165.369 122.013 166.947C120.01 168.792 117.559 170.367 115.691 172.317C115.37 172.651 115.198 172.966 115.132 173.271C114.92 174.265 115.847 175.161 116.509 176.307C111.555 173.45 113.725 170.124 120.211 164.621C126.697 159.116 127.031 152.741 127.031 152.741L128.071 154.626C127.89 156.817 127.616 159.273 127.231 160.795Z" fill="url(#paint5_linear_2188_1751)"/>
<path d="M124.34 189.601L124.339 189.6C124.22 189.392 124.113 189.21 124.039 189.089C124.019 189.057 123.99 189.041 123.954 189.036L123.16 187.875L119.963 190.152C121.487 191.327 121.563 192.652 121.563 192.652C121.43 193.203 121.406 193.736 121.564 194.183C121.564 194.183 121.102 195.966 120.215 195.88C119.327 195.793 118.834 196.416 118.832 196.802C118.83 197.188 119.588 197.188 120.797 197.137C122.007 197.086 123.114 194.837 123.454 194.505C123.795 194.173 125.363 191.416 125.363 191.416C125.363 191.416 124.764 190.337 124.34 189.601Z" fill="url(#paint6_linear_2188_1751)"/>
<path d="M119.724 285.775C119.724 285.775 116.598 288.13 117.681 290.206C118.764 292.282 121.184 292.178 122.411 292.085C123.639 291.993 125.399 291.799 126.154 290.555C126.909 289.312 125.312 286.845 125.312 286.845L119.724 285.775Z" fill="url(#paint7_linear_2188_1751)"/>
<path d="M119.726 285.775C119.726 285.775 122.076 288.174 125.313 286.844C125.47 285.626 125.776 284.084 126.2 282.299C125.005 282.707 122.924 282.964 120.147 281.574C119.824 284.112 119.646 285.758 119.726 285.775Z" fill="url(#paint8_linear_2188_1751)"/>
<path d="M141.151 191.043C140.141 195.172 139.194 200.987 138.301 207.512C137.378 214.263 136.513 221.775 135.696 228.969C134.388 240.48 133.2 251.174 132.087 256.625C129.613 268.775 126.2 282.3 126.2 282.3C126.2 282.3 121.464 285.776 120.149 281.573C120.793 275.996 121.67 246.843 119.707 223.368C117.746 199.892 125.767 189.443 125.767 189.443C125.767 189.443 144.877 175.804 141.151 191.043Z" fill="url(#paint9_linear_2188_1751)"/>
<path d="M147.831 139.643C147.831 139.643 144.474 148.926 148.412 150.358C148.412 150.358 142.465 154.851 138.973 146.75C138.973 146.75 140.775 141.915 140.498 137.836L147.831 139.643Z" fill="url(#paint10_linear_2188_1751)"/>
<path d="M146.738 171.482C146.695 171.486 146.543 171.5 146.297 171.517C146.476 171.515 146.625 171.504 146.738 171.482Z" fill="url(#paint11_linear_2188_1751)"/>
<path opacity="0.5" d="M138.299 207.512C137.375 214.263 136.51 221.774 135.693 228.969C130.129 219.972 133.322 202.673 133.322 202.673L138.299 207.512Z" fill="url(#paint12_linear_2188_1751)"/>
<path d="M151.535 232.607C150.895 264.224 148.347 266.949 148.512 282.852C148.512 282.852 146.31 284.765 142.812 283.047C142.812 283.047 137.341 257.114 140.366 242.877C140.533 242.092 140.523 241.283 140.331 240.502C138.94 234.801 133.202 210.875 133.017 203.083C132.98 201.536 133.149 200.027 133.452 198.591C134.499 193.642 137.148 189.547 138.51 187.687C139.021 186.992 139.349 186.609 139.349 186.609L143.953 187.945L147.271 193.834C147.271 193.834 150.758 205.106 151.396 215.836C151.435 216.767 151.467 217.727 151.496 218.715C151.612 222.847 151.639 227.467 151.535 232.607Z" fill="url(#paint13_linear_2188_1751)"/>
<path d="M154.926 167.742C154.701 169.056 154.21 170.251 153.533 171.256C152.903 172.193 152.333 173.165 151.839 174.175C151.839 174.175 151.839 174.176 151.837 174.178C151.316 175.246 150.879 176.353 150.544 177.497C150.524 177.558 150.508 177.624 150.489 177.684C150.445 177.836 150.401 177.988 150.358 178.141C150.167 178.813 149.979 179.49 149.795 180.165C149.795 180.169 149.794 180.171 149.794 180.171C148.326 185.51 147.208 190.858 147.271 193.833C147.242 193.842 147.038 193.915 146.674 194.013C146.67 194.014 146.666 194.014 146.663 194.015C144.646 194.558 137.834 195.89 129.021 192.243C127.866 191.765 126.675 191.201 125.458 190.537C125.458 190.537 125.458 190.535 125.457 190.53C125.44 190.368 125.202 187.803 125.004 183.976C124.82 180.414 124.669 175.758 124.771 170.925C124.771 170.906 124.771 170.895 124.771 170.895C124.796 169.66 124.839 168.413 124.902 167.17C124.902 167.147 124.904 167.124 124.905 167.101L124.905 167.099C124.944 166.336 124.988 165.576 125.043 164.82C125.052 164.679 125.063 164.536 125.076 164.397C125.45 159.459 126.188 154.774 127.524 151.333C127.864 150.455 128.542 149.748 129.398 149.35C131.688 148.286 136.471 146.271 138.976 146.75C138.976 146.75 140.063 148.135 144.41 149.05C146.986 149.489 146.627 148.337 146.565 148.064C146.797 148.947 147.951 149.939 148.577 150.507C148.91 150.811 149.264 151.096 149.631 151.359C149.635 151.365 149.639 151.367 149.644 151.368C149.702 151.412 149.763 151.455 149.822 151.495C149.824 151.496 149.829 151.5 149.83 151.502C150.703 152.137 152.094 153.144 152.515 154.16C152.605 154.383 152.651 154.62 152.697 154.855C153.019 156.542 153.396 158.243 153.687 159.954C153.881 161.088 154.186 162.196 154.57 163.281C155.046 164.63 155.195 166.166 154.926 167.742Z" fill="url(#paint14_linear_2188_1751)"/>
<path d="M170.638 170.817C170.658 170.853 170.675 170.888 170.693 170.923C170.564 170.953 170.49 170.969 170.477 170.972C170.481 170.966 170.496 170.952 170.518 170.931C170.546 170.905 170.586 170.866 170.638 170.817Z" fill="url(#paint15_linear_2188_1751)"/>
<path d="M180.113 178.081C180.116 178.207 180.129 178.342 180.149 178.483C180.128 178.341 180.116 178.207 180.113 178.081Z" fill="url(#paint16_linear_2188_1751)"/>
<path d="M170.693 170.923C170.564 170.953 170.49 170.969 170.477 170.972C170.481 170.966 170.496 170.952 170.518 170.931C170.546 170.905 170.586 170.866 170.638 170.817C170.658 170.853 170.675 170.888 170.693 170.923Z" fill="url(#paint17_linear_2188_1751)"/>
<path d="M181.772 175.03C181.567 175.247 181.224 175.258 181.006 175.053C180.789 174.849 180.778 174.507 180.983 174.289C181.188 174.072 181.53 174.061 181.748 174.266C181.966 174.47 181.976 174.812 181.772 175.03Z" fill="#FF5F5F"/>
<path d="M182.043 181.59C182.119 181.625 182.199 181.651 182.278 181.67C182.197 181.65 182.12 181.624 182.043 181.59Z" fill="url(#paint18_linear_2188_1751)"/>
<path d="M184.478 176.067C184.342 176.212 184.146 176.263 183.966 176.222L183.965 176.224L183.945 176.217C183.917 176.21 183.892 176.201 183.864 176.189L183.737 176.145L182.704 175.785C182.61 175.573 182.669 175.321 182.65 175.115C182.633 174.924 182.765 174.766 182.943 174.729L184.02 175.14L184.07 175.158C184.207 175.154 184.346 175.202 184.454 175.303C184.672 175.509 184.683 175.85 184.478 176.067Z" fill="#FF5F5F"/>
<path d="M144.309 117.581C144.366 117.575 144.424 117.568 144.483 117.563C155.163 116.491 162.025 124.319 159.808 134.723C159.327 136.981 156.595 150.095 153.175 149.504C150.223 148.994 150.933 145.019 134.267 144.219C126.749 143.858 125.701 135.65 130.102 130.506C131.188 129.237 132.467 128.141 133.531 126.852C136.876 122.798 138.48 118.252 144.309 117.581Z" fill="url(#paint19_linear_2188_1751)"/>
<path d="M170.638 170.817C170.658 170.853 170.675 170.888 170.693 170.923C170.564 170.953 170.49 170.969 170.477 170.972C170.481 170.966 170.496 170.952 170.518 170.931C170.546 170.905 170.586 170.866 170.638 170.817Z" fill="url(#paint20_linear_2188_1751)"/>
<path d="M186.987 177.883C186.907 177.721 186.427 177.705 186.288 177.575C186.149 177.445 186.448 176.818 186.401 176.529C186.352 176.242 185.652 176.368 185.704 176.127C185.757 175.886 186.087 174.454 185.735 174.211C185.383 173.967 183.428 174.435 183.428 174.435C183.357 174.189 183.061 173.926 183.061 173.926C182.957 173.888 182.855 173.832 182.761 173.749C182.761 173.749 181.854 173.408 181.684 174.383C181.647 174.489 181.593 174.595 181.514 174.705C181.193 175.147 181.146 175.674 180.975 176.175C180.793 176.709 180.437 177.075 180.21 177.589C180.16 177.704 180.118 177.825 180.049 177.932C179.746 178.404 178.873 178.624 178.362 178.775C178.339 178.782 178.314 178.79 178.289 178.799C178.358 179.353 178.641 181.018 179.629 182.328C179.83 182.251 180.034 182.181 180.238 182.116C181.709 181.645 183.181 181.515 184.627 180.922C185.338 180.631 186.082 180.309 186.21 180.189C186.466 179.948 187.067 178.045 186.987 177.883ZM182.65 175.115C182.629 174.885 182.827 174.7 183.057 174.721C183.165 174.73 183.268 174.728 183.368 174.71C183.393 174.686 183.41 174.66 183.421 174.632L183.419 174.727C184.962 175.273 183.373 176.493 183.373 176.493C183.185 176.372 182.971 176.181 182.751 175.871C182.592 175.646 182.67 175.35 182.65 175.115ZM182.043 181.589C182.12 181.623 182.197 181.65 182.278 181.67C182.199 181.651 182.119 181.625 182.043 181.589Z" fill="url(#paint21_linear_2188_1751)"/>
<path d="M180.113 178.081C180.116 178.207 180.129 178.342 180.149 178.483C180.128 178.341 180.116 178.207 180.113 178.081Z" fill="url(#paint22_linear_2188_1751)"/>
<path d="M179.944 182.706C179.844 182.612 174.78 184.617 174.358 184.756C172.808 185.267 171.259 185.821 169.7 186.338C169.7 186.338 169.698 186.338 169.694 186.34C168.352 186.787 167.005 187.209 165.642 187.554C162.358 188.39 156.516 190.533 153.767 187.769C151.342 185.33 150.725 181.519 149.531 178.429C148.635 176.108 147.098 172.981 146.525 170.063C146.29 168.865 146.217 167.703 146.417 166.645C147.209 162.471 152.381 153.895 152.381 153.895C152.381 153.895 160.063 173.688 159.252 181.481C159.183 181.493 159.127 181.504 159.09 181.51C159.06 181.516 159.04 181.519 159.032 181.521C159.045 181.526 159.116 181.554 159.239 181.6C159.244 181.561 159.25 181.522 159.252 181.481C159.296 180.765 165.598 180.396 166.244 180.345C168.317 180.182 170.387 179.969 172.433 179.607C173.487 179.42 174.543 179.207 175.573 178.919C176.373 178.695 177.461 178.188 178.271 178.609C178.271 178.609 178.276 178.676 178.292 178.798C178.361 179.352 178.644 181.017 179.632 182.327C179.728 182.459 179.833 182.585 179.944 182.706Z" fill="url(#paint23_linear_2188_1751)"/>
<path opacity="0.5" d="M146.663 194.015C144.646 194.558 137.834 195.89 129.021 192.243C127.866 191.765 126.675 191.201 125.458 190.537C125.458 190.537 125.458 190.535 125.457 190.53C125.44 190.368 125.202 187.803 125.004 183.976C124.82 180.414 124.669 175.758 124.771 170.925C124.786 171.789 125.229 190.219 136.18 192.472C143.056 193.888 145.67 194.08 146.663 194.015Z" fill="url(#paint24_linear_2188_1751)"/>
<path opacity="0.5" d="M151.837 174.179C151.316 175.247 150.879 176.354 150.544 177.498C150.524 177.559 150.508 177.624 150.489 177.685C150.445 177.837 150.401 177.988 150.358 178.142C147.935 179.096 146.699 184.048 147.418 181.205C148.203 178.102 151.727 174.296 151.837 174.179Z" fill="url(#paint25_linear_2188_1751)"/>
<path opacity="0.5" d="M169.693 186.34C168.35 186.788 167.003 187.209 165.64 187.555C162.356 188.391 156.514 190.534 153.765 187.769C151.34 185.331 150.723 181.52 149.529 178.43C148.634 176.109 147.096 172.982 146.523 170.064C147.337 169.265 148.225 168.836 148.718 170.026C149.779 172.59 150.158 185.169 155.615 186.953C160.986 188.711 169.43 186.413 169.693 186.34Z" fill="url(#paint26_linear_2188_1751)"/>
<rect width="440" height="360" fill="black" style="mix-blend-mode:saturation"/>
</g>
<defs>
<linearGradient id="paint0_linear_2188_1751" x1="146.697" y1="279.724" x2="144.92" y2="287.324" gradientUnits="userSpaceOnUse">
<stop stop-color="#F0877E"/>
<stop offset="1" stop-color="#FABEB2"/>
</linearGradient>
<linearGradient id="paint1_linear_2188_1751" x1="151.881" y1="284.69" x2="148.971" y2="291.835" gradientUnits="userSpaceOnUse">
<stop stop-color="#A23200"/>
<stop offset="1" stop-color="#5C2100"/>
</linearGradient>
<linearGradient id="paint2_linear_2188_1751" x1="160.832" y1="136.482" x2="159.994" y2="140.265" gradientUnits="userSpaceOnUse">
<stop stop-color="#F0877E"/>
<stop offset="1" stop-color="#FABEB2"/>
</linearGradient>
<linearGradient id="paint3_linear_2188_1751" x1="154.312" y1="117.797" x2="150.816" y2="144.581" gradientUnits="userSpaceOnUse">
<stop stop-color="#F0877E"/>
<stop offset="1" stop-color="#FABEB2"/>
</linearGradient>
<linearGradient id="paint4_linear_2188_1751" x1="111.591" y1="196.905" x2="121.281" y2="151.22" gradientUnits="userSpaceOnUse">
<stop stop-color="#A23200"/>
<stop offset="1" stop-color="#FF0000"/>
</linearGradient>
<linearGradient id="paint5_linear_2188_1751" x1="118.139" y1="172.193" x2="140.593" y2="118.266" gradientUnits="userSpaceOnUse">
<stop stop-color="#A23200"/>
<stop offset="1" stop-color="#FF0000"/>
</linearGradient>
<linearGradient id="paint6_linear_2188_1751" x1="120.053" y1="197.645" x2="123.246" y2="189.221" gradientUnits="userSpaceOnUse">
<stop stop-color="#F0877E"/>
<stop offset="1" stop-color="#FABEB2"/>
</linearGradient>
<linearGradient id="paint7_linear_2188_1751" x1="122.137" y1="285.649" x2="121.705" y2="292.855" gradientUnits="userSpaceOnUse">
<stop stop-color="#A23200"/>
<stop offset="1" stop-color="#5C2100"/>
</linearGradient>
<linearGradient id="paint8_linear_2188_1751" x1="123.108" y1="282.409" x2="122.293" y2="286.308" gradientUnits="userSpaceOnUse">
<stop stop-color="#F0877E"/>
<stop offset="1" stop-color="#FABEB2"/>
</linearGradient>
<linearGradient id="paint9_linear_2188_1751" x1="133.441" y1="290.524" x2="128.882" y2="190.038" gradientUnits="userSpaceOnUse">
<stop stop-color="#A23200"/>
<stop offset="1" stop-color="#5C2100"/>
</linearGradient>
<linearGradient id="paint10_linear_2188_1751" x1="145.077" y1="140.46" x2="142.944" y2="152.968" gradientUnits="userSpaceOnUse">
<stop stop-color="#F0877E"/>
<stop offset="1" stop-color="#FABEB2"/>
</linearGradient>
<linearGradient id="paint11_linear_2188_1751" x1="146.476" y1="171.623" x2="146.531" y2="171.46" gradientUnits="userSpaceOnUse">
<stop stop-color="#A23200"/>
<stop offset="1" stop-color="#FF0000"/>
</linearGradient>
<linearGradient id="paint12_linear_2188_1751" x1="131.517" y1="230.411" x2="135.907" y2="208.918" gradientUnits="userSpaceOnUse">
<stop stop-color="#A23200"/>
<stop offset="1" stop-color="#5C2100"/>
</linearGradient>
<linearGradient id="paint13_linear_2188_1751" x1="145.87" y1="289.96" x2="141.311" y2="189.475" gradientUnits="userSpaceOnUse">
<stop stop-color="#A23200"/>
<stop offset="1" stop-color="#5C2100"/>
</linearGradient>
<linearGradient id="paint14_linear_2188_1751" x1="131.384" y1="205.259" x2="142.714" y2="151.508" gradientUnits="userSpaceOnUse">
<stop stop-color="#A23200"/>
<stop offset="1" stop-color="#FF0000"/>
</linearGradient>
<linearGradient id="paint15_linear_2188_1751" x1="170.338" y1="171.004" x2="170.767" y2="170.828" gradientUnits="userSpaceOnUse">
<stop stop-color="#F0877E"/>
<stop offset="1" stop-color="#FABEB2"/>
</linearGradient>
<linearGradient id="paint16_linear_2188_1751" x1="180.003" y1="178.256" x2="180.24" y2="178.304" gradientUnits="userSpaceOnUse">
<stop stop-color="#F0877E"/>
<stop offset="1" stop-color="#FABEB2"/>
</linearGradient>
<linearGradient id="paint17_linear_2188_1751" x1="170.584" y1="171.058" x2="170.585" y2="170.834" gradientUnits="userSpaceOnUse">
<stop stop-color="#A23200"/>
<stop offset="1" stop-color="#FF0000"/>
</linearGradient>
<linearGradient id="paint18_linear_2188_1751" x1="182.127" y1="181.664" x2="182.215" y2="181.573" gradientUnits="userSpaceOnUse">
<stop stop-color="#F0877E"/>
<stop offset="1" stop-color="#FABEB2"/>
</linearGradient>
<linearGradient id="paint19_linear_2188_1751" x1="140.233" y1="144.441" x2="154.34" y2="113.581" gradientUnits="userSpaceOnUse">
<stop stop-color="#5C2100"/>
<stop offset="1" stop-color="#A23200"/>
</linearGradient>
<linearGradient id="paint20_linear_2188_1751" x1="170.437" y1="171.125" x2="170.737" y2="170.763" gradientUnits="userSpaceOnUse">
<stop stop-color="#F0877E"/>
<stop offset="1" stop-color="#FABEB2"/>
</linearGradient>
<linearGradient id="paint21_linear_2188_1751" x1="180.251" y1="184.848" x2="184.185" y2="174.476" gradientUnits="userSpaceOnUse">
<stop stop-color="#F0877E"/>
<stop offset="1" stop-color="#FABEB2"/>
</linearGradient>
<linearGradient id="paint22_linear_2188_1751" x1="180.042" y1="178.309" x2="180.207" y2="178.259" gradientUnits="userSpaceOnUse">
<stop stop-color="#F0877E"/>
<stop offset="1" stop-color="#FABEB2"/>
</linearGradient>
<linearGradient id="paint23_linear_2188_1751" x1="155.629" y1="210.369" x2="166.959" y2="156.619" gradientUnits="userSpaceOnUse">
<stop stop-color="#A23200"/>
<stop offset="1" stop-color="#FF0000"/>
</linearGradient>
<linearGradient id="paint24_linear_2188_1751" x1="136.77" y1="179.95" x2="159.224" y2="126.022" gradientUnits="userSpaceOnUse">
<stop stop-color="#A23200"/>
<stop offset="1" stop-color="#FF0000"/>
</linearGradient>
<linearGradient id="paint25_linear_2188_1751" x1="146.957" y1="184.192" x2="169.411" y2="130.264" gradientUnits="userSpaceOnUse">
<stop stop-color="#A23200"/>
<stop offset="1" stop-color="#FF0000"/>
</linearGradient>
<linearGradient id="paint26_linear_2188_1751" x1="139.506" y1="190.587" x2="188.065" y2="158.013" gradientUnits="userSpaceOnUse">
<stop stop-color="#A23200"/>
<stop offset="1" stop-color="#FF0000"/>
</linearGradient>
<clipPath id="clip0_2188_1751">
<rect width="440" height="360" fill="white"/>
</clipPath>
</defs>
</svg>
