<svg width="500" height="500" viewBox="0 0 500 500" fill="none" xmlns="http://www.w3.org/2000/svg">
<g clip-path="url(#clip0_2271_2)">
<rect width="499.999" height="500" fill="white"/>
<path d="M106.404 397.553C98.8654 396.856 91.4501 395.587 84.26 393.341C54.5815 384.068 35.7391 359.052 31.6715 332.095C28.5519 311.419 37.1328 294.43 40.392 274.519C43.4778 255.67 37.1117 239.302 34.2376 221.015C31.6792 204.741 34.2135 186.619 39.9915 171.099C47.8804 149.911 63.9296 130.794 85.8675 119.837C120.051 102.766 163.674 107.513 199.008 122.636C213.807 128.971 228 137.084 244.135 139.856C267.668 143.9 291.416 136.055 314.921 131.88C346.916 126.197 381.492 127.624 410.331 141.152C443.03 156.489 464.799 188.123 459.624 221.289C457.278 236.318 449.734 250.847 450.956 265.981C452.197 281.329 461.366 294.637 465.677 309.272C472.569 332.668 469.499 368.153 449.265 386.119C440.161 394.204 427.687 398.493 415.397 401.939C381.641 411.404 346.211 416.147 310.807 415.997C256.989 415.77 205.557 398.204 151.298 398.113C136.38 398.089 121.157 398.916 106.404 397.553Z" fill="#EEEEFF"/>
<path d="M258.915 434.996C373.107 434.996 465.678 420.012 465.678 401.527C465.678 383.043 373.107 368.058 258.915 368.058C144.723 368.058 52.1523 383.043 52.1523 401.527C52.1523 420.012 144.723 434.996 258.915 434.996Z" fill="#91B3FA"/>
<path d="M402.474 217.416C401.352 213.058 399.608 208.95 397.347 205.189L403.967 194.285L401.15 191.468L394.989 185.308L392.173 182.491L381.195 189.156C377.462 186.949 373.395 185.249 369.085 184.158L366.031 171.662H349.349L346.295 184.158C341.985 185.249 337.918 186.949 334.185 189.156L323.207 182.491L320.39 185.308L314.229 191.468L311.412 194.285L318.032 205.189C315.771 208.951 314.027 213.058 312.905 217.416L300.582 220.428V237.108L312.792 240.093C313.888 244.536 315.625 248.728 317.903 252.562L311.412 263.252L314.229 266.069L320.39 272.229L323.207 275.046L333.823 268.601C337.685 270.933 341.917 272.714 346.408 273.842L349.349 285.876H366.03L368.971 273.842C373.462 272.714 377.694 270.933 381.556 268.601L392.173 275.046L394.989 272.229L401.15 266.069L403.967 263.252L397.476 252.562C399.754 248.728 401.491 244.536 402.587 240.093L414.797 237.108V220.428L402.474 217.416ZM357.69 259.018C341.102 259.018 327.657 245.572 327.657 228.985C327.657 212.398 341.102 198.952 357.69 198.952C374.277 198.952 387.723 212.398 387.723 228.985C387.723 245.572 374.278 259.018 357.69 259.018Z" fill="#8690F1"/>
<path d="M357.688 191.824C337.283 191.824 320.742 208.364 320.742 228.768C320.742 249.172 337.283 265.712 357.688 265.712C378.092 265.712 394.631 249.171 394.631 228.768C394.631 208.364 378.092 191.824 357.688 191.824ZM357.688 259.018C341.1 259.018 327.655 245.572 327.655 228.985C327.655 212.398 341.1 198.952 357.688 198.952C374.275 198.952 387.721 212.398 387.721 228.985C387.721 245.572 374.276 259.018 357.688 259.018Z" fill="#514E92"/>
<path d="M301.09 151.864C300.32 146.85 296.229 142.861 291.037 142.353C290.098 134.272 283.232 128 274.9 128C268.381 128 262.76 131.839 260.172 137.379C259.288 137.196 258.372 137.098 257.433 137.098C250.03 137.098 244.029 143.099 244.029 150.502C244.029 150.982 244.055 151.455 244.104 151.922C240.7 152.542 238.098 155.538 238.098 159.113C238.098 163.134 241.388 166.425 245.409 166.425H300.164C304.185 166.425 307.475 163.135 307.475 159.113C307.476 155.406 304.678 152.322 301.09 151.864Z" fill="white"/>
<path d="M454.099 214.929C453.335 209.953 449.276 205.996 444.124 205.492C443.193 197.474 436.38 191.25 428.112 191.25C421.644 191.25 416.067 195.06 413.499 200.557C412.622 200.375 411.713 200.278 410.782 200.278C403.436 200.278 397.482 206.233 397.482 213.578C397.482 214.054 397.508 214.524 397.557 214.987C394.18 215.602 391.598 218.575 391.598 222.123C391.598 226.113 394.863 229.378 398.853 229.378H453.183C457.173 229.378 460.438 226.113 460.438 222.123C460.436 218.444 457.66 215.384 454.099 214.929Z" fill="white"/>
<path d="M100.174 276.384C99.2802 270.565 94.5332 265.937 88.5072 265.347C87.4182 255.97 79.4502 248.691 69.7802 248.691C62.2152 248.691 55.6932 253.146 52.6892 259.576C51.6632 259.363 50.6002 259.25 49.5112 259.25C40.9202 259.25 33.9562 266.214 33.9562 274.805C33.9562 275.362 33.9872 275.911 34.0432 276.453C30.0932 277.173 27.0742 280.649 27.0742 284.799C27.0742 289.466 30.8922 293.284 35.5592 293.284H99.1002C103.767 293.284 107.585 289.466 107.585 284.799C107.584 280.495 104.338 276.916 100.174 276.384Z" fill="white"/>
<path d="M361.293 257.326H158.227V390.194H361.293V257.326Z" fill="white"/>
<path opacity="0.45" d="M263.124 257.326H158.227V390.194H263.124V257.326Z" fill="#F1F1F1"/>
<path d="M236.177 281.003H211.086V306.094H236.177V281.003Z" fill="#ECBF4C"/>
<path d="M271.72 281.003H246.629V306.094H271.72V281.003Z" fill="#DFA331"/>
<path d="M307.267 281.003H282.176V306.094H307.267V281.003Z" fill="#ECBF4C"/>
<path d="M342.814 281.003H317.723V306.094H342.814V281.003Z" fill="#DFA331"/>
<path d="M236.177 315.851H211.086V340.942H236.177V315.851Z" fill="#DFA331"/>
<path d="M200.63 315.851H175.539V340.942H200.63V315.851Z" fill="#ECBF4C"/>
<path d="M271.72 315.851H246.629V340.942H271.72V315.851Z" fill="#ECBF4C"/>
<path d="M307.267 315.851H282.176V340.942H307.267V315.851Z" fill="#ECBF4C"/>
<path d="M342.814 315.851H317.723V340.942H342.814V315.851Z" fill="#DFA331"/>
<path d="M236.177 350.7H211.086V375.791H236.177V350.7Z" fill="#ECBF4C"/>
<path d="M200.63 350.7H175.539V375.791H200.63V350.7Z" fill="#ECBF4C"/>
<path d="M271.72 350.7H246.629V375.791H271.72V350.7Z" fill="#ECBF4C"/>
<path d="M307.267 350.7H282.176V375.791H307.267V350.7Z" fill="#DFA331"/>
<path d="M342.814 350.7H317.723V375.791H342.814V350.7Z" fill="#ECBF4C"/>
<path d="M238.739 277.786C236.987 278.238 235.485 279.488 234.116 280.612C232.661 281.806 231.264 283.066 229.878 284.338C228.041 286.023 226.244 287.748 224.481 289.508C224.195 289.243 223.909 288.98 223.62 288.718C220.952 286.298 218.177 283.995 215.332 281.787C212.653 279.708 209.744 277.247 206.483 276.212C206.026 276.067 205.631 276.613 205.868 277.012C207.556 279.848 210.459 282.035 212.913 284.206C215.553 286.542 218.195 288.875 220.737 291.319C221.074 291.644 221.407 291.975 221.741 292.303C219.356 294.791 217.033 297.338 214.778 299.944C213.592 301.315 212.436 302.699 211.337 304.141C210.176 305.665 208.882 307.185 207.989 308.882C207.34 310.115 208.855 311.259 209.887 310.347C211.231 309.159 212.347 307.704 213.551 306.374C214.764 305.033 215.949 303.668 217.148 302.315C219.431 299.739 221.781 297.224 224.194 294.77C225.455 296.076 226.689 297.409 227.883 298.774C230.165 301.383 232.069 304.407 234.595 306.779C235.643 307.763 237.699 306.805 237.161 305.285C235.957 301.879 233.481 299.049 231.145 296.35C229.826 294.826 228.446 293.363 227.02 291.945C228.78 290.215 230.565 288.51 232.378 286.838C233.709 285.611 235.064 284.412 236.395 283.186C237.651 282.03 239.092 280.781 239.832 279.209C240.185 278.463 239.605 277.562 238.739 277.786Z" fill="#5F5EA5"/>
<path d="M310.297 313.796C308.545 314.248 307.043 315.498 305.674 316.622C304.219 317.816 302.822 319.076 301.436 320.348C299.599 322.033 297.802 323.758 296.039 325.518C295.753 325.253 295.467 324.99 295.178 324.728C292.51 322.308 289.735 320.005 286.89 317.797C284.211 315.718 281.302 313.257 278.041 312.222C277.584 312.077 277.189 312.623 277.426 313.022C279.114 315.858 282.017 318.045 284.471 320.216C287.111 322.552 289.753 324.885 292.295 327.329C292.632 327.654 292.965 327.985 293.299 328.313C290.914 330.801 288.591 333.348 286.336 335.955C285.15 337.326 283.994 338.71 282.896 340.152C281.735 341.676 280.441 343.196 279.548 344.893C278.899 346.126 280.414 347.27 281.446 346.358C282.79 345.17 283.906 343.715 285.11 342.385C286.323 341.044 287.508 339.68 288.707 338.326C290.989 335.75 293.34 333.235 295.752 330.781C297.013 332.087 298.247 333.42 299.441 334.785C301.723 337.393 303.627 340.418 306.153 342.79C307.201 343.774 309.257 342.816 308.719 341.296C307.515 337.891 305.039 335.061 302.703 332.362C301.383 330.838 300.004 329.375 298.578 327.956C300.338 326.226 302.123 324.521 303.936 322.849C305.267 321.622 306.621 320.423 307.953 319.197C309.209 318.041 310.65 316.792 311.39 315.22C311.742 314.473 311.163 313.572 310.297 313.796Z" fill="#5F5EA5"/>
<path d="M361.293 226.406H158.227V264.01H361.293V226.406Z" fill="#E08675"/>
<path d="M263.124 226.406H158.227V264.01H263.124V226.406Z" fill="#DD6E5C"/>
<path d="M183.786 257.073C189.367 257.073 193.892 252.548 193.892 246.967C193.892 241.385 189.367 236.861 183.786 236.861C178.204 236.861 173.68 241.385 173.68 246.967C173.68 252.548 178.204 257.073 183.786 257.073Z" fill="white"/>
<path d="M337.122 257.073C342.703 257.073 347.228 252.548 347.228 246.967C347.228 241.385 342.703 236.861 337.122 236.861C331.54 236.861 327.016 241.385 327.016 246.967C327.016 252.548 331.54 257.073 337.122 257.073Z" fill="white"/>
<path d="M189.715 221.179V247.664C189.715 250.898 187.122 253.528 183.902 253.586C183.865 253.588 183.828 253.588 183.791 253.588C180.52 253.588 177.867 250.935 177.867 247.664V221.179C177.867 220.487 177.985 219.822 178.206 219.204C179.017 216.904 181.212 215.254 183.791 215.254C183.828 215.254 183.865 215.254 183.902 215.256C185.493 215.284 186.934 215.944 187.979 216.989C188.597 217.607 189.08 218.362 189.375 219.203C189.597 219.822 189.715 220.487 189.715 221.179Z" fill="#ECBF4C"/>
<path d="M183.902 215.257V253.586C183.865 253.588 183.828 253.588 183.791 253.588C180.52 253.588 177.867 250.935 177.867 247.664V221.179C177.867 220.487 177.985 219.822 178.206 219.204C179.017 216.904 181.212 215.254 183.791 215.254C183.827 215.255 183.864 215.255 183.902 215.257Z" fill="#DFA331"/>
<path d="M342.818 221.179V247.664C342.818 250.898 340.225 253.528 337.005 253.586C336.968 253.588 336.931 253.588 336.893 253.588C333.622 253.588 330.969 250.935 330.969 247.664V221.179C330.969 220.487 331.088 219.822 331.308 219.204C332.119 216.904 334.314 215.254 336.893 215.254C336.93 215.254 336.967 215.254 337.005 215.256C338.596 215.284 340.037 215.944 341.082 216.989C341.7 217.607 342.183 218.362 342.478 219.203C342.7 219.822 342.818 220.487 342.818 221.179Z" fill="#ECBF4C"/>
<path d="M337.005 215.257V253.586C336.968 253.588 336.931 253.588 336.893 253.588C333.622 253.588 330.969 250.935 330.969 247.664V221.179C330.969 220.487 331.088 219.822 331.308 219.204C332.119 216.904 334.314 215.254 336.893 215.254C336.931 215.255 336.968 215.255 337.005 215.257Z" fill="#DFA331"/>
<path d="M412.735 327.948C425.359 316.971 434.041 294.714 434.201 268.974H355.574C355.734 294.714 364.416 316.971 377.04 327.948C364.416 338.925 355.734 361.182 355.574 386.922H434.201C434.04 361.182 425.359 338.924 412.735 327.948Z" fill="#F1F1F1"/>
<path d="M407.64 328.213C418.218 317.879 429.82 298.253 429.955 274.02H360.191C360.325 298.252 370.643 317.806 381.221 328.14C370.643 338.474 360.444 360.829 360.31 385.062H429.955C429.82 360.83 418.217 338.547 407.64 328.213Z" fill="white"/>
<path d="M435.001 275.349H355.306C351.361 275.349 348.133 272.121 348.133 268.177C348.133 264.232 351.361 261.004 355.306 261.004H435.001C438.946 261.004 442.174 264.232 442.174 268.177C442.174 272.121 438.946 275.349 435.001 275.349Z" fill="#5F5EA5"/>
<path d="M421.451 382.937H368.32C368.349 376.044 390.954 369.418 392.406 363.19H395.77C395.952 364.004 396.529 364.829 397.389 365.657C403.105 371.159 421.426 376.947 421.451 382.937Z" fill="#ECBF4C"/>
<path d="M423.433 286.771C420.719 299.652 413.255 311.305 406.172 320.344C402.439 325.108 398.812 329.146 396.044 332.257C396.011 332.294 395.981 332.328 395.95 332.363C395.889 332.434 394.817 332.432 393.839 332.415H393.837C392.997 332.402 392.231 332.377 392.231 332.377C384.239 323.434 370.298 306.652 366.152 286.772H423.433V286.771Z" fill="#ECBF4C"/>
<path d="M395.949 322.635H392.23V368.327H395.949V322.635Z" fill="#DFA331"/>
<path d="M406.172 320.344C402.439 325.108 398.812 329.146 396.044 332.257C395.31 332.322 394.574 332.374 393.839 332.415H393.837C392.997 332.402 392.231 332.377 392.231 332.377C384.239 323.434 370.298 306.652 366.152 286.772H387.261C387.962 289.711 388.16 293.329 388.76 295.407C390.099 300.05 391.866 304.586 394.398 308.718C397.291 313.44 401.384 317.626 406.172 320.344Z" fill="#DFA331"/>
<path d="M411.283 382.937H368.32C368.349 376.044 390.954 369.418 392.406 363.19H395.707C396.016 364.118 396.366 365.038 396.806 365.941C399.513 371.5 403.503 376.388 408.161 380.428C409.17 381.304 410.211 382.14 411.283 382.937Z" fill="#DFA331"/>
<path d="M435.001 397.016H355.306C351.361 397.016 348.133 393.788 348.133 389.844C348.133 385.899 351.361 382.671 355.306 382.671H435.001C438.946 382.671 442.174 385.899 442.174 389.844C442.174 393.789 438.946 397.016 435.001 397.016Z" fill="#5F5EA5"/>
<path d="M192.583 311.403C191.032 312.097 189.097 312.894 186.955 313.397C185.995 313.618 184.976 313.781 183.942 313.869C181.505 314.046 179.186 313.677 177.163 312.835C176.026 312.363 174.977 311.727 174.046 310.959C172.481 309.659 171.402 308.079 170.442 306.587C167.429 301.891 164.711 296.957 162.363 291.906L164.475 290.916C166.632 291.108 168.699 291.625 170.472 292.836C170.827 293.088 171.166 293.339 171.476 293.634C172.673 295.938 173.958 298.198 175.331 300.414C175.759 301.137 176.217 301.861 176.675 302.57C177.354 303.633 178.019 304.638 178.772 305.273C179.865 306.174 181.549 306.602 183.41 306.469C185.596 306.322 187.841 305.406 189.539 304.652L192.583 311.403Z" fill="#ECBF4C"/>
<path d="M145.896 406.174C145.834 406.883 145.775 407.616 146.005 408.29C146.257 409.028 146.826 409.609 147.404 410.134C149.72 412.238 152.454 413.881 155.4 414.939C156.125 415.199 156.887 415.427 157.654 415.355C157.94 415.328 158.236 415.252 158.443 415.052C158.969 414.544 158.614 413.666 158.234 413.04C157.008 411.02 155.781 409 154.555 406.98C154.093 406.22 153.62 405.446 152.943 404.869C152.305 404.326 151.521 403.988 150.746 403.668C149.756 403.259 147.795 402.237 146.709 402.737C145.728 403.188 145.973 405.297 145.896 406.174Z" fill="#8690F1"/>
<path d="M160.048 399.742C159.986 400.451 159.927 401.184 160.157 401.858C160.409 402.596 160.979 403.177 161.556 403.702C163.872 405.806 166.606 407.449 169.552 408.507C170.277 408.767 171.039 408.996 171.806 408.923C172.092 408.896 172.388 408.82 172.595 408.62C173.121 408.112 172.766 407.234 172.386 406.608C171.159 404.588 169.933 402.568 168.707 400.548C168.245 399.788 167.772 399.014 167.095 398.437C166.457 397.894 165.673 397.556 164.898 397.237C163.908 396.828 161.947 395.806 160.861 396.305C159.88 396.756 160.125 398.865 160.048 399.742Z" fill="#8690F1"/>
<path d="M176.819 347.494C176.686 353.007 176.208 358.454 175.519 363.821C174.226 373.818 171.766 390.679 169.661 400.233C166.488 400.757 163.149 400.253 160.285 398.787C159.894 398.588 159.577 398.32 159.283 398.138C160.928 388.494 161.69 371.811 162.609 362.354C163.097 357.324 163.373 352.319 163.337 347.371C163.334 347.241 163.332 347.113 163.329 346.985C162.943 346.993 162.555 347.003 162.167 347.008C160.718 364.413 157.857 388.905 154.981 406.124C152.408 406.226 149.82 405.93 147.335 405.255C146.579 405.051 145.432 404.399 144.395 403.952C147.407 382.198 148.848 353.146 149.642 331.222L163.253 331.878C163.24 332.116 163.222 332.356 163.209 332.594L176.049 330.823C176.738 336.401 176.955 341.981 176.819 347.494Z" fill="#363271"/>
<path d="M177.294 338.019C177.25 338.624 177.191 339.23 176.895 339.747C176.304 340.766 175.005 341.061 173.853 341.254C168.181 342.14 162.421 342.287 156.675 342.214C150.797 342.14 148.05 343.366 148.64 337.148C149.689 326.086 149.526 314.816 148.61 303.753C148.344 300.489 148.108 296.856 150.161 294.315C152.199 291.775 155.803 291.243 159.052 290.992C160.824 290.859 162.685 290.771 164.472 290.918C166.629 291.11 168.696 291.627 170.469 292.838C170.824 293.09 171.163 293.341 171.473 293.636C173.423 295.365 174.575 297.802 175.328 300.416C175.815 302.174 176.141 304.005 176.377 305.777C176.702 308.125 176.953 310.473 177.16 312.837C177.9 321.211 177.944 329.644 177.294 338.019Z" fill="#ECBF4C"/>
<path d="M143.725 277.334C143.497 278.639 143.84 279.97 144.289 281.21C145.443 284.398 147.355 287.357 150.037 289.445C152.719 291.533 156.202 292.693 159.609 292.289C160.34 292.202 161.189 291.941 161.416 291.244C161.548 290.837 161.42 290.399 161.287 289.995C159.633 284.957 157.252 280.162 154.238 275.799C153.414 274.607 152.507 273.414 151.241 272.697C147.957 270.835 144.293 274.078 143.725 277.334Z" fill="#363271"/>
<path d="M158.086 284.186L160.26 294.599C160.688 296.648 162.718 297.958 164.795 297.524C166.872 297.09 168.208 295.077 167.781 293.029L165.607 282.616L158.086 284.186Z" fill="#F0C9A1"/>
<path d="M158.605 286.681L160.204 294.341C161.756 293.72 163.764 292.911 164.053 292.755C165.195 292.139 166.283 291.432 167.273 290.609C167.892 290.095 168.475 289.536 169.009 288.93C171.004 286.66 168.377 286.217 166.28 285.852C166.277 285.85 166.272 285.851 166.269 285.849C164.062 285.465 161.777 285.495 159.58 285.949C159.364 285.994 159.144 286.043 158.965 286.17C158.791 286.297 158.679 286.476 158.605 286.681Z" fill="#E9B588"/>
<path d="M170.277 275.324C173.246 281.464 172.349 288.039 167.173 290.541C161.997 293.043 155.395 290.094 152.426 283.954C149.457 277.814 151.247 270.807 156.423 268.305C161.598 265.803 167.308 269.183 170.277 275.324Z" fill="#F0C9A1"/>
<path d="M155.307 283.84C156.594 285.406 156.604 287.515 155.329 288.549C154.054 289.583 151.978 289.151 150.691 287.585C149.404 286.018 149.394 283.91 150.669 282.876C151.944 281.842 154.02 282.274 155.307 283.84Z" fill="#F0C9A1"/>
<path d="M155.011 282.455C155.3 282.975 155.636 283.495 155.694 284.087C155.751 284.679 155.409 285.368 154.814 285.459C154.444 285.515 154.085 285.333 153.765 285.144C151.117 283.584 148.993 281.175 147.784 278.363C147.481 277.658 147.236 276.845 147.545 276.136C147.686 275.815 147.928 275.549 148.176 275.298C148.641 274.828 149.166 274.374 149.808 274.211C150.846 273.948 151.932 274.526 152.628 275.324C154.437 277.401 153.694 280.082 155.011 282.455Z" fill="#363271"/>
<path d="M163.879 273.199C165.327 272.512 166.808 271.751 167.796 270.495C168.763 269.265 169.158 267.613 168.848 266.096C168.538 264.578 167.528 263.223 166.158 262.486C165.193 261.967 163.889 261.795 163.055 262.517C162.76 262.772 162.554 263.114 162.267 263.378C161.395 264.18 160.059 264.074 158.876 264.098C156.548 264.147 154.269 264.904 152.203 265.99C150.801 266.727 149.459 267.637 148.473 268.872C147.488 270.107 146.89 271.703 147.107 273.252C148.152 280.686 160.065 275.008 163.879 273.199Z" fill="#363271"/>
<path d="M167.843 273.062C166.471 273.725 165.772 275.216 166.059 276.627L164.449 277.406C163.521 276.304 161.918 275.927 160.547 276.59C158.929 277.372 158.24 279.307 159.012 280.904C159.784 282.5 161.728 283.163 163.346 282.381C164.964 281.599 165.652 279.664 164.881 278.067C164.868 278.041 164.853 278.017 164.839 277.991L166.275 277.297C166.287 277.324 166.296 277.351 166.309 277.377C167.081 278.973 169.025 279.636 170.643 278.854C172.261 278.072 172.949 276.137 172.178 274.54C171.405 272.942 169.461 272.28 167.843 273.062ZM163.044 281.754C161.776 282.367 160.252 281.848 159.647 280.597C159.042 279.346 159.582 277.829 160.85 277.216C162.118 276.603 163.642 277.122 164.247 278.373C164.851 279.624 164.312 281.141 163.044 281.754ZM170.34 278.227C169.072 278.84 167.548 278.321 166.943 277.07C166.338 275.819 166.878 274.302 168.146 273.689C169.414 273.076 170.938 273.595 171.543 274.846C172.148 276.097 171.608 277.614 170.34 278.227Z" fill="white"/>
<path d="M159.161 280.435L152.183 282.141L152.012 281.427L158.99 279.721L159.161 280.435Z" fill="white"/>
<path d="M198.755 294.261L128.32 371.041L138.73 380.59L209.165 303.811L198.755 294.261Z" fill="#DD6E5C"/>
<path d="M198.755 294.26L128.32 371.04L131.79 374.223L202.225 297.443L198.755 294.26Z" fill="#E08675"/>
<path d="M205.697 300.626L135.262 377.407L138.732 380.59L209.167 303.809L205.697 300.626Z" fill="#D7594A"/>
<path d="M138.738 380.579L136.129 383.423C134.694 384.987 132.349 385.193 130.918 383.88L125.713 379.105C124.281 377.792 124.284 375.438 125.719 373.874L128.328 371.03L138.738 380.579Z" fill="white"/>
<path d="M131.364 367.73L128.32 371.048L138.73 380.598L141.774 377.28L131.364 367.73Z" fill="#ECBF4C"/>
<path d="M209.168 303.796L198.758 294.247L211.216 286.91L216.632 283.718C217.329 283.306 218.073 283.971 217.742 284.706L215.137 290.507L209.168 303.796Z" fill="#ECBF4C"/>
<path d="M215.14 290.506L211.219 286.909L216.635 283.717C217.332 283.305 218.076 283.97 217.745 284.705L215.14 290.506Z" fill="#514E92"/>
<path d="M160.64 335.353C160.857 335.4 161.086 335.452 161.251 335.61C161.636 335.979 161.423 336.718 160.98 337.004C160.537 337.29 159.983 337.256 159.467 337.214C160.156 337.951 161.008 338.512 161.934 338.84C162.335 338.982 162.801 339.126 162.974 339.537C163.112 339.865 163.007 340.245 162.891 340.583C162.465 341.829 161.812 343.125 160.659 343.622C159.478 344.132 158.114 343.643 157.05 342.896C155.986 342.149 155.085 341.15 153.975 340.482C153.272 340.059 152.394 339.642 152.262 338.792C152.195 338.362 152.351 337.931 152.504 337.527C152.797 336.751 153.096 335.965 153.571 335.299C155.136 333.106 158.506 334.895 160.64 335.353Z" fill="#F0C9A1"/>
<path d="M152.99 340.209C147.99 338.584 143.558 335.074 140.832 330.579C138.106 326.084 137.04 320.532 137.91 315.347C138.246 313.342 138.877 311.261 139.839 308.985C142.541 302.591 146.857 296.946 152.319 292.662L156.924 298.533C152.454 302.039 148.923 306.658 146.712 311.891C145.98 313.624 145.508 315.158 145.269 316.582C144.691 320.03 145.399 323.721 147.212 326.71C149.025 329.699 151.972 332.033 155.297 333.113L152.99 340.209Z" fill="#ECBF4C"/>
<rect width="499.999" height="500" fill="black" style="mix-blend-mode:saturation"/>
</g>
<defs>
<clipPath id="clip0_2271_2">
<rect width="499.999" height="500" fill="white"/>
</clipPath>
</defs>
</svg>
