<svg width="400" height="400" viewBox="0 0 400 400" fill="none" xmlns="http://www.w3.org/2000/svg">
<path d="M400 0H0V400H400V0Z" fill="white"/>
<path d="M314.644 306.386C306.841 314.429 299.859 319.156 294.514 322.726C242.381 357.535 182.787 347.502 164.362 344.073C134.636 338.54 109.542 334.637 87.983 315.159C38.9933 270.899 41.376 178.569 78.8101 121.374C83.2487 114.593 120.626 59.1878 180.349 51.3808C181.81 51.1898 182.9 51.081 183.854 50.98C193.093 50.0018 250.345 44.8391 297.029 83.9504C303.711 89.549 314.465 99.6474 324.438 115.049C360.902 171.365 361.017 258.586 314.644 306.386Z" fill="url(#paint0_linear_2229_2)"/>
<path d="M345.283 288.558C341.03 245.667 330.39 139.139 328.067 123.569C325.147 103.999 301.166 108.318 301.166 108.318L296.031 306.356H329.468C333.961 306.356 338.247 304.419 341.258 301.023C344.27 297.626 345.734 293.111 345.283 288.558Z" fill="url(#paint1_linear_2229_2)"/>
<path d="M74.7703 311.348C64.3291 311.127 56.0446 302.483 56.2661 292.042L59.6763 131.268C59.8644 122.398 66.9705 115.232 75.8384 114.969L309.182 108.046C316.121 107.84 321.852 113.421 321.831 120.363L321.272 304.701C321.252 311.224 315.885 316.463 309.363 316.324L74.7703 311.348Z" fill="url(#paint2_linear_2229_2)"/>
<path d="M59.7332 297.852C56.3923 297.801 53.8691 294.808 54.3882 291.507C57.8313 269.615 68.641 194.313 65.1734 131.79C65.0154 128.939 67.2246 126.514 70.0788 126.423L304.473 118.946C307.687 118.844 310.38 121.353 310.502 124.567C311.499 150.852 315.211 259.098 310.354 297.576C310.059 299.918 308.045 301.658 305.684 301.622L59.7332 297.852Z" fill="#91B3FA"/>
<path opacity="0.6" d="M65.6545 295.39C62.4393 295.341 60.0109 292.461 60.5107 289.284C63.8239 268.217 74.2267 195.75 70.8898 135.582C70.7376 132.838 72.8635 130.505 75.6101 130.417L301.178 123.221C304.271 123.123 306.863 125.538 306.98 128.63C307.939 153.926 311.512 258.096 306.838 295.125C306.553 297.379 304.615 299.053 302.344 299.018L65.6545 295.39Z" fill="white"/>
<path opacity="0.72" d="M204.295 168.643L203.95 184.888C203.898 187.368 205.886 189.41 208.366 189.424L225.029 189.518C227.455 189.532 229.443 187.596 229.495 185.171L229.857 168.092C229.911 165.525 227.785 163.446 225.219 163.56L208.539 164.3C206.201 164.404 204.344 166.303 204.295 168.643Z" fill="white"/>
<path opacity="0.72" d="M146.038 189.288L162.701 189.382C165.127 189.395 167.115 187.46 167.167 185.034L167.475 170.508C167.529 167.956 165.426 165.883 162.874 165.975L146.197 166.574C143.844 166.658 141.965 168.564 141.916 170.919L141.622 184.752C141.57 187.231 143.558 189.274 146.038 189.288Z" fill="white"/>
<path opacity="0.72" d="M160.638 261.649L144.787 261.496C142.132 261.47 139.95 263.585 139.894 266.24L139.579 281.083C139.523 283.72 141.585 285.917 144.22 286.029L160.06 286.699C162.775 286.814 165.053 284.676 165.111 281.959L165.437 266.599C165.494 263.901 163.337 261.675 160.638 261.649Z" fill="white"/>
<path opacity="0.72" d="M133.97 280.726L134.278 266.213C134.335 263.561 132.214 261.374 129.561 261.348L113.545 261.193C110.935 261.167 108.791 263.246 108.735 265.855L108.439 279.846C108.384 282.438 110.411 284.598 113 284.707L129.006 285.385C131.674 285.498 133.914 283.396 133.97 280.726Z" fill="white"/>
<path opacity="0.72" d="M135.361 215.206L135.613 203.292C135.674 200.415 133.356 198.051 130.478 198.056L115.183 198.084C112.398 198.089 110.126 200.317 110.067 203.102L109.825 214.488C109.766 217.296 111.977 219.629 114.783 219.721L130.067 220.221C132.92 220.314 135.3 218.059 135.361 215.206Z" fill="white"/>
<path opacity="0.72" d="M134.625 249.827L135.012 231.604C135.067 228.995 133.013 226.827 130.405 226.742L114.763 226.23C111.91 226.137 109.53 228.391 109.469 231.245L109.079 249.623C109.023 252.293 111.171 254.488 113.842 254.488L129.862 254.49C132.454 254.49 134.57 252.418 134.625 249.827Z" fill="white"/>
<path opacity="0.72" d="M177.202 189.464L193.864 189.558C196.29 189.572 198.279 187.636 198.33 185.21L198.666 169.388C198.72 166.836 196.617 164.763 194.066 164.855L177.388 165.454C175.035 165.538 173.157 167.444 173.107 169.799L172.786 184.928C172.733 187.408 174.722 189.45 177.202 189.464Z" fill="white"/>
<path opacity="0.72" d="M165.793 249.749L166.155 232.706C166.211 230.051 164.121 227.845 161.467 227.759L145.624 227.24C142.927 227.152 140.677 229.284 140.62 231.982L140.247 249.541C140.19 252.258 142.376 254.491 145.093 254.491L160.947 254.493C163.584 254.494 165.737 252.386 165.793 249.749Z" fill="white"/>
<path opacity="0.72" d="M194.296 197.941L176.1 197.974C174.102 197.978 172.473 199.575 172.43 201.573L172.083 217.96C172.04 219.974 173.626 221.647 175.638 221.713L193.821 222.308C195.867 222.375 197.574 220.758 197.617 218.711L197.978 201.695C198.022 199.632 196.36 197.937 194.296 197.941Z" fill="white"/>
<path opacity="0.72" d="M203.578 202.439L203.247 218.046C203.193 220.577 205.186 222.68 207.716 222.762L224.011 223.296C226.583 223.38 228.727 221.348 228.782 218.776L229.125 202.605C229.18 200.012 227.091 197.882 224.497 197.886L208.19 197.916C205.679 197.921 203.632 199.929 203.578 202.439Z" fill="white"/>
<path opacity="0.72" d="M144.494 220.693L162.677 221.288C164.723 221.355 166.429 219.738 166.473 217.692L166.811 201.752C166.855 199.689 165.192 197.994 163.129 197.997L144.932 198.03C142.935 198.034 141.305 199.632 141.263 201.629L140.938 216.941C140.896 218.954 142.481 220.627 144.494 220.693Z" fill="white"/>
<path opacity="0.72" d="M192.613 228.778L176.771 228.259C174.074 228.171 171.823 230.303 171.766 233.001L171.415 249.545C171.357 252.261 173.544 254.495 176.261 254.495L192.114 254.497C194.752 254.497 196.905 252.389 196.961 249.752L197.301 233.725C197.357 231.071 195.267 228.865 192.613 228.778Z" fill="white"/>
<path opacity="0.72" d="M224.304 229.815L207.353 229.261C204.964 229.182 202.971 231.07 202.921 233.46L202.567 250.115C202.516 252.521 204.452 254.498 206.858 254.498L223.822 254.5C226.157 254.501 228.065 252.634 228.114 250.299L228.456 234.196C228.505 231.846 226.655 229.892 224.304 229.815Z" fill="white"/>
<path opacity="0.72" d="M117.205 188.909L129.852 188.981C133.216 189 135.973 186.316 136.044 182.953L136.266 172.519C136.333 169.366 133.734 166.806 130.583 166.919L116.508 167.425C113.315 167.539 110.766 170.126 110.698 173.321L110.513 182.035C110.434 185.793 113.447 188.888 117.205 188.909Z" fill="white"/>
<path opacity="0.72" d="M103.11 266.278C103.17 263.424 100.888 261.07 98.034 261.042L92.5246 260.989C88.3377 260.948 84.914 263.716 84.8401 267.201L84.6262 277.287C84.553 280.744 87.8031 283.641 91.9521 283.816L97.8669 284.067C100.535 284.18 102.775 282.078 102.831 279.408L103.11 266.278Z" fill="white"/>
<path opacity="0.72" d="M280.263 262.81L269.428 262.705C266.771 262.679 264.587 264.796 264.531 267.453L264.13 286.352C264.074 288.99 266.138 291.19 268.775 291.302L279.56 291.758C283.861 291.94 287.469 289.137 287.545 285.554L287.889 269.347C287.964 265.792 284.533 262.851 280.263 262.81Z" fill="white"/>
<path opacity="0.72" d="M92.9651 254.486L98.3429 254.486C101.132 254.486 103.41 252.257 103.469 249.468L103.862 230.944C103.922 228.136 101.711 225.803 98.9041 225.711L93.4911 225.534C89.2233 225.394 85.6703 228.187 85.5949 231.741L85.2512 247.948C85.1751 251.531 88.6609 254.485 92.9651 254.486Z" fill="white"/>
<path opacity="0.72" d="M93.4155 219.022L100.185 219.243C102.343 219.314 104.143 217.608 104.189 215.45L104.473 202.07C104.519 199.894 102.765 198.106 100.589 198.11L93.7529 198.123C89.6072 198.13 86.2473 200.884 86.1743 204.335L86.0012 212.489C85.9273 215.974 89.2305 218.884 93.4155 219.022Z" fill="white"/>
<path opacity="0.72" d="M281.993 161.482L271.128 161.872C268.68 161.96 266.726 163.943 266.674 166.391L266.278 185.059C266.224 187.638 268.292 189.763 270.872 189.777L282.059 189.841C286.232 189.864 289.633 187.102 289.706 183.628L290.038 168.013C290.116 164.321 286.422 161.322 281.993 161.482Z" fill="white"/>
<path opacity="0.72" d="M191.796 261.952L175.946 261.798C173.29 261.772 171.109 263.887 171.052 266.542L170.716 282.401C170.66 285.038 172.722 287.235 175.357 287.347L191.196 288.017C193.911 288.132 196.19 285.994 196.248 283.277L196.595 266.901C196.652 264.203 194.495 261.978 191.796 261.952Z" fill="white"/>
<path opacity="0.72" d="M281.537 197.784L270.524 197.803C268.014 197.808 265.966 199.816 265.913 202.326L265.536 220.085C265.482 222.615 267.475 224.718 270.005 224.801L281.062 225.163C285.33 225.303 288.882 222.509 288.958 218.955L289.268 204.321C289.344 200.732 285.848 197.776 281.537 197.784Z" fill="white"/>
<path opacity="0.72" d="M281.136 231.675L269.642 231.299C267.253 231.221 265.26 233.109 265.21 235.498L264.899 250.122C264.848 252.527 266.784 254.505 269.19 254.505L280.74 254.507C284.892 254.507 288.263 251.751 288.336 248.294L288.55 238.208C288.624 234.722 285.321 231.812 281.136 231.675Z" fill="white"/>
<path opacity="0.72" d="M234.063 234.479L233.731 250.118C233.681 252.524 235.616 254.502 238.023 254.502L254.986 254.504C257.322 254.504 259.229 252.637 259.278 250.302L259.598 235.215C259.648 232.865 257.797 230.911 255.447 230.835L238.495 230.28C236.107 230.201 234.114 232.089 234.063 234.479Z" fill="white"/>
<path opacity="0.72" d="M254.112 262.556L238.27 262.402C235.612 262.377 233.429 264.494 233.373 267.15L232.993 285.033C232.937 287.672 235.001 289.872 237.638 289.983L253.47 290.653C256.187 290.769 258.468 288.628 258.525 285.909L258.916 267.51C258.973 264.81 256.813 262.582 254.112 262.556Z" fill="white"/>
<path opacity="0.72" d="M94.3049 188.78L100.935 188.817C103.053 188.829 104.788 187.14 104.833 185.022L105.111 171.936C105.158 169.708 103.322 167.898 101.095 167.979L94.0728 168.231C90.0533 168.375 86.8783 171.087 86.8075 174.437L86.6418 182.243C86.5662 185.809 90.0205 188.756 94.3049 188.78Z" fill="white"/>
<path opacity="0.72" d="M222.95 262.254L207.374 262.103C204.569 262.075 202.264 264.31 202.205 267.115L201.853 283.715C201.797 286.354 203.861 288.554 206.498 288.665L222.329 289.335C225.046 289.45 227.327 287.31 227.384 284.591L227.753 267.208C227.811 264.507 225.651 262.28 222.95 262.254Z" fill="white"/>
<path opacity="0.72" d="M235.487 167.512L235.118 184.883C235.063 187.462 237.132 189.587 239.712 189.601L256.017 189.693C258.541 189.708 260.609 187.694 260.663 185.171L261.045 167.121C261.102 164.466 258.914 162.31 256.26 162.406L239.94 162.992C237.493 163.08 235.539 165.063 235.487 167.512Z" fill="white"/>
<path opacity="0.72" d="M234.746 202.382L234.392 219.065C234.338 221.596 236.33 223.699 238.86 223.782L255.156 224.315C257.727 224.399 259.872 222.367 259.927 219.795L260.292 202.549C260.348 199.956 258.258 197.825 255.665 197.83L239.357 197.86C236.846 197.864 234.799 199.872 234.746 202.382Z" fill="white"/>
<path d="M92.4985 154.158L93.2493 159.659C93.4898 161.421 94.9756 162.746 96.753 162.783L97.0129 162.789C99.008 162.831 100.66 161.248 100.702 159.253L100.822 153.621C100.868 151.439 98.9833 149.714 96.8136 149.953L95.6836 150.078C93.6632 150.3 92.2237 152.144 92.4985 154.158Z" fill="white"/>
<path d="M118.034 152.742L118.784 158.243C119.025 160.005 120.511 161.33 122.288 161.367L122.548 161.373C124.543 161.415 126.195 159.832 126.237 157.837L126.357 152.206C126.403 150.023 124.519 148.298 122.349 148.537L121.219 148.662C119.198 148.884 117.759 150.728 118.034 152.742Z" fill="white"/>
<path d="M149.448 153.174L150.199 158.676C150.439 160.437 151.925 161.762 153.702 161.8L153.962 161.805C155.957 161.848 157.609 160.264 157.651 158.269L157.771 152.638C157.817 150.456 155.933 148.731 153.763 148.97L152.633 149.094C150.612 149.316 149.173 151.16 149.448 153.174Z" fill="white"/>
<path d="M180.057 151.804L180.808 157.305C181.048 159.066 182.534 160.391 184.311 160.429L184.571 160.434C186.567 160.477 188.218 158.894 188.261 156.898L188.38 151.267C188.426 149.085 186.542 147.36 184.372 147.599L183.242 147.723C181.222 147.946 179.782 149.79 180.057 151.804Z" fill="white"/>
<path d="M211.495 147.806L212.245 153.307C212.486 155.069 213.972 156.394 215.749 156.431L216.009 156.437C218.004 156.479 219.656 154.896 219.698 152.901L219.818 147.27C219.864 145.087 217.98 143.363 215.81 143.601L214.68 143.726C212.659 143.948 211.22 145.792 211.495 147.806Z" fill="white"/>
<path d="M244.795 148.513L245.546 154.014C245.786 155.775 247.272 157.1 249.05 157.138L249.31 157.143C251.305 157.186 252.957 155.602 252.999 153.607L253.118 147.976C253.165 145.794 251.28 144.069 249.11 144.308L247.98 144.432C245.96 144.655 244.521 146.499 244.795 148.513Z" fill="white"/>
<path d="M272.909 147.924L273.659 153.425C273.9 155.186 275.386 156.511 277.163 156.549L277.423 156.554C279.418 156.597 281.07 155.014 281.112 153.018L281.232 147.387C281.278 145.205 279.394 143.48 277.224 143.719L276.094 143.843C274.073 144.066 272.634 145.91 272.909 147.924Z" fill="white"/>
<path d="M224.752 145.937C224.683 144.748 223.441 144.238 222.526 144.959C219.942 146.994 218.892 150.155 217.619 153.103C216.135 156.538 214.713 160 213.45 163.524C212.118 167.238 210.983 171.018 210.118 174.857C208.403 170.272 206.411 165.805 203.884 161.567C203.213 160.442 201.318 161.1 201.693 162.436C203.879 170.205 206.568 177.816 208.627 185.625C209.353 188.38 213.121 187.729 213.402 185.081C214.168 177.85 215.914 170.933 218.393 164.103C219.572 160.856 220.887 157.659 222.251 154.486C223.458 151.676 224.934 149.057 224.752 145.937Z" fill="url(#paint3_linear_2229_2)"/>
<path d="M228.301 151.699C226.054 151.278 225.236 154.155 227.297 155.062C240.935 161.062 242.718 177.97 232.866 188.208C228.309 192.943 222.263 196.618 216.538 199.777C210.731 202.981 204.249 205.429 197.511 204.752C181.892 203.183 179.769 187.286 184.438 175.019C188.93 163.22 198.549 154.112 210.326 149.746C211.848 149.182 211.258 146.705 209.699 147.264C198.649 151.227 189.244 159.043 183.418 169.272C178.059 178.681 174.844 191.953 181.859 201.397C189.118 211.171 202.897 211.346 213.279 207.271C224.698 202.79 238.917 194.476 243.463 182.41C248.225 169.77 242.347 154.327 228.301 151.699Z" fill="url(#paint4_linear_2229_2)"/>
<path d="M321.834 303.304C321.509 303.304 321.245 303.041 321.242 302.716L320.523 198.919C320.521 198.592 320.784 198.325 321.111 198.323H321.115C321.44 198.323 321.704 198.585 321.707 198.911L322.426 302.708C322.428 303.035 322.165 303.301 321.838 303.304H321.834Z" fill="#91B3FA"/>
<path d="M320.948 175.673C320.623 175.673 320.359 175.411 320.357 175.086L320.105 138.834C320.103 138.507 320.366 138.241 320.693 138.238H320.697C321.022 138.238 321.286 138.5 321.289 138.826L321.54 175.078C321.542 175.404 321.279 175.671 320.952 175.673C320.952 175.673 320.95 175.673 320.948 175.673Z" fill="#91B3FA"/>
<path d="M100.625 144.965C103.968 143.953 105.857 140.422 104.845 137.079C103.833 133.736 100.302 131.847 96.9593 132.859C93.6163 133.871 91.7268 137.402 92.739 140.745C93.7513 144.088 97.2818 145.977 100.625 144.965Z" fill="#91B3FA"/>
<path d="M154.295 143.552C157.129 141.51 157.77 137.557 155.728 134.724C153.686 131.89 149.733 131.249 146.9 133.291C144.066 135.333 143.425 139.286 145.467 142.119C147.51 144.953 151.462 145.594 154.295 143.552Z" fill="#91B3FA"/>
<path d="M204.362 142.861C207.761 142.059 209.866 138.653 209.064 135.253C208.261 131.854 204.855 129.749 201.456 130.552C198.056 131.354 195.951 134.761 196.754 138.16C197.557 141.559 200.963 143.664 204.362 142.861Z" fill="#91B3FA"/>
<path d="M260.892 135.762C261.695 132.363 259.59 128.957 256.19 128.154C252.791 127.351 249.385 129.456 248.582 132.855C247.78 136.255 249.885 139.661 253.284 140.464C256.683 141.266 260.089 139.161 260.892 135.762Z" fill="#91B3FA"/>
<path d="M259.539 90.4668C248.896 92.7889 249.901 120.788 250.757 132.156C250.959 134.831 253.186 136.894 255.869 136.894C256.614 136.894 257.323 136.574 257.821 136.019C258.318 135.465 258.556 134.724 258.477 133.983C257.557 125.391 255.601 100.649 263.436 99.3261C263.436 99.3261 269.056 98.3316 270.002 109.218H276.082C276.082 109.218 272.919 87.5476 259.539 90.4668Z" fill="url(#paint5_linear_2229_2)"/>
<path d="M207.723 91.9067C197.08 94.2288 198.084 122.238 198.941 133.606C199.142 136.281 201.37 138.349 204.053 138.349C204.797 138.349 205.507 138.031 206.004 137.477C206.502 136.922 206.739 136.182 206.66 135.442C205.741 126.85 203.785 102.088 211.62 100.765C211.62 100.765 217.24 99.9884 218.185 110.638H224.266C224.266 110.638 221.103 88.9874 207.723 91.9067Z" fill="url(#paint6_linear_2229_2)"/>
<path d="M155.902 93.3532C145.26 95.6752 146.264 123.691 147.12 135.059C147.322 137.734 149.55 139.805 152.232 139.805C152.977 139.805 153.686 139.489 154.184 138.934C154.681 138.38 154.919 137.641 154.84 136.9C153.92 128.309 151.964 103.535 159.799 102.212C159.799 102.212 165.417 101.579 166.362 112.283L172.445 112.072C172.445 112.072 169.283 90.4338 155.902 93.3532Z" fill="url(#paint7_linear_2229_2)"/>
<path d="M104.086 95.0264C93.4434 97.3484 94.4474 125.379 95.3039 136.747C95.5054 139.422 97.7333 141.501 100.416 141.501C101.16 141.501 101.87 141.188 102.367 140.634C102.865 140.08 103.103 139.342 103.023 138.602C102.104 130.01 100.148 105.207 107.983 103.884C107.983 103.884 113.603 103.065 114.548 113.715H120.629C120.629 113.715 117.466 92.107 104.086 95.0264Z" fill="url(#paint8_linear_2229_2)"/>
<path d="M294.379 246.458C294.211 246.458 294.06 246.34 294.025 246.168C293.985 245.973 294.112 245.782 294.308 245.742C296.36 245.327 298.146 243.966 299.337 241.91C300.835 239.325 301.199 236.009 300.285 233.255C298.463 227.763 293.188 224.393 289.084 222.532C286.869 221.527 284.524 220.704 282.256 219.909C279.485 218.937 276.619 217.932 273.945 216.581C267.723 213.439 262.96 208.586 260.535 202.919C257.607 196.075 257.946 187.593 261.464 179.648C264.272 173.308 268.874 167.371 275.944 160.964C276.614 160.357 277.294 159.756 277.974 159.154C281.142 156.352 284.417 153.454 286.716 149.882C289.177 146.058 290.871 140.265 288.246 135.475C288.15 135.3 288.214 135.081 288.389 134.984C288.564 134.888 288.784 134.953 288.88 135.128C290.701 138.45 291.249 144.174 287.324 150.274C284.971 153.93 281.658 156.861 278.453 159.696C277.775 160.296 277.098 160.895 276.43 161.5C269.437 167.837 264.892 173.696 262.126 179.941C258.688 187.703 258.35 195.974 261.2 202.634C263.558 208.146 268.2 212.87 274.272 215.936C276.903 217.265 279.746 218.262 282.495 219.227C284.778 220.027 287.138 220.856 289.383 221.873C293.618 223.794 299.066 227.288 300.971 233.028C301.948 235.972 301.562 239.515 299.963 242.273C298.666 244.51 296.709 245.994 294.451 246.451C294.427 246.456 294.403 246.458 294.379 246.458Z" fill="white"/>
<path d="M304.366 84.4629C308.554 107.882 302.64 131.235 285.731 134.258C268.823 137.282 247.323 118.832 243.135 95.4128C238.947 71.994 253.657 52.4749 270.565 49.4511C287.474 46.4274 300.178 61.044 304.366 84.4629Z" fill="url(#paint9_linear_2229_2)"/>
<path opacity="0.36" d="M257.219 65.523C260.588 62.2403 260.703 64.2241 259.22 72.9371C257.737 81.65 256.981 96.3156 252.969 94.6676C248.957 93.0196 248.298 74.2146 257.219 65.523Z" fill="white"/>
<path opacity="0.36" d="M259.672 101.917C259.963 103.545 258.879 105.1 257.252 105.391C255.624 105.682 254.069 104.598 253.778 102.971C253.487 101.343 254.57 99.7881 256.198 99.497C257.825 99.2059 259.381 100.289 259.672 101.917Z" fill="white"/>
<path d="M68.512 123.326C69.6587 125.343 68.927 127.924 66.922 129.17C64.9163 130.413 62.2712 129.928 60.972 128.005C59.6731 126.085 60.3345 123.372 62.4933 122.034C64.6512 120.693 67.3668 121.31 68.512 123.326Z" fill="url(#paint10_linear_2229_2)"/>
<path d="M70.8799 108.052C72.0484 110.542 70.8046 113.591 68.1595 114.985C65.5125 116.375 62.2882 115.678 60.897 113.305C59.5079 110.935 60.6556 107.683 63.5242 106.176C66.3939 104.665 69.7124 105.565 70.8799 108.052Z" fill="#BDD0FB"/>
<path d="M58.0759 115.256C58.9773 116.719 58.3754 118.728 56.7607 119.789C55.1433 120.849 53.0595 120.604 52.0744 119.196C51.0909 117.788 51.6488 115.701 53.3472 114.587C55.0447 113.472 57.1757 113.794 58.0759 115.256Z" fill="#BDD0FB"/>
<path d="M92.622 98.0148C93.5764 101.229 91.4883 104.687 88.0222 105.932C84.5539 107.171 80.7437 105.826 79.439 102.738C78.1368 99.6539 80.1133 95.8769 83.9307 94.5114C87.7476 93.142 91.6701 94.806 92.622 98.0148Z" fill="#BDD0FB"/>
<path d="M77.1247 93.1015C78.3144 96.1442 76.3787 99.747 72.8802 101.342C69.3794 102.93 65.3822 102.024 63.8722 99.1271C62.3627 96.2363 64.1656 92.3165 67.9878 90.581C71.8089 88.8414 75.9375 90.0642 77.1247 93.1015Z" fill="url(#paint11_linear_2229_2)"/>
<path d="M56.2069 132.104C56.9669 133.145 56.709 134.627 55.6465 135.439C54.5835 136.251 53.0826 136.112 52.2781 135.105C51.4748 134.098 51.7065 132.577 52.8144 131.731C53.9217 130.885 55.4468 131.064 56.2069 132.104Z" fill="url(#paint12_linear_2229_2)"/>
<path d="M108.328 79.5707C108.713 81.8593 106.744 84.0995 103.958 84.6806C101.169 85.2587 98.4752 83.988 97.9167 81.7356C97.3576 79.4865 99.2859 77.0725 102.248 76.4577C105.21 75.8404 107.945 77.2849 108.328 79.5707Z" fill="url(#paint13_linear_2229_2)"/>
<path d="M92.3309 83.6757C93.0549 86.3296 91.0274 89.1958 87.8474 90.2227C84.6661 91.245 81.3479 90.1011 80.3856 87.524C79.4242 84.9513 81.3754 81.8479 84.7951 80.7482C88.2125 79.6457 91.61 81.0256 92.3309 83.6757Z" fill="#91B3FA"/>
<path d="M127.777 73.9376C127.923 77.2872 124.659 80.1535 120.519 80.57C116.376 80.9785 112.631 78.8099 112.113 75.4967C111.596 72.1906 114.804 68.9451 119.316 68.4981C123.829 68.0463 127.633 70.5938 127.777 73.9376Z" fill="url(#paint14_linear_2229_2)"/>
<path d="M108.58 66.1259C109.068 69.3563 106.018 72.4984 101.817 73.3704C97.6147 74.2349 93.5778 72.5577 92.7451 69.3983C91.914 66.2451 94.8757 62.7323 99.4244 61.7947C103.972 60.8519 108.095 62.9013 108.58 66.1259Z" fill="url(#paint15_linear_2229_2)"/>
<path d="M145.986 59.6465C145.85 61.9635 143.14 63.692 139.937 63.6325C136.735 63.5689 134.109 61.7369 134.063 59.4169C134.017 57.0999 136.716 55.1688 140.098 55.2353C143.48 55.2996 146.12 57.3332 145.986 59.6465Z" fill="url(#paint16_linear_2229_2)"/>
<path d="M127.492 60.0919C127.609 62.8407 124.668 65.2002 120.944 65.5332C117.218 65.861 113.923 64.0531 113.555 61.3269C113.187 58.6057 116.089 55.9689 120.065 55.618C124.039 55.2635 127.376 57.3483 127.492 60.0919Z" fill="#91B3FA"/>
<path d="M79.7767 75.1272C80.2728 77.7451 78.2856 80.322 75.3682 81.0117C72.4489 81.6977 69.5259 80.2772 68.8004 77.7133C68.0759 75.1531 70.0102 72.3653 73.157 71.6257C76.3021 70.8829 79.2829 72.5124 79.7767 75.1272Z" fill="#BDD0FB"/>
<path d="M296.465 238.254C296.332 238.254 296.205 238.181 296.141 238.054C296.052 237.876 296.125 237.658 296.303 237.569C299.563 235.944 300.742 231.792 300.223 228.53C299.636 224.844 297.376 221.683 295.244 219.077C294.748 218.471 294.24 217.872 293.732 217.272C291.88 215.084 289.964 212.822 288.626 210.222C285.537 204.221 285.644 196.311 288.914 189.063C292.235 181.699 298.2 175.938 302.399 172.245C302.845 171.852 303.295 171.462 303.746 171.072C306.323 168.839 308.987 166.531 310.911 163.701C313.439 159.984 314.18 155.796 312.892 152.499C312.82 152.313 312.912 152.103 313.098 152.031C313.283 151.958 313.493 152.05 313.566 152.236C314.94 155.756 314.171 160.194 311.51 164.108C309.532 167.016 306.831 169.356 304.22 171.618C303.77 172.008 303.321 172.397 302.876 172.788C298.729 176.437 292.837 182.125 289.573 189.36C286.393 196.409 286.28 204.084 289.269 209.891C290.57 212.417 292.458 214.648 294.285 216.805C294.795 217.408 295.305 218.01 295.803 218.619C297.997 221.3 300.323 224.56 300.937 228.416C301.498 231.938 300.197 236.436 296.626 238.217C296.574 238.242 296.519 238.254 296.465 238.254Z" fill="white"/>
<path d="M344.459 123.582C338.443 143.847 324.431 160.029 309.8 155.685C295.169 151.342 285.458 128.116 291.475 107.852C297.491 87.5868 316.956 77.9566 331.588 82.3006C346.219 86.6445 350.475 103.317 344.459 123.582Z" fill="#91B3FA"/>
<path opacity="0.36" d="M314.581 89.738C318.566 88.4756 317.866 90.0966 313.213 96.4231C308.56 102.749 302.11 114.092 299.582 111.183C297.054 108.274 304.031 93.0804 314.581 89.738Z" fill="white"/>
<path opacity="0.36" d="M302.012 119.613C301.594 121.021 300.113 121.824 298.704 121.406C297.296 120.988 296.493 119.507 296.911 118.099C297.33 116.69 298.81 115.887 300.219 116.306C301.627 116.724 302.43 118.204 302.012 119.613Z" fill="white"/>
<path d="M137.285 177.372L124.205 167.199C123.904 166.965 123.47 167.21 123.515 167.588L125.453 184.06L137.285 177.372Z" fill="url(#paint17_linear_2229_2)"/>
<path d="M84.6699 282.207C84.6699 282.207 82.5649 279.091 80.2671 276.206C79.369 275.078 77.7942 274.841 76.8117 275.675C73.4737 278.51 66.3606 284.602 64.0196 287.015C63.6677 287.378 63.8209 288.026 64.3159 288.283C64.7307 288.498 65.1944 288.552 65.6107 288.435L82.3372 283.707L84.6699 282.207Z" fill="url(#paint18_linear_2229_2)"/>
<path d="M86.4739 283.508L83.0578 280.619C83.0578 280.619 79.8792 281.654 79.4492 284.228L83.7443 286.992L86.4739 283.508Z" fill="url(#paint19_linear_2229_2)"/>
<path d="M162.179 206.345C167.509 194.385 172.541 176.511 166.679 158.647L163.283 155.252C163.283 155.252 163.282 183.231 156.32 197.126C158.266 200.203 160.212 203.281 162.179 206.345Z" fill="url(#paint20_linear_2229_2)"/>
<path d="M162.466 149.905L161.185 151.827C160.832 152.356 160.74 153.014 160.94 153.618C161.46 155.194 162.636 158.294 164.293 159.951C166.576 162.234 168.859 156.754 169.316 154.928C169.772 153.101 166.576 148.535 165.663 147.622C164.749 146.708 161.096 147.165 162.466 149.905Z" fill="url(#paint21_linear_2229_2)"/>
<path d="M144.972 338.144C144.972 338.144 144.316 341.858 143.994 345.535C143.868 346.972 144.976 348.22 146.418 348.28C151.314 348.484 161.789 348.881 165.547 348.713C166.112 348.688 166.481 348.109 166.272 347.584C166.097 347.143 165.759 346.787 165.328 346.589L148.027 338.638L144.972 338.144Z" fill="url(#paint22_linear_2229_2)"/>
<path d="M144.434 335.961L144.961 340.404C144.961 340.404 147.992 341.815 150.061 340.227L148.806 335.275L144.434 335.961Z" fill="url(#paint23_linear_2229_2)"/>
<path d="M144.832 252.43C144.604 253.59 143.609 310.331 149.674 335.758C149.773 336.173 149.563 336.601 149.168 336.762C148.238 337.142 146.414 337.692 144.229 337.766C143.552 337.789 142.945 337.349 142.754 336.699C141.02 330.8 129.109 296.663 128.025 268.426C126.814 236.875 132.339 252.427 132.339 252.427L144.832 252.43Z" fill="url(#paint24_linear_2229_2)"/>
<path d="M118.625 253.445C113.538 266.272 111.875 268.277 109.605 282.921C106.884 300.481 93.5976 288.355 86.5034 282.654C85.6068 281.933 82.9422 284.514 82.6827 288.143C82.3442 292.874 111.006 315.333 118.76 299.455C123.712 289.313 125.084 277.9 128.372 271.586C128.783 270.798 129.453 270.178 130.269 269.828L140.387 265.494L143.242 255.565L118.625 253.445Z" fill="url(#paint25_linear_2229_2)"/>
<path d="M113.089 207.888C107.759 195.928 102.727 178.055 108.589 160.191L111.985 156.795C111.985 156.795 111.986 184.774 118.948 198.669C117.002 201.746 115.056 204.825 113.089 207.888Z" fill="url(#paint26_linear_2229_2)"/>
<path d="M144.838 203.608H128.1C126.418 203.608 124.804 202.963 123.586 201.804C122.026 200.32 120.019 197.804 118.598 193.843C118.382 193.242 117.737 192.912 117.125 193.093C114.971 193.732 110.259 195.559 107.787 199.815C107.555 200.213 107.559 200.707 107.809 201.094L118.25 217.251L117.221 257.109C117.221 257.109 143.457 261.224 147.058 257.109L150.659 220.584C150.659 220.584 163.52 212.868 167.121 200.521L156.318 194.348C156.318 194.348 155.059 194.4 153.985 197.293C152.571 201.103 148.902 203.608 144.838 203.608Z" fill="url(#paint27_linear_2229_2)"/>
<path d="M130.508 191.431L130.122 204.35C130.097 205.177 130.614 205.924 131.4 206.184C133.008 206.716 135.92 207.376 139.176 206.673C140.148 206.463 140.768 205.504 140.598 204.525L138.828 194.348L130.508 191.431Z" fill="url(#paint28_linear_2229_2)"/>
<path d="M139.362 179.603C139.479 179.749 143.384 190.376 145.102 195.058C145.537 196.244 144.891 197.549 143.686 197.926L139.908 198.615C137.404 199.072 134.917 197.738 133.914 195.399L129.365 190.099C126.893 187.219 127.742 182.764 131.124 181.039C134.455 179.341 138.108 178.03 139.362 179.603Z" fill="url(#paint29_linear_2229_2)"/>
<path d="M131.844 191.288L132.925 190.747C132.925 190.747 128.601 183.72 133.466 183.179C138.331 182.639 142.656 181.558 142.656 178.855C142.656 176.152 142.656 171.287 136.709 173.449C130.763 175.611 131.304 179.395 128.06 179.936C124.817 180.477 122.114 181.017 123.195 184.26C124.276 187.504 126.439 189.666 125.357 190.747C124.277 191.828 129.142 197.234 131.844 191.288Z" fill="url(#paint30_linear_2229_2)"/>
<path d="M133 193.393C133 193.393 132.101 188.641 130.095 188.523C128.089 188.405 126.246 190.156 128.384 192.728C131.044 195.927 133 193.393 133 193.393Z" fill="url(#paint31_linear_2229_2)"/>
<path d="M112.8 151.448L114.082 153.37C114.434 153.9 114.526 154.558 114.327 155.162C113.806 156.738 112.631 159.837 110.974 161.494C108.69 163.777 106.407 158.298 105.951 156.471C105.494 154.645 108.69 150.078 109.604 149.165C110.517 148.252 114.17 148.708 112.8 151.448Z" fill="url(#paint32_linear_2229_2)"/>
<path d="M283.352 181.771C283.352 181.771 287.089 183.589 287.776 185.677C288.328 187.352 292.46 187.568 292.868 190.864C293.079 192.565 294.337 193.927 296.032 194.187C300.252 194.834 306.756 197.025 307.797 204.353C308.591 209.946 305.74 212.066 302.748 212.8C300.55 213.34 299.089 215.477 299.534 217.696C299.96 219.824 299.324 222.284 295.638 224.23C287.376 228.589 279.125 213.902 279.125 213.902L277.434 188.256L283.352 181.771Z" fill="url(#paint33_linear_2229_2)"/>
<path d="M238.394 175.691C238.394 175.691 254.89 201.784 274.506 206.824C274.506 206.824 270.684 217.71 267.733 218.956C267.733 218.956 243.6 198.819 237.398 179.399L238.394 175.691Z" fill="url(#paint34_linear_2229_2)"/>
<path d="M317.312 342.578L317.847 346.974C317.948 347.807 318.604 348.467 319.439 348.562C320.848 348.723 323.109 348.888 325.321 348.654C326.292 348.552 326.923 347.568 326.627 346.638C326.088 344.941 325.101 342.394 323.679 340.895H318.803C317.902 340.895 317.203 341.684 317.312 342.578Z" fill="url(#paint35_linear_2229_2)"/>
<path d="M279.125 291.092L278.302 295.932C278.302 295.932 281.057 323.847 281.548 335.012C281.625 336.763 281.172 338.493 280.253 339.985L275.461 347.767L287.639 340.58L287.882 339.094L285.888 336.353L288.5 305.082C288.653 303.245 288.274 301.403 287.408 299.775L284.889 295.043L279.125 291.092Z" fill="url(#paint36_linear_2229_2)"/>
<path d="M274.657 348.894H278.543C279.271 348.894 279.957 348.56 280.4 347.984C281.612 346.409 284.122 343.338 285.323 343.258C286.938 343.15 286.732 348.894 286.732 348.894H287.637L288.785 341.756C289.073 339.96 288.18 338.181 286.567 337.339C286.567 337.339 286.198 340.071 284.195 341.279C282.192 342.487 276.045 346.815 276.045 346.815C276.045 346.815 275.292 346.707 274.465 346.857C273.239 347.078 273.411 348.894 274.657 348.894Z" fill="url(#paint37_linear_2229_2)"/>
<path d="M295.805 293.391C295.805 293.391 311.949 324.015 314.516 331.007C317.082 338 317.981 343.832 318.015 344.385C318.069 345.248 319.143 346.076 322.102 346.076C323.629 346.076 324.377 345.464 324.743 344.871C325.055 344.366 325.072 343.733 324.808 343.2C323.875 341.31 320.911 335.27 319.813 332.531C318.503 329.26 315.684 314.438 314.138 309.284C312.592 304.13 310.844 298.54 304.112 293.391C304.112 293.391 299.491 288.864 295.805 293.391Z" fill="url(#paint38_linear_2229_2)"/>
<path d="M285.604 243.211C281.44 225.564 291.99 215.583 291.99 215.583C285.333 209.193 273.204 206.286 273.204 206.286C273.204 206.286 261.631 214.747 263.004 221.37C263.808 225.251 271.139 244.62 271.139 244.62C271.139 244.62 277.917 247.828 285.604 243.211Z" fill="url(#paint39_linear_2229_2)"/>
<path d="M294.84 251.947C293.145 246.842 285.607 243.211 285.607 243.211C277.919 247.828 271.141 244.62 271.141 244.62C271.141 244.62 269.621 250.43 270.67 255.83C271.719 261.23 278.302 295.933 278.302 295.933C288.674 298.034 304.625 293.818 304.625 293.818C298.019 282.089 296.535 257.053 294.84 251.947Z" fill="url(#paint40_linear_2229_2)"/>
<path d="M280.77 194.624L284.156 209.833C284.48 211.172 283.259 210.953 281.905 210.698C279.687 210.28 276.828 209.418 275.872 207.692C275.775 207.517 275.727 207.318 275.699 207.119L274.244 196.573C274.129 195.737 274.581 194.924 275.353 194.582L278.16 193.338C279.241 192.858 280.492 193.475 280.77 194.624Z" fill="url(#paint41_linear_2229_2)"/>
<path d="M274.285 180.76C274.285 180.76 270.68 183.2 269.131 189.414C267.582 195.628 270.1 197.857 272.68 197.72C275.26 197.583 279.001 196.786 282.243 192.328C285.484 187.87 279.008 177.778 274.285 180.76Z" fill="url(#paint42_linear_2229_2)"/>
<path d="M278.973 189.821C278.973 189.821 280.293 180.917 272.901 182.279L271.406 183.836C271.406 183.836 267.787 179.761 271.792 176.68C275.796 173.6 281.353 174.389 284.427 179.997C287.501 185.604 288.617 189.545 286.04 193.03C283.464 196.514 281.525 193.526 281.525 193.526C281.525 193.526 282.707 190.51 281.727 189.215C280.746 187.921 279.481 189.968 279.481 189.968L278.973 189.821Z" fill="url(#paint43_linear_2229_2)"/>
<path d="M279.219 191.156C279.219 191.156 279.871 186.575 282.21 187.884C284.55 189.194 281.367 192.164 280.091 193.174L279.219 191.156Z" fill="url(#paint44_linear_2229_2)"/>
<path d="M238.507 181.063C238.457 181.601 240.459 181.973 241.096 179.679C240.921 178.682 240.61 174.32 239.846 173.642C235.778 170.033 228.524 165.972 228.524 165.972C227.712 167.211 228.776 168.027 228.776 168.027L232.398 170.47C232.02 171.721 231.469 172.828 231.406 174.256C231.359 175.338 231.759 176.397 232.477 177.217C233.197 178.041 234.167 179.104 235.042 179.911C236.697 181.439 238.507 181.063 238.507 181.063Z" fill="url(#paint45_linear_2229_2)"/>
<path d="M236.558 179.277L237.075 179.065C237.001 178.885 235.265 174.666 234.427 173.79C234.104 173.453 233.947 173.162 233.962 172.926C233.97 172.794 234.037 172.663 234.164 172.53L237.113 174.107L238.409 176.138L238.88 175.837L237.505 173.683L234.089 171.857L233.945 171.974C233.602 172.254 233.425 172.554 233.404 172.892C233.379 173.295 233.582 173.716 234.023 174.177C234.658 174.841 236.068 178.083 236.558 179.277Z" fill="url(#paint46_linear_2229_2)"/>
<path d="M291.991 215.583C291.991 215.583 310.735 254.069 317.523 257.433C317.523 257.433 324.416 258.153 328.633 259.429C329.695 259.75 329.659 261.257 328.59 261.548C325.652 262.35 320.785 263.019 316.325 260.598C316.325 260.598 318.721 264.189 317.324 265.588C317.324 265.588 314.129 261.796 312.931 260.598C311.877 259.543 292.681 238.616 284.611 225.995C283.959 224.976 284.412 221.945 284.865 220.823C285.907 218.24 288.22 214.116 291.991 215.583Z" fill="url(#paint47_linear_2229_2)"/>
<rect width="400" height="400" fill="black" style="mix-blend-mode:saturation"/>
<defs>
<linearGradient id="paint0_linear_2229_2" x1="391.895" y1="378.368" x2="160.073" y2="170.41" gradientUnits="userSpaceOnUse">
<stop stop-color="#DAE3FE"/>
<stop offset="1" stop-color="#E9EFFD"/>
</linearGradient>
<linearGradient id="paint1_linear_2229_2" x1="348.271" y1="188.614" x2="231.812" y2="259.501" gradientUnits="userSpaceOnUse">
<stop stop-color="#09005D"/>
<stop offset="1" stop-color="#1A0F91"/>
</linearGradient>
<linearGradient id="paint2_linear_2229_2" x1="430.063" y1="-90.5222" x2="325.901" y2="43.297" gradientUnits="userSpaceOnUse">
<stop stop-color="#09005D"/>
<stop offset="1" stop-color="#1A0F91"/>
</linearGradient>
<linearGradient id="paint3_linear_2229_2" x1="192.848" y1="199.729" x2="257.226" y2="85.4405" gradientUnits="userSpaceOnUse">
<stop stop-color="#FE7062"/>
<stop offset="1" stop-color="#FF928E"/>
</linearGradient>
<linearGradient id="paint4_linear_2229_2" x1="198.392" y1="202.852" x2="262.77" y2="88.5633" gradientUnits="userSpaceOnUse">
<stop stop-color="#FE7062"/>
<stop offset="1" stop-color="#FF928E"/>
</linearGradient>
<linearGradient id="paint5_linear_2229_2" x1="250.262" y1="113.545" x2="276.082" y2="113.545" gradientUnits="userSpaceOnUse">
<stop stop-color="#FEBBBA"/>
<stop offset="1" stop-color="#FF928E"/>
</linearGradient>
<linearGradient id="paint6_linear_2229_2" x1="198.445" y1="114.992" x2="224.265" y2="114.992" gradientUnits="userSpaceOnUse">
<stop stop-color="#FEBBBA"/>
<stop offset="1" stop-color="#FF928E"/>
</linearGradient>
<linearGradient id="paint7_linear_2229_2" x1="146.625" y1="116.444" x2="172.445" y2="116.444" gradientUnits="userSpaceOnUse">
<stop stop-color="#FEBBBA"/>
<stop offset="1" stop-color="#FF928E"/>
</linearGradient>
<linearGradient id="paint8_linear_2229_2" x1="94.8086" y1="118.128" x2="120.629" y2="118.128" gradientUnits="userSpaceOnUse">
<stop stop-color="#FEBBBA"/>
<stop offset="1" stop-color="#FF928E"/>
</linearGradient>
<linearGradient id="paint9_linear_2229_2" x1="289.052" y1="34.2566" x2="234.851" y2="251.417" gradientUnits="userSpaceOnUse">
<stop stop-color="#FE7062"/>
<stop offset="1" stop-color="#FF928E"/>
</linearGradient>
<linearGradient id="paint10_linear_2229_2" x1="72.8805" y1="128.644" x2="47.7649" y2="119.229" gradientUnits="userSpaceOnUse">
<stop stop-color="#FE7062"/>
<stop offset="1" stop-color="#FF928E"/>
</linearGradient>
<linearGradient id="paint11_linear_2229_2" x1="70.6502" y1="104.084" x2="69.8551" y2="77.3832" gradientUnits="userSpaceOnUse">
<stop stop-color="#FE7062"/>
<stop offset="1" stop-color="#FF928E"/>
</linearGradient>
<linearGradient id="paint12_linear_2229_2" x1="52.4561" y1="128.56" x2="57.4644" y2="142.807" gradientUnits="userSpaceOnUse">
<stop stop-color="#FE7062"/>
<stop offset="1" stop-color="#FF928E"/>
</linearGradient>
<linearGradient id="paint13_linear_2229_2" x1="112.684" y1="84.1533" x2="83.2612" y2="73.1242" gradientUnits="userSpaceOnUse">
<stop stop-color="#FE7062"/>
<stop offset="1" stop-color="#FF928E"/>
</linearGradient>
<linearGradient id="paint14_linear_2229_2" x1="115.283" y1="61.2846" x2="128.474" y2="98.8102" gradientUnits="userSpaceOnUse">
<stop stop-color="#FE7062"/>
<stop offset="1" stop-color="#FF928E"/>
</linearGradient>
<linearGradient id="paint15_linear_2229_2" x1="100.855" y1="75.5178" x2="100.079" y2="49.4574" gradientUnits="userSpaceOnUse">
<stop stop-color="#FE7062"/>
<stop offset="1" stop-color="#FF928E"/>
</linearGradient>
<linearGradient id="paint16_linear_2229_2" x1="151.081" y1="63.5803" x2="117.143" y2="50.8587" gradientUnits="userSpaceOnUse">
<stop stop-color="#FE7062"/>
<stop offset="1" stop-color="#FF928E"/>
</linearGradient>
<linearGradient id="paint17_linear_2229_2" x1="132.261" y1="186.811" x2="127.446" y2="153.91" gradientUnits="userSpaceOnUse">
<stop stop-color="#4F52FF"/>
<stop offset="1" stop-color="#4042E2"/>
</linearGradient>
<linearGradient id="paint18_linear_2229_2" x1="75.0881" y1="298.165" x2="79.4451" y2="209.65" gradientUnits="userSpaceOnUse">
<stop stop-color="#09005D"/>
<stop offset="1" stop-color="#1A0F91"/>
</linearGradient>
<linearGradient id="paint19_linear_2229_2" x1="84.9957" y1="281.923" x2="80.8802" y2="285.762" gradientUnits="userSpaceOnUse">
<stop stop-color="#A22B25"/>
<stop offset="1" stop-color="#C0423C"/>
</linearGradient>
<linearGradient id="paint20_linear_2229_2" x1="166.268" y1="153.204" x2="159.571" y2="220.366" gradientUnits="userSpaceOnUse">
<stop stop-color="#A22B25"/>
<stop offset="1" stop-color="#C0423C"/>
</linearGradient>
<linearGradient id="paint21_linear_2229_2" x1="165.164" y1="153.094" x2="158.467" y2="220.256" gradientUnits="userSpaceOnUse">
<stop stop-color="#A22B25"/>
<stop offset="1" stop-color="#C0423C"/>
</linearGradient>
<linearGradient id="paint22_linear_2229_2" x1="164.999" y1="333.01" x2="101.642" y2="401.925" gradientUnits="userSpaceOnUse">
<stop stop-color="#09005D"/>
<stop offset="1" stop-color="#1A0F91"/>
</linearGradient>
<linearGradient id="paint23_linear_2229_2" x1="144.434" y1="338.128" x2="150.061" y2="338.128" gradientUnits="userSpaceOnUse">
<stop stop-color="#A22B25"/>
<stop offset="1" stop-color="#C0423C"/>
</linearGradient>
<linearGradient id="paint24_linear_2229_2" x1="-1592" y1="-883.093" x2="-1673.02" y2="-938.067" gradientUnits="userSpaceOnUse">
<stop stop-color="#09005D"/>
<stop offset="1" stop-color="#1A0F91"/>
</linearGradient>
<linearGradient id="paint25_linear_2229_2" x1="-1591.91" y1="-883.228" x2="-1672.93" y2="-938.203" gradientUnits="userSpaceOnUse">
<stop stop-color="#09005D"/>
<stop offset="1" stop-color="#1A0F91"/>
</linearGradient>
<linearGradient id="paint26_linear_2229_2" x1="109" y1="154.747" x2="115.696" y2="221.909" gradientUnits="userSpaceOnUse">
<stop stop-color="#A22B25"/>
<stop offset="1" stop-color="#C0423C"/>
</linearGradient>
<linearGradient id="paint27_linear_2229_2" x1="145.399" y1="205.327" x2="89.6304" y2="276.825" gradientUnits="userSpaceOnUse">
<stop stop-color="#FE7062"/>
<stop offset="1" stop-color="#FF928E"/>
</linearGradient>
<linearGradient id="paint28_linear_2229_2" x1="140.626" y1="199.205" x2="130.121" y2="199.205" gradientUnits="userSpaceOnUse">
<stop stop-color="#A22B25"/>
<stop offset="1" stop-color="#C0423C"/>
</linearGradient>
<linearGradient id="paint29_linear_2229_2" x1="136.359" y1="182.165" x2="137.192" y2="214.248" gradientUnits="userSpaceOnUse">
<stop stop-color="#A22B25"/>
<stop offset="1" stop-color="#C0423C"/>
</linearGradient>
<linearGradient id="paint30_linear_2229_2" x1="137.012" y1="175.358" x2="113.026" y2="207.089" gradientUnits="userSpaceOnUse">
<stop stop-color="#09005D"/>
<stop offset="1" stop-color="#1A0F91"/>
</linearGradient>
<linearGradient id="paint31_linear_2229_2" x1="128.235" y1="211.789" x2="130.308" y2="190.995" gradientUnits="userSpaceOnUse">
<stop stop-color="#A22B25"/>
<stop offset="1" stop-color="#C0423C"/>
</linearGradient>
<linearGradient id="paint32_linear_2229_2" x1="110.103" y1="154.637" x2="116.799" y2="221.8" gradientUnits="userSpaceOnUse">
<stop stop-color="#A22B25"/>
<stop offset="1" stop-color="#C0423C"/>
</linearGradient>
<linearGradient id="paint33_linear_2229_2" x1="309.804" y1="224.18" x2="277.616" y2="193.076" gradientUnits="userSpaceOnUse">
<stop stop-color="#09005D"/>
<stop offset="1" stop-color="#1A0F91"/>
</linearGradient>
<linearGradient id="paint34_linear_2229_2" x1="273.788" y1="215.239" x2="217.91" y2="166.232" gradientUnits="userSpaceOnUse">
<stop stop-color="#FEBBBA"/>
<stop offset="1" stop-color="#FF928E"/>
</linearGradient>
<linearGradient id="paint35_linear_2229_2" x1="317.301" y1="344.833" x2="326.7" y2="344.833" gradientUnits="userSpaceOnUse">
<stop stop-color="#09005D"/>
<stop offset="1" stop-color="#1A0F91"/>
</linearGradient>
<linearGradient id="paint36_linear_2229_2" x1="277.583" y1="381.9" x2="291.11" y2="223.806" gradientUnits="userSpaceOnUse">
<stop stop-color="#FEBBBA"/>
<stop offset="1" stop-color="#FF928E"/>
</linearGradient>
<linearGradient id="paint37_linear_2229_2" x1="273.629" y1="343.117" x2="288.838" y2="343.117" gradientUnits="userSpaceOnUse">
<stop stop-color="#09005D"/>
<stop offset="1" stop-color="#1A0F91"/>
</linearGradient>
<linearGradient id="paint38_linear_2229_2" x1="304.792" y1="384.252" x2="318.322" y2="226.117" gradientUnits="userSpaceOnUse">
<stop stop-color="#FEBBBA"/>
<stop offset="1" stop-color="#FF928E"/>
</linearGradient>
<linearGradient id="paint39_linear_2229_2" x1="277.915" y1="222.472" x2="284.679" y2="285.224" gradientUnits="userSpaceOnUse">
<stop stop-color="#FE7062"/>
<stop offset="1" stop-color="#FF928E"/>
</linearGradient>
<linearGradient id="paint40_linear_2229_2" x1="315.175" y1="225.553" x2="281.356" y2="279.663" gradientUnits="userSpaceOnUse">
<stop stop-color="#4F52FF"/>
<stop offset="1" stop-color="#4042E2"/>
</linearGradient>
<linearGradient id="paint41_linear_2229_2" x1="276.097" y1="226.067" x2="278.638" y2="207.478" gradientUnits="userSpaceOnUse">
<stop stop-color="#FEBBBA"/>
<stop offset="1" stop-color="#FF928E"/>
</linearGradient>
<linearGradient id="paint42_linear_2229_2" x1="271.573" y1="203.68" x2="285.653" y2="160.669" gradientUnits="userSpaceOnUse">
<stop stop-color="#FEBBBA"/>
<stop offset="1" stop-color="#FF928E"/>
</linearGradient>
<linearGradient id="paint43_linear_2229_2" x1="315.713" y1="218.061" x2="283.524" y2="186.957" gradientUnits="userSpaceOnUse">
<stop stop-color="#09005D"/>
<stop offset="1" stop-color="#1A0F91"/>
</linearGradient>
<linearGradient id="paint44_linear_2229_2" x1="275.952" y1="205.936" x2="290.032" y2="162.926" gradientUnits="userSpaceOnUse">
<stop stop-color="#FEBBBA"/>
<stop offset="1" stop-color="#FF928E"/>
</linearGradient>
<linearGradient id="paint45_linear_2229_2" x1="277.054" y1="211.516" x2="221.175" y2="162.509" gradientUnits="userSpaceOnUse">
<stop stop-color="#FEBBBA"/>
<stop offset="1" stop-color="#FF928E"/>
</linearGradient>
<linearGradient id="paint46_linear_2229_2" x1="238.504" y1="172.253" x2="259.662" y2="149.286" gradientUnits="userSpaceOnUse">
<stop stop-color="#FEBBBA"/>
<stop offset="1" stop-color="#FF928E"/>
</linearGradient>
<linearGradient id="paint47_linear_2229_2" x1="329.411" y1="240.432" x2="284.285" y2="240.432" gradientUnits="userSpaceOnUse">
<stop stop-color="#FEBBBA"/>
<stop offset="1" stop-color="#FF928E"/>
</linearGradient>
</defs>
</svg>
